<svg width="90" height="85" viewBox="0 0 90 85" fill="none" xmlns="http://www.w3.org/2000/svg">
<path d="M57.2 52.2001V51.3001C57.2 50.7001 57.2 50.1001 57.2 49.5001C57.2 48.7001 57.2 47.9001 57.2 47.1001V42.7001C57.2 41.4001 56.8 40.4001 55.9 39.4001C55 38.6001 53.9 38.3001 52.4 38.2001H50.5C50 38.2001 49.5 38.2001 49 38.2001H46.3C45.1 38.2001 44.1 38.9001 43.1 39.8001L41.2 41.5001V39.2001C40.6 38.4001 39.9 37.5001 39.3 36.6001L35.6 31.3001C35.2 30.7001 34.9 30.2001 34.7 29.4001V29.0001L35.3 28.3001C36 27.8001 36.4 27.2001 36.9 26.3001L37.1 25.9001C37.3 25.6001 37.4 25.3001 37.5 25.0001C37.9 22.2001 37.3 20.2001 35.5 17.5001L35 16.8001C34.6 16.2001 34.2 15.7001 33.8 15.1001L33 14.0001C32.5 13.3001 31.9 12.5001 31.4 11.8001L29 8.50014C28.4 7.70014 27.9 6.90014 27.3 6.10014L26.1 4.40013C25.3 3.20013 24.5 2.20013 23.4 1.40013C21.8 0.500132 19.5 0.600145 17.8 1.60014L16.7 2.30013C15.8 2.80013 14.8 3.30013 13.9 3.90013C12.2 4.90013 10.4 5.80013 8.7 6.80013C7.8 7.30013 6.8 7.80013 5.9 8.40013L4.4 9.20015C2.3 10.3002 0.899999 11.3001 0.299998 13.1001C-1.51247e-06 15.6001 -1.43051e-06 15.7001 3.5 20.8001L5.6 23.9001C6.3 24.9001 7 25.9001 7.6 26.9001L8.2 27.8001C8.7 28.6001 9.3 29.4002 9.8 30.2002L10.9 31.9001C11.7 33.1001 12.3 34.0001 13.3 34.8001C15.1 36.2001 17.2 36.6001 20.2 36.4001C20.8 36.3001 21.2 36.2001 21.8 36.2001H22.2L23 37.0001L23.7 38.0001C24 38.4001 24.3 38.9001 24.6 39.3001L25.6 40.8001H23.7C22.8 40.8001 21.8 40.8001 20.9 40.8001H17.5C16.1 40.8001 15.1 41.1001 13.8 41.6001C11.4 42.8001 10.3 44.7001 9.3 47.7001L9 48.4001C8.8 49.1001 8.5 49.7001 8.3 50.4001L7.9 51.6001C7.4 53.0001 6.9 54.5001 6.4 56.0001C5.9 57.4001 5.4 58.7001 5 60.1001C4.6 61.3001 4.2 62.4001 3.8 63.6001C3.5 64.3001 3.3 65.0001 3.1 65.7001C2.9 66.4001 2.6 67.0001 2.4 67.7001L2.1 68.4001C1.4 70.3001 1.2 71.6001 1.3 73.2001C1.6 74.3001 2.4 75.2001 3.9 76.0001L4.9 76.6001L4.6 77.4001C4.4 77.9001 4.2 78.4001 4 79.0001L3.8 79.6001C3.4 80.8001 3 81.9001 3 83.2001C3 83.6001 3 83.6001 3.7 84.2001C4.3 84.4001 5.1 84.5001 5.8 84.3001C6.5 83.8001 6.6 83.7001 7.3 81.6001L7.5 80.9001C8 79.6001 8.4 78.4001 8.7 77.3001L9 76.2001H12.2C12.8 76.2001 13.2 76.2001 13.7 76.0001L14 75.8001C15.1 75.3001 15.8 74.2001 16.3 73.2001L18.6 68.8001C19 68.1001 19.3 67.4001 19.6 66.7001L19.9 65.6001H20.7C21.1 65.6001 21.3 65.6001 21.6 65.6001L22.1 65.4001C23.4 64.8001 24.1 63.8001 24.7 62.7001L25.4 61.3001C25.7 60.8001 25.9 60.3001 26.2 59.8001L27.4 57.4001C27.6 57.0001 27.8 56.6001 27.9 56.2001L28.3 55.1001H29C30.5 55.1001 32.1 55.1001 33.6 55.1001C34.4 55.1001 35.2 55.1001 35.9 55.1001C36.7 55.1001 37.4 55.1001 38.2 55.1001H39.3C39.7 55.1001 40 55.1001 40.4 55.1001H41.5C42.4 55.1001 42.6 55.3001 43.1 55.9001C43.1667 56.1668 43.2667 56.3668 43.4 56.5001L43.7 56.7001C44.5 57.5001 45.5 57.8001 46.8 57.8001H48.6C49.1 57.8001 49.6 57.8001 50.1 57.8001H51.8C53.4 57.8001 54.6 57.6001 55.8 56.6001C56.9 55.4001 57 54.0001 57 52.2001H57.2ZM34.6 36.6001C35.3 37.6001 35.9 38.6001 36.5 39.6001L37.3 41.1001H31.8C31.8 41.1001 31.7 41.1001 31.6 41.1001C31.3 41.1001 31 41.1001 30.7 41.1001H30.3L30 40.7001C29.2 39.8001 29.2 39.7001 28.5 38.7001L26.9 36.5001C26.5 35.9001 26 35.3001 25.9 34.4001V33.7001C25.8 33.7001 28.8 32.1001 28.8 32.1001C29.4 31.8001 29.7 31.6001 30.5 31.6001H30.9L31.7 32.6001L34.5 36.6001H34.6ZM24 30.8001L22.5 31.6001C21.2 32.4001 19.7 33.1001 18 33.1001H17.7C15.9 32.6001 15.1 31.7001 14.2 30.3001C14 29.9001 13.8 29.6001 13.5 29.3001C13 28.5001 12.5 27.8001 12 27.0001L10.1 24.1001C9.5 23.3001 9 22.4001 8.4 21.6001C7.6 20.4001 6.7 19.1001 5.9 17.9001L4.9 16.3001C4.5 15.8001 4.2 15.2001 4.1 14.4001V13.7002C4 13.7002 4.6 13.3001 4.6 13.3001C6.8 11.9001 9.2 10.6001 11.2 9.50014C12 9.10014 12.8 8.60015 13.5 8.20015C14.9 7.40015 16.4 6.60013 17.9 5.80013L19.3 5.00014C19.9 4.70014 20.2 4.50014 21 4.50014H21.4L22 5.20015L22.6 6.00014C22.8 6.30014 23.1 6.70014 23.3 7.00014L23.7 7.50014C24.3 8.40014 24.9 9.30014 25.6 10.1001L28.8 14.6001C29.3 15.4001 29.9 16.1001 30.4 16.9001L31.5 18.4001C31.6 18.6001 31.8 18.8001 32 19.0001C32.8 20.0001 33.6 21.2001 33.9 22.5001C33.9 22.6001 33.9 23.2002 33.9 23.2002C33.9 23.7002 33.9 23.7002 33.9 24.2002V24.4001C33.4 25.5001 32.6 26.2002 31.7 26.7002L31.1 27.1001C29.7 27.9001 28.2 28.7001 26.9 29.4001H26.8C26 29.9001 25.1 30.4001 24.3 30.8001H24ZM42.2 51.8001H28.9C28.1 52.0001 27.5 52.0001 26.9 52.2001L26.6 52.4001C25.5 52.9001 25 53.9001 24.4 55.0001C24.2 55.4001 24 55.7001 23.9 56.1001C23.6 56.7001 23.3 57.3001 23 57.8001C22.7 58.4001 22.4 59.0001 22.1 59.6001L21.8 60.2001C21.5 60.9001 21.1 61.6001 20.5 62.3001L20.3 62.5001H20.1C19.4 62.8001 18.7 62.8001 18.2 62.8001H18C17.6 63.0001 17.3 63.2001 17.1 63.6001L16.1 65.6001C15.8 66.2001 15.5 66.7001 15.2 67.3001C14.8 68.0001 14.5 68.7001 14.1 69.4001L12.1 73.3001H5.1V72.3001C5.1 71.8001 5.1 71.7001 5.2 71.3001L8.5 61.8001C9.2 59.8001 9.9 57.8001 10.6 55.8001C11 54.7001 11.4 53.6001 11.8 52.5001L12.8 49.6001C12.9 49.2001 13.1 48.8001 13.2 48.3001V47.9001C13.6 47.1001 13.9 46.5001 14.3 45.9001L14.5 45.7001C15.9 44.4001 17.5 44.4001 19 44.4001H20C20.6 44.4001 21.3 44.4001 21.9 44.4001H23.9C25.2 44.4001 26.4 44.4001 27.7 44.4001H32C35.1 44.4001 38.2 44.4001 41.3 44.4001H42.3V51.7001L42.2 51.8001ZM53.5 54.5001H45.9V41.8001H53.5V54.5001Z" fill="#1480B8" fill-opacity="0.5"/>
<path d="M87.1993 56.2003C88.0993 56.6003 88.5993 57.1003 88.9993 57.9003C89.0993 58.8003 89.0993 59.6003 88.6993 60.5003C87.8993 61.3003 87.3993 61.6003 86.1993 61.7003C84.9993 61.7003 84.4993 61.3003 83.6993 60.5003C83.2993 59.6003 83.2993 58.8003 83.3993 57.9003C84.1993 56.3003 85.4993 56.0003 87.2993 56.2003H87.1993Z" fill="#1480B8" fill-opacity="0.5"/>
<path d="M75.8985 50.7999C76.7985 51.1999 77.2985 51.6999 77.6985 52.4999C77.7985 53.3999 77.7985 54.1999 77.3985 55.0999C76.5985 55.8999 76.0985 56.1999 74.8985 56.2999C73.6985 56.2999 73.1985 55.8999 72.3985 55.0999C71.9985 54.1999 71.9985 53.3999 72.0985 52.4999C72.8985 50.8999 74.1985 50.5999 75.9985 50.7999H75.8985Z" fill="#1480B8" fill-opacity="0.5"/>
<path d="M87.1993 45.5001C88.0993 45.9001 88.5993 46.4001 88.9993 47.2001C89.0993 48.1001 89.0993 48.9001 88.6993 49.8001C87.8993 50.6001 87.3993 50.9001 86.1993 51.0001C84.9993 51.0001 84.4993 50.6001 83.6993 49.8001C83.2993 48.9001 83.2993 48.1001 83.3993 47.2001C84.1993 45.6001 85.4993 45.3001 87.2993 45.5001H87.1993Z" fill="#1480B8" fill-opacity="0.5"/>
<path d="M64.6993 45.5001C65.5993 45.9001 66.0993 46.4001 66.4993 47.2001C66.5993 48.1001 66.5993 48.9001 66.1993 49.8001C65.3993 50.6001 64.8993 50.9001 63.6993 51.0001C62.4993 51.0001 61.9993 50.6001 61.1993 49.8001C60.7993 48.9001 60.7993 48.1001 60.8993 47.2001C61.6993 45.6001 62.9993 45.3001 64.7993 45.5001H64.6993Z" fill="#1480B8" fill-opacity="0.5"/>
<path d="M75.8985 40.0997C76.7985 40.4997 77.2985 40.9997 77.6985 41.7997C77.7985 42.6997 77.7985 43.4997 77.3985 44.3997C76.5985 45.1997 76.0985 45.4997 74.8985 45.5997C73.6985 45.5997 73.1985 45.1997 72.3985 44.3997C71.9985 43.4997 71.9985 42.6997 72.0985 41.7997C72.8985 40.1997 74.1985 39.8997 75.9985 40.0997H75.8985Z" fill="#1480B8" fill-opacity="0.5"/>
<path d="M87.1993 34.7999C88.0993 35.1999 88.5993 35.6999 88.9993 36.4999C89.0993 37.3999 89.0993 38.1999 88.6993 39.0999C87.8993 39.8999 87.3993 40.1999 86.1993 40.2999C84.9993 40.2999 84.4993 39.8999 83.6993 39.0999C83.2993 38.1999 83.2993 37.3999 83.3993 36.4999C84.1993 34.8999 85.4993 34.5999 87.2993 34.7999H87.1993Z" fill="#1480B8" fill-opacity="0.5"/>
</svg>
