<svg width="1440" height="830" viewBox="0 0 1440 830" fill="none" xmlns="http://www.w3.org/2000/svg">
<g filter="url(#filter0_b_1441_99)">
<rect width="1440" height="830" rx="50" fill="#E3E3E3" fill-opacity="0.4"/>
</g>
<mask id="path-2-inside-1_1441_99" fill="white">
<path fill-rule="evenodd" clip-rule="evenodd" d="M1257.54 14H54C31.9086 14 14 31.9086 14 54V776C14 798.091 31.9086 816 54 816H510.918C516.424 815.135 521.705 813.093 526.389 809.985L552.978 792.339C561.173 786.901 570.79 784 580.625 784H836.616C846.342 784 855.857 786.837 863.995 792.162L887.978 807.857C895.725 812.927 904.72 815.741 913.957 816H1386C1408.09 816 1426 798.091 1426 776V94.5797C1424.35 85.2003 1416.16 78.0746 1406.3 78.0746H1320C1313.34 78.0746 1307.12 74.7643 1303.41 69.2436L1272.09 22.7265C1268.76 17.7754 1263.41 14.602 1257.54 14Z"/>
</mask>
<path fill-rule="evenodd" clip-rule="evenodd" d="M1257.54 14H54C31.9086 14 14 31.9086 14 54V776C14 798.091 31.9086 816 54 816H510.918C516.424 815.135 521.705 813.093 526.389 809.985L552.978 792.339C561.173 786.901 570.79 784 580.625 784H836.616C846.342 784 855.857 786.837 863.995 792.162L887.978 807.857C895.725 812.927 904.72 815.741 913.957 816H1386C1408.09 816 1426 798.091 1426 776V94.5797C1424.35 85.2003 1416.16 78.0746 1406.3 78.0746H1320C1313.34 78.0746 1307.12 74.7643 1303.41 69.2436L1272.09 22.7265C1268.76 17.7754 1263.41 14.602 1257.54 14Z" fill="#FDFDFD" fill-opacity="0.24"/>
<path d="M1257.54 14L1257.64 13.0052L1257.59 13H1257.54V14ZM510.918 816V817H510.996L511.073 816.988L510.918 816ZM526.389 809.985L526.942 810.818L526.389 809.985ZM552.978 792.339L552.425 791.506H552.425L552.978 792.339ZM863.995 792.162L863.448 792.999L863.995 792.162ZM887.978 807.857L887.43 808.694L887.978 807.857ZM913.957 816L913.929 817L913.943 817H913.957V816ZM1426 94.5797H1427V94.4922L1426.98 94.4061L1426 94.5797ZM1303.41 69.2436L1302.58 69.8021L1303.41 69.2436ZM1272.09 22.7265L1271.26 23.2849V23.285L1272.09 22.7265ZM1257.54 13H54V15H1257.54V13ZM54 13C31.3563 13 13 31.3563 13 54H15C15 32.4609 32.4609 15 54 15V13ZM13 54V776H15V54H13ZM13 776C13 798.644 31.3563 817 54 817V815C32.4609 815 15 797.539 15 776H13ZM54 817H510.918V815H54V817ZM511.073 816.988C516.721 816.101 522.138 814.006 526.942 810.818L525.836 809.152C521.273 812.18 516.128 814.17 510.763 815.012L511.073 816.988ZM526.942 810.818L553.531 793.172L552.425 791.506L525.836 809.152L526.942 810.818ZM553.531 793.172C561.562 787.843 570.987 785 580.625 785V783C570.593 783 560.784 785.959 552.425 791.506L553.531 793.172ZM580.625 785H836.616V783H580.625V785ZM836.616 785C846.148 785 855.472 787.78 863.448 792.999L864.543 791.326C856.242 785.893 846.537 783 836.616 783V785ZM863.448 792.999L887.43 808.694L888.526 807.02L864.543 791.326L863.448 792.999ZM887.43 808.694C895.333 813.865 904.508 816.736 913.929 817L913.985 815C904.933 814.747 896.118 811.989 888.526 807.02L887.43 808.694ZM913.957 817H1386V815H913.957V817ZM1386 817C1408.64 817 1427 798.644 1427 776H1425C1425 797.539 1407.54 815 1386 815V817ZM1427 776V94.5797H1425V776H1427ZM1426.98 94.4061C1425.25 84.5571 1416.65 77.0746 1406.3 77.0746V79.0746C1415.66 79.0746 1423.44 85.8435 1425.02 94.7532L1426.98 94.4061ZM1406.3 77.0746H1320V79.0746H1406.3V77.0746ZM1320 77.0746C1313.67 77.0746 1307.77 73.9298 1304.24 68.6852L1302.58 69.8021C1306.48 75.5987 1313.01 79.0746 1320 79.0746V77.0746ZM1304.24 68.6852L1272.92 22.1681L1271.26 23.285L1302.58 69.8021L1304.24 68.6852ZM1272.92 22.1681C1269.42 16.9693 1263.81 13.6374 1257.64 13.0052L1257.44 14.9948C1263.02 15.5667 1268.09 18.5814 1271.26 23.2849L1272.92 22.1681Z" fill="#B6B6B6" mask="url(#path-2-inside-1_1441_99)"/>
<defs>
<filter id="filter0_b_1441_99" x="-264" y="-264" width="1968" height="1358" filterUnits="userSpaceOnUse" color-interpolation-filters="sRGB">
<feFlood flood-opacity="0" result="BackgroundImageFix"/>
<feGaussianBlur in="BackgroundImageFix" stdDeviation="132"/>
<feComposite in2="SourceAlpha" operator="in" result="effect1_backgroundBlur_1441_99"/>
<feBlend mode="normal" in="SourceGraphic" in2="effect1_backgroundBlur_1441_99" result="shape"/>
</filter>
</defs>
</svg>
