<svg width="81" height="81" viewBox="0 0 81 81" fill="none" xmlns="http://www.w3.org/2000/svg">
<g clip-path="url(#clip0_9_108)">
<g opacity="0.5">
<path d="M7.50009 24.1997C5.10009 21.7997 3.00009 19.6997 0.800091 17.4997C0.300091 16.9997 -0.199909 16.4997 0.100091 15.7997C0.300091 15.2997 0.800091 14.6997 1.20009 14.4997C9.30009 10.5997 17.4001 6.79967 25.6001 2.89967C27.4001 2.09967 29.2001 1.19967 31.0001 0.399668C32.2001 -0.200332 32.7001 -0.100332 33.7001 0.899668C35.8001 2.99967 38.0001 5.19967 40.2001 7.39967C40.4001 7.19967 40.6001 6.99967 40.9001 6.79967C42.9001 4.79967 44.9001 2.79967 46.9001 0.799668C47.8001 -0.100332 48.3001 -0.200332 49.4001 0.399668C59.3001 5.09967 69.1001 9.69967 79.0001 14.3997C80.7001 15.1997 80.9001 16.2997 79.5001 17.6997C77.4001 19.7997 75.3001 21.8997 73.1001 24.0997C73.3001 24.2997 73.5001 24.4997 73.7001 24.6997C75.7001 26.6997 77.7001 28.6997 79.7001 30.6997C80.9001 31.8997 80.7001 32.9997 79.2001 33.7997C77.2001 34.7997 75.2001 35.6997 73.1001 36.6997C72.6001 36.8997 72.5001 37.1997 72.5001 37.6997C72.5001 45.7997 72.5001 53.9997 72.5001 62.0997C72.5001 63.1997 72.1001 63.8997 71.1001 64.3997C61.3001 69.5997 51.4001 74.6997 41.6001 79.8997C40.7001 80.3997 40.0001 80.3997 39.1001 79.8997C29.4001 74.6997 19.6001 69.5997 9.80009 64.4997C8.70009 63.8997 8.20009 63.1997 8.20009 61.8997C8.20009 53.8997 8.20009 45.8997 8.20009 37.7997C8.20009 37.1997 8.00009 36.8997 7.50009 36.6997C5.50009 35.7997 3.40009 34.7997 1.40009 33.7997C-0.0999091 33.0997 -0.299909 31.9997 0.900091 30.7997C2.90009 28.7997 4.90009 26.7997 6.90009 24.7997C7.10009 24.5997 7.40009 24.4997 7.70009 24.1997H7.50009ZM41.8001 75.8997C42.1001 75.7997 42.3001 75.6997 42.4001 75.5997C51.1001 70.9997 59.8001 66.3997 68.5001 61.8997C69.0001 61.5997 69.0001 61.2997 69.0001 60.8997C69.0001 53.6997 69.0001 46.4997 69.0001 39.1997C69.0001 38.9997 69.0001 38.6997 69.0001 38.3997C68.6001 38.5997 68.2001 38.6997 67.9001 38.8997C61.7001 41.7997 55.5001 44.7997 49.3001 47.6997C48.1001 48.2997 47.6001 48.1997 46.7001 47.1997C45.3001 45.7997 43.8001 44.2997 42.4001 42.8997C42.2001 42.6997 42.1001 42.5997 41.8001 42.3997V75.7997V75.8997ZM11.3001 38.4997C11.3001 38.6997 11.3001 38.7997 11.3001 38.8997C11.3001 46.2997 11.3001 53.6997 11.3001 61.0997C11.3001 61.5997 11.5001 61.7997 11.9001 61.9997C19.0001 65.6997 26.0001 69.3997 33.1001 73.0997C34.9001 73.9997 36.7001 74.9997 38.5001 75.8997V42.3997C36.8001 44.0997 35.2001 45.6997 33.6001 47.2997C32.6001 48.2997 32.2001 48.2997 31.0001 47.7997C25.7001 45.2997 20.3001 42.6997 15.0001 40.1997C13.8001 39.5997 12.6001 39.0997 11.3001 38.4997ZM66.8001 24.0997C66.5001 23.9997 66.5001 23.8997 66.4001 23.8997C57.8001 19.7997 49.2001 15.7997 40.6001 11.6997C40.3001 11.5997 39.8001 11.6997 39.5001 11.6997C32.1001 15.1997 24.8001 18.5997 17.4001 22.0997C16.1001 22.6997 14.8001 23.2997 13.4001 23.9997C13.8001 24.1997 14.0001 24.2997 14.2001 24.3997C22.6001 28.3997 30.9001 32.2997 39.3001 36.2997C39.8001 36.5997 40.3001 36.4997 40.8001 36.2997C47.1001 33.2997 53.5001 30.2997 59.8001 27.2997C62.1001 26.1997 64.3001 25.1997 66.7001 23.9997L66.8001 24.0997ZM75.9001 31.5997C74.1001 29.7997 72.4001 28.1997 70.8001 26.4997C70.4001 26.0997 70.1001 26.0997 69.6001 26.2997C62.4001 29.6997 55.1001 33.1997 47.9001 36.5997C46.3001 37.3997 44.6001 38.1997 42.9001 38.9997C44.6001 40.6997 46.3001 42.2997 47.9001 43.9997C48.4001 44.4997 48.7001 44.4997 49.3001 44.1997C56.1001 40.9997 62.9001 37.6997 69.7001 34.4997C71.7001 33.4997 73.7001 32.5997 75.9001 31.5997ZM4.40009 16.4997C4.70009 16.7997 4.80009 16.9997 5.00009 17.1997C6.50009 18.6997 7.90009 20.0997 9.40009 21.5997C9.90009 22.0997 10.2001 22.0997 10.8001 21.7997C19.4001 17.6997 28.0001 13.5997 36.6001 9.49967C36.8001 9.39967 37.0001 9.29967 37.3001 9.09967C35.6001 7.39967 33.9001 5.79967 32.3001 4.09967C31.8001 3.59967 31.5001 3.59967 30.9001 3.89967C25.9001 6.29967 20.8001 8.69967 15.8001 11.0997C12.0001 12.8997 8.20009 14.6997 4.30009 16.4997H4.40009ZM75.9001 16.4997C75.5001 16.2997 75.3001 16.1997 75.1001 16.0997C71.7001 14.4997 68.3001 12.8997 65.0001 11.2997C59.7001 8.79967 54.5001 6.29967 49.2001 3.79967C49.0001 3.69967 48.5001 3.59967 48.4001 3.79967C46.6001 5.49967 44.8001 7.29967 43.0001 9.19967C43.3001 9.39967 43.5001 9.49967 43.8001 9.59967C47.8001 11.4997 51.7001 13.3997 55.7001 15.1997C60.4001 17.3997 65.1001 19.6997 69.8001 21.8997C70.0001 21.9997 70.5001 22.0997 70.7001 21.8997C72.5001 20.1997 74.2001 18.3997 76.0001 16.5997L75.9001 16.4997ZM4.40009 31.5997C4.60009 31.6997 4.70009 31.7997 4.80009 31.7997C13.7001 35.9997 22.5001 40.1997 31.4001 44.3997C31.8001 44.5997 32.0001 44.3997 32.3001 44.1997C33.9001 42.5997 35.5001 40.9997 37.1001 39.3997C37.2001 39.2997 37.3001 39.0997 37.4001 38.9997C37.1001 38.7997 36.8001 38.6997 36.6001 38.5997C32.2001 36.4997 27.8001 34.3997 23.4001 32.3997C19.2001 30.3997 15.0001 28.3997 10.7001 26.3997C10.4001 26.2997 10.0001 26.1997 9.80009 26.3997C8.00009 28.0997 6.30009 29.8997 4.50009 31.6997L4.40009 31.5997Z" fill="#79C0E4"/>
</g>
</g>
<defs>
<clipPath id="clip0_9_108">
<rect width="80.3" height="80.2" fill="white"/>
</clipPath>
</defs>
</svg>
