<svg width="80" height="77" viewBox="0 0 80 77" fill="none" xmlns="http://www.w3.org/2000/svg">
<path d="M64.5999 37.3002L64.1999 36.9002C63.6999 36.4002 63.1999 35.9002 62.7999 35.4002C62.3999 35.0002 61.8999 34.5002 61.4999 34.1002C60.5999 33.2002 59.7999 32.4002 58.8999 31.5002L55.7999 28.4002C53.8999 26.5002 51.8999 24.5002 49.9999 22.6002C48.2999 20.9002 46.6999 19.3002 44.9999 17.6002C43.0999 15.7002 41.0999 13.7002 39.1999 11.8002L36.0999 8.70017C35.1999 7.80017 34.3999 6.90017 33.4999 6.10017L32.3999 5.00017C31.8999 4.50017 31.3999 4.00017 30.8999 3.50017L30.3999 3.00017C29.6999 2.30017 29.0999 1.70017 28.2999 1.20017C27.5999 0.900172 26.9999 0.900172 26.1999 1.30017C25.5999 1.80017 25.3999 2.30017 25.1999 3.10017C25.2999 4.10017 25.5999 4.50017 26.3999 5.20017C26.7999 5.60017 27.1999 6.00017 27.5999 6.40017L28.9999 8.10017L7.99988 29.2002C6.99988 30.2002 5.89987 31.4002 4.79987 32.5002L4.49988 32.8002C2.19988 35.3002 0.899902 38.7002 0.899902 42.4002C0.999902 47.5002 3.49985 51.1002 7.59985 55.1002C8.09985 55.6002 8.59985 56.1002 9.09985 56.6002C9.99985 57.5002 10.7999 58.3002 11.6999 59.2002C12.6999 60.2002 13.6999 61.2002 14.6999 62.2002L20.8999 68.4002C22.2999 69.8002 23.6999 71.3002 25.4999 72.2002C29.1999 74.0002 33.2999 74.3002 36.9999 73.2002L37.5999 73.0002C39.5999 72.2002 41.3999 70.9002 43.4999 68.8002L44.1999 68.1002C44.7999 67.5002 45.3999 66.9002 46.0999 66.2002C46.7999 65.5002 47.3999 64.9002 48.0999 64.2002C49.1999 63.1002 50.2999 62.0002 51.3999 60.9002C52.6999 59.6002 53.9999 58.3002 55.1999 57.0002C56.5999 55.6002 57.9999 54.2002 59.2999 52.8002L63.2999 48.8002C65.3999 46.7002 66.9999 45.1002 66.9999 42.3002C66.9999 40.4002 66.2999 38.9002 64.5999 37.2002V37.3002ZM59.1999 46.9002L41.9999 64.3002C39.1999 67.1002 36.4999 69.8002 31.9999 69.8002C29.2999 69.6002 26.8999 68.4002 24.5999 66.1002L24.0999 65.6002C23.4999 65.0002 22.9999 64.5002 22.3999 63.9002L20.8999 62.4002C20.0999 61.6002 19.1999 60.7002 18.3999 59.9002C17.3999 58.9002 16.4999 58.0002 15.4999 57.0002C14.5999 56.1002 13.5999 55.1002 12.6999 54.2002L9.59985 51.0002C8.09985 49.5002 6.79985 48.1002 6.09985 45.9002L5.69989 44.6002H59.8999V45.5002C59.9999 46.2002 59.7999 46.5002 59.2999 46.9002H59.1999ZM5.3999 40.3002L5.99988 38.9002C7.29988 36.1002 7.29988 36.0002 9.49988 33.8002L10.1999 33.1002C10.7999 32.5002 11.4999 31.8002 12.0999 31.2002L14.0999 29.2002C15.1999 28.1002 16.2999 27.0002 17.3999 25.8002C18.7999 24.4002 20.2999 22.9002 21.6999 21.5002L30.7999 12.4002C31.1999 12.0002 31.5999 11.6002 32.1999 11.6002C32.7999 11.6002 33.2999 12.0002 33.6999 12.5002L57.1999 36.2002C57.9999 37.0002 58.7999 37.9002 59.4999 38.7002L60.8999 40.3002H5.29987H5.3999Z" fill="#79C0E4" fill-opacity="0.5"/>
<path d="M63.8 46.9996C60.3 51.1996 58.1 54.9996 56.9 58.7996V59.1996C56.3 60.7996 56 62.2996 56 63.9996V64.5996C56 65.4996 56 66.3996 56.2 67.2996C57 70.1996 58.8 72.7996 61.2 74.3996C64.1 76.0996 67.3 76.4996 70.7 75.6996C73.5 74.8996 76 72.9996 77.6 70.3996C79.3 67.1996 79.5 63.5996 78.3 59.2996C76.5 53.5996 72.7 46.3996 68.5 44.1996C68.2 44.1996 67.9 44.0996 67.6 44.0996C66.8 44.0996 66 44.4996 65.3 45.2996L65 45.5996C64.7 45.9996 64.4 46.2996 64.1 46.6996L63.8 47.0996V46.9996ZM65.1 52.3996L65.4 51.9996C65.8 51.4996 66.1 50.9996 66.5 50.4996L66.8 50.0996H68.2L68.5 50.4996C68.7 50.7996 68.9 51.0996 69.1 51.3996C72 55.2996 75 60.0996 74.6 65.2996C74.3 67.2996 73.3 68.8996 71.6 70.2996C70.3 71.1996 68.9 71.5996 67.3 71.5996C65.7 71.5996 66.5 71.5996 66 71.5996H65.9C63.8 70.9996 62.2 69.7996 61.1 67.8996C60.1 65.5996 60.3 62.8996 60.8 61.0996L61 60.5996C61.9 57.8996 63.3 55.1996 65.2 52.3996H65.1Z" fill="#79C0E4" fill-opacity="0.5"/>
</svg>
