<svg width="85" height="81" viewBox="0 0 85 81" fill="none" xmlns="http://www.w3.org/2000/svg">
<path d="M22.6 63.9997C23.7 63.0997 24.9 62.1997 26 61.2997L26.3 61.0997L26.7 61.3997C27.1 61.6997 27.6 61.9997 28 62.2997C29 62.9997 30.1 63.7997 31.4 64.3997L31.9 64.5997C35.8 66.2997 40.3 66.7997 44.4 65.7997H45C46.9 65.0997 48.8 64.3997 50.6 63.2997C55 60.4997 58 56.2997 59.1 51.2997L59.5 49.5997H65.5V49.8997C66.2333 51.3664 66.8 52.3997 67.2 52.9997C68.8 54.9997 70.9 56.1997 73.2 56.5997C76.6 56.7997 79.1 56.1997 81.1 54.5997C83.3 52.6997 84.4 50.5997 84.5 48.3997C84.5 45.2997 83.8 43.1997 82.1 41.3997C80.1 39.4997 78 38.4997 75.4 38.4997C72.4 38.4997 70.1 39.2997 68.4 40.8997L68.1 41.1997C67.3 41.9997 66.7 42.8997 66.2 43.9997L65.6 45.4997H59.6V45.0997C58.5 39.9997 56.4 36.2997 53 33.4997L52.6 33.0997C49.2 30.2997 45.1 28.8997 40.4 28.8997H40.1C39 28.8997 37.7 28.8997 36.4 29.1997H36C35.7 29.3997 35.3 29.3997 35 29.4997H34.7C33.6 29.8997 32.5 30.2997 31.1 30.8997C30.9 30.8997 30.6 31.0997 30.3 30.8997C30 30.6997 29.8 30.4997 29.7 30.3997C29.2 29.7997 28.7 29.1997 28.3 28.5997L27.8 27.8997C27 26.7997 26.2 25.7997 25.4 24.6997C24.8 23.9997 24.3 23.1997 23.7 22.4997C22.9 21.4997 22.3 20.6997 21.7 19.7997L21.5 19.4997L21.8 19.1997C23.7 17.0997 24.7 14.5997 24.7 11.5997C24.7 8.49974 23.6 5.79974 21.8 3.99974L21.4 3.69974C20.8 3.09974 20.3 2.59974 19.7 2.19974C15.4 -0.900259 8.29998 -0.600259 4.69998 2.89974L3.89998 3.69974C1.79998 5.69974 0.599984 8.39974 0.599984 11.6997C0.599984 14.7997 1.69998 17.4997 3.49998 19.2997L3.89998 19.5997C4.79998 20.4997 5.69998 21.2997 7.09998 21.9997C10.2 23.3997 13.5 23.5997 16.3 22.6997L18 22.1997L18.6 22.9997L19.1 23.5997C19.3 23.7997 19.5 24.0997 19.7 24.2997L22.9 28.4997C23.4 29.1997 23.9 29.7997 24.4 30.3997L26 32.3997C26.3 32.7997 26.5 33.0997 26.6 33.4997C26.7 34.0997 26.6 34.2997 26.3 34.6997C24 36.9997 22.3 39.5997 21.5 42.3997L21.3 42.9997C20 47.2997 20.7 52.1997 23.3 57.0997L23.8 57.9997L23.4 58.2997C22.6 58.8997 21.8 59.4997 20.7 60.2997L20.2 60.6997C19 61.5997 17.8 62.5997 16.5 63.6997L15.8 64.2997L15.5 64.0997C13.8 63.0997 11.9 62.5997 9.99998 62.5997C8.09998 62.5997 8.69998 62.5997 7.99998 62.7997C5.49998 63.3997 3.39998 64.7997 1.89998 66.8997C0.599985 69.0997 0.199984 71.5997 0.799984 74.0997C1.59998 76.5997 3.19998 78.5997 5.39998 79.7997C7.89998 80.9997 10.6 81.1997 13.1 80.4997C15.7 79.5997 17.6 77.9997 18.7 75.7997C19.8 73.4997 20 70.8997 19.2 68.9997L18.6 67.4997L18.8 67.2997C19.2 66.8997 19.6 66.4997 20 66.1997L20.9 65.4997C21.4 65.0997 22 64.6997 22.5 64.1997L22.6 63.9997ZM70.2 45.0997L70.4 44.7997C70.5333 44.5997 70.6667 44.3997 70.8 44.1997C72.5 42.3997 75.3 41.8997 77.4 42.9997L77.8 43.1997C78.9 43.8997 79.7 44.8997 80.2 46.2997C80.4 47.8997 80.2 48.9997 79.7 50.0997L79.5 50.3997C78.8 51.4997 77.8 52.1997 76.3 52.6997C75.8 52.6997 75.4 52.7997 74.9 52.7997C73.9 52.7997 73.1 52.5997 72.4 52.1997L72 51.9997C70.9 51.2997 70.1 50.2997 69.6 48.8997C69.4 47.2997 69.6 46.1997 70.1 45.0997H70.2ZM18.4 16.7997L18.1 17.0997C16.6 18.4997 14.9 19.1997 12.9 19.1997C10.5 19.1997 8.59998 18.4997 7.19998 17.1997L6.89998 16.8997C5.49998 15.3997 4.69998 13.7997 4.69998 11.8997C4.69998 9.59974 5.39998 7.79974 6.69998 6.39974L6.99998 6.09974C8.49998 4.69974 10.2 3.99974 12.2 3.99974C14.6 3.99974 16.5 4.69974 17.9 5.99974L18.2 6.29974C19.6 7.79974 20.4 9.39974 20.4 11.2997C20.4 13.5997 19.7 15.3997 18.4 16.7997ZM28.8 37.4997C34 32.2997 42.4 31.2997 48.6 35.1997C52 37.4997 54.4 40.8997 55.2 44.6997C55.9 48.6997 55 52.6997 52.7 55.9997C50.3 59.1997 46.6 61.4997 42.6 62.0997C41.8 62.0997 41.1 62.1997 40.3 62.1997C36.7 62.1997 33.4 61.1997 30.7 59.1997C27.4 56.6997 25.3 53.1997 24.9 49.4997C24.6 44.5997 25.9 40.6997 28.8 37.4997ZM14.9 74.0997L14.7 74.3997C14 75.4997 13 76.1997 11.5 76.6997C11 76.6997 10.6 76.7997 10.1 76.7997C9.09999 76.7997 8.29998 76.5997 7.59998 76.1997L7.19998 75.9997C6.09998 75.2997 5.29998 74.2997 4.79998 72.8997C4.59998 71.2997 4.79998 70.1997 5.29998 69.0997L5.49998 68.7997C5.63332 68.5997 5.76665 68.3997 5.89998 68.1997C7.59998 66.3997 10.4 65.8997 12.5 66.9997L12.9 67.1997C14 67.8997 14.8 68.8997 15.3 70.2997C15.5 71.8997 15.3 72.9997 14.8 74.0997H14.9Z" fill="#79C0E4" fill-opacity="0.5"/>
</svg>
