<svg width="79" height="79" viewBox="0 0 79 79" fill="none" xmlns="http://www.w3.org/2000/svg">
<path d="M70.8001 15.2L70.4001 14.8C68.8001 12.8 66.9 10.9 64.6 8.89999L64.3001 8.70001C59.3001 4.60001 53.3 1.90001 47.1 0.700012H46.7C44.5 0.200012 42.1001 0 39.8001 0C37.5001 0 35.5001 0.200006 33.5001 0.600006H33.1C26.6 1.90001 20.8 4.50001 16.1 8.20001L15.7 8.60001C13.7 10.2 11.8001 12.1 9.8001 14.4L9.60003 14.7C5.50003 19.7 2.80003 25.7 1.60003 31.9V32.3C0.700028 36.6 0.700077 41.4 1.40008 45.5V45.9C2.70008 52.4 5.30005 58.2 9.00005 62.9L9.40008 63.3C11.0001 65.3 12.8 67.2 15.2 69.2L15.5001 69.4C20.5001 73.5 26.5 76.2 32.7 77.4H33.1C37.4 78.3 42.2001 78.3 46.3001 77.6H46.7C53.2 76.3 59 73.7 63.7 70L64.1 69.6C66.1 68 68.0001 66.1 70.0001 63.8L70.2 63.5C74.3 58.5 77 52.6 78.2 46.3V45.9C79.1 41.6 79.1001 36.8 78.4001 32.7V32.3C77.1001 25.8 74.5001 20 70.8001 15.3V15.2ZM74.5001 42.4V42.9C73.6001 49.3 71.3001 55.1 67.4001 60.1L67.2 60.4C66.3 61.5 65.5 62.4 64.7 63.2L64.3001 63.6C63.4001 64.5 62.3 65.5 61.1 66.4L60.6 66.7C58.8 68.1 57.1001 69.1 55.5001 69.9L55.2 70.1C50.3 72.5 45.1001 73.7 40.0001 73.7C34.9001 73.7 37.8 73.7 36.6 73.5H36.1C29.7 72.6 23.9001 70.3 18.9001 66.4L18.6 66.2C17.5 65.3 16.6001 64.5 15.8001 63.7L15.4001 63.3C14.5001 62.4 13.5 61.3 12.6 60.1L12.3001 59.6C10.9001 57.8 9.90003 56.1 9.10003 54.5L8.90008 54.2C6.00008 48.2 4.80005 41.8 5.50005 35.6V35.1C6.40005 28.7 8.70003 22.9 12.6 17.9L12.8001 17.6C13.7001 16.5 14.5001 15.6 15.3001 14.8L15.7 14.4C16.6 13.5 17.7001 12.5 18.9001 11.6L19.4001 11.3C21.2001 9.89999 22.9001 8.90001 24.5001 8.10001L24.8001 7.89999C30.8001 4.99999 37.2001 3.8 43.4001 4.5H43.9001C50.3001 5.4 56.1 7.70001 61.1 11.6L61.4001 11.8C62.5001 12.7 63.4 13.5 64.2 14.3L64.6 14.7C65.5 15.6 66.5001 16.7 67.4001 17.9L67.7 18.4C69.1 20.2 70.1001 21.9 70.9001 23.5L71.1 23.8C74 29.8 75.2001 36.2 74.5001 42.4Z" fill="#79C0E4" fill-opacity="0.5"/>
<path d="M37.6001 24.2C37.6001 24.8 37.6001 25.4 37.6001 26C37.6001 27 37.6001 28 37.6001 29C37.6001 30.2 37.6001 31.3 37.6001 32.5C37.6001 33.8 37.6001 35 37.6001 36.3V40.9C37.6001 41.3 37.6001 41.3 37.6001 41.6C37.9001 42.3 38.3001 42.7 39.1001 43.3L40.2001 44.1C40.9001 44.6 41.6002 45.1 42.3002 45.7C43.6002 46.7 44.8001 47.6 46.1001 48.5C46.8001 49 47.5001 49.5 48.2001 50L50.1001 51.5C51.0001 52.2 52.0001 53 53.0001 53.2C54.0001 53.2 54.6002 53 55.3002 52.4C55.7002 51.6 55.9001 51 55.9001 50.4C55.8001 49.6 55.3001 49.1 54.4001 48.4C53.5001 47.7 52.5001 47 51.6001 46.3C50.3001 45.3 49.0001 44.3 47.7001 43.4L47.0001 42.9C46.6001 42.6 46.3001 42.3 45.9001 42.1C45.2001 41.7 44.2002 41.1 43.3002 40.2H43.2001C43.2001 40.1 43.2001 39.9 43.2001 39.9C42.4001 37.8 42.3001 37.7 42.5001 35.3C42.5001 34.9 42.5001 34.5 42.5001 34.1C42.5001 33 42.5001 31.9 42.5001 30.8C42.5001 29.6 42.5001 28.3 42.5001 27.1V26.8C42.5001 25.7 42.5001 24.6 42.5001 23.5V20.8C42.5001 20.6 42.5001 20.4 42.5001 20.2C42.3001 19.6 42.0001 19.2 41.5001 18.9C40.5001 18.4 39.6001 18.4 38.4001 19.1C37.8001 19.8 37.6001 20.5 37.6001 21.6V22.1C37.6001 22.9 37.6001 23.5 37.6001 24.2Z" fill="#79C0E4" fill-opacity="0.5"/>
</svg>
