<svg width="78" height="75" viewBox="0 0 78 75" fill="none" xmlns="http://www.w3.org/2000/svg">
<path d="M77.6998 59.9001C77.6998 58.5001 77.6998 57.1001 77.6998 55.7001V52.3001V50.8001C77.6998 47.7001 77.6998 44.6001 77.6998 41.6001C77.6998 39.0001 77.6998 36.3001 77.6998 33.7001C77.6998 30.6001 77.6998 27.5001 77.6998 24.4001V22.9001C77.6998 21.8001 77.6998 20.6001 77.6998 19.5001C77.6998 18.1001 77.6998 16.7001 77.6998 15.3001C77.6998 14.6001 77.6998 13.9001 77.6998 13.2001C77.6998 12.5001 77.6998 11.9001 77.6998 11.2001V10.5001C77.6998 7.4001 76.8999 5.1001 74.9999 3.2001C73.0999 1.5001 70.7999 0.600098 67.9999 0.600098C67.5999 0.600098 67.2999 0.600098 66.8999 0.600098C66.1999 0.600098 65.4999 0.600098 64.8999 0.600098C64.1999 0.600098 63.3998 0.600098 62.6998 0.600098C61.1998 0.600098 59.7999 0.600098 58.2999 0.600098C57.0999 0.600098 55.8998 0.600098 54.6998 0.600098H53.0999C49.8999 0.600098 46.5999 0.600098 43.3999 0.600098C40.5999 0.600098 37.7999 0.600098 35.0999 0.600098C31.8999 0.600098 28.5999 0.600098 25.3999 0.600098H20.2999C18.7999 0.600098 17.3999 0.600098 15.8999 0.600098H15.6998C14.9998 0.600098 14.2998 0.600098 13.6998 0.600098C12.9998 0.600098 12.2999 0.600098 11.5999 0.600098H10.7999C10.7999 0.600098 10.7998 0.600098 10.6998 0.600098C7.49983 0.600098 5.09985 1.4001 3.09985 3.2001C1.29985 5.0001 0.399902 7.2001 0.399902 9.9001C0.399902 10.2001 0.399902 10.6001 0.399902 10.9001C0.399902 11.5001 0.399902 12.2001 0.399902 12.8001C0.399902 13.5001 0.399902 14.2001 0.399902 14.9001C0.399902 16.3001 0.399902 17.7001 0.399902 19.1001V22.5001V24.0001C0.399902 27.1001 0.399902 30.2001 0.399902 33.2001C0.399902 35.8001 0.399902 38.5001 0.399902 41.1001C0.399902 44.2001 0.399902 47.3001 0.399902 50.4001V51.9001C0.399902 53.0001 0.399902 54.2001 0.399902 55.3001C0.399902 56.7001 0.399902 58.1001 0.399902 59.5001C0.399902 60.2001 0.399902 60.9001 0.399902 61.6001C0.399902 62.3001 0.399902 62.9001 0.399902 63.6001V64.3001C0.399902 67.4001 1.19985 69.7001 3.09985 71.6001C5.09985 73.3001 7.39985 74.2001 10.0999 74.2001C10.4999 74.2001 10.7998 74.2001 11.1998 74.2001C11.8998 74.2001 12.5999 74.2001 13.2999 74.2001C13.9999 74.2001 14.7999 74.2001 15.4999 74.2001C16.9999 74.2001 18.3999 74.2001 19.8999 74.2001C24.6999 74.2001 29.4998 74.2001 34.1998 74.2001C37.1998 74.2001 40.1999 74.2001 43.0999 74.2001H68.9999C71.0999 74.2001 73.2999 73.3001 75.0999 71.6001C76.8999 69.8001 77.7999 67.6001 77.7999 64.9001C77.7999 64.6001 77.7999 64.2001 77.7999 63.9001C77.7999 63.3001 77.7999 62.6001 77.7999 62.0001C77.7999 61.3001 77.7999 60.6001 77.7999 59.9001H77.6998ZM74.1998 13.6001C74.1998 14.3001 74.1998 15.0001 74.1998 15.6001C74.1998 16.9001 74.1998 18.3001 74.1998 19.6001C74.1998 21.2001 74.1998 22.7001 74.1998 24.3001C74.1998 27.1001 74.1998 29.9001 74.1998 32.7001C74.1998 35.4001 74.1998 38.2001 74.1998 40.9001V64.6001C74.1998 66.3001 73.6999 67.7001 72.5999 68.9001C71.1999 70.2001 69.4998 70.8001 67.1998 70.8001H66.4999C65.6999 70.8001 64.8998 70.8001 64.1998 70.8001C63.4998 70.8001 62.7999 70.8001 61.9999 70.8001C60.5999 70.8001 59.1999 70.8001 57.7999 70.8001C56.0999 70.8001 54.4999 70.8001 52.7999 70.8001C49.7999 70.8001 46.8999 70.8001 43.8999 70.8001C40.9999 70.8001 38.0999 70.8001 35.2999 70.8001C32.0999 70.8001 28.9999 70.8001 25.7999 70.8001H20.7999C19.3999 70.8001 17.8999 70.8001 16.4999 70.8001H16.1998C15.5998 70.8001 14.8999 70.8001 14.2999 70.8001C13.5999 70.8001 12.8999 70.8001 12.2999 70.8001H11.5999C9.09985 70.8001 7.39983 70.5001 5.69983 69.0001C4.09983 67.4001 3.79993 65.6001 3.79993 63.9001V63.2001C3.79993 62.5001 3.79993 61.7001 3.79993 61.0001C3.79993 60.3001 3.79993 59.6001 3.79993 59.0001C3.79993 57.7001 3.79993 56.3001 3.79993 55.0001C3.79993 53.4001 3.79993 51.9001 3.79993 50.3001C3.79993 47.5001 3.79993 44.7001 3.79993 41.9001C3.79993 39.2001 3.79993 36.4001 3.79993 33.7001V10.0001C3.79993 8.5001 4.19988 7.4001 4.99988 6.1001C6.39988 4.5001 8.19993 3.7001 10.7999 3.7001H11.4999C12.2999 3.7001 13.0999 3.7001 13.7999 3.7001C14.4999 3.7001 15.1999 3.7001 15.9999 3.7001C17.3999 3.7001 18.7998 3.7001 20.1998 3.7001C21.8998 3.7001 23.4998 3.7001 25.1998 3.7001C28.1998 3.7001 31.0999 3.7001 34.0999 3.7001C36.9999 3.7001 39.8998 3.7001 42.6998 3.7001C45.8998 3.7001 48.9998 3.7001 52.1998 3.7001H57.1998C58.5998 3.7001 60.0999 3.7001 61.4999 3.7001H61.7999C62.3999 3.7001 63.0998 3.7001 63.6998 3.7001C64.3998 3.7001 65.0998 3.7001 65.6998 3.7001H66.3999C66.3999 3.7001 66.3999 3.7001 66.4999 3.7001C68.8999 3.7001 70.5998 4.0001 72.1998 5.5001C73.7998 7.1001 74.0999 8.9001 74.0999 10.6001V11.3001C74.0999 12.0001 74.0999 12.8001 74.0999 13.5001L74.1998 13.6001Z" fill="#F08144" fill-opacity="0.5"/>
<path d="M28.9001 60.7998H29.3002C30.1002 60.7998 30.6002 60.7998 31.3002 60.3998C31.7002 60.0998 31.8001 59.9998 31.9001 59.5998C32.0001 58.9998 31.9001 58.5998 31.5001 57.9998C30.7001 57.5998 29.9002 57.4998 28.8002 57.4998H28.2001C27.5001 57.4998 26.9001 57.4998 26.2001 57.4998H24.8002C23.6002 57.4998 22.4001 57.4998 21.1001 57.4998H20.1001L20.6001 57.0998C21.9001 55.8998 23.1001 54.7998 24.4001 53.5998L26.3002 51.7998C26.9002 51.1998 27.6001 50.5998 28.2001 49.9998L28.9001 49.2998C29.3001 48.9998 29.6001 48.6998 29.9001 48.2998L30.2001 47.9998C30.7001 47.5998 31.1001 47.1998 31.4001 46.6998C31.7001 46.0998 31.8001 45.7998 31.6001 45.0998C31.2001 44.5998 30.8001 44.3998 30.1001 44.2998C29.3001 44.3998 28.8001 44.6998 28.2001 45.1998L27.9001 45.4998C27.6001 45.7998 27.2001 46.0998 26.9001 46.4998C26.7001 46.6998 26.4001 46.9998 26.2001 47.1998C25.6001 47.7998 24.9002 48.3998 24.3002 48.9998C23.6002 49.5998 23.0002 50.1998 22.3002 50.7998C21.0002 51.9998 19.7001 53.1998 18.5001 54.3998L17.7001 55.1998V46.5998C17.5001 46.2998 17.5001 45.9998 17.5001 45.6998C17.4001 45.1998 17.2002 44.9998 16.8002 44.5998C16.0002 44.2998 15.5002 44.1998 14.8002 44.5998C14.3002 45.1998 14.1001 45.5998 14.1001 46.3998V46.7998C14.1001 47.1998 14.1001 47.6998 14.1001 48.0998V48.9998C14.1001 49.6998 14.1001 50.2998 14.1001 50.9998C14.1001 51.7998 14.1001 52.6998 14.1001 53.4998C14.1001 54.1998 14.1001 54.7998 14.1001 55.4998V56.3998C14.1001 56.8998 14.1001 57.2998 14.1001 57.7998V58.1998C14.1001 58.9998 14.1001 59.5998 14.6001 60.1998C15.1001 60.5998 15.6001 60.6998 16.4001 60.6998H16.8002C17.3002 60.6998 17.7001 60.6998 18.2001 60.6998H19.2001C19.9001 60.6998 20.6002 60.6998 21.3002 60.6998C22.2002 60.6998 23.1001 60.6998 24.0001 60.6998C24.7001 60.6998 25.4001 60.6998 26.1001 60.6998H27.1001C27.6001 60.6998 28.1001 60.6998 28.6001 60.6998L28.9001 60.7998Z" fill="#F08144" fill-opacity="0.5"/>
<path d="M60.1999 27.8998C60.1999 28.3998 60.2 28.8998 60.4 29.2998C60.7 29.5998 60.9 29.7998 61.4 30.0998C62 30.1998 62.3 30.0998 62.9 29.8998C63.4 29.2998 63.4999 28.8998 63.5999 28.0998V27.6998C63.5999 27.2998 63.5999 26.7998 63.5999 26.3998V25.4998C63.5999 24.7998 63.5999 24.1998 63.5999 23.4998C63.5999 22.6998 63.5999 21.7998 63.5999 20.9998C63.5999 20.2998 63.5999 19.6998 63.5999 18.9998V18.0998C63.5999 17.5998 63.5999 17.1998 63.5999 16.6998V16.2998C63.5999 15.4998 63.5999 14.8998 63.0999 14.2998C62.5999 13.8998 62.2 13.7998 61.4 13.7998H60.9999C60.4999 13.7998 60.0999 13.7998 59.6999 13.7998H58.6999C57.9999 13.7998 57.3999 13.7998 56.6999 13.7998C55.7999 13.7998 54.9999 13.7998 54.0999 13.7998C53.3999 13.7998 52.6999 13.7998 52.0999 13.7998H51.0999C50.5999 13.7998 50.1999 13.7998 49.6999 13.7998H49.3C48.5 13.7998 48.1 13.7998 47.4 14.1998C47.1 14.4998 46.9 14.5998 46.8 14.9998C46.7 15.5998 46.7999 15.9998 47.1999 16.5998C47.9999 16.9998 48.6999 17.0998 49.6999 17.0998H50.3C50.9 17.0998 51.5999 17.0998 52.1999 17.0998H53.4999C54.6999 17.0998 55.7999 17.0998 56.9999 17.0998H57.9999L57.5999 17.4998C56.3999 18.6998 55.1999 19.7998 53.9999 20.9998L52.0999 22.7998C51.4999 23.3998 50.9 23.9998 50.3 24.5998L49.5999 25.2998C49.2999 25.5998 48.8999 25.8998 48.5999 26.2998L48.3 26.5998C47.8 26.9998 47.3999 27.3998 47.1999 27.8998C46.8999 28.4998 46.7999 28.7998 46.9999 29.4998C47.3999 29.9998 47.8 30.1998 48.4 30.2998C49.2 30.1998 49.5999 29.8998 50.1999 29.3998L50.4999 29.0998C50.7999 28.7998 51.1999 28.4998 51.4999 28.0998C51.6999 27.8998 51.9999 27.5998 52.1999 27.3998C52.7999 26.7998 53.3999 26.1998 53.9999 25.5998C54.5999 24.9998 55.2 24.3998 55.9 23.7998C57.1 22.5998 58.2999 21.3998 59.4999 20.1998L60.3 19.3998V27.9998L60.1999 27.8998Z" fill="#F08144" fill-opacity="0.5"/>
</svg>
