<svg width="98" height="73" viewBox="0 0 98 73" fill="none" xmlns="http://www.w3.org/2000/svg">
<g clip-path="url(#clip0_9_64)">
<g opacity="0.5">
<path d="M0 0C4.15101 0 8.30203 0 12.453 0C40.6077 0 68.7624 0 96.8269 0C97.8195 0 98 0.269705 98 1.07882C98 22.2956 98 43.4224 98 64.6392C98 65.4483 97.9098 65.8978 96.8269 65.8079C96.105 65.8079 95.1123 65.4483 94.6611 65.9877C94.3002 66.4372 94.5709 67.3362 94.5709 67.9655C94.5709 68.5948 94.5709 69.2241 94.4807 69.8534C94.0295 71.7414 92.4052 73 90.3296 73C88.3444 73 86.3591 73 84.3738 73C82.0276 73 80.2228 71.202 80.2228 69.0443C80.2228 68.1453 80.2228 67.3362 80.2228 66.4372C80.2228 65.9877 80.0424 65.8079 79.5912 65.8079C79.4107 65.8079 79.2302 65.8079 79.14 65.8079C59.1068 65.8079 39.0737 65.8079 19.0405 65.8079C18.1381 65.8079 17.7772 65.9877 17.8674 66.8867C17.8674 67.6059 17.8674 68.3251 17.8674 69.0443C17.8674 71.2919 16.0626 73 13.7164 73C11.7311 73 9.65562 73 7.67035 73C5.41436 73 3.60958 71.202 3.51934 69.0443C3.51934 68.1453 3.51934 67.2463 3.51934 66.3473C3.51934 65.8978 3.4291 65.8079 2.9779 65.8079C1.98527 65.8079 1.08287 65.8079 0.0902394 65.8079V0H0ZM48.9098 63.1108C63.9797 63.1108 79.0497 63.1108 94.1197 63.1108C95.0221 63.1108 95.2026 62.8411 95.2026 62.032C95.2026 42.6133 95.2026 23.1047 95.2026 3.68596C95.2026 2.87685 95.0221 2.60714 94.1197 2.60714C64.07 2.60714 34.0203 2.60714 3.97053 2.60714C3.06814 2.60714 2.88766 2.87685 2.88766 3.68596C2.88766 23.1047 2.88766 42.6133 2.88766 62.032C2.88766 62.8411 3.06814 63.1108 3.97053 63.1108C18.9503 63.1108 33.93 63.1108 48.9098 63.1108ZM10.6483 65.8079C9.47514 65.8079 8.21179 65.8079 7.03867 65.8079C6.407 65.8079 6.31676 65.9877 6.31676 66.5271C6.31676 67.3362 6.31676 68.0554 6.31676 68.8645C6.31676 69.7635 6.8582 70.303 7.85083 70.303C9.65562 70.303 11.5506 70.303 13.3554 70.303C14.3481 70.303 14.8895 69.7636 14.8895 68.7746C14.8895 67.9655 14.8895 67.1564 14.8895 66.3473C14.8895 65.8978 14.709 65.718 14.2578 65.718C13.0847 65.718 11.8214 65.718 10.6483 65.718V65.8079ZM87.3518 65.8079C86.9006 65.8079 86.5396 65.8079 86.0884 65.8079C85.0958 65.8079 83.7422 65.3584 83.2007 65.9877C82.6593 66.617 83.0203 67.7857 83.0203 68.7746C83.0203 69.7636 83.5617 70.303 84.5543 70.303C86.3591 70.303 88.1639 70.303 89.9687 70.303C90.9613 70.303 91.5028 69.7635 91.593 68.8645C91.593 68.0554 91.593 67.1564 91.593 66.3473C91.593 65.8978 91.4125 65.8079 90.9613 65.8079C89.698 65.8079 88.4346 65.8079 87.2615 65.8079H87.3518Z" fill="#F08144"/>
<path d="M14.6188 22.6551C24.2744 2.42722 52.2487 3.05653 61.2726 22.6551C62.0848 22.1156 62.8969 21.8459 63.8895 21.9358C65.8748 22.1156 67.4089 23.644 67.4089 25.7117C67.4089 30.6563 67.4089 35.6908 67.4089 40.6354C67.4089 43.6021 64.1603 45.5799 61.2726 43.692C60.4604 45.4001 59.558 47.0184 58.3849 48.4568C46.9245 63.6501 23.4623 61.4925 14.9798 44.5011C14.7091 43.8718 14.5286 43.692 13.8067 44.0516C11.4604 45.2203 8.48254 43.6021 8.48254 40.9051C8.48254 35.7807 8.48254 30.5664 8.48254 25.442C8.48254 22.745 11.7312 20.7671 14.5286 22.6551H14.6188ZM59.1971 24.3632C56.7606 17.7105 48.9098 9.88904 37.2689 10.1587C28.3352 10.4285 18.2284 17.3509 16.7846 24.2733C16.7846 24.2733 16.965 24.2733 17.0553 24.2733C24.9964 24.2733 33.0277 24.2733 40.9687 24.2733C41.3297 24.2733 41.6004 24.1834 41.8711 23.9137C42.6833 23.1046 43.4954 22.2954 44.3076 21.3964C45.4807 20.2277 46.8343 19.8681 48.3684 20.4075C49.9024 20.9469 50.7146 22.1156 50.8048 23.7339C50.8048 24.0935 50.8048 24.2733 51.256 24.2733C53.873 24.2733 56.4899 24.2733 59.1069 24.2733L59.1971 24.3632ZM16.7846 41.9839C19.4918 49.176 27.7035 56.5479 38.803 56.0984C44.3978 55.9186 49.2708 53.9408 53.4218 50.1649C55.9485 47.9174 57.9337 45.1304 59.1971 41.9839C59.0166 41.9839 58.9264 41.9839 58.8361 41.9839C50.8951 41.9839 42.954 41.9839 35.0129 41.9839C34.652 41.9839 34.3813 42.0738 34.0203 42.4334C33.2081 43.3324 32.3057 44.1415 31.4034 45.0405C30.2302 46.1193 28.8767 46.4789 27.4328 45.8496C25.989 45.3102 25.1768 44.1415 25.0866 42.6132C25.0866 42.0738 24.9061 42.0738 24.4549 42.0738C22.0185 42.0738 19.582 42.0738 17.1455 42.0738C17.0553 42.0738 16.8748 42.0738 16.7846 42.0738V41.9839ZM36.9982 39.3767C37.3592 39.3767 37.4494 39.3767 37.5396 39.3767C44.7588 39.3767 51.9779 39.3767 59.1971 39.3767C59.7385 39.3767 59.919 39.1969 59.919 38.6575C59.919 34.9716 59.919 31.2856 59.919 27.5996C59.919 26.9703 59.7385 26.7905 59.1069 26.7905C56.2192 26.7905 53.3315 26.7905 50.4439 26.7905C49.9024 26.7905 49.5415 26.9703 49.0903 27.3299C47.105 29.3078 45.1197 31.3755 43.0442 33.3533C42.6833 33.7129 42.5028 33.9826 42.3223 34.4321C41.8711 35.7807 41.059 36.8595 39.7054 37.2191C38.5323 37.5787 37.9006 38.3878 36.9982 39.2868V39.3767ZM38.803 26.9703C38.6225 26.9703 38.5323 26.9703 38.442 26.9703C31.2229 26.9703 23.9135 26.9703 16.6943 26.9703C16.1529 26.9703 16.0627 27.24 16.0627 27.6895C16.0627 31.3755 16.0627 35.0615 16.0627 38.7474C16.0627 39.3767 16.2431 39.5565 16.8748 39.5565C19.7625 39.5565 22.7404 39.5565 25.628 39.5565C26.1695 39.5565 26.5304 39.3767 26.8914 39.0171C28.8767 37.0393 30.8619 34.9716 32.9374 32.9937C33.2984 32.6341 33.4789 32.3644 33.6593 31.9149C34.1105 30.5664 35.0129 29.4876 36.3665 29.0381C37.4494 28.6785 38.0811 27.8693 38.8932 27.0602L38.803 26.9703ZM62.3555 33.0836C62.3555 35.511 62.3555 38.0282 62.3555 40.4555C62.3555 41.3546 62.8067 41.8041 63.5286 41.8041C64.2505 41.8041 64.7919 41.2647 64.7919 40.4555C64.7919 40.4555 64.7919 40.2757 64.7919 40.1858C64.7919 35.4211 64.7919 30.6563 64.7919 25.8915C64.7919 24.9026 64.2505 24.2733 63.5286 24.2733C62.7164 24.2733 62.2652 24.8127 62.2652 25.8915C62.2652 28.2289 62.2652 30.5664 62.2652 32.9937L62.3555 33.0836ZM13.536 33.1735C13.536 30.7462 13.536 28.3188 13.536 25.8915C13.536 24.9026 13.0848 24.3632 12.2726 24.3632C11.5507 24.3632 11.0092 24.9925 11.0092 25.8915C11.0092 30.6563 11.0092 35.511 11.0092 40.2757C11.0092 41.2647 11.4604 41.8041 12.2726 41.8041C13.0848 41.8041 13.536 41.2647 13.536 40.1858C13.536 37.7585 13.536 35.4211 13.536 32.9937V33.1735ZM48.3684 24.0036C48.3684 23.5541 48.0976 23.1046 47.6464 22.9248C47.0148 22.6551 46.5636 22.9248 46.1124 23.2844C44.3978 24.9925 42.6833 26.7006 40.9687 28.4087C40.4273 28.9482 40.1566 29.2179 40.9687 29.6674C41.2395 29.8472 41.5102 30.1169 41.6907 30.4765C41.9614 30.8361 42.0516 30.8361 42.4126 30.4765C44.2173 28.5886 46.1124 26.7905 47.9172 24.9026C48.1879 24.6329 48.3684 24.3632 48.3684 23.9137V24.0036ZM28.6962 43.5122C29.3278 43.5122 29.5986 43.2425 29.9595 42.8829C31.4936 41.3546 33.1179 39.7363 34.652 38.208C34.9227 37.9383 35.2837 37.5787 35.5544 37.2191C35.2837 36.9494 34.9227 36.6797 34.652 36.41C34.652 36.41 34.652 36.41 34.5617 36.3201C34.0805 35.7807 33.5691 35.7807 33.0277 36.3201C32.9374 36.41 32.8472 36.4999 32.7569 36.5898C31.2229 38.1181 29.6888 39.7363 28.0645 41.2647C27.5231 41.8041 27.5231 42.3435 27.7938 42.9728C27.9743 43.4223 28.3352 43.5122 28.6962 43.6021V43.5122ZM40.0663 33.1735C40.0663 32.0048 39.1639 31.1058 38.0811 31.1058C36.908 31.1058 35.9153 32.0048 35.9153 33.1735C35.9153 34.3422 36.8177 35.2413 37.9908 35.2413C39.1639 35.2413 40.0663 34.3422 40.0663 33.1735Z" fill="#F08144"/>
<path d="M74.0866 18.0701C74.0866 14.8337 74.0866 11.5972 74.0866 8.45066C74.0866 7.91125 74.2671 7.73145 74.8085 7.73145C79.0497 7.73145 83.291 7.73145 87.6225 7.73145C88.1639 7.73145 88.3444 7.82135 88.3444 8.45066C88.3444 14.9236 88.3444 21.4864 88.3444 27.9593C88.3444 28.4987 88.2542 28.6785 87.6225 28.6785C83.291 28.6785 79.0497 28.6785 74.7183 28.6785C74.0866 28.6785 73.9963 28.4987 73.9963 27.8694C73.9963 24.6329 73.9963 21.3965 73.9963 18.16L74.0866 18.0701ZM85.8177 18.16C85.8177 15.7327 85.8177 13.3053 85.8177 10.878C85.8177 10.3386 85.7275 10.1588 85.186 10.1588C82.5691 10.1588 79.9521 10.1588 77.3352 10.1588C76.7938 10.1588 76.6133 10.2487 76.6133 10.878C76.6133 15.7327 76.6133 20.4975 76.6133 25.3521C76.6133 25.8915 76.7035 26.0713 77.245 26.0713C79.8619 26.0713 82.4788 26.0713 85.0958 26.0713C85.7275 26.0713 85.8177 25.8016 85.8177 25.2622C85.8177 22.8349 85.8177 20.4975 85.8177 18.0701V18.16Z" fill="#F08144"/>
<path d="M81.1252 58.6157C79.0497 58.6157 76.884 58.6157 74.8085 58.6157C74.267 58.6157 74.0865 58.5258 74.0865 57.8965C74.0865 55.8287 74.0865 53.761 74.0865 51.6933C74.0865 51.2438 74.1768 51.064 74.7182 51.064C79.0497 51.064 83.3812 51.064 87.8029 51.064C88.2541 51.064 88.4346 51.064 88.4346 51.6933C88.4346 53.761 88.4346 55.9186 88.4346 57.9864C88.4346 58.5258 88.2541 58.6157 87.7127 58.6157C85.547 58.6157 83.3812 58.6157 81.2155 58.6157H81.1252ZM78.3278 56.1884C79.4708 56.1884 80.0423 55.619 80.0423 54.4802C80.0423 54.4802 80.0423 54.3903 80.0423 54.3004C80.0423 53.8509 80.0424 53.5812 79.4107 53.6711C78.779 53.6711 78.1473 53.6711 77.5156 53.6711C76.884 53.6711 76.7035 53.8509 76.7035 54.4802C76.7035 56.1883 76.7035 56.1884 78.418 56.1884H78.3278ZM84.1934 56.1884C84.5543 56.1884 85.0055 56.1884 85.3665 56.1884C85.7274 56.1884 85.9079 56.1884 85.9079 55.7388C85.7274 55.0196 86.2689 54.3004 85.6372 53.6711C85.6372 53.6711 85.3665 53.6711 85.186 53.6711C84.5543 53.6711 83.9226 53.6711 83.3812 53.6711C82.6593 53.6711 82.5691 53.8509 82.5691 54.4802C82.5691 56.1883 82.5691 56.1884 84.2836 56.1884H84.1934Z" fill="#F08144"/>
<path d="M74.989 37.3991C74.989 33.9828 77.7864 31.1959 81.2155 31.106C84.6446 31.106 87.5323 33.8929 87.5323 37.3991C87.5323 40.8153 84.6446 43.6023 81.2155 43.6023C77.7864 43.6023 74.989 40.8153 74.989 37.3092V37.3991ZM77.4255 37.3092C77.4255 39.3769 79.0498 41.085 81.1253 41.085C83.2008 41.085 84.9153 39.4668 84.9153 37.3991C84.9153 35.3313 83.291 33.6232 81.2155 33.6232C79.14 33.6232 77.4255 35.2414 77.4255 37.3092Z" fill="#F08144"/>
<path d="M78.779 46.1195C79.5611 46.1195 79.9521 46.5989 79.9521 47.5579C79.9521 48.5168 79.4708 48.8764 78.5083 48.6367C77.5457 48.397 77.2148 47.8576 77.5156 47.0185C77.8164 46.1794 78.2676 45.8797 78.8692 46.1195H78.779Z" fill="#F08144"/>
<path d="M83.7421 48.6365C82.8999 48.6365 82.4788 48.1571 82.4788 47.1981C82.4788 46.2392 82.96 45.8795 83.9226 46.1193C85.0055 46.1193 85.0055 46.1193 84.9152 47.7375C84.9152 48.8163 85.0957 48.6365 83.6519 48.6365H83.7421Z" fill="#F08144"/>
</g>
</g>
<defs>
<clipPath id="clip0_9_64">
<rect width="98" height="73" fill="white"/>
</clipPath>
</defs>
</svg>
