<svg width="92" height="90" viewBox="0 0 92 90" fill="none" xmlns="http://www.w3.org/2000/svg">
<path d="M91.4999 2.29999C91.4999 1.29999 90.6999 0.5 89.6999 0.5H81.7999C80.7999 0.5 79.9999 1.29999 79.9999 2.29999C79.9999 3.29999 80.7999 4.10001 81.7999 4.10001H85.2999L73.3999 15.7C73.0999 16 72.8999 16.5 72.8999 17C72.8999 17.5 73.0999 17.9 73.3999 18.3C74.0999 19 75.2999 19 75.9999 18.3L87.8999 6.70001V10.1C87.8999 11.1 88.6999 11.9 89.6999 11.9C90.6999 11.9 91.4999 11.1 91.4999 10.1V2.39999V2.29999Z" fill="#F08144" fill-opacity="0.5"/>
<path d="M18.4 71.7L18.6 71.5L18.2 71.2C17.5 70.8 16.6 70.9 16 71.5L4.09998 83.1V79.7C4.09998 78.7 3.29999 77.8999 2.29999 77.8999C1.29999 77.8999 0.5 78.7 0.5 79.7V87.3999C0.5 88.3999 1.29999 89.2 2.29999 89.2H10.2C11.2 89.2 12 88.3999 12 87.3999C12 86.3999 11.2 85.6 10.2 85.6H6.70001L18.6 74C18.9 73.7 19.1 73.2 19.1 72.7C19.1 72.4 19.1 72.0999 18.9 71.7999L18.5 71.5" fill="#F08144" fill-opacity="0.5"/>
<path d="M57 53.1L56.3 52.4C55.8 52.1 55.1 52.1 54.6 52.4L53.8 53C44 62.6 36.3 73.4 33.4 77.6L33.1 78.1L23.8 69L27.6 65.3C27.9 65 28.1 64.5 28.1 64C28.1 63.5 27.9 63.1 27.6 62.7C26.9 62 25.7 62 25 62.7L21.2 66.4L11.9 57.3L12.4 57C16.8 54.2 28 46.5 37.9 36.8C44.7 30.2 50.5 23 54.1 18.2C54.4 17.8 54.5 17.3 54.4 16.9C54.4 16.6 54.2 16.3 54 16.1L53.2 15.5C52.5 15.2 51.6 15.5 51.1 16.1C47.5 20.8 41.9 27.8 35.2 34.3C28.7 40.7 21.6 46.1 16.8 49.5C14.1 51.5 11.8 53 10.4 53.9C9.60002 54.4 9 54.8 8.5 55.1L7.79999 55.6C7.39999 55.9 7.1 56.3 7 56.9C7 57.4 7.1 58 7.5 58.4L31.6 81.8L32 82.1L32.3 81.8L32.1 82.1L32.5 82.4C32.8 82.6 33.2 82.6 33.6 82.6C34.1 82.6 34.6 82.3 34.9 81.8L35.3 81.1C35.6 80.7 36 80.1 36.5 79.3C37.5 77.9 39 75.7 41 73C44.5 68.4 50.1 61.5 56.6 55.1C56.9 54.8 57.1 54.3 57.1 53.8C57.1 53.3 57.1 53.2 56.9 52.9L57 53.1Z" fill="#F08144" fill-opacity="0.5"/>
<path d="M84.4001 31.2001L60.0001 7.40007C59.7001 7.10007 59.4001 7.00007 59.0001 6.90007C58.4001 6.80007 58.0001 7.00008 58.0001 7.00008C57.7001 7.10008 57.4001 7.40009 57.2001 7.70009C57.0001 8.10009 56.0001 9.60009 54.5001 11.7001C54.2001 12.1001 54.1001 12.6001 54.2001 13.0001C54.2001 13.5001 54.6001 13.9001 55.0001 14.2001C55.8001 14.8001 57.0001 14.5001 57.5001 13.7001C58.0001 13.0001 58.4001 12.4001 58.7001 11.9001L59.0001 11.4001L68.3 20.5001L28.8 59.0001C28.5 59.3001 28.3 59.8001 28.3 60.3001C28.3 60.8001 28.5 61.2001 28.8 61.6001C29.5 62.3001 30.7001 62.3001 31.4001 61.6001L71.0001 23.1001L80.3 32.2001L79.8 32.5001C75.6 35.3001 67.3001 41.0001 59.0001 48.3001L58.3 49.0001C58.1 49.3001 58.0001 49.5001 58.0001 49.9001C58.0001 50.4001 58.2001 50.8001 58.5001 51.2001C59.2001 51.9001 60.3 52.0001 61.1 51.3001C67 46.1001 72.9 41.7001 76.8 38.9001C79 37.3001 80.9 36.1001 82.1 35.3001C82.7 34.9001 83.2 34.6001 83.6 34.3001L84.1 34.0001C84.6 33.7001 84.9001 33.2001 85.0001 32.7001C85.0001 32.2001 84.9001 31.6001 84.5001 31.2001H84.4001Z" fill="#F08144" fill-opacity="0.5"/>
</svg>
