<svg width="90" height="85" viewBox="0 0 90 85" fill="none" xmlns="http://www.w3.org/2000/svg">
<path d="M57.2001 52.2001V51.3001C57.2001 50.7001 57.2001 50.1001 57.2001 49.5001C57.2001 48.7001 57.2001 47.9001 57.2001 47.1001V42.7001C57.2001 41.4001 56.8001 40.4001 55.9001 39.4001C55.0001 38.6001 53.9001 38.3001 52.4001 38.2001H50.5001C50.0001 38.2001 49.5001 38.2001 49.0001 38.2001H46.3001C45.1001 38.2001 44.1001 38.9001 43.1001 39.8001L41.2001 41.5001V39.2001C40.6001 38.4001 39.9001 37.5001 39.3001 36.6001L35.6001 31.3001C35.2001 30.7001 34.9001 30.2001 34.7001 29.4001V29.0001L35.3001 28.3001C36.0001 27.8001 36.4001 27.2001 36.9001 26.3001L37.1001 25.9001C37.3001 25.6001 37.4001 25.3001 37.5001 25.0001C37.9001 22.2001 37.3001 20.2001 35.5001 17.5001L35.0001 16.8001C34.6001 16.2001 34.2001 15.7001 33.8001 15.1001L33.0001 14.0001C32.5001 13.3001 31.9001 12.5001 31.4001 11.8001L29.0001 8.50014C28.4001 7.70014 27.9001 6.90014 27.3001 6.10014L26.1001 4.40013C25.3001 3.20013 24.5001 2.20013 23.4001 1.40013C21.8001 0.500132 19.5001 0.600145 17.8001 1.60014L16.7001 2.30013C15.8001 2.80013 14.8001 3.30013 13.9001 3.90013C12.2001 4.90013 10.4001 5.80013 8.70006 6.80013C7.80006 7.30013 6.80006 7.80013 5.90006 8.40013L4.40006 9.20015C2.30006 10.3002 0.90006 11.3001 0.30006 13.1001C5.95227e-05 15.6001 5.96046e-05 15.7001 3.50006 20.8001L5.60006 23.9001C6.30006 24.9001 7.00006 25.9001 7.60006 26.9001L8.20006 27.8001C8.70006 28.6001 9.30006 29.4002 9.80006 30.2002L10.9001 31.9001C11.7001 33.1001 12.3001 34.0001 13.3001 34.8001C15.1001 36.2001 17.2001 36.6001 20.2001 36.4001C20.8001 36.3001 21.2001 36.2001 21.8001 36.2001H22.2001L23.0001 37.0001L23.7001 38.0001C24.0001 38.4001 24.3001 38.9001 24.6001 39.3001L25.6001 40.8001H23.7001C22.8001 40.8001 21.8001 40.8001 20.9001 40.8001H17.5001C16.1001 40.8001 15.1001 41.1001 13.8001 41.6001C11.4001 42.8001 10.3001 44.7001 9.30006 47.7001L9.00006 48.4001C8.80006 49.1001 8.50006 49.7001 8.30006 50.4001L7.90006 51.6001C7.40006 53.0001 6.90006 54.5001 6.40006 56.0001C5.90006 57.4001 5.40006 58.7001 5.00006 60.1001C4.60006 61.3001 4.20006 62.4001 3.80006 63.6001C3.50006 64.3001 3.30006 65.0001 3.10006 65.7001C2.90006 66.4001 2.60006 67.0001 2.40006 67.7001L2.10006 68.4001C1.40006 70.3001 1.20006 71.6001 1.30006 73.2001C1.60006 74.3001 2.40006 75.2001 3.90006 76.0001L4.90006 76.6001L4.60006 77.4001C4.40006 77.9001 4.20006 78.4001 4.00006 79.0001L3.80006 79.6001C3.40006 80.8001 3.00006 81.9001 3.00006 83.2001C3.00006 83.6001 3.00006 83.6001 3.70006 84.2001C4.30006 84.4001 5.10006 84.5001 5.80006 84.3001C6.50006 83.8001 6.60006 83.7001 7.30006 81.6001L7.50006 80.9001C8.00006 79.6001 8.40006 78.4001 8.70006 77.3001L9.00006 76.2001H12.2001C12.8001 76.2001 13.2001 76.2001 13.7001 76.0001L14.0001 75.8001C15.1001 75.3001 15.8001 74.2001 16.3001 73.2001L18.6001 68.8001C19.0001 68.1001 19.3001 67.4001 19.6001 66.7001L19.9001 65.6001H20.7001C21.1001 65.6001 21.3001 65.6001 21.6001 65.6001L22.1001 65.4001C23.4001 64.8001 24.1001 63.8001 24.7001 62.7001L25.4001 61.3001C25.7001 60.8001 25.9001 60.3001 26.2001 59.8001L27.4001 57.4001C27.6001 57.0001 27.8001 56.6001 27.9001 56.2001L28.3001 55.1001H29.0001C30.5001 55.1001 32.1001 55.1001 33.6001 55.1001C34.4001 55.1001 35.2001 55.1001 35.9001 55.1001C36.7001 55.1001 37.4001 55.1001 38.2001 55.1001H39.3001C39.7001 55.1001 40.0001 55.1001 40.4001 55.1001H41.5001C42.4001 55.1001 42.6001 55.3001 43.1001 55.9001C43.1667 56.1668 43.2667 56.3668 43.4001 56.5001L43.7001 56.7001C44.5001 57.5001 45.5001 57.8001 46.8001 57.8001H48.6001C49.1001 57.8001 49.6001 57.8001 50.1001 57.8001H51.8001C53.4001 57.8001 54.6001 57.6001 55.8001 56.6001C56.9001 55.4001 57.0001 54.0001 57.0001 52.2001H57.2001ZM34.6001 36.6001C35.3001 37.6001 35.9001 38.6001 36.5001 39.6001L37.3001 41.1001H31.8001C31.8001 41.1001 31.7001 41.1001 31.6001 41.1001C31.3001 41.1001 31.0001 41.1001 30.7001 41.1001H30.3001L30.0001 40.7001C29.2001 39.8001 29.2001 39.7001 28.5001 38.7001L26.9001 36.5001C26.5001 35.9001 26.0001 35.3001 25.9001 34.4001V33.7001C25.8001 33.7001 28.8001 32.1001 28.8001 32.1001C29.4001 31.8001 29.7001 31.6001 30.5001 31.6001H30.9001L31.7001 32.6001L34.5001 36.6001H34.6001ZM24.0001 30.8001L22.5001 31.6001C21.2001 32.4001 19.7001 33.1001 18.0001 33.1001H17.7001C15.9001 32.6001 15.1001 31.7001 14.2001 30.3001C14.0001 29.9001 13.8001 29.6001 13.5001 29.3001C13.0001 28.5001 12.5001 27.8001 12.0001 27.0001L10.1001 24.1001C9.50006 23.3001 9.00006 22.4001 8.40006 21.6001C7.60006 20.4001 6.70006 19.1001 5.90006 17.9001L4.90006 16.3001C4.50006 15.8001 4.20006 15.2001 4.10006 14.4001V13.7002C4.00006 13.7002 4.60006 13.3001 4.60006 13.3001C6.80006 11.9001 9.20006 10.6001 11.2001 9.50014C12.0001 9.10014 12.8001 8.60015 13.5001 8.20015C14.9001 7.40015 16.4001 6.60013 17.9001 5.80013L19.3001 5.00014C19.9001 4.70014 20.2001 4.50014 21.0001 4.50014H21.4001L22.0001 5.20015L22.6001 6.00014C22.8001 6.30014 23.1001 6.70014 23.3001 7.00014L23.7001 7.50014C24.3001 8.40014 24.9001 9.30014 25.6001 10.1001L28.8001 14.6001C29.3001 15.4001 29.9001 16.1001 30.4001 16.9001L31.5001 18.4001C31.6001 18.6001 31.8001 18.8001 32.0001 19.0001C32.8001 20.0001 33.6001 21.2001 33.9001 22.5001C33.9001 22.6001 33.9001 23.2002 33.9001 23.2002C33.9001 23.7002 33.9001 23.7002 33.9001 24.2002V24.4001C33.4001 25.5001 32.6001 26.2002 31.7001 26.7002L31.1001 27.1001C29.7001 27.9001 28.2001 28.7001 26.9001 29.4001H26.8001C26.0001 29.9001 25.1001 30.4001 24.3001 30.8001H24.0001ZM42.2001 51.8001H28.9001C28.1001 52.0001 27.5001 52.0001 26.9001 52.2001L26.6001 52.4001C25.5001 52.9001 25.0001 53.9001 24.4001 55.0001C24.2001 55.4001 24.0001 55.7001 23.9001 56.1001C23.6001 56.7001 23.3001 57.3001 23.0001 57.8001C22.7001 58.4001 22.4001 59.0001 22.1001 59.6001L21.8001 60.2001C21.5001 60.9001 21.1001 61.6001 20.5001 62.3001L20.3001 62.5001H20.1001C19.4001 62.8001 18.7001 62.8001 18.2001 62.8001H18.0001C17.6001 63.0001 17.3001 63.2001 17.1001 63.6001L16.1001 65.6001C15.8001 66.2001 15.5001 66.7001 15.2001 67.3001C14.8001 68.0001 14.5001 68.7001 14.1001 69.4001L12.1001 73.3001H5.10006V72.3001C5.10006 71.8001 5.10006 71.7001 5.20006 71.3001L8.50006 61.8001C9.20006 59.8001 9.90006 57.8001 10.6001 55.8001C11.0001 54.7001 11.4001 53.6001 11.8001 52.5001L12.8001 49.6001C12.9001 49.2001 13.1001 48.8001 13.2001 48.3001V47.9001C13.6001 47.1001 13.9001 46.5001 14.3001 45.9001L14.5001 45.7001C15.9001 44.4001 17.5001 44.4001 19.0001 44.4001H20.0001C20.6001 44.4001 21.3001 44.4001 21.9001 44.4001H23.9001C25.2001 44.4001 26.4001 44.4001 27.7001 44.4001H32.0001C35.1001 44.4001 38.2001 44.4001 41.3001 44.4001H42.3001V51.7001L42.2001 51.8001ZM53.5001 54.5001H45.9001V41.8001H53.5001V54.5001Z" fill="#7FC18E" fill-opacity="0.5"/>
<path d="M87.1993 56.2003C88.0993 56.6003 88.5993 57.1003 88.9993 57.9003C89.0993 58.8003 89.0993 59.6003 88.6993 60.5003C87.8993 61.3003 87.3993 61.6003 86.1993 61.7003C84.9993 61.7003 84.4993 61.3003 83.6993 60.5003C83.2993 59.6003 83.2993 58.8003 83.3993 57.9003C84.1993 56.3003 85.4993 56.0003 87.2993 56.2003H87.1993Z" fill="#7FC18E" fill-opacity="0.5"/>
<path d="M75.8985 50.7999C76.7985 51.1999 77.2985 51.6999 77.6985 52.4999C77.7985 53.3999 77.7985 54.1999 77.3985 55.0999C76.5985 55.8999 76.0985 56.1999 74.8985 56.2999C73.6985 56.2999 73.1985 55.8999 72.3985 55.0999C71.9985 54.1999 71.9985 53.3999 72.0985 52.4999C72.8985 50.8999 74.1985 50.5999 75.9985 50.7999H75.8985Z" fill="#7FC18E" fill-opacity="0.5"/>
<path d="M87.1993 45.5001C88.0993 45.9001 88.5993 46.4001 88.9993 47.2001C89.0993 48.1001 89.0993 48.9001 88.6993 49.8001C87.8993 50.6001 87.3993 50.9001 86.1993 51.0001C84.9993 51.0001 84.4993 50.6001 83.6993 49.8001C83.2993 48.9001 83.2993 48.1001 83.3993 47.2001C84.1993 45.6001 85.4993 45.3001 87.2993 45.5001H87.1993Z" fill="#7FC18E" fill-opacity="0.5"/>
<path d="M64.6993 45.5001C65.5993 45.9001 66.0993 46.4001 66.4993 47.2001C66.5993 48.1001 66.5993 48.9001 66.1993 49.8001C65.3993 50.6001 64.8993 50.9001 63.6993 51.0001C62.4993 51.0001 61.9993 50.6001 61.1993 49.8001C60.7993 48.9001 60.7993 48.1001 60.8993 47.2001C61.6993 45.6001 62.9993 45.3001 64.7993 45.5001H64.6993Z" fill="#7FC18E" fill-opacity="0.5"/>
<path d="M75.8985 40.0997C76.7985 40.4997 77.2985 40.9997 77.6985 41.7997C77.7985 42.6997 77.7985 43.4997 77.3985 44.3997C76.5985 45.1997 76.0985 45.4997 74.8985 45.5997C73.6985 45.5997 73.1985 45.1997 72.3985 44.3997C71.9985 43.4997 71.9985 42.6997 72.0985 41.7997C72.8985 40.1997 74.1985 39.8997 75.9985 40.0997H75.8985Z" fill="#7FC18E" fill-opacity="0.5"/>
<path d="M87.1993 34.7999C88.0993 35.1999 88.5993 35.6999 88.9993 36.4999C89.0993 37.3999 89.0993 38.1999 88.6993 39.0999C87.8993 39.8999 87.3993 40.1999 86.1993 40.2999C84.9993 40.2999 84.4993 39.8999 83.6993 39.0999C83.2993 38.1999 83.2993 37.3999 83.3993 36.4999C84.1993 34.8999 85.4993 34.5999 87.2993 34.7999H87.1993Z" fill="#7FC18E" fill-opacity="0.5"/>
</svg>
