<svg width="34" height="34" viewBox="0 0 34 34" fill="none" xmlns="http://www.w3.org/2000/svg">
<path d="M17.9659 0.425297C17.7181 0.154343 17.368 0 17.0008 0C16.6336 0 16.2835 0.154343 16.0357 0.425297L9.06134 8.0535C8.57401 8.58652 8.61104 9.41368 9.14406 9.90101C9.67709 10.3883 10.5042 10.3513 10.9916 9.81829L15.6931 4.67596V23.9744C15.6931 24.6966 16.2786 25.2821 17.0008 25.2821C17.723 25.2821 18.3085 24.6966 18.3085 23.9744V4.67596L23.0101 9.81829C23.4974 10.3513 24.3246 10.3883 24.8576 9.90101C25.3906 9.41368 25.4276 8.58652 24.9402 8.0535L17.9659 0.425297Z" fill="#1A1A1A"/>
<path d="M2.61539 22.2307C2.61539 21.5085 2.02992 20.923 1.30769 20.923C0.585481 20.923 9.13559e-07 21.5085 9.13559e-07 22.2307V22.3265C-3.39582e-05 24.711 -6.89549e-05 26.6329 0.203164 28.1446C0.414173 29.714 0.865571 31.0353 1.91507 32.0848C2.96457 33.1344 4.28599 33.5859 5.85541 33.7968C7.36705 34 9.28905 34 11.6736 34H22.3265C24.711 34 26.633 34 28.1447 33.7968C29.7141 33.5859 31.0354 33.1344 32.085 32.0848C33.1345 31.0353 33.5859 29.714 33.7969 28.1446C34 26.6329 34 24.711 34 22.3265V22.2307C34 21.5085 33.4145 20.923 32.6923 20.923C31.9701 20.923 31.3846 21.5085 31.3846 22.2307C31.3846 24.7335 31.3818 26.479 31.2049 27.7961C31.0328 29.0755 30.7182 29.7529 30.2356 30.2355C29.753 30.7182 29.0756 31.0327 27.7961 31.2048C26.479 31.3818 24.7335 31.3846 22.2308 31.3846H11.7692C9.26647 31.3846 7.52092 31.3818 6.2039 31.2048C4.92451 31.0327 4.24698 30.7182 3.76443 30.2355C3.28187 29.7529 2.96724 29.0755 2.79524 27.7961C2.61816 26.479 2.61539 24.7335 2.61539 22.2307Z" fill="#1A1A1A"/>
</svg>
