<svg width="35" height="35" viewBox="0 0 35 35" fill="none" xmlns="http://www.w3.org/2000/svg">
<path d="M34.4539 31.8354L24.7438 22.1256C26.5782 19.7432 27.5717 16.8203 27.5691 13.8135C27.5757 10.7033 26.5303 7.68223 24.6026 5.24134C22.675 2.80045 19.9785 1.0832 16.9513 0.368682C13.9242 -0.345836 10.7443 -0.0156208 7.92863 1.30566C5.11292 2.62694 2.82683 4.86162 1.4419 7.64652C0.0569784 10.4314 -0.34537 13.6028 0.300247 16.6453C0.945864 19.6878 2.6015 22.4225 4.99807 24.405C7.39464 26.3875 10.3913 27.5013 13.5009 27.5653C16.6106 27.6293 19.6505 26.6397 22.1266 24.7575L31.8368 34.4673C32.1868 34.8088 32.6564 35 33.1454 35C33.6343 35 34.104 34.8088 34.4539 34.4673C34.627 34.2947 34.7644 34.0896 34.8581 33.8638C34.9518 33.6379 35 33.3959 35 33.1514C35 32.9069 34.9518 32.6648 34.8581 32.439C34.7644 32.2132 34.627 32.0081 34.4539 31.8354ZM3.77698 13.8135C3.77698 11.8284 4.36566 9.88784 5.46857 8.23727C6.57148 6.5867 8.13909 5.30024 9.97317 4.54056C11.8072 3.78089 13.8254 3.58212 15.7725 3.9694C17.7195 4.35668 19.508 5.31261 20.9117 6.7163C22.3155 8.12 23.2714 9.90841 23.6587 11.8554C24.046 13.8024 23.8472 15.8205 23.0875 17.6545C22.3278 19.4885 21.0413 21.0561 19.3907 22.1589C17.7401 23.2618 15.7995 23.8505 13.8143 23.8505C11.1534 23.8465 8.60269 22.7878 6.72118 20.9064C4.83967 19.0249 3.78091 16.4743 3.77698 13.8135Z" fill="#143CA3"/>
</svg>
