<svg width="85" height="81" viewBox="0 0 85 81" fill="none" xmlns="http://www.w3.org/2000/svg">
<path d="M22.6 64.0002C23.7 63.1002 24.9 62.2002 26 61.3002L26.3 61.1002L26.7 61.4002C27.1 61.7002 27.6 62.0002 28 62.3002C29 63.0002 30.1 63.8002 31.4 64.4002L31.9 64.6002C35.8 66.3002 40.3 66.8002 44.4 65.8002H45C46.9 65.1002 48.8 64.4002 50.6 63.3002C55 60.5002 58 56.3002 59.1 51.3002L59.5 49.6002H65.5V49.9002C66.2333 51.3669 66.8 52.4002 67.2 53.0002C68.8 55.0002 70.9 56.2002 73.2 56.6002C76.6 56.8002 79.1 56.2002 81.1 54.6002C83.3 52.7002 84.4 50.6002 84.5 48.4002C84.5 45.3002 83.8 43.2002 82.1 41.4002C80.1 39.5002 78 38.5002 75.4 38.5002C72.4 38.5002 70.1 39.3002 68.4 40.9002L68.1 41.2002C67.3 42.0002 66.7 42.9002 66.2 44.0002L65.6 45.5002H59.6V45.1002C58.5 40.0002 56.4 36.3002 53 33.5002L52.6 33.1002C49.2 30.3002 45.1 28.9002 40.4 28.9002H40.1C39 28.9002 37.7 28.9002 36.4 29.2002H36C35.7 29.4002 35.3 29.4002 35 29.5002H34.7C33.6 29.9002 32.5 30.3002 31.1 30.9002C30.9 30.9002 30.6 31.1002 30.3 30.9002C30 30.7002 29.8 30.5002 29.7 30.4002C29.2 29.8002 28.7 29.2002 28.3 28.6002L27.8 27.9002C27 26.8002 26.2 25.8002 25.4 24.7002C24.8 24.0002 24.3 23.2002 23.7 22.5002C22.9 21.5002 22.3 20.7002 21.7 19.8002L21.5 19.5002L21.8 19.2002C23.7 17.1002 24.7 14.6002 24.7 11.6002C24.7 8.50023 23.6 5.80023 21.8 4.00023L21.4 3.70023C20.8 3.10023 20.3 2.60023 19.7 2.20023C15.4 -0.899771 8.29998 -0.599771 4.69998 2.90023L3.89998 3.70023C1.79998 5.70023 0.599984 8.40023 0.599984 11.7002C0.599984 14.8002 1.69998 17.5002 3.49998 19.3002L3.89998 19.6002C4.79998 20.5002 5.69998 21.3002 7.09998 22.0002C10.2 23.4002 13.5 23.6002 16.3 22.7002L18 22.2002L18.6 23.0002L19.1 23.6002C19.3 23.8002 19.5 24.1002 19.7 24.3002L22.9 28.5002C23.4 29.2002 23.9 29.8002 24.4 30.4002L26 32.4002C26.3 32.8002 26.5 33.1002 26.6 33.5002C26.7 34.1002 26.6 34.3002 26.3 34.7002C24 37.0002 22.3 39.6002 21.5 42.4002L21.3 43.0002C20 47.3002 20.7 52.2002 23.3 57.1002L23.8 58.0002L23.4 58.3002C22.6 58.9002 21.8 59.5002 20.7 60.3002L20.2 60.7002C19 61.6002 17.8 62.6002 16.5 63.7002L15.8 64.3002L15.5 64.1002C13.8 63.1002 11.9 62.6002 9.99998 62.6002C8.09998 62.6002 8.69998 62.6002 7.99998 62.8002C5.49998 63.4002 3.39998 64.8002 1.89998 66.9002C0.599985 69.1002 0.199984 71.6002 0.799984 74.1002C1.59998 76.6002 3.19998 78.6002 5.39998 79.8002C7.89998 81.0002 10.6 81.2002 13.1 80.5002C15.7 79.6002 17.6 78.0002 18.7 75.8002C19.8 73.5002 20 70.9002 19.2 69.0002L18.6 67.5002L18.8 67.3002C19.2 66.9002 19.6 66.5002 20 66.2002L20.9 65.5002C21.4 65.1002 22 64.7002 22.5 64.2002L22.6 64.0002ZM70.2 45.1002L70.4 44.8002C70.5333 44.6002 70.6667 44.4002 70.8 44.2002C72.5 42.4002 75.3 41.9002 77.4 43.0002L77.8 43.2002C78.9 43.9002 79.7 44.9002 80.2 46.3002C80.4 47.9002 80.2 49.0002 79.7 50.1002L79.5 50.4002C78.8 51.5002 77.8 52.2002 76.3 52.7002C75.8 52.7002 75.4 52.8002 74.9 52.8002C73.9 52.8002 73.1 52.6002 72.4 52.2002L72 52.0002C70.9 51.3002 70.1 50.3002 69.6 48.9002C69.4 47.3002 69.6 46.2002 70.1 45.1002H70.2ZM18.4 16.8002L18.1 17.1002C16.6 18.5002 14.9 19.2002 12.9 19.2002C10.5 19.2002 8.59998 18.5002 7.19998 17.2002L6.89998 16.9002C5.49998 15.4002 4.69998 13.8002 4.69998 11.9002C4.69998 9.60023 5.39998 7.80023 6.69998 6.40023L6.99998 6.10023C8.49998 4.70023 10.2 4.00023 12.2 4.00023C14.6 4.00023 16.5 4.70023 17.9 6.00023L18.2 6.30023C19.6 7.80023 20.4 9.40023 20.4 11.3002C20.4 13.6002 19.7 15.4002 18.4 16.8002ZM28.8 37.5002C34 32.3002 42.4 31.3002 48.6 35.2002C52 37.5002 54.4 40.9002 55.2 44.7002C55.9 48.7002 55 52.7002 52.7 56.0002C50.3 59.2002 46.6 61.5002 42.6 62.1002C41.8 62.1002 41.1 62.2002 40.3 62.2002C36.7 62.2002 33.4 61.2002 30.7 59.2002C27.4 56.7002 25.3 53.2002 24.9 49.5002C24.6 44.6002 25.9 40.7002 28.8 37.5002ZM14.9 74.1002L14.7 74.4002C14 75.5002 13 76.2002 11.5 76.7002C11 76.7002 10.6 76.8002 10.1 76.8002C9.09999 76.8002 8.29998 76.6002 7.59998 76.2002L7.19998 76.0002C6.09998 75.3002 5.29998 74.3002 4.79998 72.9002C4.59998 71.3002 4.79998 70.2002 5.29998 69.1002L5.49998 68.8002C5.63332 68.6002 5.76665 68.4002 5.89998 68.2002C7.59998 66.4002 10.4 65.9002 12.5 67.0002L12.9 67.2002C14 67.9002 14.8 68.9002 15.3 70.3002C15.5 71.9002 15.3 73.0002 14.8 74.1002H14.9Z" fill="#DDCB9F" fill-opacity="0.5"/>
</svg>
