<svg width="78" height="75" viewBox="0 0 78 75" fill="none" xmlns="http://www.w3.org/2000/svg">
<path d="M77.6984 59.9001C77.6984 58.5001 77.6984 57.1001 77.6984 55.7001V52.3001V50.8001C77.6984 47.7001 77.6984 44.6001 77.6984 41.6001C77.6984 39.0001 77.6984 36.3001 77.6984 33.7001C77.6984 30.6001 77.6984 27.5001 77.6984 24.4001V22.9001C77.6984 21.8001 77.6984 20.6001 77.6984 19.5001C77.6984 18.1001 77.6984 16.7001 77.6984 15.3001C77.6984 14.6001 77.6984 13.9001 77.6984 13.2001C77.6984 12.5001 77.6984 11.9001 77.6984 11.2001V10.5001C77.6984 7.4001 76.8984 5.1001 74.9984 3.2001C73.0984 1.5001 70.7984 0.600098 67.9984 0.600098C67.5984 0.600098 67.2984 0.600098 66.8984 0.600098C66.1984 0.600098 65.4984 0.600098 64.8984 0.600098C64.1984 0.600098 63.3984 0.600098 62.6984 0.600098C61.1984 0.600098 59.7985 0.600098 58.2985 0.600098C57.0985 0.600098 55.8984 0.600098 54.6984 0.600098H53.0984C49.8984 0.600098 46.5984 0.600098 43.3984 0.600098C40.5984 0.600098 37.7984 0.600098 35.0984 0.600098C31.8984 0.600098 28.5984 0.600098 25.3984 0.600098H20.2985C18.7985 0.600098 17.3984 0.600098 15.8984 0.600098H15.6984C14.9984 0.600098 14.2984 0.600098 13.6984 0.600098C12.9984 0.600098 12.2984 0.600098 11.5984 0.600098H10.7985C10.7985 0.600098 10.7984 0.600098 10.6984 0.600098C7.49836 0.600098 5.09839 1.4001 3.09839 3.2001C1.29839 5.0001 0.398438 7.2001 0.398438 9.9001C0.398438 10.2001 0.398438 10.6001 0.398438 10.9001C0.398438 11.5001 0.398438 12.2001 0.398438 12.8001C0.398438 13.5001 0.398438 14.2001 0.398438 14.9001C0.398438 16.3001 0.398438 17.7001 0.398438 19.1001V22.5001V24.0001C0.398438 27.1001 0.398438 30.2001 0.398438 33.2001C0.398438 35.8001 0.398438 38.5001 0.398438 41.1001C0.398438 44.2001 0.398438 47.3001 0.398438 50.4001V51.9001C0.398438 53.0001 0.398438 54.2001 0.398438 55.3001C0.398438 56.7001 0.398438 58.1001 0.398438 59.5001C0.398438 60.2001 0.398438 60.9001 0.398438 61.6001C0.398438 62.3001 0.398438 62.9001 0.398438 63.6001V64.3001C0.398438 67.4001 1.19839 69.7001 3.09839 71.6001C5.09839 73.3001 7.39839 74.2001 10.0984 74.2001C10.4984 74.2001 10.7984 74.2001 11.1984 74.2001C11.8984 74.2001 12.5985 74.2001 13.2985 74.2001C13.9985 74.2001 14.7984 74.2001 15.4984 74.2001C16.9984 74.2001 18.3984 74.2001 19.8984 74.2001C24.6984 74.2001 29.4984 74.2001 34.1984 74.2001C37.1984 74.2001 40.1984 74.2001 43.0984 74.2001H68.9984C71.0984 74.2001 73.2984 73.3001 75.0984 71.6001C76.8984 69.8001 77.7985 67.6001 77.7985 64.9001C77.7985 64.6001 77.7985 64.2001 77.7985 63.9001C77.7985 63.3001 77.7985 62.6001 77.7985 62.0001C77.7985 61.3001 77.7985 60.6001 77.7985 59.9001H77.6984ZM74.1984 13.6001C74.1984 14.3001 74.1984 15.0001 74.1984 15.6001C74.1984 16.9001 74.1984 18.3001 74.1984 19.6001C74.1984 21.2001 74.1984 22.7001 74.1984 24.3001C74.1984 27.1001 74.1984 29.9001 74.1984 32.7001C74.1984 35.4001 74.1984 38.2001 74.1984 40.9001V64.6001C74.1984 66.3001 73.6984 67.7001 72.5984 68.9001C71.1984 70.2001 69.4984 70.8001 67.1984 70.8001H66.4984C65.6984 70.8001 64.8984 70.8001 64.1984 70.8001C63.4984 70.8001 62.7984 70.8001 61.9984 70.8001C60.5984 70.8001 59.1985 70.8001 57.7985 70.8001C56.0985 70.8001 54.4985 70.8001 52.7985 70.8001C49.7985 70.8001 46.8984 70.8001 43.8984 70.8001C40.9984 70.8001 38.0985 70.8001 35.2985 70.8001C32.0985 70.8001 28.9985 70.8001 25.7985 70.8001H20.7985C19.3985 70.8001 17.8984 70.8001 16.4984 70.8001H16.1984C15.5984 70.8001 14.8985 70.8001 14.2985 70.8001C13.5985 70.8001 12.8985 70.8001 12.2985 70.8001H11.5984C9.09839 70.8001 7.39836 70.5001 5.69836 69.0001C4.09836 67.4001 3.79846 65.6001 3.79846 63.9001V63.2001C3.79846 62.5001 3.79846 61.7001 3.79846 61.0001C3.79846 60.3001 3.79846 59.6001 3.79846 59.0001C3.79846 57.7001 3.79846 56.3001 3.79846 55.0001C3.79846 53.4001 3.79846 51.9001 3.79846 50.3001C3.79846 47.5001 3.79846 44.7001 3.79846 41.9001C3.79846 39.2001 3.79846 36.4001 3.79846 33.7001V10.0001C3.79846 8.5001 4.19841 7.4001 4.99841 6.1001C6.39841 4.5001 8.19846 3.7001 10.7985 3.7001H11.4984C12.2984 3.7001 13.0985 3.7001 13.7985 3.7001C14.4985 3.7001 15.1984 3.7001 15.9984 3.7001C17.3984 3.7001 18.7984 3.7001 20.1984 3.7001C21.8984 3.7001 23.4984 3.7001 25.1984 3.7001C28.1984 3.7001 31.0984 3.7001 34.0984 3.7001C36.9984 3.7001 39.8984 3.7001 42.6984 3.7001C45.8984 3.7001 48.9984 3.7001 52.1984 3.7001H57.1984C58.5984 3.7001 60.0984 3.7001 61.4984 3.7001H61.7985C62.3985 3.7001 63.0984 3.7001 63.6984 3.7001C64.3984 3.7001 65.0984 3.7001 65.6984 3.7001H66.3984C66.3984 3.7001 66.3984 3.7001 66.4984 3.7001C68.8984 3.7001 70.5984 4.0001 72.1984 5.5001C73.7984 7.1001 74.0984 8.9001 74.0984 10.6001V11.3001C74.0984 12.0001 74.0984 12.8001 74.0984 13.5001L74.1984 13.6001Z" fill="#DDCB9F" fill-opacity="0.5"/>
<path d="M28.9016 60.7998H29.3016C30.1016 60.7998 30.6016 60.7998 31.3016 60.3998C31.7016 60.0998 31.8016 59.9998 31.9016 59.5998C32.0016 58.9998 31.9016 58.5998 31.5016 57.9998C30.7016 57.5998 29.9016 57.4998 28.8016 57.4998H28.2015C27.5015 57.4998 26.9015 57.4998 26.2015 57.4998H24.8016C23.6016 57.4998 22.4016 57.4998 21.1016 57.4998H20.1016L20.6016 57.0998C21.9016 55.8998 23.1016 54.7998 24.4016 53.5998L26.3016 51.7998C26.9016 51.1998 27.6015 50.5998 28.2015 49.9998L28.9016 49.2998C29.3016 48.9998 29.6016 48.6998 29.9016 48.2998L30.2015 47.9998C30.7015 47.5998 31.1016 47.1998 31.4016 46.6998C31.7016 46.0998 31.8016 45.7998 31.6016 45.0998C31.2016 44.5998 30.8016 44.3998 30.1016 44.2998C29.3016 44.3998 28.8015 44.6998 28.2015 45.1998L27.9016 45.4998C27.6016 45.7998 27.2016 46.0998 26.9016 46.4998C26.7016 46.6998 26.4015 46.9998 26.2015 47.1998C25.6015 47.7998 24.9016 48.3998 24.3016 48.9998C23.6016 49.5998 23.0016 50.1998 22.3016 50.7998C21.0016 51.9998 19.7016 53.1998 18.5016 54.3998L17.7015 55.1998V46.5998C17.5015 46.2998 17.5016 45.9998 17.5016 45.6998C17.4016 45.1998 17.2016 44.9998 16.8016 44.5998C16.0016 44.2998 15.5016 44.1998 14.8016 44.5998C14.3016 45.1998 14.1016 45.5998 14.1016 46.3998V46.7998C14.1016 47.1998 14.1016 47.6998 14.1016 48.0998V48.9998C14.1016 49.6998 14.1016 50.2998 14.1016 50.9998C14.1016 51.7998 14.1016 52.6998 14.1016 53.4998C14.1016 54.1998 14.1016 54.7998 14.1016 55.4998V56.3998C14.1016 56.8998 14.1016 57.2998 14.1016 57.7998V58.1998C14.1016 58.9998 14.1016 59.5998 14.6016 60.1998C15.1016 60.5998 15.6016 60.6998 16.4016 60.6998H16.8016C17.3016 60.6998 17.7015 60.6998 18.2015 60.6998H19.2015C19.9015 60.6998 20.6016 60.6998 21.3016 60.6998C22.2016 60.6998 23.1016 60.6998 24.0016 60.6998C24.7016 60.6998 25.4016 60.6998 26.1016 60.6998H27.1016C27.6016 60.6998 28.1016 60.6998 28.6016 60.6998L28.9016 60.7998Z" fill="#DDCB9F" fill-opacity="0.5"/>
<path d="M60.2016 27.8998C60.2016 28.3998 60.2017 28.8998 60.4017 29.2998C60.7017 29.5998 60.9017 29.7998 61.4017 30.0998C62.0017 30.1998 62.3017 30.0998 62.9017 29.8998C63.4017 29.2998 63.5016 28.8998 63.6016 28.0998V27.6998C63.6016 27.2998 63.6016 26.7998 63.6016 26.3998V25.4998C63.6016 24.7998 63.6016 24.1998 63.6016 23.4998C63.6016 22.6998 63.6016 21.7998 63.6016 20.9998C63.6016 20.2998 63.6016 19.6998 63.6016 18.9998V18.0998C63.6016 17.5998 63.6016 17.1998 63.6016 16.6998V16.2998C63.6016 15.4998 63.6016 14.8998 63.1016 14.2998C62.6016 13.8998 62.2017 13.7998 61.4017 13.7998H61.0017C60.5017 13.7998 60.1016 13.7998 59.7016 13.7998H58.7016C58.0016 13.7998 57.4016 13.7998 56.7016 13.7998C55.8016 13.7998 55.0016 13.7998 54.1016 13.7998C53.4016 13.7998 52.7016 13.7998 52.1016 13.7998H51.1016C50.6016 13.7998 50.2016 13.7998 49.7016 13.7998H49.3017C48.5017 13.7998 48.1017 13.7998 47.4017 14.1998C47.1017 14.4998 46.9017 14.5998 46.8017 14.9998C46.7017 15.5998 46.8016 15.9998 47.2016 16.5998C48.0016 16.9998 48.7016 17.0998 49.7016 17.0998H50.3017C50.9017 17.0998 51.6016 17.0998 52.2016 17.0998H53.5017C54.7017 17.0998 55.8017 17.0998 57.0017 17.0998H58.0017L57.6016 17.4998C56.4016 18.6998 55.2017 19.7998 54.0017 20.9998L52.1016 22.7998C51.5016 23.3998 50.9017 23.9998 50.3017 24.5998L49.6016 25.2998C49.3016 25.5998 48.9016 25.8998 48.6016 26.2998L48.3017 26.5998C47.8017 26.9998 47.4016 27.3998 47.2016 27.8998C46.9016 28.4998 46.8017 28.7998 47.0017 29.4998C47.4017 29.9998 47.8017 30.1998 48.4017 30.2998C49.2017 30.1998 49.6016 29.8998 50.2016 29.3998L50.5017 29.0998C50.8017 28.7998 51.2017 28.4998 51.5017 28.0998C51.7017 27.8998 52.0016 27.5998 52.2016 27.3998C52.8016 26.7998 53.4017 26.1998 54.0017 25.5998C54.6017 24.9998 55.2017 24.3998 55.9017 23.7998C57.1017 22.5998 58.3017 21.3998 59.5017 20.1998L60.3017 19.3998V27.9998L60.2016 27.8998Z" fill="#DDCB9F" fill-opacity="0.5"/>
</svg>
