<svg width="79" height="79" viewBox="0 0 79 79" fill="none" xmlns="http://www.w3.org/2000/svg">
<path d="M70.8001 15.2L70.4001 14.8C68.8001 12.8 66.9 10.9 64.6 8.89999L64.3001 8.70001C59.3001 4.60001 53.3 1.90001 47.1 0.700012H46.7C44.5 0.200012 42.1001 0 39.8001 0C37.5001 0 35.5001 0.200006 33.5001 0.600006H33.1C26.6 1.90001 20.8 4.50001 16.1 8.20001L15.7 8.60001C13.7 10.2 11.8001 12.1 9.8001 14.4L9.60003 14.7C5.50003 19.7 2.80003 25.7 1.60003 31.9V32.3C0.700028 36.6 0.700077 41.4 1.40008 45.5V45.9C2.70008 52.4 5.30005 58.2 9.00005 62.9L9.40008 63.3C11.0001 65.3 12.8 67.2 15.2 69.2L15.5001 69.4C20.5001 73.5 26.5 76.2 32.7 77.4H33.1C37.4 78.3 42.2001 78.3 46.3001 77.6H46.7C53.2 76.3 59 73.7 63.7 70L64.1 69.6C66.1 68 68.0001 66.1 70.0001 63.8L70.2 63.5C74.3 58.5 77 52.6 78.2 46.3V45.9C79.1 41.6 79.1001 36.8 78.4001 32.7V32.3C77.1001 25.8 74.5001 20 70.8001 15.3V15.2ZM74.5001 42.4V42.9C73.6001 49.3 71.3001 55.1 67.4001 60.1L67.2 60.4C66.3 61.5 65.5 62.4 64.7 63.2L64.3001 63.6C63.4001 64.5 62.3 65.5 61.1 66.4L60.6 66.7C58.8 68.1 57.1001 69.1 55.5001 69.9L55.2 70.1C50.3 72.5 45.1001 73.7 40.0001 73.7C34.9001 73.7 37.8 73.7 36.6 73.5H36.1C29.7 72.6 23.9001 70.3 18.9001 66.4L18.6 66.2C17.5 65.3 16.6001 64.5 15.8001 63.7L15.4001 63.3C14.5001 62.4 13.5 61.3 12.6 60.1L12.3001 59.6C10.9001 57.8 9.90003 56.1 9.10003 54.5L8.90008 54.2C6.00008 48.2 4.80005 41.8 5.50005 35.6V35.1C6.40005 28.7 8.70003 22.9 12.6 17.9L12.8001 17.6C13.7001 16.5 14.5001 15.6 15.3001 14.8L15.7 14.4C16.6 13.5 17.7001 12.5 18.9001 11.6L19.4001 11.3C21.2001 9.89999 22.9001 8.90001 24.5001 8.10001L24.8001 7.89999C30.8001 4.99999 37.2001 3.8 43.4001 4.5H43.9001C50.3001 5.4 56.1 7.70001 61.1 11.6L61.4001 11.8C62.5001 12.7 63.4 13.5 64.2 14.3L64.6 14.7C65.5 15.6 66.5001 16.7 67.4001 17.9L67.7 18.4C69.1 20.2 70.1001 21.9 70.9001 23.5L71.1 23.8C74 29.8 75.2001 36.2 74.5001 42.4Z" fill="#855EA6" fill-opacity="0.5"/>
<path d="M37.6 24.2C37.6 24.8 37.6 25.4 37.6 26C37.6 27 37.6 28 37.6 29C37.6 30.2 37.6 31.3 37.6 32.5C37.6 33.8 37.6 35 37.6 36.3V40.9C37.6 41.3 37.6 41.3 37.6 41.6C37.9 42.3 38.3 42.7 39.1 43.3L40.2 44.1C40.9 44.6 41.6 45.1 42.3 45.7C43.6 46.7 44.8 47.6 46.1 48.5C46.8 49 47.5 49.5 48.2 50L50.1 51.5C51 52.2 52 53 53 53.2C54 53.2 54.6 53 55.3 52.4C55.7 51.6 55.9 51 55.9 50.4C55.8 49.6 55.3 49.1 54.4 48.4C53.5 47.7 52.5 47 51.6 46.3C50.3 45.3 49 44.3 47.7 43.4L47 42.9C46.6 42.6 46.3 42.3 45.9 42.1C45.2 41.7 44.2 41.1 43.3 40.2H43.2C43.2 40.1 43.2 39.9 43.2 39.9C42.4 37.8 42.3 37.7 42.5 35.3C42.5 34.9 42.5 34.5 42.5 34.1C42.5 33 42.5 31.9 42.5 30.8C42.5 29.6 42.5 28.3 42.5 27.1V26.8C42.5 25.7 42.5 24.6 42.5 23.5V20.8C42.5 20.6 42.5 20.4 42.5 20.2C42.3 19.6 42 19.2 41.5 18.9C40.5 18.4 39.6 18.4 38.4 19.1C37.8 19.8 37.6 20.5 37.6 21.6V22.1C37.6 22.9 37.6 23.5 37.6 24.2Z" fill="#855EA6" fill-opacity="0.5"/>
</svg>
