<svg width="80" height="87" viewBox="0 0 80 87" fill="none" xmlns="http://www.w3.org/2000/svg">
<path d="M64.6 37.3L64.2 36.9C63.7 36.4 63.2 35.9 62.8 35.4C62.4 35 61.9 34.5 61.5 34.1C60.6 33.2 59.8 32.4 58.9 31.5L55.8 28.4C53.9 26.5 51.9 24.5 50 22.6C48.3 20.9 46.7 19.3 45 17.6C43.1 15.7 41.1 13.7 39.2 11.8L36.1 8.69999C35.2 7.79999 34.4 6.89999 33.5 6.09999L32.4 4.99999C31.9 4.49999 31.4 3.99999 30.9 3.49999L30.4 2.99999C29.7 2.29999 29.1 1.69999 28.3 1.19999C27.6 0.899989 27 0.899989 26.2 1.29999C25.6 1.79999 25.4 2.29999 25.2 3.09999C25.3 4.09999 25.6 4.49999 26.4 5.19999C26.8 5.59999 27.2 5.99999 27.6 6.39999L29 8.09999L8 29.2C7 30.2 5.89999 31.4 4.79999 32.5L4.5 32.8C2.2 35.3 0.900024 38.7 0.900024 42.4C1.00002 47.5 3.49998 51.1 7.59998 55.1C8.09998 55.6 8.59998 56.1 9.09998 56.6C9.99998 57.5 10.8 58.3 11.7 59.2C12.7 60.2 13.7 61.2 14.7 62.2L20.9 68.4C22.3 69.8 23.7 71.3 25.5 72.2C29.2 74 33.3 74.3 37 73.2L37.6 73C39.6 72.2 41.4 70.9 43.5 68.8L44.2 68.1C44.8 67.5 45.4 66.9 46.1 66.2C46.8 65.5 47.4 64.9 48.1 64.2C49.2 63.1 50.3 62 51.4 60.9C52.7 59.6 54 58.3 55.2 57C56.6 55.6 58 54.2 59.3 52.8L63.3 48.8C65.4 46.7 67 45.1 67 42.3C67 40.4 66.3 38.9 64.6 37.2V37.3ZM59.2 46.9L42 64.3C39.2 67.1 36.5 69.8 32 69.8C29.3 69.6 26.9 68.4 24.6 66.1L24.1 65.6C23.5 65 23 64.5 22.4 63.9L20.9 62.4C20.1 61.6 19.2 60.7 18.4 59.9C17.4 58.9 16.5 58 15.5 57C14.6 56.1 13.6 55.1 12.7 54.2L9.59998 51C8.09998 49.5 6.79998 48.1 6.09998 45.9L5.70001 44.6H59.9V45.5C60 46.2 59.8 46.5 59.3 46.9H59.2ZM5.40002 40.3L6 38.9C7.3 36.1 7.3 36 9.5 33.8L10.2 33.1C10.8 32.5 11.5 31.8 12.1 31.2L14.1 29.2C15.2 28.1 16.3 27 17.4 25.8C18.8 24.4 20.3 22.9 21.7 21.5L30.8 12.4C31.2 12 31.6 11.6 32.2 11.6C32.8 11.6 33.3 12 33.7 12.5L57.2 36.2C58 37 58.8 37.9 59.5 38.7L60.9 40.3H5.29999H5.40002Z" fill="#855EA6" fill-opacity="0.5"/>
<path d="M63.8 57C60.3 61.2 58.1 65 56.9 68.8V69.2C56.3 70.8 56 72.3 56 74V74.6C56 75.5 56 76.4 56.2 77.3C57 80.2 58.8 82.8 61.2 84.4C64.1 86.1 67.3 86.5 70.7 85.7C73.5 84.9 76 83 77.6 80.4C79.3 77.2 79.5 73.6 78.3 69.3C76.5 63.6 72.7 56.4 68.5 54.2C68.2 54.2 67.9 54.1 67.6 54.1C66.8 54.1 66 54.5 65.3 55.3L65 55.6C64.7 56 64.4 56.3 64.1 56.7L63.8 57.1V57ZM65.1 62.4L65.4 62C65.8 61.5 66.1 61 66.5 60.5L66.8 60.1H68.2L68.5 60.5C68.7 60.8 68.9 61.1 69.1 61.4C72 65.3 75 70.1 74.6 75.3C74.3 77.3 73.3 78.9 71.6 80.3C70.3 81.2 68.9 81.6 67.3 81.6C65.7 81.6 66.5 81.6 66 81.6H65.9C63.8 81 62.2 79.8 61.1 77.9C60.1 75.6 60.3 72.9 60.8 71.1L61 70.6C61.9 67.9 63.3 65.2 65.2 62.4H65.1Z" fill="#855EA6" fill-opacity="0.5"/>
</svg>
