<svg width="85" height="81" viewBox="0 0 85 81" fill="none" xmlns="http://www.w3.org/2000/svg">
<path d="M22.6001 64C23.7001 63.1 24.9001 62.2 26.0001 61.3L26.3001 61.1L26.7001 61.4C27.1001 61.7 27.6001 62 28.0001 62.3C29.0001 63 30.1001 63.8 31.4001 64.4L31.9001 64.6C35.8001 66.3 40.3001 66.8 44.4001 65.8H45.0001C46.9001 65.1 48.8001 64.4 50.6001 63.3C55.0001 60.5 58.0001 56.3 59.1001 51.3L59.5001 49.6H65.5001V49.9C66.2334 51.3667 66.8001 52.4 67.2001 53C68.8001 55 70.9001 56.2 73.2001 56.6C76.6001 56.8 79.1001 56.2 81.1001 54.6C83.3001 52.7 84.4001 50.6 84.5001 48.4C84.5001 45.3 83.8001 43.2 82.1001 41.4C80.1001 39.5 78.0001 38.5 75.4001 38.5C72.4001 38.5 70.1001 39.3 68.4001 40.9L68.1001 41.2C67.3001 42 66.7001 42.9 66.2001 44L65.6001 45.5H59.6001V45.1C58.5001 40 56.4001 36.3 53.0001 33.5L52.6001 33.1C49.2001 30.3 45.1001 28.9 40.4001 28.9H40.1001C39.0001 28.9 37.7001 28.9 36.4001 29.2H36.0001C35.7001 29.4 35.3001 29.4 35.0001 29.5H34.7001C33.6001 29.9 32.5001 30.3 31.1001 30.9C30.9001 30.9 30.6001 31.1 30.3001 30.9C30.0001 30.7 29.8001 30.5 29.7001 30.4C29.2001 29.8 28.7001 29.2 28.3001 28.6L27.8001 27.9C27.0001 26.8 26.2001 25.8 25.4001 24.7C24.8001 24 24.3001 23.2 23.7001 22.5C22.9001 21.5 22.3001 20.7 21.7001 19.8L21.5001 19.5L21.8001 19.2C23.7001 17.1 24.7001 14.6 24.7001 11.6C24.7001 8.49998 23.6001 5.79998 21.8001 3.99998L21.4001 3.69998C20.8001 3.09998 20.3001 2.59998 19.7001 2.19998C15.4001 -0.900015 8.30011 -0.600015 4.70011 2.89998L3.90011 3.69998C1.80011 5.69998 0.600106 8.39998 0.600106 11.7C0.600106 14.8 1.70011 17.5 3.50011 19.3L3.90011 19.6C4.80011 20.5 5.70011 21.3 7.10011 22C10.2001 23.4 13.5001 23.6 16.3001 22.7L18.0001 22.2L18.6001 23L19.1001 23.6C19.3001 23.8 19.5001 24.1 19.7001 24.3L22.9001 28.5C23.4001 29.2 23.9001 29.8 24.4001 30.4L26.0001 32.4C26.3001 32.8 26.5001 33.1 26.6001 33.5C26.7001 34.1 26.6001 34.3 26.3001 34.7C24.0001 37 22.3001 39.6 21.5001 42.4L21.3001 43C20.0001 47.3 20.7001 52.2 23.3001 57.1L23.8001 58L23.4001 58.3C22.6001 58.9 21.8001 59.5 20.7001 60.3L20.2001 60.7C19.0001 61.6 17.8001 62.6 16.5001 63.7L15.8001 64.3L15.5001 64.1C13.8001 63.1 11.9001 62.6 10.0001 62.6C8.10011 62.6 8.70011 62.6 8.00011 62.8C5.50011 63.4 3.40011 64.8 1.90011 66.9C0.600107 69.1 0.200106 71.6 0.800106 74.1C1.60011 76.6 3.20011 78.6 5.40011 79.8C7.90011 81 10.6001 81.2 13.1001 80.5C15.7001 79.6 17.6001 78 18.7001 75.8C19.8001 73.5 20.0001 70.9 19.2001 69L18.6001 67.5L18.8001 67.3C19.2001 66.9 19.6001 66.5 20.0001 66.2L20.9001 65.5C21.4001 65.1 22.0001 64.7 22.5001 64.2L22.6001 64ZM70.2001 45.1L70.4001 44.8C70.5334 44.6 70.6668 44.4 70.8001 44.2C72.5001 42.4 75.3001 41.9 77.4001 43L77.8001 43.2C78.9001 43.9 79.7001 44.9 80.2001 46.3C80.4001 47.9 80.2001 49 79.7001 50.1L79.5001 50.4C78.8001 51.5 77.8001 52.2 76.3001 52.7C75.8001 52.7 75.4001 52.8 74.9001 52.8C73.9001 52.8 73.1001 52.6 72.4001 52.2L72.0001 52C70.9001 51.3 70.1001 50.3 69.6001 48.9C69.4001 47.3 69.6001 46.2 70.1001 45.1H70.2001ZM18.4001 16.8L18.1001 17.1C16.6001 18.5 14.9001 19.2 12.9001 19.2C10.5001 19.2 8.60011 18.5 7.20011 17.2L6.90011 16.9C5.50011 15.4 4.70011 13.8 4.70011 11.9C4.70011 9.59998 5.40011 7.79998 6.70011 6.39998L7.00011 6.09999C8.50011 4.69999 10.2001 3.99998 12.2001 3.99998C14.6001 3.99998 16.5001 4.69998 17.9001 5.99998L18.2001 6.29998C19.6001 7.79998 20.4001 9.39999 20.4001 11.3C20.4001 13.6 19.7001 15.4 18.4001 16.8ZM28.8001 37.5C34.0001 32.3 42.4001 31.3 48.6001 35.2C52.0001 37.5 54.4001 40.9 55.2001 44.7C55.9001 48.7 55.0001 52.7 52.7001 56C50.3001 59.2 46.6001 61.5 42.6001 62.1C41.8001 62.1 41.1001 62.2 40.3001 62.2C36.7001 62.2 33.4001 61.2 30.7001 59.2C27.4001 56.7 25.3001 53.2 24.9001 49.5C24.6001 44.6 25.9001 40.7 28.8001 37.5ZM14.9001 74.1L14.7001 74.4C14.0001 75.5 13.0001 76.2 11.5001 76.7C11.0001 76.7 10.6001 76.8 10.1001 76.8C9.10011 76.8 8.30011 76.6 7.60011 76.2L7.20011 76C6.10011 75.3 5.30011 74.3 4.80011 72.9C4.60011 71.3 4.80011 70.2 5.30011 69.1L5.50011 68.8C5.63344 68.6 5.76677 68.4 5.90011 68.2C7.60011 66.4 10.4001 65.9 12.5001 67L12.9001 67.2C14.0001 67.9 14.8001 68.9 15.3001 70.3C15.5001 71.9 15.3001 73 14.8001 74.1H14.9001Z" fill="#855EA6" fill-opacity="0.5"/>
</svg>
