<svg width="78" height="75" viewBox="0 0 78 75" fill="none" xmlns="http://www.w3.org/2000/svg">
<path d="M77.7 59.9C77.7 58.5 77.7 57.1 77.7 55.7V52.3V50.8C77.7 47.7 77.7 44.6 77.7 41.6C77.7 39 77.7 36.3 77.7 33.7C77.7 30.6 77.7 27.5 77.7 24.4V22.9C77.7 21.8 77.7 20.6 77.7 19.5C77.7 18.1 77.7 16.7 77.7 15.3C77.7 14.6 77.7 13.9 77.7 13.2C77.7 12.5 77.7 11.9 77.7 11.2V10.5C77.7 7.40001 76.9 5.10001 75 3.20001C73.1 1.50001 70.8 0.600006 68 0.600006C67.6 0.600006 67.3 0.600006 66.9 0.600006C66.2 0.600006 65.5 0.600006 64.9 0.600006C64.2 0.600006 63.4 0.600006 62.7 0.600006C61.2 0.600006 59.8 0.600006 58.3 0.600006C57.1 0.600006 55.9 0.600006 54.7 0.600006H53.1C49.9 0.600006 46.6 0.600006 43.4 0.600006C40.6 0.600006 37.8 0.600006 35.1 0.600006C31.9 0.600006 28.6 0.600006 25.4 0.600006H20.3C18.8 0.600006 17.4 0.600006 15.9 0.600006H15.7C15 0.600006 14.3 0.600006 13.7 0.600006C13 0.600006 12.3 0.600006 11.6 0.600006H10.8C10.8 0.600006 10.8 0.600006 10.7 0.600006C7.49995 0.600006 5.09998 1.40001 3.09998 3.20001C1.29998 5.00001 0.400024 7.20001 0.400024 9.90001C0.400024 10.2 0.400024 10.6 0.400024 10.9C0.400024 11.5 0.400024 12.2 0.400024 12.8C0.400024 13.5 0.400024 14.2 0.400024 14.9C0.400024 16.3 0.400024 17.7 0.400024 19.1V22.5V24C0.400024 27.1 0.400024 30.2 0.400024 33.2C0.400024 35.8 0.400024 38.5 0.400024 41.1C0.400024 44.2 0.400024 47.3 0.400024 50.4V51.9C0.400024 53 0.400024 54.2 0.400024 55.3C0.400024 56.7 0.400024 58.1 0.400024 59.5C0.400024 60.2 0.400024 60.9 0.400024 61.6C0.400024 62.3 0.400024 62.9 0.400024 63.6V64.3C0.400024 67.4 1.19998 69.7 3.09998 71.6C5.09998 73.3 7.39998 74.2 10.1 74.2C10.5 74.2 10.8 74.2 11.2 74.2C11.9 74.2 12.6 74.2 13.3 74.2C14 74.2 14.8 74.2 15.5 74.2C17 74.2 18.4 74.2 19.9 74.2C24.7 74.2 29.5 74.2 34.2 74.2C37.2 74.2 40.2 74.2 43.1 74.2H69C71.1 74.2 73.3 73.3 75.1 71.6C76.9 69.8 77.8 67.6 77.8 64.9C77.8 64.6 77.8 64.2 77.8 63.9C77.8 63.3 77.8 62.6 77.8 62C77.8 61.3 77.8 60.6 77.8 59.9H77.7ZM74.2 13.6C74.2 14.3 74.2 15 74.2 15.6C74.2 16.9 74.2 18.3 74.2 19.6C74.2 21.2 74.2 22.7 74.2 24.3C74.2 27.1 74.2 29.9 74.2 32.7C74.2 35.4 74.2 38.2 74.2 40.9V64.6C74.2 66.3 73.7 67.7 72.6 68.9C71.2 70.2 69.5 70.8 67.2 70.8H66.5C65.7 70.8 64.8999 70.8 64.2 70.8C63.5 70.8 62.8 70.8 62 70.8C60.6 70.8 59.2001 70.8 57.8 70.8C56.1 70.8 54.5 70.8 52.8 70.8C49.8 70.8 46.9 70.8 43.9 70.8C41 70.8 38.1 70.8 35.3 70.8C32.1 70.8 29 70.8 25.8 70.8H20.8C19.4 70.8 17.9 70.8 16.5 70.8H16.2C15.6 70.8 14.9 70.8 14.3 70.8C13.6 70.8 12.9 70.8 12.3 70.8H11.6C9.09998 70.8 7.39995 70.5 5.69995 69C4.09995 67.4 3.80005 65.6 3.80005 63.9V63.2C3.80005 62.5 3.80005 61.7 3.80005 61C3.80005 60.3 3.80005 59.6 3.80005 59C3.80005 57.7 3.80005 56.3 3.80005 55C3.80005 53.4 3.80005 51.9 3.80005 50.3C3.80005 47.5 3.80005 44.7 3.80005 41.9C3.80005 39.2 3.80005 36.4 3.80005 33.7V10C3.80005 8.50001 4.2 7.40001 5 6.10001C6.4 4.50001 8.20005 3.70001 10.8 3.70001H11.5C12.3 3.70001 13.1 3.70001 13.8 3.70001C14.5 3.70001 15.2 3.70001 16 3.70001C17.4 3.70001 18.8 3.70001 20.2 3.70001C21.9 3.70001 23.5 3.70001 25.2 3.70001C28.2 3.70001 31.1 3.70001 34.1 3.70001C37 3.70001 39.9 3.70001 42.7 3.70001C45.9 3.70001 49 3.70001 52.2 3.70001H57.2C58.6 3.70001 60.1 3.70001 61.5 3.70001H61.8C62.4 3.70001 63.1 3.70001 63.7 3.70001C64.4 3.70001 65.1 3.70001 65.7 3.70001H66.4C66.4 3.70001 66.4 3.70001 66.5 3.70001C68.9 3.70001 70.6 4.00001 72.2 5.50001C73.7999 7.10001 74.1 8.90001 74.1 10.6V11.3C74.1 12 74.1 12.8 74.1 13.5L74.2 13.6Z" fill="#855EA6" fill-opacity="0.5"/>
<path d="M28.9 60.8H29.3C30.1 60.8 30.6 60.8 31.3 60.4C31.7 60.1 31.8 60 31.9 59.6C32 59 31.9 58.6 31.5 58C30.7 57.6 29.9 57.5 28.8 57.5H28.2C27.5 57.5 26.9 57.5 26.2 57.5H24.8C23.6 57.5 22.4 57.5 21.1 57.5H20.1L20.6 57.1C21.9 55.9 23.1 54.8 24.4 53.6L26.3 51.8C26.9 51.2 27.6 50.6 28.2 50L28.9 49.3C29.3 49 29.6 48.7 29.9 48.3L30.2 48C30.7 47.6 31.1 47.2 31.4 46.7C31.7 46.1 31.8 45.8 31.6 45.1C31.2 44.6 30.8 44.4 30.1 44.3C29.3 44.4 28.8 44.7 28.2 45.2L27.9 45.5C27.6 45.8 27.2 46.1 26.9 46.5C26.7 46.7 26.4 47 26.2 47.2C25.6 47.8 24.9 48.4 24.3 49C23.6 49.6 23 50.2 22.3 50.8C21 52 19.7 53.2 18.5 54.4L17.7 55.2V46.6C17.5 46.3 17.5 46 17.5 45.7C17.4 45.2 17.2 45 16.8 44.6C16 44.3 15.5 44.2 14.8 44.6C14.3 45.2 14.1 45.6 14.1 46.4V46.8C14.1 47.2 14.1 47.7 14.1 48.1V49C14.1 49.7 14.1 50.3 14.1 51C14.1 51.8 14.1 52.7 14.1 53.5C14.1 54.2 14.1 54.8 14.1 55.5V56.4C14.1 56.9 14.1 57.3 14.1 57.8V58.2C14.1 59 14.1 59.6 14.6 60.2C15.1 60.6 15.6 60.7 16.4 60.7H16.8C17.3 60.7 17.7 60.7 18.2 60.7H19.2C19.9 60.7 20.6 60.7 21.3 60.7C22.2 60.7 23.1 60.7 24 60.7C24.7 60.7 25.4 60.7 26.1 60.7H27.1C27.6 60.7 28.1 60.7 28.6 60.7L28.9 60.8Z" fill="#855EA6" fill-opacity="0.5"/>
<path d="M60.1999 27.9C60.1999 28.4 60.2 28.9 60.4 29.3C60.7 29.6 60.9 29.8 61.4 30.1C62 30.2 62.3 30.1 62.9 29.9C63.4 29.3 63.4999 28.9 63.5999 28.1V27.7C63.5999 27.3 63.5999 26.8 63.5999 26.4V25.5C63.5999 24.8 63.5999 24.2 63.5999 23.5C63.5999 22.7 63.5999 21.8 63.5999 21C63.5999 20.3 63.5999 19.7 63.5999 19V18.1C63.5999 17.6 63.5999 17.2 63.5999 16.7V16.3C63.5999 15.5 63.5999 14.9 63.0999 14.3C62.5999 13.9 62.2 13.8 61.4 13.8H60.9999C60.4999 13.8 60.0999 13.8 59.6999 13.8H58.6999C57.9999 13.8 57.3999 13.8 56.6999 13.8C55.7999 13.8 54.9999 13.8 54.0999 13.8C53.3999 13.8 52.6999 13.8 52.0999 13.8H51.0999C50.5999 13.8 50.1999 13.8 49.6999 13.8H49.3C48.5 13.8 48.1 13.8 47.4 14.2C47.1 14.5 46.9 14.6 46.8 15C46.7 15.6 46.7999 16 47.1999 16.6C47.9999 17 48.6999 17.1 49.6999 17.1H50.3C50.9 17.1 51.5999 17.1 52.1999 17.1H53.4999C54.6999 17.1 55.7999 17.1 56.9999 17.1H57.9999L57.5999 17.5C56.3999 18.7 55.1999 19.8 53.9999 21L52.0999 22.8C51.4999 23.4 50.9 24 50.3 24.6L49.5999 25.3C49.2999 25.6 48.8999 25.9 48.5999 26.3L48.3 26.6C47.8 27 47.3999 27.4 47.1999 27.9C46.8999 28.5 46.7999 28.8 46.9999 29.5C47.3999 30 47.8 30.2 48.4 30.3C49.2 30.2 49.5999 29.9 50.1999 29.4L50.4999 29.1C50.7999 28.8 51.1999 28.5 51.4999 28.1C51.6999 27.9 51.9999 27.6 52.1999 27.4C52.7999 26.8 53.3999 26.2 53.9999 25.6C54.5999 25 55.2 24.4 55.9 23.8C57.1 22.6 58.2999 21.4 59.4999 20.2L60.3 19.4V28L60.1999 27.9Z" fill="#855EA6" fill-opacity="0.5"/>
</svg>
