<svg width="92" height="90" viewBox="0 0 92 90" fill="none" xmlns="http://www.w3.org/2000/svg">
<path d="M91.5 2.29999C91.5 1.29999 90.7 0.5 89.7 0.5H81.8C80.8 0.5 80 1.29999 80 2.29999C80 3.29999 80.8 4.10001 81.8 4.10001H85.3L73.4 15.7C73.1 16 72.9 16.5 72.9 17C72.9 17.5 73.1 17.9 73.4 18.3C74.1 19 75.3 19 76 18.3L87.9 6.70001V10.1C87.9 11.1 88.7 11.9 89.7 11.9C90.7 11.9 91.5 11.1 91.5 10.1V2.39999V2.29999Z" fill="#855EA6" fill-opacity="0.5"/>
<path d="M18.4 71.7L18.6 71.5L18.2 71.2C17.5 70.8 16.6 70.9 16 71.5L4.09998 83.1V79.7C4.09998 78.7 3.29999 77.9 2.29999 77.9C1.29999 77.9 0.5 78.7 0.5 79.7V87.4C0.5 88.4 1.29999 89.2 2.29999 89.2H10.2C11.2 89.2 12 88.4 12 87.4C12 86.4 11.2 85.6 10.2 85.6H6.70001L18.6 74C18.9 73.7 19.1 73.2 19.1 72.7C19.1 72.4 19.1 72.1 18.9 71.8L18.5 71.5" fill="#855EA6" fill-opacity="0.5"/>
<path d="M57 53.1L56.3 52.4C55.8 52.1 55.1 52.1 54.6 52.4L53.8 53C44 62.6 36.3 73.4 33.4 77.6L33.1 78.1L23.8 69L27.6 65.3C27.9 65 28.1 64.5 28.1 64C28.1 63.5 27.9 63.1 27.6 62.7C26.9 62 25.7 62 25 62.7L21.2 66.4L11.9 57.3L12.4 57C16.8 54.2 28 46.5 37.9 36.8C44.7 30.2 50.5 23 54.1 18.2C54.4 17.8 54.5 17.3 54.4 16.9C54.4 16.6 54.2 16.3 54 16.1L53.2 15.5C52.5 15.2 51.6 15.5 51.1 16.1C47.5 20.8 41.9 27.8 35.2 34.3C28.7 40.7 21.6 46.1 16.8 49.5C14.1 51.5 11.8 53 10.4 53.9C9.60002 54.4 9 54.8 8.5 55.1L7.79999 55.6C7.39999 55.9 7.1 56.3 7 56.9C7 57.4 7.1 58 7.5 58.4L31.6 81.8L32 82.1L32.3 81.8L32.1 82.1L32.5 82.4C32.8 82.6 33.2 82.6 33.6 82.6C34.1 82.6 34.6 82.3 34.9 81.8L35.3 81.1C35.6 80.7 36 80.1 36.5 79.3C37.5 77.9 39 75.7 41 73C44.5 68.4 50.1 61.5 56.6 55.1C56.9 54.8 57.1 54.3 57.1 53.8C57.1 53.3 57.1 53.2 56.9 52.9L57 53.1Z" fill="#855EA6" fill-opacity="0.5"/>
<path d="M84.4 31.2L60 7.40001C59.7 7.10001 59.4 7.00001 59 6.90001C58.4 6.80001 58 7.00001 58 7.00001C57.7 7.10001 57.4 7.40003 57.2 7.70003C57 8.10003 56 9.60003 54.5 11.7C54.2 12.1 54.1 12.6 54.2 13C54.2 13.5 54.6 13.9 55 14.2C55.8 14.8 57 14.5 57.5 13.7C58 13 58.4 12.4 58.7 11.9L59 11.4L68.3 20.5L28.8 59C28.5 59.3 28.3 59.8 28.3 60.3C28.3 60.8 28.5 61.2 28.8 61.6C29.5 62.3 30.7 62.3 31.4 61.6L71 23.1L80.3 32.2L79.8 32.5C75.6 35.3 67.3 41 59 48.3L58.3 49C58.1 49.3 58 49.5 58 49.9C58 50.4 58.2 50.8 58.5 51.2C59.2 51.9 60.3 52 61.1 51.3C67 46.1 72.9 41.7 76.8 38.9C79 37.3 80.9 36.1 82.1 35.3C82.7 34.9 83.2 34.6 83.6 34.3L84.1 34C84.6 33.7 84.9 33.2 85 32.7C85 32.2 84.9 31.6 84.5 31.2H84.4Z" fill="#855EA6" fill-opacity="0.5"/>
</svg>
