<svg width="79" height="79" viewBox="0 0 79 79" fill="none" xmlns="http://www.w3.org/2000/svg">
<path d="M70.8008 15.6321L70.4008 15.2321C68.8008 13.2321 66.9008 11.3321 64.6008 9.33212L64.3008 9.13214C59.3008 5.03214 53.3008 2.33214 47.1008 1.13214H46.7007C44.5007 0.632141 42.1008 0.432129 39.8008 0.432129C37.5008 0.432129 35.5008 0.632135 33.5008 1.03214H33.1008C26.6008 2.33213 20.8008 4.93214 16.1008 8.63214L15.7007 9.03214C13.7007 10.6321 11.8008 12.5321 9.80083 14.8321L9.60076 15.1321C5.50076 20.1321 2.80076 26.1321 1.60076 32.3321V32.7321C0.700761 37.0321 0.700809 41.8321 1.40081 45.9321V46.3321C2.70081 52.8321 5.30078 58.6321 9.00078 63.3321L9.40081 63.7321C11.0008 65.7321 12.8007 67.6321 15.2007 69.6321L15.5008 69.8321C20.5008 73.9321 26.5007 76.6321 32.7007 77.8321H33.1008C37.4008 78.7321 42.2008 78.7321 46.3008 78.0321H46.7007C53.2007 76.7321 59.0007 74.1321 63.7007 70.4321L64.1008 70.0321C66.1008 68.4321 68.0008 66.5321 70.0008 64.2321L70.2007 63.9321C74.3007 58.9321 77.0007 53.0321 78.2007 46.7321V46.3321C79.1007 42.0321 79.1008 37.2321 78.4008 33.1321V32.7321C77.1008 26.2321 74.5008 20.4321 70.8008 15.7321V15.6321ZM74.5008 42.8321V43.3321C73.6008 49.7321 71.3008 55.5321 67.4008 60.5321L67.2007 60.8321C66.3007 61.9321 65.5007 62.8321 64.7007 63.6321L64.3008 64.0321C63.4008 64.9321 62.3008 65.9321 61.1008 66.8321L60.6008 67.1321C58.8008 68.5321 57.1008 69.5321 55.5008 70.3321L55.2007 70.5321C50.3007 72.9321 45.1008 74.1321 40.0008 74.1321C34.9008 74.1321 37.8008 74.1321 36.6008 73.9321H36.1008C29.7008 73.0321 23.9008 70.7321 18.9008 66.8321L18.6008 66.6321C17.5008 65.7321 16.6008 64.9321 15.8008 64.1321L15.4008 63.7321C14.5008 62.8321 13.5008 61.7321 12.6008 60.5321L12.3008 60.0321C10.9008 58.2321 9.90076 56.5321 9.10076 54.9321L8.90081 54.6321C6.00081 48.6321 4.80078 42.2321 5.50078 36.0321V35.5321C6.40078 29.1321 8.70076 23.3321 12.6008 18.3321L12.8008 18.0321C13.7008 16.9321 14.5008 16.0321 15.3008 15.2321L15.7007 14.8321C16.6007 13.9321 17.7008 12.9321 18.9008 12.0321L19.4008 11.7321C21.2008 10.3321 22.9008 9.33214 24.5008 8.53214L24.8008 8.33212C30.8008 5.43212 37.2008 4.23213 43.4008 4.93213H43.9008C50.3008 5.83213 56.1008 8.13213 61.1008 12.0321L61.4008 12.2321C62.5008 13.1321 63.4007 13.9321 64.2007 14.7321L64.6008 15.1321C65.5008 16.0321 66.5008 17.1321 67.4008 18.3321L67.7007 18.8321C69.1007 20.6321 70.1008 22.3321 70.9008 23.9321L71.1008 24.2321C74.0008 30.2321 75.2008 36.6321 74.5008 42.8321Z" fill="#855EA6" fill-opacity="0.5"/>
<path d="M37.6016 24.6322C37.6016 25.2322 37.6016 25.8321 37.6016 26.4321C37.6016 27.4321 37.6016 28.4321 37.6016 29.4321C37.6016 30.6321 37.6016 31.7321 37.6016 32.9321C37.6016 34.2321 37.6016 35.4321 37.6016 36.7321V41.3321C37.6016 41.7321 37.6016 41.7322 37.6016 42.0322C37.9016 42.7322 38.3016 43.1321 39.1016 43.7321L40.2015 44.5322C40.9015 45.0322 41.6016 45.5322 42.3016 46.1322C43.6016 47.1322 44.8016 48.0321 46.1016 48.9321C46.8016 49.4321 47.5015 49.9321 48.2015 50.4321L50.1016 51.9321C51.0016 52.6321 52.0016 53.4322 53.0016 53.6322C54.0016 53.6322 54.6016 53.4321 55.3016 52.8321C55.7016 52.0321 55.9016 51.4321 55.9016 50.8321C55.8016 50.0321 55.3016 49.5321 54.4016 48.8321C53.5016 48.1321 52.5016 47.4321 51.6016 46.7321C50.3016 45.7321 49.0015 44.7321 47.7015 43.8321L47.0016 43.3321C46.6016 43.0321 46.3016 42.7322 45.9016 42.5322C45.2016 42.1322 44.2016 41.5322 43.3016 40.6322H43.2015C43.2015 40.5322 43.2015 40.3321 43.2015 40.3321C42.4015 38.2321 42.3016 38.1321 42.5016 35.7321C42.5016 35.3321 42.5016 34.9322 42.5016 34.5322C42.5016 33.4322 42.5016 32.3321 42.5016 31.2321C42.5016 30.0321 42.5016 28.7322 42.5016 27.5322V27.2321C42.5016 26.1321 42.5016 25.0321 42.5016 23.9321V21.2321C42.5016 21.0321 42.5016 20.8322 42.5016 20.6322C42.3016 20.0322 42.0016 19.6321 41.5016 19.3321C40.5016 18.8321 39.6016 18.8322 38.4016 19.5322C37.8016 20.2322 37.6016 20.9322 37.6016 22.0322V22.5322C37.6016 23.3322 37.6016 23.9322 37.6016 24.6322Z" fill="#855EA6" fill-opacity="0.5"/>
</svg>
