<svg width="90" height="84" viewBox="0 0 90 84" fill="none" xmlns="http://www.w3.org/2000/svg">
<path d="M57.2 51.6322V50.7321C57.2 50.1321 57.2 49.5321 57.2 48.9321C57.2 48.1321 57.2 47.3322 57.2 46.5322V42.1322C57.2 40.8322 56.8 39.8321 55.9 38.8321C55 38.0321 53.9 37.7322 52.4 37.6322H50.5C50 37.6322 49.5 37.6322 49 37.6322H46.3C45.1 37.6322 44.1 38.3321 43.1 39.2321L41.2 40.9321V38.6322C40.6 37.8322 39.9 36.9322 39.3 36.0322L35.6 30.7321C35.2 30.1321 34.9 29.6321 34.7 28.8321V28.4321L35.3 27.7321C36 27.2321 36.4 26.6321 36.9 25.7321L37.1 25.3321C37.3 25.0321 37.4 24.7321 37.5 24.4321C37.9 21.6321 37.3 19.6321 35.5 16.9321L35 16.2321C34.6 15.6321 34.2 15.1322 33.8 14.5322L33 13.4321C32.5 12.7321 31.9 11.9321 31.4 11.2321L29 7.93215C28.4 7.13215 27.9 6.33215 27.3 5.53215L26.1 3.83214C25.3 2.63214 24.5 1.63214 23.4 0.832139C21.8 -0.0678607 19.5 0.0321515 17.8 1.03215L16.7 1.73213C15.8 2.23213 14.8 2.73214 13.9 3.33214C12.2 4.33214 10.4 5.23213 8.7 6.23213C7.8 6.73213 6.8 7.23214 5.9 7.83214L4.4 8.63216C2.3 9.73216 0.899999 10.7322 0.299998 12.5322C-1.51247e-06 15.0322 -1.43051e-06 15.1321 3.5 20.2321L5.6 23.3321C6.3 24.3321 7 25.3321 7.6 26.3321L8.2 27.2321C8.7 28.0321 9.3 28.8322 9.8 29.6322L10.9 31.3321C11.7 32.5321 12.3 33.4321 13.3 34.2321C15.1 35.6321 17.2 36.0321 20.2 35.8321C20.8 35.7321 21.2 35.6322 21.8 35.6322H22.2L23 36.4321L23.7 37.4321C24 37.8321 24.3 38.3321 24.6 38.7321L25.6 40.2321H23.7C22.8 40.2321 21.8 40.2321 20.9 40.2321H17.5C16.1 40.2321 15.1 40.5322 13.8 41.0322C11.4 42.2322 10.3 44.1322 9.3 47.1322L9 47.8321C8.8 48.5321 8.5 49.1321 8.3 49.8321L7.9 51.0322C7.4 52.4322 6.9 53.9321 6.4 55.4321C5.9 56.8321 5.4 58.1322 5 59.5322C4.6 60.7322 4.2 61.8322 3.8 63.0322C3.5 63.7322 3.3 64.4322 3.1 65.1322C2.9 65.8322 2.6 66.4322 2.4 67.1322L2.1 67.8321C1.4 69.7321 1.2 71.0322 1.3 72.6322C1.6 73.7322 2.4 74.6321 3.9 75.4321L4.9 76.0322L4.6 76.8321C4.4 77.3321 4.2 77.8321 4 78.4321L3.8 79.0322C3.4 80.2322 3 81.3322 3 82.6322C3 83.0322 3 83.0322 3.7 83.6322C4.3 83.8322 5.1 83.9321 5.8 83.7321C6.5 83.2321 6.6 83.1322 7.3 81.0322L7.5 80.3321C8 79.0321 8.4 77.8321 8.7 76.7321L9 75.6322H12.2C12.8 75.6322 13.2 75.6321 13.7 75.4321L14 75.2321C15.1 74.7321 15.8 73.6322 16.3 72.6322L18.6 68.2321C19 67.5321 19.3 66.8322 19.6 66.1322L19.9 65.0322H20.7C21.1 65.0322 21.3 65.0322 21.6 65.0322L22.1 64.8321C23.4 64.2321 24.1 63.2322 24.7 62.1322L25.4 60.7321C25.7 60.2321 25.9 59.7321 26.2 59.2321L27.4 56.8321C27.6 56.4321 27.8 56.0322 27.9 55.6322L28.3 54.5322H29C30.5 54.5322 32.1 54.5322 33.6 54.5322C34.4 54.5322 35.2 54.5322 35.9 54.5322C36.7 54.5322 37.4 54.5322 38.2 54.5322H39.3C39.7 54.5322 40 54.5322 40.4 54.5322H41.5C42.4 54.5322 42.6 54.7321 43.1 55.3321C43.1667 55.5988 43.2667 55.7988 43.4 55.9321L43.7 56.1322C44.5 56.9322 45.5 57.2321 46.8 57.2321H48.6C49.1 57.2321 49.6 57.2321 50.1 57.2321H51.8C53.4 57.2321 54.6 57.0322 55.8 56.0322C56.9 54.8322 57 53.4322 57 51.6322H57.2ZM34.6 36.0322C35.3 37.0322 35.9 38.0322 36.5 39.0322L37.3 40.5322H31.8C31.8 40.5322 31.7 40.5322 31.6 40.5322C31.3 40.5322 31 40.5322 30.7 40.5322H30.3L30 40.1322C29.2 39.2322 29.2 39.1322 28.5 38.1322L26.9 35.9321C26.5 35.3321 26 34.7321 25.9 33.8321V33.1322C25.8 33.1322 28.8 31.5322 28.8 31.5322C29.4 31.2322 29.7 31.0322 30.5 31.0322H30.9L31.7 32.0322L34.5 36.0322H34.6ZM24 30.2321L22.5 31.0322C21.2 31.8322 19.7 32.5322 18 32.5322H17.7C15.9 32.0322 15.1 31.1321 14.2 29.7321C14 29.3321 13.8 29.0321 13.5 28.7321C13 27.9321 12.5 27.2321 12 26.4321L10.1 23.5322C9.5 22.7322 9 21.8322 8.4 21.0322C7.6 19.8322 6.7 18.5321 5.9 17.3321L4.9 15.7321C4.5 15.2321 4.2 14.6321 4.1 13.8321V13.1322C4 13.1322 4.6 12.7321 4.6 12.7321C6.8 11.3321 9.2 10.0321 11.2 8.93215C12 8.53215 12.8 8.03216 13.5 7.63216C14.9 6.83216 16.4 6.03213 17.9 5.23213L19.3 4.43215C19.9 4.13215 20.2 3.93215 21 3.93215H21.4L22 4.63216L22.6 5.43215C22.8 5.73215 23.1 6.13215 23.3 6.43215L23.7 6.93215C24.3 7.83215 24.9 8.73215 25.6 9.53215L28.8 14.0322C29.3 14.8322 29.9 15.5321 30.4 16.3321L31.5 17.8321C31.6 18.0321 31.8 18.2321 32 18.4321C32.8 19.4321 33.6 20.6321 33.9 21.9321C33.9 22.0321 33.9 22.6322 33.9 22.6322C33.9 23.1322 33.9 23.1322 33.9 23.6322V23.8321C33.4 24.9321 32.6 25.6322 31.7 26.1322L31.1 26.5322C29.7 27.3322 28.2 28.1321 26.9 28.8321H26.8C26 29.3321 25.1 29.8321 24.3 30.2321H24ZM42.2 51.2321H28.9C28.1 51.4321 27.5 51.4322 26.9 51.6322L26.6 51.8321C25.5 52.3321 25 53.3321 24.4 54.4321C24.2 54.8321 24 55.1322 23.9 55.5322C23.6 56.1322 23.3 56.7321 23 57.2321C22.7 57.8321 22.4 58.4322 22.1 59.0322L21.8 59.6322C21.5 60.3322 21.1 61.0321 20.5 61.7321L20.3 61.9321H20.1C19.4 62.2321 18.7 62.2321 18.2 62.2321H18C17.6 62.4321 17.3 62.6322 17.1 63.0322L16.1 65.0322C15.8 65.6322 15.5 66.1321 15.2 66.7321C14.8 67.4321 14.5 68.1321 14.1 68.8321L12.1 72.7321H5.1V71.7321C5.1 71.2321 5.1 71.1321 5.2 70.7321L8.5 61.2321C9.2 59.2321 9.9 57.2321 10.6 55.2321C11 54.1321 11.4 53.0321 11.8 51.9321L12.8 49.0322C12.9 48.6322 13.1 48.2321 13.2 47.7321V47.3321C13.6 46.5321 13.9 45.9321 14.3 45.3321L14.5 45.1322C15.9 43.8322 17.5 43.8321 19 43.8321H20C20.6 43.8321 21.3 43.8321 21.9 43.8321H23.9C25.2 43.8321 26.4 43.8321 27.7 43.8321H32C35.1 43.8321 38.2 43.8321 41.3 43.8321H42.3V51.1322L42.2 51.2321ZM53.5 53.9321H45.9V41.2321H53.5V53.9321Z" fill="#855EA6" fill-opacity="0.5"/>
<path d="M87.1993 55.6324C88.0993 56.0324 88.5993 56.5324 88.9993 57.3324C89.0993 58.2324 89.0993 59.0324 88.6993 59.9324C87.8993 60.7324 87.3993 61.0324 86.1993 61.1324C84.9993 61.1324 84.4993 60.7324 83.6993 59.9324C83.2993 59.0324 83.2993 58.2324 83.3993 57.3324C84.1993 55.7324 85.4993 55.4324 87.2993 55.6324H87.1993Z" fill="#855EA6" fill-opacity="0.5"/>
<path d="M75.9024 50.232C76.8024 50.632 77.3024 51.132 77.7024 51.932C77.8024 52.832 77.8024 53.632 77.4024 54.532C76.6024 55.332 76.1024 55.632 74.9024 55.732C73.7024 55.732 73.2024 55.332 72.4024 54.532C72.0024 53.632 72.0024 52.832 72.1024 51.932C72.9024 50.332 74.2024 50.032 76.0024 50.232H75.9024Z" fill="#855EA6" fill-opacity="0.5"/>
<path d="M87.1993 44.9322C88.0993 45.3322 88.5993 45.8322 88.9993 46.6322C89.0993 47.5322 89.0993 48.3322 88.6993 49.2322C87.8993 50.0322 87.3993 50.3322 86.1993 50.4322C84.9993 50.4322 84.4993 50.0322 83.6993 49.2322C83.2993 48.3322 83.2993 47.5322 83.3993 46.6322C84.1993 45.0322 85.4993 44.7322 87.2993 44.9322H87.1993Z" fill="#855EA6" fill-opacity="0.5"/>
<path d="M64.6993 44.9322C65.5993 45.3322 66.0993 45.8322 66.4993 46.6322C66.5993 47.5322 66.5993 48.3322 66.1993 49.2322C65.3993 50.0322 64.8993 50.3322 63.6993 50.4322C62.4993 50.4322 61.9993 50.0322 61.1993 49.2322C60.7993 48.3322 60.7993 47.5322 60.8993 46.6322C61.6993 45.0322 62.9993 44.7322 64.7993 44.9322H64.6993Z" fill="#855EA6" fill-opacity="0.5"/>
<path d="M75.9024 39.5318C76.8024 39.9318 77.3024 40.4318 77.7024 41.2318C77.8024 42.1318 77.8024 42.9318 77.4024 43.8318C76.6024 44.6318 76.1024 44.9318 74.9024 45.0318C73.7024 45.0318 73.2024 44.6318 72.4024 43.8318C72.0024 42.9318 72.0024 42.1318 72.1024 41.2318C72.9024 39.6318 74.2024 39.3318 76.0024 39.5318H75.9024Z" fill="#855EA6" fill-opacity="0.5"/>
<path d="M87.1993 34.232C88.0993 34.632 88.5993 35.132 88.9993 35.932C89.0993 36.832 89.0993 37.632 88.6993 38.532C87.8993 39.332 87.3993 39.632 86.1993 39.732C84.9993 39.732 84.4993 39.332 83.6993 38.532C83.2993 37.632 83.2993 36.832 83.3993 35.932C84.1993 34.332 85.4993 34.032 87.2993 34.232H87.1993Z" fill="#855EA6" fill-opacity="0.5"/>
</svg>
