<svg width="80" height="86" viewBox="0 0 80 86" fill="none" xmlns="http://www.w3.org/2000/svg">
<path d="M64.5984 36.7323L64.1984 36.3323C63.6984 35.8323 63.1984 35.3323 62.7984 34.8323C62.3984 34.4323 61.8984 33.9323 61.4984 33.5323C60.5984 32.6323 59.7984 31.8323 58.8984 30.9323L55.7984 27.8323C53.8984 25.9323 51.8984 23.9323 49.9984 22.0323C48.2984 20.3323 46.6984 18.7323 44.9984 17.0323C43.0984 15.1323 41.0984 13.1323 39.1984 11.2323L36.0984 8.1323C35.1984 7.2323 34.3984 6.3323 33.4984 5.5323L32.3984 4.4323C31.8984 3.9323 31.3984 3.4323 30.8984 2.9323L30.3984 2.4323C29.6984 1.7323 29.0984 1.1323 28.2984 0.632301C27.5984 0.332301 26.9984 0.332301 26.1984 0.732301C25.5984 1.2323 25.3984 1.7323 25.1984 2.5323C25.2984 3.5323 25.5984 3.9323 26.3984 4.6323C26.7984 5.0323 27.1984 5.4323 27.5984 5.8323L28.9984 7.5323L7.99841 28.6323C6.99841 29.6323 5.8984 30.8323 4.7984 31.9323L4.49841 32.2323C2.19841 34.7323 0.898438 38.1323 0.898438 41.8323C0.998438 46.9323 3.49839 50.5323 7.59839 54.5323C8.09839 55.0323 8.59839 55.5323 9.09839 56.0323C9.99839 56.9323 10.7984 57.7323 11.6984 58.6323C12.6984 59.6323 13.6984 60.6323 14.6984 61.6323L20.8984 67.8323C22.2984 69.2323 23.6984 70.7323 25.4984 71.6323C29.1984 73.4323 33.2984 73.7323 36.9984 72.6323L37.5984 72.4323C39.5984 71.6323 41.3984 70.3323 43.4984 68.2323L44.1984 67.5323C44.7984 66.9323 45.3984 66.3323 46.0984 65.6323C46.7984 64.9323 47.3984 64.3323 48.0984 63.6323C49.1984 62.5323 50.2984 61.4323 51.3984 60.3323C52.6984 59.0323 53.9984 57.7323 55.1984 56.4323C56.5984 55.0323 57.9984 53.6323 59.2984 52.2323L63.2984 48.2323C65.3984 46.1323 66.9984 44.5323 66.9984 41.7323C66.9984 39.8323 66.2984 38.3323 64.5984 36.6323V36.7323ZM59.1984 46.3323L41.9984 63.7323C39.1984 66.5323 36.4984 69.2323 31.9984 69.2323C29.2984 69.0323 26.8984 67.8323 24.5984 65.5323L24.0984 65.0323C23.4984 64.4323 22.9984 63.9323 22.3984 63.3323L20.8984 61.8323C20.0984 61.0323 19.1984 60.1323 18.3984 59.3323C17.3984 58.3323 16.4984 57.4323 15.4984 56.4323C14.5984 55.5323 13.5984 54.5323 12.6984 53.6323L9.59839 50.4323C8.09839 48.9323 6.79839 47.5323 6.09839 45.3323L5.69843 44.0323H59.8984V44.9323C59.9984 45.6323 59.7984 45.9323 59.2984 46.3323H59.1984ZM5.39844 39.7323L5.99841 38.3323C7.29841 35.5323 7.29841 35.4323 9.49841 33.2323L10.1984 32.5323C10.7984 31.9323 11.4984 31.2323 12.0984 30.6323L14.0984 28.6323C15.1984 27.5323 16.2984 26.4323 17.3984 25.2323C18.7984 23.8323 20.2984 22.3323 21.6984 20.9323L30.7984 11.8323C31.1984 11.4323 31.5984 11.0323 32.1984 11.0323C32.7984 11.0323 33.2984 11.4323 33.6984 11.9323L57.1984 35.6323C57.9984 36.4323 58.7984 37.3323 59.4984 38.1323L60.8984 39.7323H5.2984H5.39844Z" fill="#855EA6" fill-opacity="0.5"/>
<path d="M63.8 56.4317C60.3 60.6317 58.1 64.4317 56.9 68.2317V68.6317C56.3 70.2317 56 71.7317 56 73.4317V74.0317C56 74.9317 56 75.8317 56.2 76.7317C57 79.6317 58.8 82.2317 61.2 83.8317C64.1 85.5317 67.3 85.9317 70.7 85.1317C73.5 84.3317 76 82.4317 77.6 79.8317C79.3 76.6317 79.5 73.0317 78.3 68.7317C76.5 63.0317 72.7 55.8317 68.5 53.6317C68.2 53.6317 67.9 53.5317 67.6 53.5317C66.8 53.5317 66 53.9317 65.3 54.7317L65 55.0317C64.7 55.4317 64.4 55.7317 64.1 56.1317L63.8 56.5317V56.4317ZM65.1 61.8317L65.4 61.4317C65.8 60.9317 66.1 60.4317 66.5 59.9317L66.8 59.5317H68.2L68.5 59.9317C68.7 60.2317 68.9 60.5317 69.1 60.8317C72 64.7317 75 69.5317 74.6 74.7317C74.3 76.7317 73.3 78.3317 71.6 79.7317C70.3 80.6317 68.9 81.0317 67.3 81.0317C65.7 81.0317 66.5 81.0317 66 81.0317H65.9C63.8 80.4317 62.2 79.2317 61.1 77.3317C60.1 75.0317 60.3 72.3317 60.8 70.5317L61 70.0317C61.9 67.3317 63.3 64.6317 65.2 61.8317H65.1Z" fill="#855EA6" fill-opacity="0.5"/>
</svg>
