<svg width="85" height="82" viewBox="0 0 85 82" fill="none" xmlns="http://www.w3.org/2000/svg">
<path d="M22.5962 64.4319C23.6962 63.5319 24.8962 62.6319 25.9962 61.7319L26.2962 61.5319L26.6962 61.8319C27.0962 62.1319 27.5962 62.4319 27.9962 62.7319C28.9962 63.4319 30.0962 64.2319 31.3962 64.8319L31.8962 65.0319C35.7962 66.7319 40.2962 67.2319 44.3962 66.2319H44.9962C46.8962 65.5319 48.7962 64.8319 50.5962 63.7319C54.9962 60.9319 57.9962 56.7319 59.0962 51.7319L59.4962 50.0319H65.4962V50.3319C66.2295 51.7985 66.7962 52.8319 67.1962 53.4319C68.7962 55.4319 70.8962 56.6319 73.1962 57.0319C76.5962 57.2319 79.0962 56.6319 81.0962 55.0319C83.2962 53.1319 84.3962 51.0319 84.4962 48.8319C84.4962 45.7319 83.7962 43.6319 82.0962 41.8319C80.0962 39.9319 77.9962 38.9319 75.3962 38.9319C72.3962 38.9319 70.0962 39.7319 68.3962 41.3319L68.0962 41.6319C67.2962 42.4319 66.6962 43.3319 66.1962 44.4319L65.5962 45.9319H59.5962V45.5319C58.4962 40.4319 56.3962 36.7319 52.9962 33.9319L52.5962 33.5319C49.1962 30.7319 45.0962 29.3319 40.3962 29.3319H40.0962C38.9962 29.3319 37.6962 29.3319 36.3962 29.6319H35.9962C35.6962 29.8319 35.2962 29.8319 34.9962 29.9319H34.6962C33.5962 30.3319 32.4962 30.7319 31.0962 31.3319C30.8962 31.3319 30.5962 31.5319 30.2962 31.3319C29.9962 31.1319 29.7962 30.9319 29.6962 30.8319C29.1962 30.2319 28.6962 29.6319 28.2962 29.0319L27.7962 28.3319C26.9962 27.2319 26.1962 26.2319 25.3962 25.1319C24.7962 24.4319 24.2962 23.6319 23.6962 22.9319C22.8962 21.9319 22.2962 21.1319 21.6962 20.2319L21.4962 19.9319L21.7962 19.6319C23.6962 17.5319 24.6962 15.0319 24.6962 12.0319C24.6962 8.93187 23.5962 6.23187 21.7962 4.43187L21.3962 4.13187C20.7962 3.53187 20.2962 3.03187 19.6962 2.63187C15.3962 -0.468131 8.2962 -0.16813 4.6962 3.33187L3.8962 4.13187C1.7962 6.13187 0.5962 8.83187 0.5962 12.1319C0.5962 15.2319 1.6962 17.9319 3.4962 19.7319L3.8962 20.0319C4.7962 20.9319 5.6962 21.7319 7.0962 22.4319C10.1962 23.8319 13.4962 24.0319 16.2962 23.1319L17.9962 22.6319L18.5962 23.4319L19.0962 24.0319C19.2962 24.2319 19.4962 24.5319 19.6962 24.7319L22.8962 28.9319C23.3962 29.6319 23.8962 30.2319 24.3962 30.8319L25.9962 32.8319C26.2962 33.2319 26.4962 33.5319 26.5962 33.9319C26.6962 34.5319 26.5962 34.7319 26.2962 35.1319C23.9962 37.4319 22.2962 40.0319 21.4962 42.8319L21.2962 43.4319C19.9962 47.7319 20.6962 52.6319 23.2962 57.5319L23.7962 58.4319L23.3962 58.7319C22.5962 59.3319 21.7962 59.9319 20.6962 60.7319L20.1962 61.1319C18.9962 62.0319 17.7962 63.0319 16.4962 64.1319L15.7962 64.7319L15.4962 64.5319C13.7962 63.5319 11.8962 63.0319 9.9962 63.0319C8.0962 63.0319 8.6962 63.0319 7.9962 63.2319C5.4962 63.8319 3.3962 65.2319 1.8962 67.3319C0.5962 69.5319 0.1962 72.0319 0.7962 74.5319C1.5962 77.0319 3.1962 79.0319 5.3962 80.2319C7.8962 81.4319 10.5962 81.6319 13.0962 80.9319C15.6962 80.0319 17.5962 78.4319 18.6962 76.2319C19.7962 73.9319 19.9962 71.3319 19.1962 69.4319L18.5962 67.9319L18.7962 67.7319C19.1962 67.3319 19.5962 66.9319 19.9962 66.6319L20.8962 65.9319C21.3962 65.5319 21.9962 65.1319 22.4962 64.6319L22.5962 64.4319ZM70.1962 45.5319L70.3962 45.2319C70.5295 45.0319 70.6629 44.8319 70.7962 44.6319C72.4962 42.8319 75.2962 42.3319 77.3962 43.4319L77.7962 43.6319C78.8962 44.3319 79.6962 45.3319 80.1962 46.7319C80.3962 48.3319 80.1962 49.4319 79.6962 50.5319L79.4962 50.8319C78.7962 51.9319 77.7962 52.6319 76.2962 53.1319C75.7962 53.1319 75.3962 53.2319 74.8962 53.2319C73.8962 53.2319 73.0962 53.0319 72.3962 52.6319L71.9962 52.4319C70.8962 51.7319 70.0962 50.7319 69.5962 49.3319C69.3962 47.7319 69.5962 46.6319 70.0962 45.5319H70.1962ZM18.3962 17.2319L18.0962 17.5319C16.5962 18.9319 14.8962 19.6319 12.8962 19.6319C10.4962 19.6319 8.5962 18.9319 7.1962 17.6319L6.8962 17.3319C5.4962 15.8319 4.6962 14.2319 4.6962 12.3319C4.6962 10.0319 5.3962 8.23187 6.6962 6.83187L6.9962 6.53187C8.4962 5.13187 10.1962 4.43187 12.1962 4.43187C14.5962 4.43187 16.4962 5.13187 17.8962 6.43187L18.1962 6.73187C19.5962 8.23187 20.3962 9.83187 20.3962 11.7319C20.3962 14.0319 19.6962 15.8319 18.3962 17.2319ZM28.7962 37.9319C33.9962 32.7319 42.3962 31.7319 48.5962 35.6319C51.9962 37.9319 54.3962 41.3319 55.1962 45.1319C55.8962 49.1319 54.9962 53.1319 52.6962 56.4319C50.2962 59.6319 46.5962 61.9319 42.5962 62.5319C41.7962 62.5319 41.0962 62.6319 40.2962 62.6319C36.6962 62.6319 33.3962 61.6319 30.6962 59.6319C27.3962 57.1319 25.2962 53.6319 24.8962 49.9319C24.5962 45.0319 25.8962 41.1319 28.7962 37.9319ZM14.8962 74.5319L14.6962 74.8319C13.9962 75.9319 12.9962 76.6319 11.4962 77.1319C10.9962 77.1319 10.5962 77.2319 10.0962 77.2319C9.0962 77.2319 8.2962 77.0319 7.5962 76.6319L7.1962 76.4319C6.0962 75.7319 5.2962 74.7319 4.7962 73.3319C4.5962 71.7319 4.7962 70.6319 5.2962 69.5319L5.4962 69.2319C5.62953 69.0319 5.76287 68.8319 5.8962 68.6319C7.5962 66.8319 10.3962 66.3319 12.4962 67.4319L12.8962 67.6319C13.9962 68.3319 14.7962 69.3319 15.2962 70.7319C15.4962 72.3319 15.2962 73.4319 14.7962 74.5319H14.8962Z" fill="#855EA6" fill-opacity="0.5"/>
</svg>
