<svg width="78" height="74" viewBox="0 0 78 74" fill="none" xmlns="http://www.w3.org/2000/svg">
<path d="M77.6984 59.3317C77.6984 57.9317 77.6984 56.5317 77.6984 55.1317V51.7317V50.2317C77.6984 47.1317 77.6984 44.0317 77.6984 41.0317C77.6984 38.4317 77.6984 35.7317 77.6984 33.1317C77.6984 30.0317 77.6984 26.9317 77.6984 23.8317V22.3317C77.6984 21.2317 77.6984 20.0317 77.6984 18.9317C77.6984 17.5317 77.6984 16.1317 77.6984 14.7317C77.6984 14.0317 77.6984 13.3317 77.6984 12.6317C77.6984 11.9317 77.6984 11.3317 77.6984 10.6317V9.93174C77.6984 6.83174 76.8984 4.53174 74.9984 2.63174C73.0984 0.931738 70.7984 0.0317383 67.9984 0.0317383C67.5984 0.0317383 67.2984 0.0317383 66.8984 0.0317383C66.1984 0.0317383 65.4984 0.0317383 64.8984 0.0317383C64.1984 0.0317383 63.3984 0.0317383 62.6984 0.0317383C61.1984 0.0317383 59.7985 0.0317383 58.2985 0.0317383C57.0985 0.0317383 55.8984 0.0317383 54.6984 0.0317383H53.0984C49.8984 0.0317383 46.5984 0.0317383 43.3984 0.0317383C40.5984 0.0317383 37.7984 0.0317383 35.0984 0.0317383C31.8984 0.0317383 28.5984 0.0317383 25.3984 0.0317383H20.2985C18.7985 0.0317383 17.3984 0.0317383 15.8984 0.0317383H15.6984C14.9984 0.0317383 14.2984 0.0317383 13.6984 0.0317383C12.9984 0.0317383 12.2984 0.0317383 11.5984 0.0317383H10.7985C10.7985 0.0317383 10.7984 0.0317383 10.6984 0.0317383C7.49836 0.0317383 5.09839 0.831738 3.09839 2.63174C1.29839 4.43174 0.398438 6.63174 0.398438 9.33174C0.398438 9.63174 0.398438 10.0317 0.398438 10.3317C0.398438 10.9317 0.398438 11.6317 0.398438 12.2317C0.398438 12.9317 0.398438 13.6317 0.398438 14.3317C0.398438 15.7317 0.398438 17.1317 0.398438 18.5317V21.9317V23.4317C0.398438 26.5317 0.398438 29.6317 0.398438 32.6317C0.398438 35.2317 0.398438 37.9317 0.398438 40.5317C0.398438 43.6317 0.398438 46.7317 0.398438 49.8317V51.3317C0.398438 52.4317 0.398438 53.6317 0.398438 54.7317C0.398438 56.1317 0.398438 57.5317 0.398438 58.9317C0.398438 59.6317 0.398438 60.3317 0.398438 61.0317C0.398438 61.7317 0.398438 62.3317 0.398438 63.0317V63.7317C0.398438 66.8317 1.19839 69.1317 3.09839 71.0317C5.09839 72.7317 7.39839 73.6317 10.0984 73.6317C10.4984 73.6317 10.7984 73.6317 11.1984 73.6317C11.8984 73.6317 12.5985 73.6317 13.2985 73.6317C13.9985 73.6317 14.7984 73.6317 15.4984 73.6317C16.9984 73.6317 18.3984 73.6317 19.8984 73.6317C24.6984 73.6317 29.4984 73.6317 34.1984 73.6317C37.1984 73.6317 40.1984 73.6317 43.0984 73.6317H68.9984C71.0984 73.6317 73.2984 72.7317 75.0984 71.0317C76.8984 69.2317 77.7985 67.0317 77.7985 64.3317C77.7985 64.0317 77.7985 63.6317 77.7985 63.3317C77.7985 62.7317 77.7985 62.0317 77.7985 61.4317C77.7985 60.7317 77.7985 60.0317 77.7985 59.3317H77.6984ZM74.1984 13.0317C74.1984 13.7317 74.1984 14.4317 74.1984 15.0317C74.1984 16.3317 74.1984 17.7317 74.1984 19.0317C74.1984 20.6317 74.1984 22.1317 74.1984 23.7317C74.1984 26.5317 74.1984 29.3317 74.1984 32.1317C74.1984 34.8317 74.1984 37.6317 74.1984 40.3317V64.0317C74.1984 65.7317 73.6984 67.1317 72.5984 68.3317C71.1984 69.6317 69.4984 70.2317 67.1984 70.2317H66.4984C65.6984 70.2317 64.8984 70.2317 64.1984 70.2317C63.4984 70.2317 62.7984 70.2317 61.9984 70.2317C60.5984 70.2317 59.1985 70.2317 57.7985 70.2317C56.0985 70.2317 54.4985 70.2317 52.7985 70.2317C49.7985 70.2317 46.8984 70.2317 43.8984 70.2317C40.9984 70.2317 38.0985 70.2317 35.2985 70.2317C32.0985 70.2317 28.9985 70.2317 25.7985 70.2317H20.7985C19.3985 70.2317 17.8984 70.2317 16.4984 70.2317H16.1984C15.5984 70.2317 14.8985 70.2317 14.2985 70.2317C13.5985 70.2317 12.8985 70.2317 12.2985 70.2317H11.5984C9.09839 70.2317 7.39836 69.9317 5.69836 68.4317C4.09836 66.8317 3.79846 65.0317 3.79846 63.3317V62.6317C3.79846 61.9317 3.79846 61.1317 3.79846 60.4317C3.79846 59.7317 3.79846 59.0317 3.79846 58.4317C3.79846 57.1317 3.79846 55.7317 3.79846 54.4317C3.79846 52.8317 3.79846 51.3317 3.79846 49.7317C3.79846 46.9317 3.79846 44.1317 3.79846 41.3317C3.79846 38.6317 3.79846 35.8317 3.79846 33.1317V9.43174C3.79846 7.93174 4.19841 6.83174 4.99841 5.53174C6.39841 3.93174 8.19846 3.13174 10.7985 3.13174H11.4984C12.2984 3.13174 13.0985 3.13174 13.7985 3.13174C14.4985 3.13174 15.1984 3.13174 15.9984 3.13174C17.3984 3.13174 18.7984 3.13174 20.1984 3.13174C21.8984 3.13174 23.4984 3.13174 25.1984 3.13174C28.1984 3.13174 31.0984 3.13174 34.0984 3.13174C36.9984 3.13174 39.8984 3.13174 42.6984 3.13174C45.8984 3.13174 48.9984 3.13174 52.1984 3.13174H57.1984C58.5984 3.13174 60.0984 3.13174 61.4984 3.13174H61.7985C62.3985 3.13174 63.0984 3.13174 63.6984 3.13174C64.3984 3.13174 65.0984 3.13174 65.6984 3.13174H66.3984C66.3984 3.13174 66.3984 3.13174 66.4984 3.13174C68.8984 3.13174 70.5984 3.43174 72.1984 4.93174C73.7984 6.53174 74.0984 8.33174 74.0984 10.0317V10.7317C74.0984 11.4317 74.0984 12.2317 74.0984 12.9317L74.1984 13.0317Z" fill="#855EA6" fill-opacity="0.5"/>
<path d="M28.9016 60.2319H29.3016C30.1016 60.2319 30.6016 60.2319 31.3016 59.8319C31.7016 59.5319 31.8016 59.4319 31.9016 59.0319C32.0016 58.4319 31.9016 58.0319 31.5016 57.4319C30.7016 57.0319 29.9016 56.9319 28.8016 56.9319H28.2015C27.5015 56.9319 26.9015 56.9319 26.2015 56.9319H24.8016C23.6016 56.9319 22.4016 56.9319 21.1016 56.9319H20.1016L20.6016 56.5319C21.9016 55.3319 23.1016 54.2319 24.4016 53.0319L26.3016 51.2319C26.9016 50.6319 27.6015 50.0319 28.2015 49.4319L28.9016 48.7319C29.3016 48.4319 29.6016 48.1319 29.9016 47.7319L30.2015 47.4319C30.7015 47.0319 31.1016 46.6319 31.4016 46.1319C31.7016 45.5319 31.8016 45.2319 31.6016 44.5319C31.2016 44.0319 30.8016 43.8319 30.1016 43.7319C29.3016 43.8319 28.8015 44.1319 28.2015 44.6319L27.9016 44.9319C27.6016 45.2319 27.2016 45.5319 26.9016 45.9319C26.7016 46.1319 26.4015 46.4319 26.2015 46.6319C25.6015 47.2319 24.9016 47.8319 24.3016 48.4319C23.6016 49.0319 23.0016 49.6319 22.3016 50.2319C21.0016 51.4319 19.7016 52.6319 18.5016 53.8319L17.7015 54.6319V46.0319C17.5015 45.7319 17.5016 45.4319 17.5016 45.1319C17.4016 44.6319 17.2016 44.4319 16.8016 44.0319C16.0016 43.7319 15.5016 43.6319 14.8016 44.0319C14.3016 44.6319 14.1016 45.0319 14.1016 45.8319V46.2319C14.1016 46.6319 14.1016 47.1319 14.1016 47.5319V48.4319C14.1016 49.1319 14.1016 49.7319 14.1016 50.4319C14.1016 51.2319 14.1016 52.1319 14.1016 52.9319C14.1016 53.6319 14.1016 54.2319 14.1016 54.9319V55.8319C14.1016 56.3319 14.1016 56.7319 14.1016 57.2319V57.6319C14.1016 58.4319 14.1016 59.0319 14.6016 59.6319C15.1016 60.0319 15.6016 60.1319 16.4016 60.1319H16.8016C17.3016 60.1319 17.7015 60.1319 18.2015 60.1319H19.2015C19.9015 60.1319 20.6016 60.1319 21.3016 60.1319C22.2016 60.1319 23.1016 60.1319 24.0016 60.1319C24.7016 60.1319 25.4016 60.1319 26.1016 60.1319H27.1016C27.6016 60.1319 28.1016 60.1319 28.6016 60.1319L28.9016 60.2319Z" fill="#855EA6" fill-opacity="0.5"/>
<path d="M60.2016 27.3319C60.2016 27.8319 60.2017 28.3319 60.4017 28.7319C60.7017 29.0319 60.9017 29.2319 61.4017 29.5319C62.0017 29.6319 62.3017 29.5319 62.9017 29.3319C63.4017 28.7319 63.5016 28.3319 63.6016 27.5319V27.1319C63.6016 26.7319 63.6016 26.2319 63.6016 25.8319V24.9319C63.6016 24.2319 63.6016 23.6319 63.6016 22.9319C63.6016 22.1319 63.6016 21.2319 63.6016 20.4319C63.6016 19.7319 63.6016 19.1319 63.6016 18.4319V17.5319C63.6016 17.0319 63.6016 16.6319 63.6016 16.1319V15.7319C63.6016 14.9319 63.6016 14.3319 63.1016 13.7319C62.6016 13.3319 62.2017 13.2319 61.4017 13.2319H61.0017C60.5017 13.2319 60.1016 13.2319 59.7016 13.2319H58.7016C58.0016 13.2319 57.4016 13.2319 56.7016 13.2319C55.8016 13.2319 55.0016 13.2319 54.1016 13.2319C53.4016 13.2319 52.7016 13.2319 52.1016 13.2319H51.1016C50.6016 13.2319 50.2016 13.2319 49.7016 13.2319H49.3017C48.5017 13.2319 48.1017 13.2319 47.4017 13.6319C47.1017 13.9319 46.9017 14.0319 46.8017 14.4319C46.7017 15.0319 46.8016 15.4319 47.2016 16.0319C48.0016 16.4319 48.7016 16.5319 49.7016 16.5319H50.3017C50.9017 16.5319 51.6016 16.5319 52.2016 16.5319H53.5017C54.7017 16.5319 55.8017 16.5319 57.0017 16.5319H58.0017L57.6016 16.9319C56.4016 18.1319 55.2017 19.2319 54.0017 20.4319L52.1016 22.2319C51.5016 22.8319 50.9017 23.4319 50.3017 24.0319L49.6016 24.7319C49.3016 25.0319 48.9016 25.3319 48.6016 25.7319L48.3017 26.0319C47.8017 26.4319 47.4016 26.8319 47.2016 27.3319C46.9016 27.9319 46.8017 28.2319 47.0017 28.9319C47.4017 29.4319 47.8017 29.6319 48.4017 29.7319C49.2017 29.6319 49.6016 29.3319 50.2016 28.8319L50.5017 28.5319C50.8017 28.2319 51.2017 27.9319 51.5017 27.5319C51.7017 27.3319 52.0016 27.0319 52.2016 26.8319C52.8016 26.2319 53.4017 25.6319 54.0017 25.0319C54.6017 24.4319 55.2017 23.8319 55.9017 23.2319C57.1017 22.0319 58.3017 20.8319 59.5017 19.6319L60.3017 18.8319V27.4319L60.2016 27.3319Z" fill="#855EA6" fill-opacity="0.5"/>
</svg>
