<svg width="92" height="90" viewBox="0 0 92 90" fill="none" xmlns="http://www.w3.org/2000/svg">
<path d="M91.4984 2.73212C91.4984 1.73212 90.6984 0.932129 89.6984 0.932129H81.7984C80.7984 0.932129 79.9984 1.73212 79.9984 2.73212C79.9984 3.73212 80.7984 4.53214 81.7984 4.53214H85.2984L73.3984 16.1321C73.0984 16.4321 72.8984 16.9321 72.8984 17.4321C72.8984 17.9321 73.0984 18.3321 73.3984 18.7321C74.0984 19.4321 75.2984 19.4321 75.9984 18.7321L87.8984 7.13214V10.5321C87.8984 11.5321 88.6984 12.3321 89.6984 12.3321C90.6984 12.3321 91.4984 11.5321 91.4984 10.5321V2.83212V2.73212Z" fill="#855EA6" fill-opacity="0.5"/>
<path d="M18.4 72.1321L18.6 71.9321L18.2 71.6321C17.5 71.2321 16.6 71.3321 16 71.9321L4.09998 83.5321V80.1321C4.09998 79.1321 3.29999 78.3321 2.29999 78.3321C1.29999 78.3321 0.5 79.1321 0.5 80.1321V87.8321C0.5 88.8321 1.29999 89.6321 2.29999 89.6321H10.2C11.2 89.6321 12 88.8321 12 87.8321C12 86.8321 11.2 86.0321 10.2 86.0321H6.70001L18.6 74.4321C18.9 74.1321 19.1 73.6321 19.1 73.1321C19.1 72.8321 19.1 72.5321 18.9 72.2321L18.5 71.9321" fill="#855EA6" fill-opacity="0.5"/>
<path d="M57 53.5326L56.3 52.8326C55.8 52.5326 55.1 52.5326 54.6 52.8326L53.8 53.4326C44 63.0326 36.3 73.8326 33.4 78.0326L33.1 78.5326L23.8 69.4326L27.6 65.7326C27.9 65.4326 28.1 64.9326 28.1 64.4326C28.1 63.9326 27.9 63.5326 27.6 63.1326C26.9 62.4326 25.7 62.4326 25 63.1326L21.2 66.8326L11.9 57.7326L12.4 57.4326C16.8 54.6326 28 46.9326 37.9 37.2326C44.7 30.6326 50.5 23.4326 54.1 18.6326C54.4 18.2326 54.5 17.7326 54.4 17.3326C54.4 17.0326 54.2 16.7326 54 16.5326L53.2 15.9326C52.5 15.6326 51.6 15.9326 51.1 16.5326C47.5 21.2326 41.9 28.2326 35.2 34.7326C28.7 41.1326 21.6 46.5326 16.8 49.9326C14.1 51.9326 11.8 53.4326 10.4 54.3326C9.60002 54.8326 9 55.2326 8.5 55.5326L7.79999 56.0326C7.39999 56.3326 7.1 56.7326 7 57.3326C7 57.8326 7.1 58.4326 7.5 58.8326L31.6 82.2326L32 82.5326L32.3 82.2326L32.1 82.5326L32.5 82.8326C32.8 83.0326 33.2 83.0326 33.6 83.0326C34.1 83.0326 34.6 82.7326 34.9 82.2326L35.3 81.5326C35.6 81.1326 36 80.5326 36.5 79.7326C37.5 78.3326 39 76.1326 41 73.4326C44.5 68.8326 50.1 61.9326 56.6 55.5326C56.9 55.2326 57.1 54.7326 57.1 54.2326C57.1 53.7326 57.1 53.6326 56.9 53.3326L57 53.5326Z" fill="#855EA6" fill-opacity="0.5"/>
<path d="M84.3969 31.6322L59.9969 7.8322C59.6969 7.5322 59.3969 7.4322 58.9969 7.3322C58.3969 7.2322 57.9969 7.4322 57.9969 7.4322C57.6969 7.5322 57.3969 7.83222 57.1969 8.13222C56.9969 8.53222 55.9969 10.0322 54.4969 12.1322C54.1969 12.5322 54.0969 13.0322 54.1969 13.4322C54.1969 13.9322 54.5969 14.3322 54.9969 14.6322C55.7969 15.2322 56.9969 14.9322 57.4969 14.1322C57.9969 13.4322 58.3969 12.8322 58.6969 12.3322L58.9969 11.8322L68.2969 20.9322L28.7969 59.4322C28.4969 59.7322 28.2969 60.2322 28.2969 60.7322C28.2969 61.2322 28.4969 61.6322 28.7969 62.0322C29.4969 62.7322 30.6969 62.7322 31.3969 62.0322L70.9969 23.5322L80.2969 32.6322L79.7969 32.9322C75.5969 35.7322 67.2969 41.4322 58.9969 48.7322L58.2969 49.4322C58.0969 49.7322 57.9969 49.9322 57.9969 50.3322C57.9969 50.8322 58.1969 51.2322 58.4969 51.6322C59.1969 52.3322 60.2969 52.4322 61.0969 51.7322C66.9969 46.5322 72.8969 42.1322 76.7969 39.3322C78.9969 37.7322 80.8969 36.5322 82.0969 35.7322C82.6969 35.3322 83.1969 35.0322 83.5969 34.7322L84.0969 34.4322C84.5969 34.1322 84.8969 33.6322 84.9969 33.1322C84.9969 32.6322 84.8969 32.0322 84.4969 31.6322H84.3969Z" fill="#855EA6" fill-opacity="0.5"/>
</svg>
