<svg width="79" height="79" viewBox="0 0 79 79" fill="none" xmlns="http://www.w3.org/2000/svg">
<path d="M70.8008 15.2L70.4008 14.8C68.8008 12.8 66.9008 10.9 64.6008 8.89999L64.3008 8.70001C59.3008 4.60001 53.3008 1.90001 47.1008 0.700012H46.7007C44.5007 0.200012 42.1008 0 39.8008 0C37.5008 0 35.5008 0.200006 33.5008 0.600006H33.1008C26.6008 1.90001 20.8008 4.50001 16.1008 8.20001L15.7007 8.60001C13.7007 10.2 11.8008 12.1 9.80083 14.4L9.60076 14.7C5.50076 19.7 2.80076 25.7 1.60076 31.9V32.3C0.700761 36.6 0.700809 41.4 1.40081 45.5V45.9C2.70081 52.4 5.30078 58.2 9.00078 62.9L9.40081 63.3C11.0008 65.3 12.8007 67.2 15.2007 69.2L15.5008 69.4C20.5008 73.5 26.5007 76.2 32.7007 77.4H33.1008C37.4008 78.3 42.2008 78.3 46.3008 77.6H46.7007C53.2007 76.3 59.0007 73.7 63.7007 70L64.1008 69.6C66.1008 68 68.0008 66.1 70.0008 63.8L70.2007 63.5C74.3007 58.5 77.0007 52.6 78.2007 46.3V45.9C79.1007 41.6 79.1008 36.8 78.4008 32.7V32.3C77.1008 25.8 74.5008 20 70.8008 15.3V15.2ZM74.5008 42.4V42.9C73.6008 49.3 71.3008 55.1 67.4008 60.1L67.2007 60.4C66.3007 61.5 65.5007 62.4 64.7007 63.2L64.3008 63.6C63.4008 64.5 62.3008 65.5 61.1008 66.4L60.6008 66.7C58.8008 68.1 57.1008 69.1 55.5008 69.9L55.2007 70.1C50.3007 72.5 45.1008 73.7 40.0008 73.7C34.9008 73.7 37.8008 73.7 36.6008 73.5H36.1008C29.7008 72.6 23.9008 70.3 18.9008 66.4L18.6008 66.2C17.5008 65.3 16.6008 64.5 15.8008 63.7L15.4008 63.3C14.5008 62.4 13.5008 61.3 12.6008 60.1L12.3008 59.6C10.9008 57.8 9.90076 56.1 9.10076 54.5L8.90081 54.2C6.00081 48.2 4.80078 41.8 5.50078 35.6V35.1C6.40078 28.7 8.70076 22.9 12.6008 17.9L12.8008 17.6C13.7008 16.5 14.5008 15.6 15.3008 14.8L15.7007 14.4C16.6007 13.5 17.7008 12.5 18.9008 11.6L19.4008 11.3C21.2008 9.89999 22.9008 8.90001 24.5008 8.10001L24.8008 7.89999C30.8008 4.99999 37.2008 3.8 43.4008 4.5H43.9008C50.3008 5.4 56.1008 7.70001 61.1008 11.6L61.4008 11.8C62.5008 12.7 63.4007 13.5 64.2007 14.3L64.6008 14.7C65.5008 15.6 66.5008 16.7 67.4008 17.9L67.7007 18.4C69.1007 20.2 70.1008 21.9 70.9008 23.5L71.1008 23.8C74.0008 29.8 75.2008 36.2 74.5008 42.4Z" fill="#5EC4DE" fill-opacity="0.5"/>
<path d="M37.6016 24.2C37.6016 24.8 37.6016 25.4 37.6016 26C37.6016 27 37.6016 28 37.6016 29C37.6016 30.2 37.6016 31.3 37.6016 32.5C37.6016 33.8 37.6016 35 37.6016 36.3V40.9C37.6016 41.3 37.6016 41.3 37.6016 41.6C37.9016 42.3 38.3016 42.7 39.1016 43.3L40.2015 44.1C40.9015 44.6 41.6016 45.1 42.3016 45.7C43.6016 46.7 44.8016 47.6 46.1016 48.5C46.8016 49 47.5015 49.5 48.2015 50L50.1016 51.5C51.0016 52.2 52.0016 53 53.0016 53.2C54.0016 53.2 54.6016 53 55.3016 52.4C55.7016 51.6 55.9016 51 55.9016 50.4C55.8016 49.6 55.3016 49.1 54.4016 48.4C53.5016 47.7 52.5016 47 51.6016 46.3C50.3016 45.3 49.0015 44.3 47.7015 43.4L47.0016 42.9C46.6016 42.6 46.3016 42.3 45.9016 42.1C45.2016 41.7 44.2016 41.1 43.3016 40.2H43.2015C43.2015 40.1 43.2015 39.9 43.2015 39.9C42.4015 37.8 42.3016 37.7 42.5016 35.3C42.5016 34.9 42.5016 34.5 42.5016 34.1C42.5016 33 42.5016 31.9 42.5016 30.8C42.5016 29.6 42.5016 28.3 42.5016 27.1V26.8C42.5016 25.7 42.5016 24.6 42.5016 23.5V20.8C42.5016 20.6 42.5016 20.4 42.5016 20.2C42.3016 19.6 42.0016 19.2 41.5016 18.9C40.5016 18.4 39.6016 18.4 38.4016 19.1C37.8016 19.8 37.6016 20.5 37.6016 21.6V22.1C37.6016 22.9 37.6016 23.5 37.6016 24.2Z" fill="#5EC4DE" fill-opacity="0.5"/>
</svg>
