<svg width="85" height="81" viewBox="0 0 85 81" fill="none" xmlns="http://www.w3.org/2000/svg">
<path d="M22.6001 63.9997C23.7001 63.0997 24.9001 62.1997 26.0001 61.2997L26.3001 61.0997L26.7001 61.3997C27.1001 61.6997 27.6001 61.9997 28.0001 62.2997C29.0001 62.9997 30.1001 63.7997 31.4001 64.3997L31.9001 64.5997C35.8001 66.2997 40.3001 66.7997 44.4001 65.7997H45.0001C46.9001 65.0997 48.8001 64.3997 50.6001 63.2997C55.0001 60.4997 58.0001 56.2997 59.1001 51.2997L59.5001 49.5997H65.5001V49.8997C66.2334 51.3664 66.8001 52.3997 67.2001 52.9997C68.8001 54.9997 70.9001 56.1997 73.2001 56.5997C76.6001 56.7997 79.1001 56.1997 81.1001 54.5997C83.3001 52.6997 84.4001 50.5997 84.5001 48.3997C84.5001 45.2997 83.8001 43.1997 82.1001 41.3997C80.1001 39.4997 78.0001 38.4997 75.4001 38.4997C72.4001 38.4997 70.1001 39.2997 68.4001 40.8997L68.1001 41.1997C67.3001 41.9997 66.7001 42.8997 66.2001 43.9997L65.6001 45.4997H59.6001V45.0997C58.5001 39.9997 56.4001 36.2997 53.0001 33.4997L52.6001 33.0997C49.2001 30.2997 45.1001 28.8997 40.4001 28.8997H40.1001C39.0001 28.8997 37.7001 28.8997 36.4001 29.1997H36.0001C35.7001 29.3997 35.3001 29.3997 35.0001 29.4997H34.7001C33.6001 29.8997 32.5001 30.2997 31.1001 30.8997C30.9001 30.8997 30.6001 31.0997 30.3001 30.8997C30.0001 30.6997 29.8001 30.4997 29.7001 30.3997C29.2001 29.7997 28.7001 29.1997 28.3001 28.5997L27.8001 27.8997C27.0001 26.7997 26.2001 25.7997 25.4001 24.6997C24.8001 23.9997 24.3001 23.1997 23.7001 22.4997C22.9001 21.4997 22.3001 20.6997 21.7001 19.7997L21.5001 19.4997L21.8001 19.1997C23.7001 17.0997 24.7001 14.5997 24.7001 11.5997C24.7001 8.49974 23.6001 5.79974 21.8001 3.99974L21.4001 3.69974C20.8001 3.09974 20.3001 2.59974 19.7001 2.19974C15.4001 -0.900259 8.30011 -0.600259 4.70011 2.89974L3.90011 3.69974C1.80011 5.69974 0.600106 8.39974 0.600106 11.6997C0.600106 14.7997 1.70011 17.4997 3.50011 19.2997L3.90011 19.5997C4.80011 20.4997 5.70011 21.2997 7.10011 21.9997C10.2001 23.3997 13.5001 23.5997 16.3001 22.6997L18.0001 22.1997L18.6001 22.9997L19.1001 23.5997C19.3001 23.7997 19.5001 24.0997 19.7001 24.2997L22.9001 28.4997C23.4001 29.1997 23.9001 29.7997 24.4001 30.3997L26.0001 32.3997C26.3001 32.7997 26.5001 33.0997 26.6001 33.4997C26.7001 34.0997 26.6001 34.2997 26.3001 34.6997C24.0001 36.9997 22.3001 39.5997 21.5001 42.3997L21.3001 42.9997C20.0001 47.2997 20.7001 52.1997 23.3001 57.0997L23.8001 57.9997L23.4001 58.2997C22.6001 58.8997 21.8001 59.4997 20.7001 60.2997L20.2001 60.6997C19.0001 61.5997 17.8001 62.5997 16.5001 63.6997L15.8001 64.2997L15.5001 64.0997C13.8001 63.0997 11.9001 62.5997 10.0001 62.5997C8.10011 62.5997 8.70011 62.5997 8.00011 62.7997C5.50011 63.3997 3.40011 64.7997 1.90011 66.8997C0.600107 69.0997 0.200106 71.5997 0.800106 74.0997C1.60011 76.5997 3.20011 78.5997 5.40011 79.7997C7.90011 80.9997 10.6001 81.1997 13.1001 80.4997C15.7001 79.5997 17.6001 77.9997 18.7001 75.7997C19.8001 73.4997 20.0001 70.8997 19.2001 68.9997L18.6001 67.4997L18.8001 67.2997C19.2001 66.8997 19.6001 66.4997 20.0001 66.1997L20.9001 65.4997C21.4001 65.0997 22.0001 64.6997 22.5001 64.1997L22.6001 63.9997ZM70.2001 45.0997L70.4001 44.7997C70.5334 44.5997 70.6668 44.3997 70.8001 44.1997C72.5001 42.3997 75.3001 41.8997 77.4001 42.9997L77.8001 43.1997C78.9001 43.8997 79.7001 44.8997 80.2001 46.2997C80.4001 47.8997 80.2001 48.9997 79.7001 50.0997L79.5001 50.3997C78.8001 51.4997 77.8001 52.1997 76.3001 52.6997C75.8001 52.6997 75.4001 52.7997 74.9001 52.7997C73.9001 52.7997 73.1001 52.5997 72.4001 52.1997L72.0001 51.9997C70.9001 51.2997 70.1001 50.2997 69.6001 48.8997C69.4001 47.2997 69.6001 46.1997 70.1001 45.0997H70.2001ZM18.4001 16.7997L18.1001 17.0997C16.6001 18.4997 14.9001 19.1997 12.9001 19.1997C10.5001 19.1997 8.60011 18.4997 7.20011 17.1997L6.90011 16.8997C5.50011 15.3997 4.70011 13.7997 4.70011 11.8997C4.70011 9.59974 5.40011 7.79974 6.70011 6.39974L7.00011 6.09974C8.50011 4.69974 10.2001 3.99974 12.2001 3.99974C14.6001 3.99974 16.5001 4.69974 17.9001 5.99974L18.2001 6.29974C19.6001 7.79974 20.4001 9.39974 20.4001 11.2997C20.4001 13.5997 19.7001 15.3997 18.4001 16.7997ZM28.8001 37.4997C34.0001 32.2997 42.4001 31.2997 48.6001 35.1997C52.0001 37.4997 54.4001 40.8997 55.2001 44.6997C55.9001 48.6997 55.0001 52.6997 52.7001 55.9997C50.3001 59.1997 46.6001 61.4997 42.6001 62.0997C41.8001 62.0997 41.1001 62.1997 40.3001 62.1997C36.7001 62.1997 33.4001 61.1997 30.7001 59.1997C27.4001 56.6997 25.3001 53.1997 24.9001 49.4997C24.6001 44.5997 25.9001 40.6997 28.8001 37.4997ZM14.9001 74.0997L14.7001 74.3997C14.0001 75.4997 13.0001 76.1997 11.5001 76.6997C11.0001 76.6997 10.6001 76.7997 10.1001 76.7997C9.10011 76.7997 8.30011 76.5997 7.60011 76.1997L7.20011 75.9997C6.10011 75.2997 5.30011 74.2997 4.80011 72.8997C4.60011 71.2997 4.80011 70.1997 5.30011 69.0997L5.50011 68.7997C5.63344 68.5997 5.76677 68.3997 5.90011 68.1997C7.60011 66.3997 10.4001 65.8997 12.5001 66.9997L12.9001 67.1997C14.0001 67.8997 14.8001 68.8997 15.3001 70.2997C15.5001 71.8997 15.3001 72.9997 14.8001 74.0997H14.9001Z" fill="#5EC4DE" fill-opacity="0.5"/>
</svg>
