<svg width="92" height="90" viewBox="0 0 92 90" fill="none" xmlns="http://www.w3.org/2000/svg">
<path d="M91.4984 2.29999C91.4984 1.29999 90.6984 0.5 89.6984 0.5H81.7984C80.7984 0.5 79.9984 1.29999 79.9984 2.29999C79.9984 3.29999 80.7984 4.10001 81.7984 4.10001H85.2984L73.3984 15.7C73.0984 16 72.8984 16.5 72.8984 17C72.8984 17.5 73.0984 17.9 73.3984 18.3C74.0984 19 75.2984 19 75.9984 18.3L87.8984 6.70001V10.1C87.8984 11.1 88.6984 11.9 89.6984 11.9C90.6984 11.9 91.4984 11.1 91.4984 10.1V2.39999V2.29999Z" fill="#5EC4DE" fill-opacity="0.5"/>
<path d="M18.4 71.7L18.6 71.5L18.2 71.2C17.5 70.8 16.6 70.9 16 71.5L4.09998 83.1V79.7C4.09998 78.7 3.29999 77.8999 2.29999 77.8999C1.29999 77.8999 0.5 78.7 0.5 79.7V87.3999C0.5 88.3999 1.29999 89.2 2.29999 89.2H10.2C11.2 89.2 12 88.3999 12 87.3999C12 86.3999 11.2 85.6 10.2 85.6H6.70001L18.6 74C18.9 73.7 19.1 73.2 19.1 72.7C19.1 72.4 19.1 72.0999 18.9 71.7999L18.5 71.5" fill="#5EC4DE" fill-opacity="0.5"/>
<path d="M57 53.1005L56.3 52.4005C55.8 52.1005 55.1 52.1005 54.6 52.4005L53.8 53.0005C44 62.6005 36.3 73.4005 33.4 77.6005L33.1 78.1005L23.8 69.0005L27.6 65.3005C27.9 65.0005 28.1 64.5005 28.1 64.0005C28.1 63.5005 27.9 63.1005 27.6 62.7005C26.9 62.0005 25.7 62.0005 25 62.7005L21.2 66.4005L11.9 57.3005L12.4 57.0005C16.8 54.2005 28 46.5005 37.9 36.8005C44.7 30.2005 50.5 23.0005 54.1 18.2005C54.4 17.8005 54.5 17.3005 54.4 16.9005C54.4 16.6005 54.2 16.3005 54 16.1005L53.2 15.5005C52.5 15.2005 51.6 15.5005 51.1 16.1005C47.5 20.8005 41.9 27.8005 35.2 34.3005C28.7 40.7005 21.6 46.1005 16.8 49.5005C14.1 51.5005 11.8 53.0005 10.4 53.9005C9.60002 54.4005 9 54.8005 8.5 55.1005L7.79999 55.6005C7.39999 55.9005 7.1 56.3005 7 56.9005C7 57.4005 7.1 58.0005 7.5 58.4005L31.6 81.8005L32 82.1005L32.3 81.8005L32.1 82.1005L32.5 82.4005C32.8 82.6005 33.2 82.6005 33.6 82.6005C34.1 82.6005 34.6 82.3005 34.9 81.8005L35.3 81.1005C35.6 80.7005 36 80.1005 36.5 79.3005C37.5 77.9005 39 75.7005 41 73.0005C44.5 68.4005 50.1 61.5005 56.6 55.1005C56.9 54.8005 57.1 54.3005 57.1 53.8005C57.1 53.3005 57.1 53.2005 56.9 52.9005L57 53.1005Z" fill="#5EC4DE" fill-opacity="0.5"/>
<path d="M84.4008 31.2001L60.0008 7.40007C59.7008 7.10007 59.4008 7.00007 59.0008 6.90007C58.4008 6.80007 58.0008 7.00008 58.0008 7.00008C57.7008 7.10008 57.4008 7.40009 57.2008 7.70009C57.0008 8.10009 56.0008 9.60009 54.5008 11.7001C54.2008 12.1001 54.1008 12.6001 54.2008 13.0001C54.2008 13.5001 54.6008 13.9001 55.0008 14.2001C55.8008 14.8001 57.0008 14.5001 57.5008 13.7001C58.0008 13.0001 58.4008 12.4001 58.7008 11.9001L59.0008 11.4001L68.3008 20.5001L28.8008 59.0001C28.5008 59.3001 28.3008 59.8001 28.3008 60.3001C28.3008 60.8001 28.5008 61.2001 28.8008 61.6001C29.5008 62.3001 30.7008 62.3001 31.4008 61.6001L71.0008 23.1001L80.3008 32.2001L79.8008 32.5001C75.6008 35.3001 67.3008 41.0001 59.0008 48.3001L58.3008 49.0001C58.1008 49.3001 58.0008 49.5001 58.0008 49.9001C58.0008 50.4001 58.2008 50.8001 58.5008 51.2001C59.2008 51.9001 60.3008 52.0001 61.1008 51.3001C67.0008 46.1001 72.9008 41.7001 76.8008 38.9001C79.0008 37.3001 80.9008 36.1001 82.1008 35.3001C82.7008 34.9001 83.2008 34.6001 83.6008 34.3001L84.1008 34.0001C84.6008 33.7001 84.9008 33.2001 85.0008 32.7001C85.0008 32.2001 84.9008 31.6001 84.5008 31.2001H84.4008Z" fill="#5EC4DE" fill-opacity="0.5"/>
</svg>
