<svg width="1441" height="248" viewBox="0 0 1441 248" fill="none" xmlns="http://www.w3.org/2000/svg">
<g clip-path="url(#clip0_58_65)">
<g filter="url(#filter0_d_58_65)">
<path d="M616.633 118.692H615.997C616.421 117.206 616.633 115.507 616.845 113.809C619.6 112.322 621.72 111.261 623.84 110.836C625.748 110.412 627.655 110.199 629.351 110.199C632.531 110.199 635.074 111.049 636.982 112.535C639.102 114.021 640.162 116.144 640.162 118.48C640.162 120.179 639.738 123.576 638.678 128.884C637.618 134.192 637.194 137.802 637.194 139.713C637.194 142.049 638.042 143.11 639.526 143.11C640.162 143.11 641.01 142.898 641.646 142.473L642.282 144.172C640.374 145.658 638.466 146.295 636.77 146.295C635.498 146.295 634.226 145.87 633.379 145.233C632.531 144.596 631.895 143.322 631.683 141.624C629.139 143.747 627.019 145.233 625.324 146.083C623.628 146.72 621.932 147.144 620.236 147.144C617.481 147.144 615.149 146.507 613.241 145.021C611.333 143.535 610.273 141.412 610.273 138.651C610.273 136.103 611.121 133.768 613.029 131.857C614.725 129.733 618.964 128.035 625.324 126.761C628.079 126.124 630.199 125.699 631.471 125.275C632.955 124.85 633.591 124.425 634.015 124.001C634.227 123.788 634.226 123.151 634.438 122.302C634.65 121.453 634.65 120.603 634.65 119.754C634.65 118.055 634.015 116.569 632.531 115.295C631.047 114.233 629.351 113.596 627.231 113.596C625.112 113.596 623.204 114.021 621.508 115.083C619.6 115.932 618.116 117.206 616.633 118.692ZM633.591 127.398C625.96 129.096 621.084 130.583 619.388 132.281C617.481 133.768 616.633 135.679 616.633 138.014C616.633 139.713 617.269 141.199 618.328 142.261C619.388 143.323 620.872 143.747 622.568 143.747C624.052 143.747 625.536 143.322 627.019 142.686C628.503 141.836 630.199 140.562 631.895 138.651L633.591 127.398Z" fill="white"/>
<path d="M671.11 146.295C671.958 144.171 672.594 141.836 673.23 139.288C671.322 142.048 669.202 144.171 667.295 145.233C665.387 146.295 663.267 146.932 660.935 146.932C657.332 146.932 654.152 145.445 651.397 142.685C648.641 139.925 647.369 136.103 647.369 131.432C647.369 126.123 649.065 121.24 652.457 116.569C655.848 112.11 660.3 109.774 665.599 109.774C668.355 109.774 670.474 110.411 672.382 111.685C674.29 112.959 675.774 114.87 676.622 117.418L678.529 104.466C679.589 98.096 680.013 93.4248 680.225 90.4521C681.709 90.6645 682.769 90.6645 683.617 90.6645C684.253 90.6645 685.313 90.6645 686.796 90.4521C686.16 92.5754 685.313 96.185 684.465 101.281C683.617 106.377 682.557 111.897 681.497 118.055L679.377 130.582C678.741 134.404 678.317 137.589 677.893 140.137C677.681 142.685 677.469 144.596 677.469 145.87C675.986 145.658 674.926 145.658 674.29 145.658C673.654 145.658 672.594 146.295 671.11 146.295ZM653.516 132.069C653.516 135.041 654.152 137.801 655.636 140.137C657.12 142.473 659.24 143.747 662.207 143.747C666.235 143.747 669.414 141.623 671.746 137.589C674.078 133.555 675.138 128.671 675.138 122.938C675.138 119.966 674.29 117.418 672.806 115.719C671.322 114.021 669.202 113.171 666.447 113.171C662.631 113.171 659.452 115.082 656.908 118.904C654.576 122.726 653.516 127.185 653.516 132.069Z" fill="white"/>
<path d="M687.432 110.836C688.916 111.049 690.188 111.049 690.824 111.049C691.672 111.049 692.732 111.049 694.215 110.836C694.851 115.508 697.183 125.062 700.999 139.501C708.842 125.062 713.505 115.508 715.201 110.836C716.473 111.049 717.321 111.049 717.956 111.049C718.38 111.049 719.44 111.049 720.712 110.836C718.38 114.658 714.989 120.604 710.537 128.46C706.086 136.316 702.906 142.261 701.422 146.295C700.575 146.083 699.727 146.083 699.303 146.083C698.879 146.083 698.243 146.083 697.395 146.295C696.971 143.96 695.487 138.439 693.367 129.734C690.824 121.028 688.916 114.658 687.432 110.836Z" fill="white"/>
<path d="M727.495 118.692H726.859C727.283 117.206 727.495 115.507 727.707 113.809C730.463 112.322 732.583 111.261 734.703 110.836C736.61 110.412 738.518 110.199 740.214 110.199C743.394 110.199 745.937 111.049 747.845 112.535C749.965 114.021 751.025 116.144 751.025 118.48C751.025 120.179 750.601 123.576 749.541 128.884C748.481 134.192 748.057 137.802 748.057 139.713C748.057 142.049 748.905 143.11 750.389 143.11C751.025 143.11 751.872 142.898 752.508 142.473L753.144 144.172C751.237 145.658 749.329 146.295 747.633 146.295C746.361 146.295 745.089 145.87 744.241 145.233C743.394 144.596 742.758 143.322 742.546 141.624C740.002 143.747 737.882 145.233 736.186 146.083C734.491 146.72 732.795 147.144 731.099 147.144C728.343 147.144 726.012 146.507 724.104 145.021C722.196 143.535 721.136 141.412 721.136 138.651C721.136 136.103 721.984 133.768 723.892 131.857C725.588 129.733 729.827 128.035 736.186 126.761C738.942 126.124 741.062 125.699 742.334 125.275C743.817 124.85 744.453 124.425 744.877 124.001C745.089 123.788 745.089 123.151 745.301 122.302C745.513 121.453 745.513 120.603 745.513 119.754C745.513 118.055 744.877 116.569 743.394 115.295C741.91 114.233 740.214 113.596 738.094 113.596C735.974 113.596 734.067 114.021 732.371 115.083C730.251 115.932 728.767 117.206 727.495 118.692ZM744.241 127.398C736.61 129.096 731.735 130.583 730.039 132.281C728.131 133.768 727.283 135.679 727.283 138.014C727.283 139.713 727.919 141.199 728.979 142.261C730.039 143.323 731.523 143.747 733.219 143.747C734.703 143.747 736.186 143.322 737.67 142.686C739.154 141.836 740.85 140.562 742.546 138.651L744.241 127.398Z" fill="white"/>
<path d="M757.172 146.295C758.02 143.959 759.292 138.014 760.775 128.884C762.471 119.754 763.107 113.596 763.107 110.624C764.591 110.836 765.651 110.836 766.287 110.836C767.135 110.836 768.195 110.836 769.466 110.624L767.771 115.932C769.89 113.809 772.01 112.11 773.918 111.261C776.038 110.411 778.157 109.987 780.277 109.987C783.669 109.987 786.212 110.836 788.12 112.747C790.028 114.658 790.876 116.781 790.876 119.329C790.876 121.453 790.24 125.699 788.968 132.706C787.696 139.501 787.06 143.959 787.06 146.295C785.576 146.083 784.517 146.083 783.669 146.083C782.821 146.083 781.761 146.083 780.277 146.295C780.913 144.596 781.761 140.562 783.033 134.192C784.305 127.822 784.94 123.151 784.94 120.179C784.94 118.268 784.305 116.569 783.033 115.295C781.761 114.021 780.065 113.384 777.733 113.384C771.374 113.384 767.559 118.48 765.863 128.459C764.379 138.439 763.531 144.384 763.531 146.295C762.047 146.083 760.987 146.083 760.351 146.083C759.928 146.083 758.656 146.295 757.172 146.295Z" fill="white"/>
<path d="M826.487 117.631C823.944 114.446 820.976 112.747 817.16 112.747C813.133 112.747 809.741 114.446 806.986 118.055C804.23 121.453 802.958 125.699 802.958 130.583C802.958 134.829 804.018 138.227 806.35 140.562C808.469 142.898 811.225 144.172 814.617 144.172C816.312 144.172 818.008 143.747 820.128 143.11C822.036 142.261 823.944 141.199 825.427 139.501H826.275C825.851 140.987 825.639 142.473 825.427 143.959C821.4 146.083 817.584 147.144 814.193 147.144C809.741 147.144 805.714 145.87 802.322 143.11C798.931 140.35 797.235 136.316 797.235 130.795C797.235 125.274 799.143 120.391 802.746 116.144C806.562 112.11 811.649 109.987 818.644 109.987C820.552 109.987 822.248 110.199 823.732 110.411C825.427 110.624 827.335 111.261 829.879 112.322C829.031 114.021 828.395 115.72 828.183 117.631H826.487Z" fill="white"/>
<path d="M838.782 110.836C840.266 111.048 841.326 111.048 842.174 111.048C842.81 111.048 843.446 111.048 844.081 111.048C844.717 111.048 845.353 111.048 845.565 110.836C844.717 113.809 843.445 119.117 841.75 127.398C840.054 135.679 839.206 141.836 838.994 146.507C837.298 146.295 836.026 146.295 835.39 146.295C834.755 146.295 834.331 146.295 833.695 146.295C833.059 146.295 832.635 146.295 832.423 146.507C833.483 142.898 834.755 136.953 836.238 128.247C837.934 119.329 838.782 113.596 838.782 110.836ZM840.478 98.0964C840.478 97.0348 840.902 96.1854 841.538 95.5485C842.174 94.9115 843.233 94.4868 844.293 94.4868C845.353 94.4868 846.201 94.9115 846.837 95.5485C847.473 96.1854 847.897 97.2471 847.897 98.0964C847.897 98.9457 847.473 100.007 846.837 100.644C846.201 101.281 845.141 101.706 844.293 101.706C843.233 101.706 842.386 101.281 841.75 100.644C840.902 100.007 840.478 99.1581 840.478 98.0964Z" fill="white"/>
<path d="M850.017 146.295C850.864 143.959 852.136 138.014 853.62 128.884C855.316 119.754 855.952 113.596 855.952 110.624C857.436 110.836 858.496 110.836 859.131 110.836C859.979 110.836 861.039 110.836 862.311 110.624L860.615 115.932C862.735 113.809 864.855 112.11 866.763 111.261C868.882 110.411 871.002 109.987 873.122 109.987C876.513 109.987 879.057 110.836 880.965 112.747C882.873 114.658 883.72 116.781 883.72 119.329C883.72 121.453 883.085 125.699 881.813 132.706C880.541 139.501 879.905 143.959 879.905 146.295C878.421 146.083 877.361 146.083 876.513 146.083C875.665 146.083 874.606 146.083 873.122 146.295C873.758 144.596 874.606 140.562 875.877 134.192C877.149 127.822 877.785 123.151 877.785 120.179C877.785 118.268 877.149 116.569 875.877 115.295C874.606 114.021 872.91 113.384 870.578 113.384C864.219 113.384 860.403 118.48 858.708 128.459C857.224 138.439 856.376 144.384 856.376 146.295C854.892 146.083 853.832 146.083 853.196 146.083C852.772 146.083 851.5 146.295 850.017 146.295Z" fill="white"/>
<path d="M897.287 132.281C893.895 130.158 892.411 127.186 892.411 123.576C892.411 120.179 893.683 117.206 896.439 114.446C898.983 111.686 903.01 110.412 907.885 110.412C909.369 110.412 911.277 110.412 913.185 110.624C915.305 110.836 917 110.836 918.696 110.836C920.816 110.836 922.936 110.624 925.055 110.199V114.021C923.36 113.596 921.452 113.384 919.544 113.384H918.06C919.968 115.932 921.028 118.055 921.028 120.179C921.028 123.576 919.544 126.761 916.788 129.521C914.033 132.281 910.217 133.555 905.342 133.555H902.586C902.374 133.555 901.738 133.555 900.254 133.555C899.195 133.555 898.559 133.768 897.923 134.405C897.499 134.829 897.075 135.466 897.075 136.103C897.075 137.377 897.711 138.014 898.771 138.439C899.83 138.651 902.586 138.864 906.614 138.864C911.701 138.864 915.305 139.501 917.212 140.775C919.12 142.049 919.968 143.959 919.968 146.507C919.968 150.117 918.272 153.514 914.881 156.699C911.489 159.884 907.25 161.37 901.738 161.37C897.287 161.37 893.895 160.521 891.563 158.823C889.232 157.124 888.172 154.788 888.172 152.24C888.172 148.418 890.716 145.446 895.803 143.11C893.259 142.049 891.987 140.562 891.987 138.651C891.775 136.316 893.683 134.192 897.287 132.281ZM898.347 144.384C896.439 144.809 895.167 145.87 894.107 146.932C893.259 148.206 892.623 149.692 892.623 151.179C892.623 153.09 893.471 154.788 894.955 156.275C896.651 157.761 898.983 158.398 901.95 158.398C905.342 158.398 908.097 157.549 910.429 155.638C912.761 153.939 913.821 151.603 913.821 149.055C913.821 147.144 912.973 145.87 911.489 144.809C910.005 143.747 907.674 143.322 904.282 143.322C903.222 143.322 901.95 143.322 901.102 143.535C900.466 143.959 899.406 144.172 898.347 144.384ZM898.559 123.364C898.559 125.699 899.195 127.398 900.466 128.672C901.738 129.946 903.434 130.583 905.554 130.583C908.309 130.583 910.429 129.521 912.125 127.398C913.821 125.275 914.669 122.727 914.669 119.754C914.669 117.843 914.033 116.144 912.973 114.87C911.913 113.384 910.217 112.747 907.885 112.747C905.342 112.747 903.222 113.809 901.314 115.72C899.407 118.055 898.559 120.391 898.559 123.364Z" fill="white"/>
<path d="M949.433 114.233V113.809C947.949 113.809 946.889 113.809 946.253 113.809C945.617 113.809 944.981 114.021 944.345 114.233C944.769 113.172 944.981 111.685 944.981 110.199C945.829 110.624 946.465 110.624 946.889 110.836C947.313 110.836 948.373 110.836 949.857 110.836C950.281 108.5 950.492 106.165 950.492 103.829L957.488 101.069C957.064 102.13 956.64 103.617 956.216 105.74C955.792 107.651 955.368 109.35 955.156 110.836H957.064C958.547 110.836 959.819 110.836 960.879 110.624C961.939 110.411 962.575 110.411 962.787 110.199C962.363 111.261 962.363 111.898 962.363 112.535C962.363 112.959 962.363 113.596 962.575 114.233C962.151 114.233 961.515 114.021 960.879 113.809C960.243 113.596 959.395 113.596 958.336 113.596H954.944C954.308 117.206 953.46 121.665 952.612 126.973C951.764 132.281 951.128 135.678 951.128 137.165C951.128 139.288 951.764 140.774 952.824 141.836C953.884 142.898 955.156 143.322 956.428 143.322C957.7 143.322 959.395 142.685 961.303 141.624V144.384C958.971 146.083 956.64 146.72 954.308 146.72C951.764 146.72 949.645 146.083 948.161 144.596C946.465 143.11 945.829 141.199 945.829 138.439C945.829 136.103 946.465 131.857 947.525 125.699C948.373 119.966 949.009 115.932 949.433 114.233Z" fill="white"/>
<path d="M964.482 146.295C965.33 143.534 967.026 134.404 969.782 118.904C972.537 103.404 974.021 94.0618 974.021 90.6646C975.505 90.8769 976.565 90.8769 977.201 90.8769C978.049 90.8769 979.109 90.8769 980.592 90.6646C979.533 93.6372 977.837 102.13 975.505 115.932C977.413 114.021 979.321 112.534 981.228 111.473C983.136 110.411 985.256 109.986 987.588 109.986C990.767 109.986 993.523 110.836 995.431 112.747C997.338 114.445 998.398 116.781 998.398 119.541C998.398 121.24 997.762 125.274 996.491 131.432C995.219 137.589 994.583 142.473 994.583 146.295C993.099 146.082 991.827 146.082 991.191 146.082C990.343 146.082 989.283 146.082 987.8 146.295C988.647 143.11 989.707 138.439 990.767 132.069C991.827 125.699 992.463 121.665 992.463 120.178C992.463 118.055 991.827 116.356 990.343 115.082C988.859 113.808 987.164 113.384 985.256 113.384C982.924 113.384 980.804 114.233 978.685 115.719C976.777 117.206 975.293 119.754 974.657 123.151C974.021 125.911 973.385 129.945 972.537 134.829C971.69 139.712 971.266 143.534 971.266 146.082C969.782 145.87 968.722 145.87 967.874 145.87C967.026 146.082 965.966 146.295 964.482 146.295Z" fill="white"/>
<path d="M1010.9 128.672C1010.69 130.583 1010.48 132.069 1010.48 133.131C1010.48 136.316 1011.54 139.076 1013.66 141.199C1015.78 143.323 1018.32 144.384 1021.72 144.384C1023.41 144.384 1025.11 143.959 1026.8 143.323C1028.71 142.686 1030.19 141.412 1031.68 139.501H1032.53C1032.1 140.987 1031.68 142.473 1031.68 143.959C1027.65 146.083 1023.84 147.144 1020.23 147.144C1015.78 147.144 1012.18 145.87 1009 143.11C1006.03 140.35 1004.33 136.316 1004.33 131.007C1004.33 125.275 1006.03 120.391 1009.21 116.357C1012.6 112.323 1017.05 110.199 1022.78 110.199C1026.8 110.199 1029.98 111.261 1032.53 113.596C1035.07 115.932 1036.13 118.905 1036.13 122.727C1036.13 124.85 1035.92 126.973 1035.49 129.096C1031.89 128.672 1028.92 128.459 1026.38 128.459H1010.9V128.672ZM1011.33 125.699H1029.98C1030.19 124.001 1030.41 122.727 1030.41 121.453C1030.41 119.329 1029.77 117.418 1028.29 115.507C1027.01 113.809 1025.11 112.747 1022.56 112.747C1020.02 112.747 1017.48 113.809 1015.57 116.144C1013.24 118.48 1011.96 121.665 1011.33 125.699Z" fill="white"/>
<path d="M1060.29 110.836C1061.78 111.049 1062.84 111.049 1063.69 111.049C1064.53 111.049 1065.59 111.049 1067.08 110.836C1067.08 112.535 1067.71 116.782 1068.77 123.151C1069.83 129.521 1070.89 134.617 1071.95 138.439C1077.89 128.672 1082.55 119.542 1086.16 110.836C1087 111.049 1087.64 111.049 1088.28 111.049C1088.7 111.049 1089.34 111.049 1090.4 110.836C1090.82 115.083 1092.52 124.425 1095.69 138.864C1101.63 129.097 1106.51 119.754 1110.11 110.836C1111.38 111.049 1112.23 111.049 1112.86 111.049C1113.5 111.049 1114.35 111.049 1115.83 110.836C1113.5 114.234 1110.74 118.693 1107.57 124.213C1104.17 129.521 1100.15 136.953 1095.48 146.508C1094.63 146.295 1094 146.295 1093.57 146.295C1093.15 146.295 1092.52 146.295 1091.46 146.508C1090.4 138.439 1088.7 129.309 1086.16 119.33C1082.98 124.85 1080.22 129.734 1077.89 133.98C1075.56 138.227 1073.65 142.473 1071.95 146.508C1071.11 146.295 1070.47 146.295 1070.05 146.295C1069.62 146.295 1068.99 146.295 1068.14 146.508C1066.23 135.254 1063.69 123.364 1060.29 110.836Z" fill="white"/>
<path d="M1120.92 118.692H1120.28C1120.71 117.206 1120.92 115.507 1121.13 113.809C1123.89 112.322 1126.01 111.261 1128.13 110.836C1130.03 110.412 1131.94 110.199 1133.64 110.199C1136.82 110.199 1139.36 111.049 1141.27 112.535C1143.39 114.021 1144.45 116.144 1144.45 118.48C1144.45 120.179 1144.02 123.576 1142.96 128.884C1141.9 134.192 1141.48 137.802 1141.48 139.713C1141.48 142.049 1142.33 143.11 1143.81 143.11C1144.45 143.11 1145.3 142.898 1145.93 142.473L1146.57 144.172C1144.66 145.658 1142.75 146.295 1141.06 146.295C1139.78 146.295 1138.51 145.87 1137.67 145.233C1136.82 144.596 1136.18 143.322 1135.97 141.624C1133.43 143.747 1131.31 145.233 1129.61 146.083C1127.91 146.72 1126.22 147.144 1124.52 147.144C1121.77 147.144 1119.44 146.507 1117.53 145.021C1115.62 143.535 1114.56 141.412 1114.56 138.651C1114.56 136.103 1115.41 133.768 1117.32 131.857C1119.01 129.733 1123.25 128.035 1129.61 126.761C1132.37 126.124 1134.49 125.699 1135.76 125.275C1137.24 124.85 1137.88 124.425 1138.3 124.001C1138.51 123.788 1138.51 123.151 1138.73 122.302C1138.94 121.453 1138.94 120.603 1138.94 119.754C1138.94 118.055 1138.3 116.569 1136.82 115.295C1135.33 114.233 1133.64 113.596 1131.52 113.596C1129.4 113.596 1127.49 114.021 1125.79 115.083C1123.89 115.932 1122.4 117.206 1120.92 118.692ZM1137.88 127.398C1130.25 129.096 1125.37 130.583 1123.67 132.281C1121.77 133.768 1120.92 135.679 1120.92 138.014C1120.92 139.713 1121.56 141.199 1122.62 142.261C1123.67 143.323 1125.16 143.747 1126.85 143.747C1128.34 143.747 1129.82 143.322 1131.31 142.686C1132.79 141.836 1134.49 140.562 1136.18 138.651L1137.88 127.398Z" fill="white"/>
<path d="M1151.66 110.836C1153.35 111.049 1154.41 111.049 1155.26 111.049C1156.11 111.049 1157.17 111.049 1158.86 110.836C1158.86 112.747 1159.71 116.782 1161.19 122.939C1162.68 128.884 1164.37 134.617 1166.07 139.713C1174.12 125.062 1178.79 115.508 1179.85 110.836C1180.91 111.049 1181.76 111.049 1182.82 111.049C1183.88 111.049 1184.94 111.049 1185.78 110.836C1184.09 113.809 1181.54 118.268 1178.36 123.788L1171.16 136.953C1167.55 143.323 1164.59 148.631 1162.47 152.878C1160.35 157.124 1159.07 160.097 1158.65 161.795C1157.38 161.583 1156.53 161.583 1155.89 161.583C1155.05 161.583 1154.2 161.583 1153.14 161.795C1154.41 160.309 1155.89 157.973 1158.23 154.364C1160.35 150.754 1161.83 147.994 1162.68 146.295C1160.77 138.864 1158.44 131.432 1156.32 124.213C1153.78 116.357 1152.29 112.11 1151.66 110.836Z" fill="white"/>
<path d="M1206.56 110.836C1208.04 111.049 1209.1 111.049 1209.95 111.049C1210.8 111.049 1211.86 111.049 1213.34 110.836C1213.34 112.535 1213.98 116.782 1215.04 123.151C1216.1 129.521 1217.16 134.617 1218.22 138.439C1224.15 128.672 1228.81 119.542 1232.42 110.836C1233.27 111.049 1233.9 111.049 1234.54 111.049C1234.96 111.049 1235.6 111.049 1236.66 110.836C1237.08 115.083 1238.78 124.425 1241.96 138.864C1247.89 129.097 1252.77 119.754 1256.37 110.836C1257.64 111.049 1258.49 111.049 1259.13 111.049C1259.76 111.049 1260.61 111.049 1262.09 110.836C1259.76 114.234 1257.01 118.693 1253.83 124.213C1250.44 129.521 1246.41 136.953 1241.74 146.508C1240.9 146.295 1240.26 146.295 1239.84 146.295C1239.41 146.295 1238.78 146.295 1237.72 146.508C1236.66 138.439 1234.96 129.309 1232.42 119.33C1229.24 124.85 1226.48 129.734 1224.15 133.98C1221.82 138.227 1219.91 142.473 1218.22 146.508C1217.37 146.295 1216.73 146.295 1216.31 146.295C1215.88 146.295 1215.25 146.295 1214.4 146.508C1212.49 135.254 1209.95 123.364 1206.56 110.836Z" fill="white"/>
<path d="M1268.03 128.672C1267.82 130.583 1267.61 132.069 1267.61 133.131C1267.61 136.316 1268.67 139.076 1270.78 141.199C1272.9 143.323 1275.45 144.384 1278.84 144.384C1280.54 144.384 1282.23 143.959 1283.93 143.323C1285.84 142.686 1287.32 141.412 1288.8 139.501H1289.65C1289.23 140.987 1288.8 142.473 1288.8 143.959C1284.78 146.083 1280.96 147.144 1277.36 147.144C1272.9 147.144 1269.3 145.87 1266.12 143.11C1263.15 140.35 1261.46 136.316 1261.46 131.007C1261.46 125.275 1263.15 120.391 1266.33 116.357C1269.73 112.323 1274.18 110.199 1279.9 110.199C1283.93 110.199 1287.11 111.261 1289.65 113.596C1292.19 115.932 1293.25 118.905 1293.25 122.727C1293.25 124.85 1293.04 126.973 1292.62 129.096C1289.01 128.672 1286.05 128.459 1283.5 128.459H1268.03V128.672ZM1268.24 125.699H1286.89C1287.11 124.001 1287.32 122.727 1287.32 121.453C1287.32 119.329 1286.68 117.418 1285.2 115.507C1283.93 113.809 1282.02 112.747 1279.48 112.747C1276.93 112.747 1274.39 113.809 1272.48 116.144C1270.36 118.48 1268.88 121.665 1268.24 125.699Z" fill="white"/>
<path d="M1345.82 117.631C1343.28 114.446 1340.31 112.747 1336.5 112.747C1332.47 112.747 1329.08 114.446 1326.32 118.055C1323.57 121.453 1322.29 125.699 1322.29 130.583C1322.29 134.829 1323.35 138.227 1325.69 140.562C1327.81 142.898 1330.56 144.172 1333.95 144.172C1335.65 144.172 1337.34 143.747 1339.46 143.11C1341.37 142.261 1343.28 141.199 1344.76 139.501H1345.61C1345.19 140.987 1344.98 142.473 1344.76 143.959C1340.74 146.083 1336.92 147.144 1333.53 147.144C1329.08 147.144 1325.05 145.87 1321.66 143.11C1318.27 140.35 1316.57 136.316 1316.57 130.795C1316.57 125.274 1318.48 120.391 1322.08 116.144C1325.9 112.11 1330.99 109.987 1337.98 109.987C1339.89 109.987 1341.58 110.199 1343.07 110.411C1344.76 110.624 1346.67 111.261 1349.22 112.322C1348.37 114.021 1347.73 115.72 1347.52 117.631H1345.82Z" fill="white"/>
<path d="M1356 118.692H1355.36C1355.79 117.206 1356 115.507 1356.21 113.809C1358.97 112.322 1361.09 111.261 1363.21 110.836C1365.11 110.412 1367.02 110.199 1368.72 110.199C1371.9 110.199 1374.44 111.049 1376.35 112.535C1378.47 114.021 1379.53 116.144 1379.53 118.48C1379.53 120.179 1379.1 123.576 1378.04 128.884C1376.98 134.192 1376.56 137.802 1376.56 139.713C1376.56 142.049 1377.41 143.11 1378.89 143.11C1379.53 143.11 1380.38 142.898 1381.01 142.473L1381.65 144.172C1379.74 145.658 1377.83 146.295 1376.14 146.295C1374.86 146.295 1373.59 145.87 1372.74 145.233C1371.9 144.596 1371.26 143.322 1371.05 141.624C1368.51 143.747 1366.39 145.233 1364.69 146.083C1362.99 146.72 1361.3 147.144 1359.6 147.144C1356.85 147.144 1354.51 146.507 1352.61 145.021C1350.7 143.535 1349.64 141.412 1349.64 138.651C1349.64 136.103 1350.49 133.768 1352.4 131.857C1354.09 129.733 1358.33 128.035 1364.69 126.761C1367.45 126.124 1369.57 125.699 1370.84 125.275C1372.32 124.85 1372.96 124.425 1373.38 124.001C1373.59 123.788 1373.59 123.151 1373.8 122.302C1374.02 121.453 1374.02 120.603 1374.02 119.754C1374.02 118.055 1373.38 116.569 1371.9 115.295C1370.41 114.233 1368.72 113.596 1366.6 113.596C1364.48 113.596 1362.57 114.021 1360.87 115.083C1358.97 115.932 1357.27 117.206 1356 118.692ZM1372.96 127.398C1365.33 129.096 1360.45 130.583 1358.75 132.281C1356.85 133.768 1356 135.679 1356 138.014C1356 139.713 1356.63 141.199 1357.69 142.261C1358.75 143.323 1360.24 143.747 1361.93 143.747C1363.42 143.747 1364.9 143.322 1366.39 142.686C1367.87 141.836 1369.57 140.562 1371.26 138.651L1372.96 127.398Z" fill="white"/>
<path d="M1385.46 146.295C1386.31 143.747 1387.58 138.014 1389.28 128.672C1390.97 119.329 1392.03 113.384 1392.03 110.836C1393.31 111.049 1394.37 111.049 1395 111.049C1395.43 111.049 1396.06 111.049 1396.49 111.049C1397.12 111.049 1397.55 111.049 1397.97 110.836C1397.12 113.172 1396.49 115.72 1395.85 118.905C1400.09 113.172 1403.69 110.199 1407.3 110.199C1407.72 110.199 1408.14 110.199 1408.36 110.199C1407.93 112.535 1407.72 114.446 1407.72 115.507C1407.72 116.569 1407.93 117.418 1407.93 117.631C1406.24 116.781 1404.96 116.357 1403.9 116.357C1402 116.357 1400.3 117.206 1398.82 118.905C1397.33 120.603 1396.27 123.151 1395.43 126.336C1394.79 129.096 1393.94 132.706 1393.31 136.953C1392.67 141.199 1392.25 144.384 1392.25 146.295C1390.76 146.083 1389.91 146.083 1389.07 146.083C1388.43 146.083 1387.79 146.083 1387.16 146.083C1386.52 146.295 1385.89 146.295 1385.46 146.295Z" fill="white"/>
<path d="M1415.56 128.672C1415.35 130.583 1415.14 132.069 1415.14 133.131C1415.14 136.316 1416.2 139.076 1418.32 141.199C1420.44 143.323 1422.98 144.384 1426.37 144.384C1428.07 144.384 1429.77 143.959 1431.46 143.323C1433.37 142.686 1434.85 141.412 1436.34 139.501H1437.18C1436.76 140.987 1436.34 142.473 1436.34 143.959C1432.31 146.083 1428.49 147.144 1424.89 147.144C1420.44 147.144 1416.84 145.87 1413.66 143.11C1410.69 140.35 1408.99 136.316 1408.99 131.007C1408.99 125.275 1410.69 120.391 1413.87 116.357C1417.26 112.323 1421.71 110.199 1427.43 110.199C1431.46 110.199 1434.64 111.261 1437.18 113.596C1439.73 115.932 1440.79 118.905 1440.79 122.727C1440.79 124.85 1440.58 126.973 1440.15 129.096C1436.55 128.672 1433.58 128.459 1431.04 128.459H1415.56V128.672ZM1415.78 125.699H1434.43C1434.64 124.001 1434.85 122.727 1434.85 121.453C1434.85 119.329 1434.22 117.418 1432.73 115.507C1431.46 113.809 1429.55 112.747 1427.01 112.747C1424.47 112.747 1421.92 113.809 1420.01 116.144C1417.9 118.48 1416.41 121.665 1415.78 125.699Z" fill="white"/>
<path d="M406.354 203.198C406.142 206.596 405.93 208.719 405.93 209.568H409.11V211.479H405.93C405.718 214.876 405.718 217.424 405.718 219.335C405.718 219.972 405.718 220.822 405.93 221.883C405.93 222.945 406.142 223.794 406.354 224.431C406.566 224.856 406.99 225.068 407.838 225.068C408.05 225.068 408.474 225.068 409.11 224.856H409.322H409.534V226.342C409.322 226.342 409.322 226.555 409.322 226.555C407.838 226.979 406.778 227.192 405.718 227.192C404.023 227.192 402.751 226.767 401.903 225.705C401.267 224.644 400.843 223.37 400.843 221.459C400.843 220.185 400.843 218.274 401.055 215.726C401.055 215.301 401.055 214.452 401.055 213.602C401.055 212.753 401.055 211.904 401.055 211.479H398.511V209.993V209.568H401.055C401.055 209.144 401.055 208.294 401.055 207.445C401.055 206.383 401.055 205.746 401.055 205.322C402.327 204.897 404.023 204.048 405.93 202.986L406.354 203.198ZM390.88 224.219C390.032 225.281 388.973 225.918 388.337 226.555C387.489 226.979 386.641 227.192 385.369 227.192C383.249 227.192 381.553 226.342 380.494 224.856C379.858 224.007 379.434 222.52 379.434 220.397V219.123C379.434 218.274 379.434 216.787 379.434 215.089C379.434 213.39 379.434 212.116 379.434 211.055C379.434 210.842 379.434 210.418 379.434 209.993C379.434 209.568 379.434 209.356 379.434 209.144C380.706 209.144 381.765 209.144 382.401 209.144C382.825 209.144 383.673 209.144 384.945 209.144C384.733 211.267 384.521 214.664 384.521 218.911C384.521 220.397 384.733 221.459 384.945 221.883C385.369 223.157 386.217 223.794 387.489 223.794C388.973 223.794 389.82 223.157 390.032 221.883C390.456 220.609 390.668 219.123 390.668 217.212C390.668 216.363 390.668 214.876 390.668 213.178C390.668 211.267 390.668 209.993 390.456 209.144C391.728 209.144 392.576 209.144 393 209.144C393.636 209.144 394.484 209.144 395.544 209.144C395.332 210.418 395.332 211.904 395.332 213.39C395.332 214.027 395.332 215.089 395.332 216.363C395.332 217.637 395.332 218.698 395.332 219.335V221.246C395.332 222.945 395.332 224.431 395.544 226.13V226.767C395.332 226.767 394.696 226.767 394.272 226.767C393.636 226.767 393.212 226.767 392.788 226.767C392.576 226.767 392.152 226.767 391.728 226.767C391.304 226.767 390.88 226.767 390.456 226.767L390.88 224.219ZM375.406 226.979C375.194 226.979 374.558 226.979 374.134 226.979C373.498 226.979 373.074 226.979 372.862 226.979C372.65 226.979 372.015 226.979 371.379 226.979C370.743 226.979 370.319 226.979 370.107 226.979C370.319 225.068 370.319 222.308 370.319 218.486V215.938V211.479C370.319 210.842 370.319 209.781 370.319 208.507C370.319 207.233 370.319 206.171 370.319 205.534C370.319 204.685 370.319 203.198 370.319 201.287C370.319 201.075 370.319 200.863 370.319 200.438C370.319 200.013 370.319 199.801 370.319 199.589C371.167 199.801 372.015 199.801 373.074 199.801C374.134 199.801 375.194 199.801 375.83 199.589C375.83 199.801 375.83 200.013 375.83 200.438C375.83 200.863 375.83 201.075 375.83 201.287C375.83 201.712 375.83 202.349 375.83 203.198C375.83 204.048 375.83 204.685 375.83 205.109C375.83 205.746 375.83 206.808 375.83 208.082C375.83 209.356 375.83 210.418 375.83 211.055C375.194 217 375.194 222.52 375.406 226.979ZM354.209 215.726C353.997 216.575 353.997 217.424 353.997 218.486C353.997 223.37 355.057 225.705 357.388 225.705C358.236 225.705 359.084 225.281 359.508 224.644C359.932 224.007 360.356 223.157 360.568 222.096C360.78 220.822 360.992 219.123 360.992 217.212C360.992 216.787 360.992 216.15 360.78 215.301C360.568 212.116 359.508 210.418 357.6 210.418C356.54 210.418 355.693 210.842 355.057 211.904C354.633 213.178 354.209 214.452 354.209 215.726ZM348.485 218.698C348.485 215.938 349.333 213.602 351.029 211.904C351.877 211.055 352.725 210.418 353.997 209.993C355.269 209.568 356.328 209.356 357.6 209.356C358.872 209.356 360.144 209.568 361.204 209.993C362.476 210.418 363.324 211.055 364.172 211.904C365.655 213.602 366.503 215.726 366.503 218.274C366.503 220.185 366.079 221.671 365.443 223.157C364.807 224.644 363.748 225.705 362.264 226.555C360.992 227.404 359.296 227.829 357.388 227.829C355.693 227.829 353.997 227.404 352.725 226.767C351.453 226.13 350.393 225.068 349.545 223.794C348.909 221.883 348.485 220.397 348.485 218.698ZM343.398 206.808C342.55 204.685 341.278 203.623 339.159 203.623C337.887 203.623 337.039 203.835 336.191 204.685C335.555 205.322 335.131 206.171 335.131 207.233C335.131 208.082 335.555 208.931 336.191 209.356C337.039 209.993 338.099 210.63 339.795 211.479C341.49 212.329 342.55 212.965 343.61 213.602C344.458 214.239 345.306 215.089 345.518 215.938C345.942 216.787 346.154 217.849 346.154 219.123C346.154 220.185 345.942 221.459 345.306 222.52C344.67 224.007 343.186 225.281 341.49 226.13C340.218 226.767 338.523 227.192 336.615 227.192C334.283 227.192 332.375 226.767 330.68 225.705C331.316 223.794 331.528 222.308 331.74 221.034H332.375C332.587 222.308 333.223 223.157 334.071 223.794C334.919 224.431 335.979 224.856 337.251 224.856C338.523 224.856 339.371 224.644 340.218 224.007C341.066 223.37 341.49 222.52 341.49 221.246C341.49 220.185 341.066 219.335 340.218 218.486C339.159 217.637 337.675 217 336.191 216.15C335.767 215.938 335.131 215.513 334.495 215.089C333.859 214.664 333.435 214.452 333.223 214.239C332.375 213.815 331.74 212.966 331.316 211.904C330.892 210.842 330.68 209.781 330.68 208.719C330.68 206.383 331.528 204.472 333.435 202.986C334.283 202.349 335.131 201.924 335.979 201.5C336.827 201.287 337.887 201.075 339.159 201.075C341.278 201.075 342.974 201.5 344.67 202.561C344.67 202.561 344.67 202.774 344.882 202.774C344.458 203.835 344.034 205.109 343.822 206.383H343.398V206.808ZM303.759 208.082V211.904C304.395 211.055 305.243 210.418 306.303 209.993C307.362 209.356 308.21 209.144 309.058 209.144C310.754 209.144 312.238 209.781 313.298 210.842C314.358 211.904 314.782 213.39 314.782 215.513V220.609V225.281V227.192C314.57 227.192 314.146 227.192 313.51 227.192C312.874 227.192 312.45 227.192 312.238 227.192C312.026 227.192 311.602 227.192 310.966 227.192C310.33 227.192 309.906 227.192 309.694 227.192C309.694 226.979 309.694 226.555 309.694 225.918C309.694 225.493 309.694 225.068 309.694 224.644L309.906 221.246C309.906 220.609 310.118 219.548 310.118 218.061C310.118 216.575 310.118 215.513 309.906 214.452C309.694 213.815 309.482 213.39 308.846 212.966C308.422 212.541 307.786 212.329 307.15 212.329C305.879 212.329 305.031 212.966 304.607 214.027C304.183 215.089 303.971 216.787 303.971 218.911C303.971 219.548 303.971 220.397 303.971 221.459C303.971 222.52 303.971 223.582 303.971 224.644C303.971 225.705 303.971 226.555 303.971 227.192C303.759 227.192 303.335 227.192 302.699 227.192C302.063 227.192 301.639 227.192 301.427 227.192C301.215 227.192 300.791 227.192 300.155 227.192C299.519 227.192 299.095 227.192 298.884 227.192C298.884 226.13 299.095 225.281 299.095 224.856L299.307 215.938C299.307 215.513 299.307 214.664 299.307 213.815C299.307 212.965 299.307 212.116 299.307 211.692C299.307 207.657 299.095 203.623 298.884 199.801C299.731 200.013 300.579 200.013 301.639 200.013C302.911 200.013 303.759 200.013 304.395 199.801L303.759 208.082ZM294.644 214.452H293.796C293.584 213.39 293.16 212.541 292.524 211.904C291.888 211.267 291.04 210.842 289.981 210.842C288.497 210.842 287.437 211.479 286.589 212.966C285.953 214.452 285.529 215.938 285.529 217.637C285.529 219.972 285.953 221.671 286.801 222.733C287.649 224.007 289.133 224.856 291.04 224.856C292.524 224.856 293.796 224.219 294.856 223.157L295.492 223.582L294.644 225.705C294.22 226.13 293.372 226.555 292.524 226.767C291.464 226.979 290.617 227.192 289.769 227.192C286.589 227.192 284.469 226.342 282.773 224.856C281.078 223.157 280.23 221.034 280.23 218.274C280.23 216.363 280.654 214.664 281.502 213.39C282.35 211.904 283.409 210.842 284.893 209.993C286.377 209.144 288.073 208.931 289.981 208.931C292.524 208.931 294.644 209.568 296.34 210.63L294.644 214.452ZM267.087 218.274C267.087 218.911 267.087 219.548 267.299 220.397C267.299 221.034 267.511 221.671 267.935 222.308C268.359 222.945 268.571 223.582 268.995 224.007C269.843 224.856 270.903 225.068 272.175 225.068C273.659 225.068 275.142 224.431 276.414 223.37L276.838 223.794L275.99 225.918C274.506 226.979 272.599 227.616 270.691 227.616C269.207 227.616 267.723 227.404 266.663 226.979C265.604 226.555 264.544 225.918 263.696 224.856C262.212 223.37 261.576 221.034 261.576 218.061C261.576 216.363 262 214.876 262.636 213.602C263.272 212.329 264.332 211.267 265.604 210.418C266.875 209.568 268.359 209.356 270.055 209.356C271.751 209.356 273.235 209.781 274.294 210.418C275.354 211.055 276.202 212.116 276.838 213.178C277.474 214.452 277.686 215.726 277.686 217.424C277.686 217.849 277.686 218.274 277.686 218.698H267.087V218.274ZM272.599 216.575C272.599 216.575 272.599 216.363 272.599 216.15C272.599 215.938 272.599 215.726 272.599 215.726C272.387 212.329 271.751 210.63 270.055 210.63C268.995 210.63 268.147 211.267 267.723 212.329C267.299 213.39 267.087 214.876 267.087 216.575H272.599ZM253.097 207.445C253.097 208.507 253.097 209.993 253.097 211.904C253.097 214.027 253.097 215.513 253.097 216.363C253.097 216.787 253.097 217.637 253.097 218.698C253.097 219.76 253.097 220.609 253.097 221.034C253.097 221.671 253.097 222.733 253.097 224.007C253.097 225.281 253.097 226.342 253.097 226.979C252.885 226.979 252.249 226.979 251.613 226.979C250.977 226.979 250.341 226.979 250.129 226.979C249.706 226.979 249.282 226.979 248.646 226.979C248.01 226.979 247.586 226.979 247.162 226.979C247.162 226.342 247.162 225.493 247.374 224.431C247.374 223.37 247.374 222.52 247.374 221.883C247.586 216.575 247.586 212.541 247.586 209.568C247.586 208.507 247.586 207.02 247.374 204.897C246.738 204.897 245.678 204.897 244.194 205.109C242.922 205.322 241.65 205.322 240.591 205.534C240.803 205.109 240.803 204.685 240.803 204.048C240.803 203.411 240.803 202.986 240.803 202.774V202.561C240.803 202.349 240.803 202.349 240.803 202.349C242.074 202.349 242.922 202.349 243.558 202.349C246.102 202.349 248.434 202.561 250.129 202.561H253.945C254.581 202.561 255.429 202.561 256.701 202.349C257.973 202.349 258.82 202.137 259.668 202.137C259.456 202.561 259.456 203.198 259.456 203.623C259.456 204.26 259.456 204.685 259.668 205.322C257.549 204.897 255.429 204.897 253.309 204.897L253.097 207.445ZM226.388 218.274C226.388 222.733 227.448 225.068 229.568 225.068C230.84 225.068 231.9 224.219 232.324 222.733C232.748 221.246 233.172 219.548 233.172 217.849C233.172 216.15 232.96 214.664 232.536 213.39C232.112 212.116 231.264 211.267 229.992 211.267C228.72 211.267 227.66 211.904 227.236 213.39C226.6 215.089 226.388 216.575 226.388 218.274ZM233.383 199.589C233.807 199.589 234.655 199.801 235.503 199.801C236.139 199.801 236.987 199.801 238.259 199.589C238.259 200.65 238.259 201.924 238.047 203.198C238.047 206.171 237.835 208.294 237.835 209.781C237.835 214.664 237.623 218.061 237.623 220.609C237.623 222.096 237.623 224.219 237.835 227.192H237.411C236.563 227.192 235.927 226.979 235.503 226.979C235.291 226.979 234.867 226.979 234.231 226.979C233.595 226.979 233.172 226.979 232.96 226.979C233.172 225.281 233.172 224.219 233.172 223.794C232.112 226.13 230.416 227.404 228.084 227.404C225.54 227.404 223.845 226.555 222.573 224.856C221.513 223.157 220.877 221.034 220.877 218.274C220.877 215.938 221.513 213.815 222.573 211.904C223.209 211.055 223.845 210.418 224.905 209.781C225.964 209.144 226.812 208.931 227.872 208.931C230.204 208.931 231.9 209.781 232.748 211.479V208.719C232.748 208.294 232.748 207.657 232.748 206.596C232.748 205.746 232.748 204.897 232.748 204.472C232.748 203.411 232.748 201.712 232.536 199.376H233.383V199.589ZM208.371 218.274C208.371 218.911 208.371 219.548 208.583 220.397C208.583 221.034 208.794 221.671 209.218 222.308C209.642 222.945 209.854 223.582 210.278 224.007C211.126 224.856 212.186 225.068 213.458 225.068C214.942 225.068 216.426 224.431 217.697 223.37L218.121 223.794L217.273 225.918C215.79 226.979 213.882 227.616 211.974 227.616C210.49 227.616 209.006 227.404 207.947 226.979C206.887 226.555 205.827 225.918 204.979 224.856C203.495 223.37 202.859 221.034 202.859 218.061C202.859 216.363 203.283 214.876 203.919 213.602C204.555 212.329 205.615 211.267 206.887 210.418C208.159 209.568 209.642 209.356 211.338 209.356C213.034 209.356 214.518 209.781 215.578 210.418C216.638 211.055 217.485 212.116 218.121 213.178C218.545 214.452 218.969 215.726 218.969 217.424C218.969 217.849 218.969 218.274 218.969 218.698H208.371V218.274ZM214.094 216.575C214.094 216.575 214.094 216.363 214.094 216.15C214.094 215.938 214.094 215.726 214.094 215.726C213.882 212.329 213.246 210.63 211.55 210.63C210.49 210.63 209.642 211.267 209.218 212.329C208.794 213.39 208.583 214.876 208.583 216.575H214.094ZM174.455 201.924C174.667 201.924 174.879 201.924 175.091 202.137C175.515 202.137 175.727 202.349 175.939 202.349C176.15 202.349 176.786 202.349 177.422 202.137C179.542 206.596 182.298 212.329 185.901 219.335L188.021 215.089C190.565 210.418 192.472 205.959 194.38 201.924H194.592H194.804C196.076 201.924 196.924 201.924 197.56 201.924C197.984 205.322 198.62 211.055 199.468 219.123C199.68 219.972 199.892 221.246 200.104 222.945C200.316 224.644 200.528 225.493 200.528 225.493C200.528 225.705 200.528 225.918 200.739 226.342C200.739 226.767 200.739 226.979 200.739 227.192C200.528 227.192 199.892 227.192 199.256 227.192C198.62 227.192 197.984 227.192 197.772 227.192C197.348 227.192 196.924 227.192 196.288 227.192C195.652 227.192 195.228 227.192 194.804 227.192C194.804 224.644 194.592 222.096 194.168 219.123C193.956 216.15 193.532 213.178 193.32 210.418C189.293 218.698 186.537 224.431 185.265 227.192H183.782L181.026 221.459C180.39 219.972 179.33 218.061 178.27 215.513C176.998 213.178 176.362 211.479 175.939 210.842C175.515 213.39 175.303 215.513 175.091 217.212C174.879 218.698 174.879 220.185 174.667 221.246C174.455 222.733 174.455 223.794 174.455 224.856C174.455 225.068 174.455 225.493 174.455 225.918C174.455 226.342 174.455 226.767 174.455 226.979C173.819 226.767 173.395 226.767 172.759 226.767C172.123 226.767 171.699 226.767 171.063 226.979C171.063 226.555 171.063 226.13 171.275 225.705C171.487 225.068 171.699 224.007 171.911 222.52C172.123 221.034 172.335 220.185 172.335 220.185C172.759 218.061 172.971 215.513 173.395 212.966L174.455 201.924ZM143.506 218.274C143.506 222.733 144.566 225.068 146.686 225.068C147.958 225.068 149.018 224.219 149.442 222.733C149.866 221.246 150.29 219.548 150.29 217.849C150.29 216.15 150.078 214.664 149.654 213.39C149.23 212.116 148.382 211.267 147.11 211.267C145.838 211.267 144.778 211.904 144.354 213.39C143.718 215.089 143.506 216.575 143.506 218.274ZM150.29 199.589C150.714 199.589 151.561 199.801 152.409 199.801C153.045 199.801 153.893 199.801 155.165 199.589C155.165 200.65 155.165 201.924 154.953 203.198C154.953 206.171 154.741 208.294 154.741 209.781C154.741 214.664 154.529 218.061 154.529 220.609C154.529 222.096 154.529 224.219 154.741 227.192H154.317C153.469 227.192 152.833 226.979 152.409 226.979C152.197 226.979 151.773 226.979 151.138 226.979C150.502 226.979 150.078 226.979 149.866 226.979C150.078 225.281 150.078 224.219 150.078 223.794C149.018 226.13 147.322 227.404 144.99 227.404C142.447 227.404 140.751 226.555 139.479 224.856C138.419 223.157 137.783 221.034 137.783 218.274C137.783 215.938 138.419 213.815 139.479 211.904C140.115 211.055 140.751 210.418 141.811 209.781C142.871 209.144 143.718 208.931 144.778 208.931C147.11 208.931 148.594 209.781 149.654 211.479V208.719C149.654 208.294 149.654 207.657 149.654 206.596C149.654 205.746 149.654 204.897 149.654 204.472C149.654 203.411 149.654 201.712 149.442 199.376H150.29V199.589ZM125.277 218.274C125.277 218.911 125.277 219.548 125.489 220.397C125.489 221.034 125.701 221.671 126.125 222.308C126.549 222.945 126.761 223.582 127.184 224.007C128.032 224.856 129.092 225.068 130.364 225.068C131.848 225.068 133.332 224.431 134.604 223.37L135.028 223.794L134.18 225.918C132.696 226.979 130.788 227.616 128.88 227.616C127.396 227.616 125.913 227.404 124.853 226.979C123.793 226.555 122.733 225.918 121.885 224.856C120.401 223.37 119.765 221.034 119.765 218.061C119.765 216.363 120.189 214.876 120.825 213.602C121.461 212.329 122.521 211.267 123.793 210.418C125.065 209.568 126.549 209.356 128.244 209.356C129.94 209.356 131.424 209.781 132.484 210.418C133.544 211.055 134.392 212.116 135.028 213.178C135.451 214.452 135.875 215.726 135.875 217.424C135.875 217.849 135.875 218.274 135.875 218.698H125.277V218.274ZM131 216.575C131 216.575 131 216.363 131 216.15C131 215.938 131 215.726 131 215.726C130.788 212.329 130.152 210.63 128.456 210.63C127.396 210.63 126.549 211.267 126.125 212.329C125.701 213.39 125.489 214.876 125.489 216.575H131ZM116.586 214.452H115.738C115.526 213.39 115.102 212.541 114.466 211.904C113.83 211.267 112.982 210.842 111.922 210.842C110.439 210.842 109.379 211.479 108.531 212.966C107.895 214.452 107.471 215.938 107.471 217.637C107.471 219.972 107.895 221.671 108.743 222.733C109.591 224.007 111.074 224.856 112.982 224.856C114.466 224.856 115.738 224.219 116.798 223.157L117.434 223.582L116.586 225.705C116.162 226.13 115.314 226.555 114.466 226.767C113.406 226.979 112.558 227.192 111.71 227.192C108.531 227.192 106.199 226.342 104.715 224.856C103.019 223.157 102.172 221.034 102.172 218.274C102.172 216.363 102.595 214.664 103.443 213.39C104.291 211.904 105.351 210.842 106.835 209.993C108.319 209.144 110.015 208.931 111.922 208.931C114.466 208.931 116.586 209.568 118.282 210.63L116.586 214.452ZM82.246 209.568C83.5178 209.568 84.3657 209.568 85.0016 209.568C85.4256 209.568 86.2735 209.568 87.3333 209.568L87.1214 212.116C88.8172 209.993 90.7249 209.144 92.6327 209.144C94.3285 209.144 96.0243 209.781 97.0841 211.267C97.7201 211.904 97.932 212.753 98.144 213.39C98.356 214.239 98.356 215.301 98.356 216.575V221.034V227.192C97.932 227.192 97.5081 227.192 96.8722 227.192C96.2363 227.192 95.8123 227.192 95.3884 227.192C95.1764 227.192 94.7524 227.192 94.1165 227.192C93.4806 227.192 93.0566 227.192 92.8447 227.192C92.8447 226.979 92.8447 226.979 92.8447 226.767C92.8447 226.555 92.8447 226.555 92.8447 226.342C92.8447 226.13 92.8447 225.918 92.8447 225.918C92.8447 225.705 92.8447 225.705 92.8447 225.493C92.8447 225.068 92.8447 224.219 92.8447 223.37C92.8447 222.52 92.8447 221.671 92.8447 221.246C92.8447 221.034 92.8447 220.609 92.8447 219.972C92.8447 219.548 92.8447 218.911 92.8447 218.486C92.8447 216.787 92.6327 215.301 92.4207 214.239C91.9968 213.178 91.1489 212.541 89.877 212.541C88.6052 212.541 87.7573 213.178 87.3333 214.239C86.9094 215.301 86.6974 217 86.6974 219.123C86.6974 219.76 86.6974 220.609 86.6974 221.671C86.6974 222.733 86.6974 223.794 86.6974 224.856C86.6974 225.918 86.6974 226.767 86.6974 227.404C86.4854 227.404 86.0615 227.404 85.4256 227.404C84.7896 227.404 84.3657 227.404 84.1537 227.404C83.9417 227.404 83.5178 227.404 82.8819 227.404C82.246 227.404 81.822 227.404 81.61 227.404C81.61 227.192 81.61 226.979 81.61 226.555C81.61 226.13 81.61 225.705 81.61 225.493C81.61 225.068 81.61 224.219 81.61 223.37C81.61 222.52 81.61 221.671 81.61 221.034V216.787V215.301C81.61 214.664 81.61 213.815 81.61 212.966C81.61 212.116 81.61 211.267 81.61 210.842L82.246 209.568ZM64.8641 213.815L64.4401 211.692C65.288 210.842 66.3479 210.418 67.4078 209.993C68.6796 209.568 69.7395 209.356 71.0113 209.356C72.7071 209.356 74.4029 209.781 75.6748 210.63C76.9466 211.479 77.7945 212.753 77.7945 214.239V216.575C77.7945 217.424 77.7945 218.274 77.7945 219.335C77.7945 220.397 77.7945 221.246 77.7945 221.883C77.7945 222.733 77.7945 223.582 77.7945 224.007C77.7945 224.856 78.2184 225.281 78.6424 225.493C79.0663 225.493 79.4903 225.493 79.7023 225.493C79.9142 225.493 79.9142 225.705 79.9142 226.13V226.555C79.7023 226.767 79.0664 226.979 78.2185 227.192C77.5825 227.404 76.9466 227.404 76.7346 227.404C75.8867 227.404 75.2508 227.192 74.6149 226.767C73.979 226.342 73.555 225.705 73.1311 224.856C72.7071 225.705 72.0712 226.342 71.2233 226.767C70.3754 227.192 69.5275 227.404 68.4676 227.404C66.9838 227.404 65.712 226.979 64.6521 226.13C63.5922 225.281 63.1683 224.219 63.1683 222.52C63.1683 221.671 63.3803 220.822 63.8042 220.185C64.2282 219.548 64.6521 218.911 65.5 218.486C66.3479 218.061 67.8317 217.424 69.9515 217C71.2233 216.787 72.0712 216.363 72.4951 216.15C72.7071 215.938 72.9191 215.513 72.9191 214.664C72.9191 213.815 72.4952 213.178 71.8592 212.541C71.2233 211.904 70.3754 211.692 69.5275 211.692C68.0437 211.692 66.7719 212.329 65.5 213.39C65.5 213.39 65.288 213.602 65.0761 213.815H64.8641ZM68.2557 222.096C68.2557 224.007 68.8916 224.856 70.1634 224.856C71.8592 224.856 72.9191 223.582 72.9191 221.034C72.9191 219.548 72.9191 218.274 73.1311 217.637C72.4951 218.061 71.8592 218.061 71.6472 218.274C71.4353 218.274 71.2233 218.486 70.7994 218.486C70.3754 218.698 70.1634 218.698 69.9515 218.698C69.7395 218.698 69.5275 218.911 69.3155 219.123C68.4676 219.76 68.2557 220.822 68.2557 222.096ZM44.7265 209.568C45.9984 209.568 46.8463 209.568 47.4822 209.568C48.754 209.568 49.6019 209.568 50.2379 209.356L54.2654 222.096C56.3851 216.15 57.8689 211.904 58.7168 209.568C58.9288 209.568 59.1408 209.568 59.1408 209.568C60.2006 209.568 61.0485 209.568 61.6845 209.568C61.6845 209.568 61.6845 209.993 61.4725 210.418C61.2605 210.842 60.6246 212.329 59.5647 214.664C59.1408 215.938 58.7168 216.787 58.2929 217.637C58.0809 218.486 57.657 219.335 57.021 220.822C56.3851 222.096 55.9612 223.37 55.7492 224.431C55.3252 225.493 55.1133 226.342 54.9013 226.979C54.6893 226.979 54.4773 226.979 54.0534 226.979C53.6295 226.979 53.4175 226.979 52.9935 226.979C52.7816 226.979 52.3576 226.979 51.9337 226.979C51.5097 226.979 51.0858 226.979 50.8738 226.979C49.6019 223.37 48.5421 220.185 47.6942 217.637C46.8463 215.089 45.7864 212.541 44.7265 209.781V209.568ZM30.3123 218.274C30.3123 222.733 31.3722 225.068 33.4919 225.068C34.7638 225.068 35.8236 224.219 36.2476 222.733C36.6715 221.246 37.0955 219.548 37.0955 217.849C37.0955 216.15 36.8835 214.664 36.4595 213.39C36.0356 212.116 35.1877 211.267 33.9159 211.267C32.644 211.267 31.5841 211.904 31.1602 213.39C30.5243 215.089 30.3123 216.575 30.3123 218.274ZM37.0955 199.589C37.5194 199.589 38.3673 199.801 39.2152 199.801C39.8511 199.801 40.699 199.801 41.9709 199.589C41.9709 200.65 41.9709 201.924 41.7589 203.198C41.7589 206.171 41.5469 208.294 41.5469 209.781C41.5469 214.664 41.335 218.061 41.335 220.609C41.335 222.096 41.335 224.219 41.5469 227.192H41.123C40.2751 227.192 39.6392 226.979 39.2152 226.979C39.0032 226.979 38.5793 226.979 37.9434 226.979C37.3074 226.979 36.8835 226.979 36.6715 226.979C36.8835 225.281 36.8835 224.219 36.8835 223.794C35.8236 226.13 34.1278 227.404 31.7961 227.404C29.2524 227.404 27.5566 226.555 26.2848 224.856C25.2249 223.157 24.589 221.034 24.589 218.274C24.589 215.938 25.2249 213.815 26.2848 211.904C26.9207 211.055 27.5566 210.418 28.6165 209.781C29.6764 209.144 30.5243 208.931 31.5841 208.931C33.9159 208.931 35.6117 209.781 36.4595 211.479V208.719C36.4595 208.294 36.4595 207.657 36.4595 206.596C36.4595 205.746 36.4595 204.897 36.4595 204.472C36.4595 203.411 36.4595 201.712 36.2476 199.376H37.0955V199.589ZM6.78317 217.212H13.3544C12.5065 215.089 11.4466 212.116 10.1748 208.719C8.90291 211.692 7.84304 214.452 6.78317 217V217.212ZM0 226.555L2.75566 220.397C5.93528 213.178 8.47896 207.02 10.3867 201.712C10.5987 201.712 10.5987 201.712 10.8107 201.712C11.0227 201.712 11.2346 201.712 11.2346 201.712C11.4466 201.712 11.6586 201.712 11.6586 201.712C11.8706 201.712 12.0825 201.712 12.2945 201.712C12.5065 201.712 12.7184 201.712 12.9304 201.712L13.1424 202.349C16.11 210.205 19.2896 218.274 22.6812 226.13L22.8932 226.555V226.979C22.4693 226.979 22.0453 226.979 21.4094 226.979C20.7735 226.979 20.1375 226.979 19.9256 226.979C18.8657 226.979 17.8058 226.979 16.9579 227.192C15.8981 223.794 15.0502 221.459 14.4142 219.76C13.9903 219.76 13.3544 219.76 12.5065 219.76C11.6586 219.76 11.0227 219.76 10.3867 219.76C9.53884 219.76 8.05502 219.76 5.93528 219.972L5.7233 220.397C5.29935 221.459 4.8754 222.733 4.45146 224.007C4.02751 225.281 3.60356 226.342 3.39159 227.404C2.75566 227.192 2.33172 227.192 1.69579 227.192C1.05987 227.192 0.635922 227.192 0 227.404L0 226.555Z" fill="white"/>
<path d="M463.163 222.308C463.587 223.157 464.011 224.007 464.859 224.431C465.495 224.856 466.343 225.281 467.402 225.281C468.25 225.281 468.886 225.068 469.31 224.856C469.946 224.431 470.158 223.794 470.158 223.37C470.158 222.945 469.946 222.733 469.734 222.308C469.522 222.096 469.098 221.671 468.674 221.459C468.25 221.246 467.826 221.034 467.402 220.822C466.978 220.609 466.555 220.397 466.343 220.397C466.131 220.185 465.919 220.185 465.707 219.973C465.495 219.973 465.283 219.76 465.283 219.76C465.071 219.76 464.859 219.548 464.647 219.336C463.799 218.911 463.163 218.274 462.739 217.425C462.315 216.575 461.891 215.726 461.891 214.664C461.891 213.603 462.103 212.541 462.739 211.692C463.163 210.842 464.011 210.205 465.071 209.781C466.343 209.356 467.402 209.144 468.25 209.144C470.37 209.144 472.066 209.781 473.55 210.842C473.338 211.904 472.914 212.966 472.702 214.027H471.642C471.43 213.178 471.006 212.541 470.37 211.904C469.734 211.267 468.886 211.055 468.25 211.055C467.402 211.055 466.766 211.267 466.343 211.479C465.919 211.904 465.495 212.329 465.495 212.966C465.495 213.39 465.495 213.603 465.707 213.815C465.919 214.027 466.131 214.24 466.343 214.452C466.555 214.664 466.978 214.877 467.402 214.877C467.826 215.089 468.038 215.301 468.462 215.301C470.37 215.938 471.854 216.788 472.702 217.425C473.55 218.062 473.974 219.336 473.974 221.034C473.974 222.945 473.126 224.644 471.43 225.705C470.158 226.555 468.674 226.979 466.978 226.979C465.071 226.979 463.375 226.555 461.891 225.493C462.103 224.431 462.315 223.37 462.527 222.096H463.163V222.308ZM442.177 209.568C443.449 209.568 444.297 209.568 444.933 209.568C445.357 209.568 446.205 209.568 447.265 209.568L447.053 212.116C448.749 209.993 450.656 209.144 452.564 209.144C454.26 209.144 455.956 209.781 457.016 211.267C457.652 211.904 457.864 212.753 458.076 213.39C458.288 214.24 458.288 215.301 458.288 216.575V221.034V227.192C457.864 227.192 457.44 227.192 456.804 227.192C456.168 227.192 455.744 227.192 455.32 227.192C455.108 227.192 454.684 227.192 454.048 227.192C453.412 227.192 452.988 227.192 452.776 227.192C452.776 226.979 452.776 226.979 452.776 226.767C452.776 226.555 452.776 226.555 452.776 226.342C452.776 226.13 452.776 225.918 452.776 225.918C452.776 225.705 452.776 225.705 452.776 225.493C452.776 225.068 452.776 224.219 452.776 223.37C452.776 222.52 452.776 221.671 452.776 221.246C452.776 221.034 452.776 220.609 452.776 219.973C452.776 219.548 452.776 218.911 452.776 218.486C452.776 216.788 452.564 215.301 452.352 214.24C451.928 213.178 451.08 212.541 449.809 212.541C448.537 212.541 447.689 213.178 447.265 214.24C446.841 215.301 446.629 217 446.629 219.123C446.629 219.76 446.629 220.609 446.629 221.671C446.629 222.733 446.629 223.794 446.629 224.856C446.629 225.918 446.629 226.767 446.629 227.404C446.417 227.404 445.993 227.404 445.357 227.404C444.721 227.404 444.297 227.404 444.085 227.404C443.873 227.404 443.449 227.404 442.813 227.404C442.177 227.404 441.754 227.404 441.542 227.404C441.542 227.192 441.542 226.979 441.542 226.555C441.542 226.13 441.542 225.705 441.542 225.493C441.542 225.068 441.542 224.219 441.542 223.37C441.542 222.52 441.542 221.671 441.542 221.034V216.788V215.301C441.542 214.664 441.542 213.815 441.542 212.966C441.542 212.116 441.542 211.267 441.542 210.842L442.177 209.568ZM426.915 215.726C426.703 216.575 426.703 217.425 426.703 218.486C426.703 223.37 427.763 225.705 430.095 225.705C430.943 225.705 431.791 225.281 432.215 224.644C432.639 224.007 433.063 223.157 433.275 222.096C433.487 220.822 433.699 219.123 433.699 217.212C433.699 216.788 433.699 216.151 433.487 215.301C433.275 212.116 432.215 210.418 430.307 210.418C429.247 210.418 428.399 210.842 427.763 211.904C427.339 213.178 426.915 214.452 426.915 215.726ZM421.192 218.699C421.192 215.938 422.04 213.603 423.736 211.904C424.584 211.055 425.432 210.418 426.703 209.993C427.975 209.568 429.035 209.356 430.307 209.356C431.579 209.356 432.851 209.568 433.91 209.993C435.182 210.418 436.03 211.055 436.878 211.904C438.362 213.603 439.21 215.726 439.21 218.274C439.21 220.185 438.786 221.671 438.15 223.157C437.514 224.644 436.454 225.705 434.97 226.555C433.699 227.404 432.003 227.829 430.095 227.829C428.399 227.829 426.703 227.404 425.432 226.767C424.16 226.13 423.1 225.068 422.252 223.794C421.616 221.883 421.192 220.397 421.192 218.699ZM415.257 199.801C416.105 199.801 416.741 200.014 417.377 200.651C418.012 201.288 418.224 201.925 418.224 202.774C418.224 203.623 418.012 204.26 417.377 204.897C416.741 205.534 416.105 205.746 415.257 205.746C414.409 205.746 413.773 205.534 413.349 204.897C412.713 204.26 412.501 203.623 412.501 202.986C412.501 202.137 412.713 201.5 413.349 201.075C413.773 200.226 414.409 199.801 415.257 199.801ZM412.501 224.431C412.501 224.007 412.501 223.37 412.501 222.733C412.501 221.883 412.501 221.459 412.501 221.034C412.501 218.274 412.713 216.363 412.713 215.514C412.713 214.664 412.713 213.603 412.713 212.329C412.713 211.055 412.713 210.205 412.501 209.568H412.713C413.349 209.568 414.197 209.568 415.257 209.568C415.893 209.568 416.741 209.568 417.8 209.568L417.588 214.24C417.377 215.726 417.377 218.062 417.377 221.246C417.377 223.37 417.377 225.281 417.588 226.979C417.377 226.979 416.741 226.979 416.105 226.979C415.469 226.979 414.833 226.979 414.621 226.979C414.409 226.979 413.985 226.979 413.349 226.979C412.713 226.979 412.289 226.979 412.077 226.979L412.501 224.431Z" fill="white"/>
<path d="M467.191 89.8151C464.011 81.3219 458.076 77.0754 449.809 77.0754C444.722 77.0754 440.694 78.3493 437.727 81.1096C434.759 83.8699 433.275 87.2672 433.275 91.5137C433.275 95.1233 434.759 98.0959 437.939 100.644C441.118 103.192 445.782 106.164 452.565 109.774C459.136 113.171 464.435 116.356 468.251 118.904C472.066 121.664 474.822 124.849 476.518 128.671C478.214 132.281 479.062 136.74 479.062 142.048C479.062 146.719 478.002 151.39 475.67 156.274C472.702 162.432 467.191 167.315 459.56 170.925C454.049 173.685 447.266 174.959 439.211 174.959C429.884 174.959 421.617 172.836 414.833 168.589C416.953 160.945 418.437 154.575 419.285 149.479H422.041C423.1 154.575 425.644 158.61 429.46 161.37C433.275 164.13 437.727 165.616 443.026 165.616C447.901 165.616 452.141 164.342 455.533 161.582C458.924 159.034 460.62 155.212 460.62 150.329C460.62 146.082 458.712 142.26 455.109 138.651C450.233 135.253 444.722 132.069 438.151 129.096C436.243 128.034 434.123 126.76 431.367 125.062C428.612 123.363 426.916 122.089 426.068 121.664C422.677 119.541 420.133 116.356 418.437 112.11C416.741 107.863 415.893 103.404 415.893 98.9452C415.893 89.1781 419.709 81.322 427.34 75.1644C430.732 72.4041 434.335 70.2809 437.939 69.2192C441.542 68.1576 445.782 67.7329 450.869 67.7329C459.56 67.7329 467.191 69.8562 473.338 73.6781C473.55 73.8904 473.762 74.3151 474.398 74.7398C472.914 79.411 471.219 84.5069 469.735 89.6028H467.191V89.8151ZM295.068 69.4315C295.492 69.4315 296.552 69.6439 297.824 69.8562C299.096 70.0685 300.155 70.2809 301.003 70.2809C302.275 70.2809 304.395 70.0685 307.363 69.4315C315.842 88.1165 327.288 111.897 342.126 140.986L351.029 123.575C361.204 104.041 369.895 85.9932 377.314 69.4315C377.526 69.4315 377.738 69.6439 378.162 69.6439C378.586 69.6439 378.798 69.8562 378.798 69.8562C383.885 69.8562 387.701 69.6439 390.245 69.4315C391.728 83.4452 394.484 107.014 398.299 140.349C398.935 144.171 399.571 149.267 400.631 156.062C401.479 162.644 402.115 166.253 402.115 166.678C402.115 167.315 402.327 168.377 402.539 169.863C402.751 171.349 402.963 172.411 402.963 173.048C401.903 173.048 399.783 172.836 397.028 172.623C394.272 172.411 392.152 172.411 390.668 172.411C389.397 172.411 387.277 172.623 384.733 172.623C381.978 172.836 379.858 172.836 378.374 173.048C377.95 162.856 377.102 151.603 375.83 139.288C374.558 126.973 373.287 114.87 372.015 103.404C355.057 138.014 344.034 161.37 338.523 173.26H332.8L321.141 148.63C318.173 142.26 314.358 134.192 309.27 124.212C304.395 114.233 301.215 107.863 299.732 104.89C298.248 115.507 297.188 124.425 296.34 131.644C295.704 138.014 295.28 143.747 295.068 148.63C294.432 154.575 294.008 159.459 293.796 163.493C293.796 164.555 293.584 166.041 293.584 168.164C293.584 170.288 293.372 171.774 293.372 172.836C291.041 172.411 288.709 172.199 286.165 172.199C283.833 172.199 281.502 172.411 279.17 172.836C279.17 170.925 279.594 169.014 280.442 167.315C281.078 164.555 281.714 160.096 282.774 153.938C283.833 147.781 284.257 144.596 284.257 144.171C285.741 135.041 287.225 125.062 288.497 114.658L295.068 69.4315ZM203.707 132.918H231.476C228.084 123.788 223.633 111.897 217.91 97.6713C212.61 109.986 207.947 121.24 204.343 131.644L203.707 132.918ZM175.303 171.774L186.537 145.87C199.468 116.356 209.855 90.6644 217.91 68.5822C218.545 68.5822 218.969 68.7946 219.817 68.7946C220.453 69.0069 221.301 69.0069 221.937 69.0069C222.573 69.2192 223.209 69.2192 223.845 69.2192C224.693 69.2192 225.541 69.2192 226.6 69.0069C227.66 68.7946 228.508 68.7946 229.356 68.5822L230.628 71.1302C243.134 104.041 256.277 136.74 270.055 169.651L270.903 171.137V172.623C269.419 172.623 267.3 172.411 264.544 172.199C261.788 171.986 259.456 171.986 257.973 171.986C253.733 171.986 249.494 172.199 245.466 172.623C241.227 158.822 237.623 148.418 235.079 141.623C233.172 141.623 230.416 141.623 226.812 141.411C222.997 141.199 220.241 141.199 218.333 141.199C214.518 141.199 208.371 141.411 200.104 141.623L199.468 143.747C197.772 148.418 196.076 153.301 194.168 158.397C192.261 163.493 190.989 168.164 189.929 172.623C187.597 172.199 185.266 171.986 182.722 171.986C180.39 171.986 178.058 172.199 175.727 172.623V171.774H175.303Z" fill="white"/>
<path d="M43.6667 171.137H19.0777C6.1473 171.137 -3.60351 164.343 4.02756 151.178C4.87546 149.692 5.93533 148.206 6.78322 146.719C12.9305 138.014 21.6214 130.795 30.1004 123.576C50.0259 106.589 67.6198 94.2741 85.4256 81.3221C85.8496 81.1098 86.2735 80.6851 86.6975 80.4728C94.7525 74.9522 112.346 68.1577 120.613 77.0755C122.521 79.1988 122.097 83.0207 120.401 85.5687C119.13 87.4796 116.798 89.1783 114.89 90.4522C99.2039 101.918 67.1959 125.699 53.8415 138.863C45.7865 146.719 41.123 156.274 41.759 162.432C41.759 166.254 42.8188 169.651 43.6667 171.137Z" fill="white"/>
<path d="M168.307 103.828C166.187 120.39 164.704 136.527 151.349 150.116C142.658 159.246 129.728 164.554 115.526 167.739C104.079 170.287 92.8444 171.349 80.5499 171.349C72.2829 171.349 74.6146 171.349 65.9237 171.349C62.5321 171.349 59.9884 171.349 57.0207 170.924C50.8735 170.075 48.5418 167.951 48.1178 162.643C47.6939 156.486 52.5693 147.356 61.0483 139.287C62.5321 137.801 64.0159 136.527 65.7117 135.04C68.6793 132.493 69.5272 131.643 73.7667 131.643C79.49 131.856 85.4253 132.28 91.1486 132.28L109.59 132.493C133.543 132.068 157.92 121.876 168.307 103.828Z" fill="white"/>
<path d="M99.416 70.9175C117.01 58.1778 134.392 44.5887 154.953 36.7326C159.193 35.2463 164.492 34.1846 168.944 35.0339C173.183 36.0956 175.303 39.2805 175.939 42.6778C176.363 47.986 176.151 52.0202 175.303 57.3284C174.031 66.8832 172.971 73.8901 171.487 83.4449C170.003 92.9997 165.552 101.705 159.405 107.863C151.35 115.719 137.147 122.301 125.701 124.849C119.766 126.123 121.249 120.815 122.521 117.63C123.369 114.87 124.217 112.534 125.065 109.349C126.761 103.404 130.364 89.6024 128.244 80.0476C126.337 71.5545 121.249 69.2189 113.618 68.7942C107.895 68.3695 103.02 69.8558 99.416 70.9175Z" fill="white"/>
<path d="M543.501 0V248" stroke="white" stroke-width="3.4263" stroke-miterlimit="10"/>
</g>
</g>
<defs>
<filter id="filter0_d_58_65" x="-4" y="-2" width="1448.79" height="256" filterUnits="userSpaceOnUse" color-interpolation-filters="sRGB">
<feFlood flood-opacity="0" result="BackgroundImageFix"/>
<feColorMatrix in="SourceAlpha" type="matrix" values="0 0 0 0 0 0 0 0 0 0 0 0 0 0 0 0 0 0 127 0" result="hardAlpha"/>
<feOffset dy="2"/>
<feGaussianBlur stdDeviation="2"/>
<feComposite in2="hardAlpha" operator="out"/>
<feColorMatrix type="matrix" values="0 0 0 0 0 0 0 0 0 0 0 0 0 0 0 0 0 0 0.16 0"/>
<feBlend mode="normal" in2="BackgroundImageFix" result="effect1_dropShadow_58_65"/>
<feBlend mode="normal" in="SourceGraphic" in2="effect1_dropShadow_58_65" result="shape"/>
</filter>
<clipPath id="clip0_58_65">
<rect width="1441" height="248" fill="white"/>
</clipPath>
</defs>
</svg>
