<svg width="800" height="800" viewBox="0 0 800 800" fill="none" xmlns="http://www.w3.org/2000/svg">
<g clip-path="url(#clip0_381_369)">
<path d="M763.636 436.364H124.153L243.896 556.107C258.097 570.305 258.097 593.331 243.896 607.532C236.795 614.63 227.488 618.182 218.182 618.182C208.875 618.182 199.568 614.63 192.47 607.53L10.6521 425.711C-3.54908 411.513 -3.54908 388.487 10.6521 374.286L192.47 192.468C206.669 178.269 229.695 178.269 243.896 192.468C258.097 206.667 258.097 229.692 243.896 243.893L124.153 363.636H763.636C783.719 363.636 800 379.918 800 400C800 420.082 783.719 436.364 763.636 436.364Z" fill="currentColor"/>
</g>
<defs>
<clipPath id="clip0_381_369">
<rect width="800" height="800" fill="white" transform="matrix(-1 0 0 1 800 0)"/>
</clipPath>
</defs>
</svg>
