<svg width="145" height="59" viewBox="0 0 145 59" fill="none" xmlns="http://www.w3.org/2000/svg">
<path d="M122.781 50.686C122.717 51.7082 122.653 52.347 122.653 52.6025H123.614V53.1775H122.653C122.589 54.1996 122.589 54.9662 122.589 55.5412C122.589 55.7328 122.589 55.9883 122.653 56.3078C122.653 56.6272 122.717 56.8827 122.781 57.0744C122.845 57.2021 122.973 57.266 123.23 57.266C123.294 57.266 123.422 57.266 123.614 57.2021H123.678H123.742V57.6493C123.678 57.6493 123.678 57.7132 123.678 57.7132C123.23 57.841 122.909 57.9049 122.589 57.9049C122.077 57.9049 121.692 57.7771 121.436 57.4577C121.244 57.1383 121.116 56.755 121.116 56.18C121.116 55.7967 121.116 55.2217 121.18 54.4551C121.18 54.3274 121.18 54.0718 121.18 53.8163C121.18 53.5608 121.18 53.3052 121.18 53.1775H120.411V52.7303V52.6025H121.18C121.18 52.4748 121.18 52.2192 121.18 51.9637C121.18 51.6443 121.18 51.4526 121.18 51.3249C121.564 51.1971 122.077 50.9416 122.653 50.6221L122.781 50.686ZM118.106 57.0105C117.85 57.3299 117.529 57.5215 117.337 57.7132C117.081 57.841 116.825 57.9049 116.44 57.9049C115.8 57.9049 115.288 57.6493 114.967 57.2021C114.775 56.9466 114.647 56.4994 114.647 55.8606V55.4773C114.647 55.2217 114.647 54.7746 114.647 54.2635C114.647 53.7524 114.647 53.3691 114.647 53.0497C114.647 52.9858 114.647 52.8581 114.647 52.7303C114.647 52.6025 114.647 52.5386 114.647 52.4748C115.031 52.4748 115.352 52.4748 115.544 52.4748C115.672 52.4748 115.928 52.4748 116.312 52.4748C116.248 53.1136 116.184 54.1357 116.184 55.4134C116.184 55.8606 116.248 56.18 116.312 56.3078C116.44 56.6911 116.697 56.8827 117.081 56.8827C117.529 56.8827 117.786 56.6911 117.85 56.3078C117.978 55.9245 118.042 55.4773 118.042 54.9023C118.042 54.6468 118.042 54.1996 118.042 53.6886C118.042 53.1136 118.042 52.7303 117.978 52.4748C118.362 52.4748 118.618 52.4748 118.746 52.4748C118.938 52.4748 119.195 52.4748 119.515 52.4748C119.451 52.8581 119.451 53.3052 119.451 53.7524C119.451 53.9441 119.451 54.2635 119.451 54.6468C119.451 55.0301 119.451 55.3495 119.451 55.5412V56.1161C119.451 56.6272 119.451 57.0744 119.515 57.5854V57.7771C119.451 57.7771 119.259 57.7771 119.131 57.7771C118.938 57.7771 118.81 57.7771 118.682 57.7771C118.618 57.7771 118.49 57.7771 118.362 57.7771C118.234 57.7771 118.106 57.7771 117.978 57.7771L118.106 57.0105ZM113.43 57.841C113.366 57.841 113.174 57.841 113.046 57.841C112.854 57.841 112.726 57.841 112.662 57.841C112.598 57.841 112.405 57.841 112.213 57.841C112.021 57.841 111.893 57.841 111.829 57.841C111.893 57.266 111.893 56.4355 111.893 55.2856V54.519V53.1775C111.893 52.9858 111.893 52.6664 111.893 52.2831C111.893 51.8998 111.893 51.5804 111.893 51.3888C111.893 51.1332 111.893 50.686 111.893 50.1111C111.893 50.0472 111.893 49.9833 111.893 49.8555C111.893 49.7278 111.893 49.6639 111.893 49.6C112.149 49.6639 112.405 49.6639 112.726 49.6639C113.046 49.6639 113.366 49.6639 113.558 49.6C113.558 49.6639 113.558 49.7278 113.558 49.8555C113.558 49.9833 113.558 50.0472 113.558 50.1111C113.558 50.2389 113.558 50.4305 113.558 50.686C113.558 50.9416 113.558 51.1332 113.558 51.261C113.558 51.4526 113.558 51.772 113.558 52.1553C113.558 52.5386 113.558 52.8581 113.558 53.0497C113.366 54.8385 113.366 56.4994 113.43 57.841ZM107.025 54.4551C106.961 54.7107 106.961 54.9662 106.961 55.2856C106.961 56.755 107.282 57.4577 107.986 57.4577C108.242 57.4577 108.498 57.3299 108.627 57.1383C108.755 56.9466 108.883 56.6911 108.947 56.3716C109.011 55.9883 109.075 55.4773 109.075 54.9023C109.075 54.7746 109.075 54.5829 109.011 54.3274C108.947 53.3691 108.627 52.8581 108.05 52.8581C107.73 52.8581 107.474 52.9858 107.282 53.3053C107.153 53.6886 107.025 54.0718 107.025 54.4551ZM105.296 55.3495C105.296 54.519 105.552 53.8163 106.065 53.3053C106.321 53.0497 106.577 52.8581 106.961 52.7303C107.346 52.6025 107.666 52.5386 108.05 52.5386C108.434 52.5386 108.819 52.6025 109.139 52.7303C109.523 52.8581 109.779 53.0497 110.036 53.3053C110.484 53.8163 110.74 54.4552 110.74 55.2218C110.74 55.7967 110.612 56.2439 110.42 56.6911C110.228 57.1382 109.908 57.4577 109.459 57.7132C109.075 57.9687 108.562 58.0965 107.986 58.0965C107.474 58.0965 106.961 57.9687 106.577 57.7771C106.193 57.5854 105.872 57.266 105.616 56.8827C105.424 56.3078 105.296 55.8606 105.296 55.3495ZM103.759 51.772C103.503 51.1332 103.118 50.8138 102.478 50.8138C102.094 50.8138 101.837 50.8777 101.581 51.1332C101.389 51.3249 101.261 51.5804 101.261 51.8998C101.261 52.1553 101.389 52.4109 101.581 52.5386C101.837 52.7303 102.158 52.9219 102.67 53.1775C103.182 53.433 103.503 53.6247 103.823 53.8163C104.079 54.008 104.335 54.2635 104.399 54.519C104.527 54.7746 104.591 55.094 104.591 55.4773C104.591 55.7967 104.527 56.18 104.335 56.4994C104.143 56.9466 103.695 57.3299 103.182 57.5854C102.798 57.7771 102.286 57.9049 101.709 57.9049C101.005 57.9049 100.428 57.7771 99.9159 57.4577C100.108 56.8827 100.172 56.4355 100.236 56.0522H100.428C100.492 56.4355 100.685 56.6911 100.941 56.8827C101.197 57.0744 101.517 57.2021 101.901 57.2021C102.286 57.2021 102.542 57.1382 102.798 56.9466C103.054 56.755 103.182 56.4994 103.182 56.1161C103.182 55.7967 103.054 55.5412 102.798 55.2856C102.478 55.0301 102.03 54.8385 101.581 54.5829C101.453 54.519 101.261 54.3913 101.069 54.2635C100.877 54.1357 100.749 54.0719 100.685 54.008C100.428 53.8802 100.236 53.6247 100.108 53.3053C99.98 52.9858 99.9159 52.6664 99.9159 52.347C99.9159 51.6443 100.172 51.0693 100.749 50.6221C101.005 50.4305 101.261 50.3027 101.517 50.175C101.773 50.1111 102.094 50.0472 102.478 50.0472C103.118 50.0472 103.631 50.175 104.143 50.4944C104.143 50.4944 104.143 50.5583 104.207 50.5583C104.079 50.8777 103.951 51.261 103.887 51.6443H103.759V51.772ZM91.7817 52.1553V53.3053C91.9739 53.0497 92.2301 52.8581 92.5503 52.7303C92.8706 52.5387 93.1268 52.4748 93.383 52.4748C93.8954 52.4748 94.3437 52.6664 94.6639 52.9858C94.9842 53.3053 95.1123 53.7524 95.1123 54.3913V55.9245V57.3299V57.9049C95.0482 57.9049 94.9201 57.9049 94.728 57.9049C94.5358 57.9049 94.4077 57.9049 94.3437 57.9049C94.2796 57.9049 94.1515 57.9049 93.9594 57.9049C93.7673 57.9049 93.6392 57.9049 93.5751 57.9049C93.5751 57.841 93.5751 57.7132 93.5751 57.5216C93.5751 57.3938 93.5751 57.266 93.5751 57.1383L93.6392 56.1161C93.6392 55.9245 93.7032 55.605 93.7032 55.1579C93.7032 54.7107 93.7032 54.3913 93.6392 54.0718C93.5751 53.8802 93.5111 53.7524 93.3189 53.6247C93.1908 53.4969 92.9987 53.433 92.8065 53.433C92.4222 53.433 92.166 53.6247 92.0379 53.9441C91.9098 54.2635 91.8458 54.7746 91.8458 55.4134C91.8458 55.605 91.8458 55.8606 91.8458 56.18C91.8458 56.4994 91.8458 56.8188 91.8458 57.1383C91.8458 57.4577 91.8458 57.7132 91.8458 57.9049C91.7817 57.9049 91.6536 57.9049 91.4615 57.9049C91.2694 57.9049 91.1413 57.9049 91.0772 57.9049C91.0132 57.9049 90.8851 57.9049 90.6929 57.9049C90.5008 57.9049 90.3727 57.9049 90.3086 57.9049C90.3086 57.5854 90.3727 57.3299 90.3727 57.2021L90.4367 54.519C90.4367 54.3913 90.4367 54.1357 90.4367 53.8802C90.4367 53.6247 90.4367 53.3691 90.4367 53.2414C90.4367 52.0276 90.3727 50.8138 90.3086 49.6639C90.5648 49.7278 90.821 49.7278 91.1413 49.7278C91.5256 49.7278 91.7818 49.7278 91.9739 49.6639L91.7817 52.1553ZM89.0277 54.0718H88.7715C88.7074 53.7524 88.5793 53.4969 88.3872 53.3053C88.195 53.1136 87.9388 52.9858 87.6186 52.9858C87.1702 52.9858 86.85 53.1775 86.5938 53.6247C86.4017 54.0719 86.2736 54.519 86.2736 55.0301C86.2736 55.7328 86.4017 56.2439 86.6579 56.5633C86.914 56.9466 87.3624 57.2021 87.9388 57.2021C88.3872 57.2021 88.7715 57.0105 89.0917 56.6911L89.2838 56.8188L89.0277 57.4577C88.8996 57.5854 88.6434 57.7132 88.3872 57.7771C88.0669 57.841 87.8107 57.9049 87.5545 57.9049C86.5938 57.9049 85.9533 57.6493 85.4409 57.2021C84.9285 56.6911 84.6723 56.0522 84.6723 55.2218C84.6723 54.6468 84.8004 54.1357 85.0566 53.7524C85.3128 53.3052 85.6331 52.9858 86.0814 52.7303C86.5298 52.4748 87.0421 52.4109 87.6186 52.4109C88.3872 52.4109 89.0277 52.6025 89.54 52.9219L89.0277 54.0718ZM80.7013 55.2218C80.7013 55.4134 80.7013 55.6051 80.7654 55.8606C80.7654 56.0522 80.8294 56.2439 80.9575 56.4355C81.0856 56.6272 81.1497 56.8188 81.2778 56.9466C81.534 57.2021 81.8542 57.266 82.2385 57.266C82.6868 57.266 83.1352 57.0744 83.5195 56.7549L83.6476 56.8827L83.3914 57.5216C82.943 57.841 82.3666 58.0326 81.7902 58.0326C81.3418 58.0326 80.8935 57.9687 80.5732 57.841C80.253 57.7132 79.9327 57.5216 79.6766 57.2021C79.2282 56.755 79.0361 56.0522 79.0361 55.1579C79.0361 54.6468 79.1642 54.1996 79.3563 53.8163C79.5485 53.433 79.8687 53.1136 80.253 52.8581C80.6373 52.6025 81.0856 52.5386 81.598 52.5386C82.1104 52.5386 82.5587 52.6664 82.879 52.8581C83.1992 53.0497 83.4554 53.3691 83.6476 53.6886C83.8397 54.0719 83.9038 54.4552 83.9038 54.9662C83.9038 55.094 83.9038 55.2217 83.9038 55.3495H80.7013V55.2218ZM82.3666 54.7107C82.3666 54.7107 82.3666 54.6468 82.3666 54.5829C82.3666 54.519 82.3666 54.4551 82.3666 54.4551C82.3025 53.433 82.1104 52.9219 81.598 52.9219C81.2778 52.9219 81.0216 53.1136 80.8935 53.433C80.7654 53.7524 80.7013 54.1996 80.7013 54.7107H82.3666ZM76.4741 51.9637C76.4741 52.2831 76.4741 52.7303 76.4741 53.3053C76.4741 53.9441 76.4741 54.3913 76.4741 54.6468C76.4741 54.7746 76.4741 55.0301 76.4741 55.3495C76.4741 55.6689 76.4741 55.9245 76.4741 56.0522C76.4741 56.2439 76.4741 56.5633 76.4741 56.9466C76.4741 57.3299 76.4741 57.6493 76.4741 57.841C76.4101 57.841 76.2179 57.841 76.0258 57.841C75.8336 57.841 75.6415 57.841 75.5774 57.841C75.4493 57.841 75.3212 57.841 75.1291 57.841C74.937 57.841 74.8088 57.841 74.6807 57.841C74.6807 57.6493 74.6807 57.3938 74.7448 57.0744C74.7448 56.7549 74.7448 56.4994 74.7448 56.3078C74.8088 54.7107 74.8089 53.4969 74.8089 52.6025C74.8089 52.2831 74.8088 51.8359 74.7448 51.1971C74.5527 51.1971 74.2324 51.1971 73.7841 51.261C73.3998 51.3249 73.0155 51.3249 72.6952 51.3888C72.7593 51.261 72.7593 51.1332 72.7593 50.9416C72.7593 50.7499 72.7593 50.6221 72.7593 50.5583V50.4944C72.7593 50.4305 72.7593 50.4305 72.7593 50.4305C73.1436 50.4305 73.3998 50.4305 73.5919 50.4305C74.3605 50.4305 75.065 50.4944 75.5774 50.4944H76.7303C76.9225 50.4944 77.1786 50.4944 77.5629 50.4305C77.9472 50.4305 78.2034 50.3666 78.4596 50.3666C78.3956 50.4944 78.3956 50.686 78.3956 50.8138C78.3956 51.0054 78.3956 51.1332 78.4596 51.3249C77.8191 51.1971 77.1786 51.1971 76.5382 51.1971L76.4741 51.9637ZM68.404 55.2218C68.404 56.5633 68.7242 57.266 69.3647 57.266C69.749 57.266 70.0692 57.0105 70.1973 56.5633C70.3254 56.1161 70.4535 55.605 70.4535 55.094C70.4535 54.5829 70.3895 54.1357 70.2614 53.7524C70.1333 53.3691 69.8771 53.1136 69.4928 53.1136C69.1085 53.1136 68.7883 53.3052 68.6602 53.7524C68.468 54.2635 68.404 54.7107 68.404 55.2218ZM70.5176 49.6C70.6457 49.6 70.9019 49.6639 71.1581 49.6639C71.3502 49.6639 71.6064 49.6639 71.9907 49.6C71.9907 49.9194 71.9907 50.3027 71.9267 50.686C71.9267 51.5804 71.8626 52.2192 71.8626 52.6664C71.8626 54.1357 71.7986 55.1579 71.7986 55.9245C71.7986 56.3717 71.7986 57.0105 71.8626 57.9049H71.7345C71.4783 57.9049 71.2862 57.841 71.1581 57.841C71.094 57.841 70.9659 57.841 70.7738 57.841C70.5816 57.841 70.4535 57.841 70.3895 57.841C70.4535 57.3299 70.4535 57.0105 70.4535 56.8827C70.1333 57.5854 69.6209 57.9687 68.9164 57.9687C68.1478 57.9687 67.6354 57.7132 67.2511 57.2021C66.9309 56.6911 66.7387 56.0522 66.7387 55.2218C66.7387 54.519 66.9309 53.8802 67.2511 53.3053C67.4433 53.0497 67.6354 52.8581 67.9556 52.6664C68.2759 52.4748 68.5321 52.4109 68.8523 52.4109C69.5569 52.4109 70.0693 52.6664 70.3254 53.1775V52.347C70.3254 52.2192 70.3254 52.0276 70.3254 51.7082C70.3254 51.4526 70.3254 51.1971 70.3254 51.0693C70.3254 50.7499 70.3254 50.2388 70.2614 49.5361H70.5176V49.6ZM62.9598 55.2218C62.9598 55.4134 62.9598 55.6051 63.0239 55.8606C63.0239 56.0522 63.0879 56.2439 63.216 56.4355C63.3441 56.6272 63.4082 56.8188 63.5363 56.9466C63.7925 57.2021 64.1127 57.266 64.497 57.266C64.9454 57.266 65.3937 57.0744 65.778 56.7549L65.9061 56.8827L65.6499 57.5216C65.2015 57.841 64.6251 58.0326 64.0487 58.0326C63.6003 58.0326 63.152 57.9687 62.8317 57.841C62.5115 57.7132 62.1913 57.5216 61.9351 57.2021C61.4867 56.755 61.2946 56.0522 61.2946 55.1579C61.2946 54.6468 61.4227 54.1996 61.6148 53.8163C61.807 53.433 62.1272 53.1136 62.5115 52.8581C62.8958 52.6025 63.3441 52.5386 63.8565 52.5386C64.3689 52.5386 64.8173 52.6664 65.1375 52.8581C65.4577 53.0497 65.7139 53.3691 65.9061 53.6886C66.0342 54.0719 66.1623 54.4552 66.1623 54.9662C66.1623 55.094 66.1623 55.2217 66.1623 55.3495H62.9598V55.2218ZM64.6892 54.7107C64.6892 54.7107 64.6892 54.6468 64.6892 54.5829C64.6892 54.519 64.6892 54.4551 64.6892 54.4551C64.6251 53.433 64.433 52.9219 63.9206 52.9219C63.6003 52.9219 63.3441 53.1136 63.216 53.433C63.0879 53.7524 63.0239 54.1996 63.0239 54.7107H64.6892ZM52.7121 50.3027C52.7761 50.3027 52.8402 50.3027 52.9042 50.3666C53.0323 50.3666 53.0963 50.4305 53.1604 50.4305C53.2244 50.4305 53.4166 50.4305 53.6087 50.3666C54.2492 51.7082 55.0819 53.433 56.1707 55.5412L56.8112 54.2635C57.5798 52.8581 58.1562 51.5165 58.7326 50.3027H58.7967H58.8607C59.245 50.3027 59.5012 50.3027 59.6934 50.3027C59.8215 51.3249 60.0136 53.0497 60.2698 55.4773C60.3338 55.7328 60.3979 56.1161 60.4619 56.6272C60.526 57.1382 60.59 57.3938 60.59 57.3938C60.59 57.4577 60.59 57.5215 60.6541 57.6493C60.6541 57.7771 60.6541 57.841 60.6541 57.9049C60.59 57.9049 60.3979 57.9049 60.2057 57.9049C60.0136 57.9049 59.8215 57.9049 59.7574 57.9049C59.6293 57.9049 59.5012 57.9049 59.3091 57.9049C59.1169 57.9049 58.9888 57.9049 58.8607 57.9049C58.8607 57.1382 58.7967 56.3716 58.6686 55.4773C58.6045 54.5829 58.4764 53.6885 58.4124 52.8581C57.1955 55.3495 56.3628 57.0744 55.9785 57.9049H55.5302L54.6976 56.18C54.5054 55.7328 54.1852 55.1579 53.8649 54.3913C53.4806 53.6885 53.2885 53.1775 53.1604 52.9858C53.0323 53.7524 52.9683 54.3913 52.9042 54.9023C52.8402 55.3495 52.8402 55.7967 52.7761 56.1161C52.7121 56.5633 52.7121 56.8827 52.7121 57.2021C52.7121 57.266 52.7121 57.3938 52.7121 57.5216C52.7121 57.6493 52.7121 57.7771 52.7121 57.841C52.5199 57.7771 52.3918 57.7771 52.1997 57.7771C52.0075 57.7771 51.8794 57.7771 51.6873 57.841C51.6873 57.7132 51.6873 57.5854 51.7513 57.4577C51.8154 57.266 51.8794 56.9466 51.9435 56.4994C52.0075 56.0522 52.0716 55.7967 52.0716 55.7967C52.1997 55.1579 52.2637 54.3913 52.3918 53.6247L52.7121 50.3027ZM43.361 55.2218C43.361 56.5633 43.6812 57.266 44.3217 57.266C44.706 57.266 45.0262 57.0105 45.1543 56.5633C45.2824 56.1161 45.4105 55.605 45.4105 55.094C45.4105 54.5829 45.3465 54.1357 45.2184 53.7524C45.0903 53.3691 44.8341 53.1136 44.4498 53.1136C44.0655 53.1136 43.7452 53.3052 43.6171 53.7524C43.425 54.2635 43.361 54.7107 43.361 55.2218ZM45.4105 49.6C45.5386 49.6 45.7948 49.6639 46.051 49.6639C46.2431 49.6639 46.4993 49.6639 46.8836 49.6C46.8836 49.9194 46.8836 50.3027 46.8196 50.686C46.8196 51.5804 46.7555 52.2192 46.7555 52.6664C46.7555 54.1357 46.6915 55.1579 46.6915 55.9245C46.6915 56.3717 46.6915 57.0105 46.7555 57.9049H46.6274C46.3712 57.9049 46.1791 57.841 46.051 57.841C45.9869 57.841 45.8589 57.841 45.6667 57.841C45.4746 57.841 45.3465 57.841 45.2824 57.841C45.3465 57.3299 45.3465 57.0105 45.3465 56.8827C45.0262 57.5854 44.5138 57.9687 43.8093 57.9687C43.0407 57.9687 42.5283 57.7132 42.144 57.2021C41.8238 56.6911 41.6316 56.0522 41.6316 55.2218C41.6316 54.519 41.8238 53.8802 42.144 53.3053C42.3362 53.0497 42.5283 52.8581 42.8486 52.6664C43.1688 52.4748 43.425 52.4109 43.7452 52.4109C44.4498 52.4109 44.8981 52.6664 45.2184 53.1775V52.347C45.2184 52.2192 45.2184 52.0276 45.2184 51.7082C45.2184 51.4526 45.2184 51.1971 45.2184 51.0693C45.2184 50.7499 45.2184 50.2388 45.1543 49.5361H45.4105V49.6ZM37.8528 55.2218C37.8528 55.4134 37.8528 55.6051 37.9168 55.8606C37.9168 56.0522 37.9809 56.2439 38.109 56.4355C38.2371 56.6272 38.3011 56.8188 38.4292 56.9466C38.6854 57.2021 39.0056 57.266 39.3899 57.266C39.8383 57.266 40.2866 57.0744 40.6709 56.7549L40.799 56.8827L40.5428 57.5216C40.0945 57.841 39.518 58.0326 38.9416 58.0326C38.4933 58.0326 38.0449 57.9687 37.7247 57.841C37.4044 57.7132 37.0842 57.5216 36.828 57.2021C36.3796 56.755 36.1875 56.0522 36.1875 55.1579C36.1875 54.6468 36.3156 54.1996 36.5077 53.8163C36.6999 53.433 37.0201 53.1136 37.4044 52.8581C37.7887 52.6025 38.2371 52.5386 38.7494 52.5386C39.2618 52.5386 39.7102 52.6664 40.0304 52.8581C40.3507 53.0497 40.6069 53.3691 40.799 53.6886C40.9271 54.0719 41.0552 54.4552 41.0552 54.9662C41.0552 55.094 41.0552 55.2217 41.0552 55.3495H37.8528V55.2218ZM39.5821 54.7107C39.5821 54.7107 39.5821 54.6468 39.5821 54.5829C39.5821 54.519 39.5821 54.4551 39.5821 54.4551C39.518 53.433 39.3259 52.9219 38.8135 52.9219C38.4933 52.9219 38.2371 53.1136 38.109 53.433C37.9809 53.7524 37.9168 54.1996 37.9168 54.7107H39.5821ZM35.2268 54.0718H34.9706C34.9065 53.7524 34.7784 53.4969 34.5863 53.3053C34.3941 53.1136 34.1379 52.9858 33.8177 52.9858C33.3694 52.9858 33.0491 53.1775 32.7929 53.6247C32.6008 54.0719 32.4727 54.519 32.4727 55.0301C32.4727 55.7328 32.6008 56.2439 32.857 56.5633C33.1132 56.9466 33.5615 57.2021 34.1379 57.2021C34.5863 57.2021 34.9706 57.0105 35.2908 56.6911L35.483 56.8188L35.2268 57.4577C35.0987 57.5854 34.8425 57.7132 34.5863 57.7771C34.266 57.841 34.0098 57.9049 33.7537 57.9049C32.7929 57.9049 32.0884 57.6493 31.64 57.2021C31.1277 56.6911 30.8715 56.0522 30.8715 55.2218C30.8715 54.6468 30.9996 54.1357 31.2558 53.7524C31.5119 53.3052 31.8322 52.9858 32.2805 52.7303C32.7289 52.4748 33.2413 52.4109 33.8177 52.4109C34.5863 52.4109 35.2268 52.6025 35.7392 52.9219L35.2268 54.0718ZM24.8509 52.6025C25.2352 52.6025 25.4914 52.6025 25.6835 52.6025C25.8116 52.6025 26.0678 52.6025 26.3881 52.6025L26.324 53.3691C26.8364 52.7303 27.4128 52.4748 27.9893 52.4748C28.5017 52.4748 29.014 52.6664 29.3343 53.1136C29.5264 53.3052 29.5905 53.5608 29.6545 53.7524C29.7186 54.008 29.7186 54.3274 29.7186 54.7107V56.0522V57.9049C29.5905 57.9049 29.4624 57.9049 29.2702 57.9049C29.0781 57.9049 28.95 57.9049 28.8219 57.9049C28.7579 57.9049 28.6298 57.9049 28.4376 57.9049C28.2455 57.9049 28.1174 57.9049 28.0533 57.9049C28.0533 57.841 28.0533 57.841 28.0533 57.7771C28.0533 57.7132 28.0533 57.7132 28.0533 57.6493C28.0533 57.5854 28.0533 57.5216 28.0533 57.5216C28.0533 57.4577 28.0533 57.4577 28.0533 57.3938C28.0533 57.266 28.0533 57.0105 28.0533 56.7549C28.0533 56.4994 28.0533 56.2439 28.0533 56.1161C28.0533 56.0522 28.0533 55.9245 28.0533 55.7328C28.0533 55.605 28.0533 55.4134 28.0533 55.2856C28.0533 54.7746 27.9893 54.3274 27.9252 54.008C27.7971 53.6886 27.5409 53.4969 27.1566 53.4969C26.7723 53.4969 26.5162 53.6886 26.3881 54.008C26.26 54.3274 26.1959 54.8384 26.1959 55.4773C26.1959 55.6689 26.1959 55.9245 26.1959 56.2439C26.1959 56.5633 26.1959 56.8827 26.1959 57.2021C26.1959 57.5216 26.1959 57.7771 26.1959 57.9687C26.1319 57.9687 26.0038 57.9687 25.8116 57.9687C25.6195 57.9687 25.4914 57.9687 25.4273 57.9687C25.3633 57.9687 25.2352 57.9687 25.043 57.9687C24.8509 57.9687 24.7228 57.9687 24.6587 57.9687C24.6587 57.9048 24.6587 57.841 24.6587 57.7132C24.6587 57.5854 24.6587 57.4577 24.6587 57.3938C24.6587 57.266 24.6587 57.0105 24.6587 56.7549C24.6587 56.4994 24.6587 56.2439 24.6587 56.0522V54.7746V54.3274C24.6587 54.1357 24.6587 53.8802 24.6587 53.6247C24.6587 53.3691 24.6587 53.1136 24.6587 52.9858L24.8509 52.6025ZM19.5989 53.8802L19.4708 53.2414C19.727 52.9858 20.0472 52.8581 20.3675 52.7303C20.7518 52.6025 21.072 52.5386 21.4563 52.5386C21.9687 52.5386 22.4811 52.6664 22.8654 52.9219C23.2497 53.1775 23.5059 53.5608 23.5059 54.008V54.7107C23.5059 54.9662 23.5059 55.2218 23.5059 55.5412C23.5059 55.8606 23.5059 56.1161 23.5059 56.3078C23.5059 56.5633 23.5059 56.8188 23.5059 56.9466C23.5059 57.2021 23.634 57.3299 23.7621 57.3938C23.8902 57.3938 24.0183 57.3938 24.0823 57.3938C24.1463 57.3938 24.1463 57.4577 24.1463 57.5854V57.7132C24.0823 57.7771 23.8902 57.841 23.634 57.9049C23.4418 57.9687 23.2497 57.9687 23.1856 57.9687C22.9294 57.9687 22.7373 57.9049 22.5451 57.7771C22.353 57.6493 22.2249 57.4577 22.0968 57.2021C21.9687 57.4577 21.7765 57.6493 21.5204 57.7771C21.2642 57.9049 21.008 57.9687 20.6877 57.9687C20.2394 57.9687 19.8551 57.841 19.5348 57.5854C19.2146 57.3299 19.0865 57.0105 19.0865 56.4994C19.0865 56.2439 19.1506 55.9883 19.2787 55.7967C19.4067 55.605 19.5348 55.4134 19.791 55.2856C20.0472 55.1579 20.4956 54.9662 21.1361 54.8384C21.5204 54.7746 21.7765 54.6468 21.9046 54.5829C21.9687 54.519 22.0327 54.3913 22.0327 54.1357C22.0327 53.8802 21.9046 53.6885 21.7125 53.4969C21.5204 53.3052 21.2642 53.2414 21.008 53.2414C20.5596 53.2414 20.1753 53.433 19.791 53.7524C19.791 53.7524 19.727 53.8163 19.6629 53.8802H19.5989ZM20.6237 56.3716C20.6237 56.9466 20.8158 57.2021 21.2001 57.2021C21.7125 57.2021 22.0327 56.8188 22.0327 56.0522C22.0327 55.605 22.0327 55.2217 22.0968 55.0301C21.9046 55.1579 21.7125 55.1579 21.6485 55.2218C21.5844 55.2218 21.5204 55.2856 21.3923 55.2856C21.2642 55.3495 21.2001 55.3495 21.1361 55.3495C21.072 55.3495 21.008 55.4134 20.9439 55.4773C20.6877 55.6689 20.6237 55.9883 20.6237 56.3716ZM13.5143 52.6025C13.8986 52.6025 14.1548 52.6025 14.3469 52.6025C14.7312 52.6025 14.9874 52.6025 15.1795 52.5386L16.3965 56.3716C17.0369 54.5829 17.4853 53.3052 17.7415 52.6025C17.8055 52.6025 17.8696 52.6025 17.8696 52.6025C18.1898 52.6025 18.446 52.6025 18.6382 52.6025C18.6382 52.6025 18.6382 52.7303 18.5741 52.8581C18.5101 52.9858 18.3179 53.433 17.9977 54.1357C17.8696 54.519 17.7415 54.7746 17.6134 55.0301C17.5493 55.2856 17.4212 55.5412 17.2291 55.9883C17.0369 56.3716 16.9088 56.7549 16.8448 57.0744C16.7167 57.3938 16.6527 57.6493 16.5886 57.841C16.5246 57.841 16.4605 57.841 16.3324 57.841C16.2043 57.841 16.1403 57.841 16.0122 57.841C15.9481 57.841 15.82 57.841 15.6919 57.841C15.5638 57.841 15.4357 57.841 15.3717 57.841C14.9874 56.755 14.6671 55.7967 14.411 55.0301C14.1548 54.2635 13.8345 53.4969 13.5143 52.6664V52.6025ZM9.15896 55.2218C9.15896 56.5633 9.4792 57.266 10.1197 57.266C10.504 57.266 10.8242 57.0105 10.9523 56.5633C11.0804 56.1161 11.2085 55.605 11.2085 55.094C11.2085 54.5829 11.1445 54.1357 11.0164 53.7524C10.8883 53.3691 10.6321 53.1136 10.2478 53.1136C9.8635 53.1136 9.54325 53.3052 9.41515 53.7524C9.22301 54.2635 9.15896 54.7107 9.15896 55.2218ZM11.2085 49.6C11.3366 49.6 11.5928 49.6639 11.849 49.6639C12.0412 49.6639 12.2973 49.6639 12.6816 49.6C12.6816 49.9194 12.6816 50.3027 12.6176 50.686C12.6176 51.5804 12.5535 52.2192 12.5535 52.6664C12.5535 54.1357 12.4895 55.1579 12.4895 55.9245C12.4895 56.3717 12.4895 57.0105 12.5535 57.9049H12.4254C12.1692 57.9049 11.9771 57.841 11.849 57.841C11.785 57.841 11.6569 57.841 11.4647 57.841C11.2726 57.841 11.1445 57.841 11.0804 57.841C11.1445 57.3299 11.1445 57.0105 11.1445 56.8827C10.8242 57.5854 10.3118 57.9687 9.6073 57.9687C8.83872 57.9687 8.32633 57.7132 7.94204 57.2021C7.62179 56.6911 7.42965 56.0522 7.42965 55.2218C7.42965 54.519 7.62179 53.8802 7.94204 53.3053C8.13418 53.0497 8.32633 52.8581 8.64657 52.6664C8.96681 52.4748 9.22301 52.4109 9.54325 52.4109C10.2478 52.4109 10.7602 52.6664 11.0164 53.1775V52.347C11.0164 52.2192 11.0164 52.0276 11.0164 51.7082C11.0164 51.4526 11.0164 51.1971 11.0164 51.0693C11.0164 50.7499 11.0164 50.2388 10.9523 49.5361H11.2085V49.6ZM2.04956 54.9023H4.03507C3.77887 54.2635 3.45863 53.3691 3.07434 52.347C2.69004 53.2414 2.3698 54.0718 2.04956 54.8384V54.9023ZM0 57.7132L0.832633 55.8606C1.79336 53.6886 2.56195 51.8359 3.13839 50.2388C3.20243 50.2388 3.20243 50.2388 3.26648 50.2388C3.33053 50.2388 3.39458 50.2388 3.39458 50.2388C3.45863 50.2388 3.52268 50.2388 3.52268 50.2388C3.58673 50.2388 3.65077 50.2388 3.71482 50.2388C3.77887 50.2388 3.84292 50.2388 3.90697 50.2388L3.97102 50.4305C4.8677 52.7942 5.82843 55.2217 6.85321 57.5854L6.91726 57.7132V57.841C6.78916 57.841 6.66106 57.841 6.46892 57.841C6.27677 57.841 6.08462 57.841 6.02058 57.841C5.70033 57.841 5.38009 57.841 5.12389 57.9049C4.80365 56.8827 4.54746 56.18 4.35531 55.6689C4.22721 55.6689 4.03507 55.6689 3.77887 55.6689C3.52268 55.6689 3.33053 55.6689 3.13839 55.6689C2.88219 55.6689 2.43385 55.6689 1.79336 55.7328L1.72931 55.8606C1.60122 56.18 1.47312 56.5633 1.34502 56.9466C1.21692 57.3299 1.08883 57.6493 1.02478 57.9687C0.832633 57.9048 0.704535 57.9049 0.512389 57.9049C0.320243 57.9049 0.192146 57.9048 0 57.9687L0 57.7132Z" fill="#003594"/>
<path d="M139.946 56.4357C140.075 56.6912 140.203 56.9468 140.459 57.0745C140.651 57.2023 140.907 57.3301 141.227 57.3301C141.484 57.3301 141.676 57.2662 141.804 57.2023C141.996 57.0745 142.06 56.8829 142.06 56.7551C142.06 56.6273 141.996 56.5635 141.932 56.4357C141.868 56.3718 141.74 56.244 141.612 56.1802C141.484 56.1163 141.356 56.0524 141.227 55.9885C141.099 55.9246 140.971 55.8607 140.907 55.8607C140.843 55.7969 140.779 55.7969 140.715 55.733C140.651 55.733 140.587 55.6691 140.587 55.6691C140.523 55.6691 140.459 55.6052 140.395 55.5413C140.139 55.4136 139.946 55.2219 139.818 54.9664C139.69 54.7108 139.562 54.4553 139.562 54.1359C139.562 53.8165 139.626 53.4971 139.818 53.2415C139.946 52.986 140.203 52.7943 140.523 52.6666C140.907 52.5388 141.227 52.4749 141.484 52.4749C142.124 52.4749 142.637 52.6666 143.085 52.986C143.021 53.3054 142.893 53.6248 142.829 53.9442H142.508C142.444 53.6887 142.316 53.4971 142.124 53.3054C141.932 53.1138 141.676 53.0499 141.484 53.0499C141.227 53.0499 141.035 53.1138 140.907 53.1776C140.779 53.3054 140.651 53.4332 140.651 53.6248C140.651 53.7526 140.651 53.8165 140.715 53.8804C140.779 53.9442 140.843 54.0081 140.907 54.072C140.971 54.1359 141.099 54.1998 141.227 54.1998C141.356 54.2637 141.42 54.3275 141.548 54.3275C142.124 54.5192 142.572 54.7747 142.829 54.9664C143.085 55.158 143.213 55.5413 143.213 56.0524C143.213 56.6273 142.957 57.1384 142.444 57.4578C142.06 57.7134 141.612 57.8411 141.099 57.8411C140.523 57.8411 140.011 57.7134 139.562 57.3939C139.626 57.0745 139.69 56.7551 139.754 56.3718H139.946V56.4357ZM133.606 52.6027C133.99 52.6027 134.246 52.6027 134.438 52.6027C134.566 52.6027 134.823 52.6027 135.143 52.6027L135.079 53.3693C135.591 52.7305 136.168 52.4749 136.744 52.4749C137.256 52.4749 137.769 52.6666 138.089 53.1138C138.281 53.3054 138.345 53.5609 138.409 53.7526C138.473 54.0081 138.473 54.3275 138.473 54.7108V56.0524V57.905C138.345 57.905 138.217 57.905 138.025 57.905C137.833 57.905 137.705 57.905 137.577 57.905C137.513 57.905 137.385 57.905 137.192 57.905C137 57.905 136.872 57.905 136.808 57.905C136.808 57.8411 136.808 57.8411 136.808 57.7772C136.808 57.7134 136.808 57.7134 136.808 57.6495C136.808 57.5856 136.808 57.5217 136.808 57.5217C136.808 57.4578 136.808 57.4578 136.808 57.3939C136.808 57.2662 136.808 57.0106 136.808 56.7551C136.808 56.4996 136.808 56.244 136.808 56.1163C136.808 56.0524 136.808 55.9246 136.808 55.733C136.808 55.6052 136.808 55.4136 136.808 55.2858C136.808 54.7747 136.744 54.3275 136.68 54.0081C136.552 53.6887 136.296 53.4971 135.911 53.4971C135.527 53.4971 135.271 53.6887 135.143 54.0081C135.015 54.3275 134.951 54.8386 134.951 55.4774C134.951 55.6691 134.951 55.9246 134.951 56.244C134.951 56.5635 134.951 56.8829 134.951 57.2023C134.951 57.5217 134.951 57.7772 134.951 57.9689C134.887 57.9689 134.759 57.9689 134.566 57.9689C134.374 57.9689 134.246 57.9689 134.182 57.9689C134.118 57.9689 133.99 57.9689 133.798 57.9689C133.606 57.9689 133.478 57.9689 133.414 57.9689C133.414 57.905 133.414 57.8411 133.414 57.7134C133.414 57.5856 133.414 57.4578 133.414 57.3939C133.414 57.2662 133.414 57.0106 133.414 56.7551C133.414 56.4996 133.414 56.244 133.414 56.0524V54.7747V54.3275C133.414 54.1359 133.414 53.8804 133.414 53.6248C133.414 53.3693 133.414 53.1138 133.414 52.986L133.606 52.6027ZM128.994 54.4553C128.93 54.7108 128.93 54.9664 128.93 55.2858C128.93 56.7551 129.25 57.4578 129.955 57.4578C130.211 57.4578 130.467 57.3301 130.595 57.1384C130.723 56.9468 130.852 56.6912 130.916 56.3718C130.98 55.9885 131.044 55.4774 131.044 54.9025C131.044 54.7747 131.044 54.5831 130.98 54.3275C130.916 53.3693 130.595 52.8582 130.019 52.8582C129.699 52.8582 129.442 52.986 129.25 53.3054C129.122 53.6887 128.994 54.072 128.994 54.4553ZM127.265 55.3497C127.265 54.5192 127.521 53.8165 128.033 53.3054C128.29 53.0499 128.546 52.8582 128.93 52.7305C129.314 52.6027 129.635 52.5388 130.019 52.5388C130.403 52.5388 130.788 52.6027 131.108 52.7305C131.492 52.8582 131.748 53.0499 132.004 53.3054C132.453 53.8165 132.709 54.4553 132.709 55.2219C132.709 55.7969 132.581 56.244 132.389 56.6912C132.197 57.1384 131.876 57.4578 131.428 57.7134C131.044 57.9689 130.531 58.0967 129.955 58.0967C129.442 58.0967 128.93 57.9689 128.546 57.7772C128.162 57.5856 127.841 57.2662 127.585 56.8829C127.393 56.3079 127.265 55.8607 127.265 55.3497ZM125.471 49.6641C125.728 49.6641 125.92 49.7279 126.112 49.9196C126.304 50.1112 126.368 50.3029 126.368 50.5584C126.368 50.814 126.304 51.0056 126.112 51.1973C125.92 51.3889 125.728 51.4528 125.471 51.4528C125.215 51.4528 125.023 51.3889 124.895 51.1973C124.703 51.0056 124.639 50.814 124.639 50.6223C124.639 50.3668 124.703 50.1751 124.895 50.0474C125.023 49.7918 125.215 49.6641 125.471 49.6641ZM124.639 57.0745C124.639 56.9468 124.639 56.7551 124.639 56.5635C124.639 56.3079 124.639 56.1802 124.639 56.0524C124.639 55.2219 124.703 54.647 124.703 54.3914C124.703 54.1359 124.703 53.8165 124.703 53.4332C124.703 53.0499 124.703 52.7943 124.639 52.6027H124.703C124.895 52.6027 125.151 52.6027 125.471 52.6027C125.664 52.6027 125.92 52.6027 126.24 52.6027L126.176 54.0081C126.112 54.4553 126.112 55.158 126.112 56.1163C126.112 56.7551 126.112 57.3301 126.176 57.8411C126.112 57.8411 125.92 57.8411 125.728 57.8411C125.536 57.8411 125.343 57.8411 125.279 57.8411C125.215 57.8411 125.087 57.8411 124.895 57.8411C124.703 57.8411 124.575 57.8411 124.511 57.8411L124.639 57.0745Z" fill="#003594"/>
<path d="M141.163 16.5726C140.202 14.0172 138.409 12.7396 135.911 12.7396C134.374 12.7396 133.157 13.1229 132.26 13.9534C131.363 14.7838 130.915 15.806 130.915 17.0836C130.915 18.1697 131.363 19.064 132.324 19.8306C133.285 20.5972 134.694 21.4916 136.743 22.5776C138.729 23.5997 140.33 24.558 141.483 25.3246C142.636 26.1551 143.469 27.1133 143.981 28.2632C144.493 29.3492 144.75 30.6908 144.75 32.2879C144.75 33.6933 144.429 35.0987 143.725 36.5681C142.828 38.4207 141.163 39.89 138.857 40.976C137.192 41.8065 135.142 42.1898 132.708 42.1898C129.89 42.1898 127.392 41.551 125.343 40.2733C125.983 37.9735 126.432 36.057 126.688 34.5238H127.52C127.841 36.057 128.609 37.2708 129.762 38.1013C130.915 38.9317 132.26 39.3789 133.861 39.3789C135.334 39.3789 136.615 38.9956 137.64 38.1651C138.665 37.3985 139.177 36.2487 139.177 34.7793C139.177 33.5017 138.601 32.3518 137.512 31.2657C136.039 30.2436 134.374 29.2854 132.388 28.391C131.812 28.0716 131.171 27.6883 130.339 27.1772C129.506 26.6661 128.994 26.2828 128.737 26.1551C127.713 25.5162 126.944 24.558 126.432 23.2803C125.919 22.0027 125.663 20.6611 125.663 19.3196C125.663 16.3809 126.816 14.0172 129.122 12.1646C130.146 11.3341 131.235 10.6953 132.324 10.3759C133.413 10.0565 134.694 9.92871 136.231 9.92871C138.857 9.92871 141.163 10.5675 143.02 11.7174C143.084 11.7813 143.148 11.9091 143.34 12.0369C142.892 13.4423 142.38 14.9755 141.931 16.5087H141.163V16.5726ZM89.1553 10.4398C89.2834 10.4398 89.6036 10.5037 89.9879 10.5675C90.3722 10.6314 90.6924 10.6953 90.9486 10.6953C91.3329 10.6953 91.9734 10.6314 92.8701 10.4398C95.432 16.0615 98.8907 23.2164 103.374 31.9685L106.064 26.73C109.138 20.8528 111.764 15.4227 114.006 10.4398C114.07 10.4398 114.134 10.5037 114.262 10.5037C114.39 10.5037 114.454 10.5675 114.454 10.5675C115.992 10.5675 117.145 10.5037 117.913 10.4398C118.361 14.6561 119.194 21.7471 120.347 31.7768C120.539 32.9267 120.731 34.4599 121.052 36.5042C121.308 38.4846 121.5 39.5706 121.5 39.6983C121.5 39.89 121.564 40.2094 121.628 40.6566C121.692 41.1038 121.756 41.4232 121.756 41.6148C121.436 41.6148 120.795 41.551 119.963 41.4871C119.13 41.4232 118.49 41.4232 118.041 41.4232C117.657 41.4232 117.016 41.4871 116.248 41.4871C115.415 41.551 114.775 41.551 114.326 41.6148C114.198 38.5484 113.942 35.1626 113.558 31.4574C113.174 27.7522 112.789 24.1108 112.405 20.6611C107.281 31.0741 103.951 38.1013 102.285 41.6787H100.556L97.0333 34.2683C96.1366 32.3518 94.9837 29.9242 93.4465 26.9217C91.9734 23.9192 91.0127 22.0027 90.5643 21.1083C90.116 24.3025 89.7958 26.9856 89.5396 29.1576C89.3474 31.0741 89.2193 32.7989 89.1553 34.2683C88.9631 36.057 88.835 37.5263 88.771 38.7401C88.771 39.0595 88.7069 39.5067 88.7069 40.1455C88.7069 40.7844 88.6429 41.2316 88.6429 41.551C87.9383 41.4232 87.2338 41.3593 86.4652 41.3593C85.7607 41.3593 85.0562 41.4232 84.3516 41.551C84.3516 40.976 84.4797 40.4011 84.7359 39.89C84.9281 39.0595 85.1202 37.718 85.4404 35.8653C85.7607 34.0127 85.8888 33.0545 85.8888 32.9267C86.3371 30.1797 86.7855 27.1772 87.1698 24.0469L89.1553 10.4398ZM61.5503 29.5409H69.9407C68.9159 26.7939 67.5709 23.2164 65.8416 18.9363C64.2403 22.6415 62.8313 26.0273 61.7424 29.1576L61.5503 29.5409ZM52.9678 41.2316L56.3624 33.4378C60.2693 24.558 63.4077 16.8281 65.8416 10.1842C66.0337 10.1842 66.1618 10.2481 66.418 10.2481C66.6101 10.312 66.8663 10.312 67.0585 10.312C67.2506 10.3759 67.4428 10.3759 67.6349 10.3759C67.8911 10.3759 68.1473 10.3759 68.4676 10.312C68.7878 10.2481 69.044 10.2481 69.3002 10.1842L69.6845 10.9508C73.4634 20.8528 77.4344 30.6908 81.5975 40.5927L81.8537 41.0399V41.4871C81.4054 41.4871 80.7649 41.4232 79.9323 41.3593C79.0996 41.2954 78.3951 41.2954 77.9468 41.2954C76.6658 41.2954 75.3848 41.3593 74.1679 41.4871C72.8869 37.3347 71.7981 34.2044 71.0295 32.1601C70.4531 32.1601 69.6204 32.1601 68.5316 32.0962C67.3787 32.0323 66.5461 32.0323 65.9697 32.0323C64.8168 32.0323 62.9594 32.0962 60.4615 32.1601L60.2693 32.7989C59.7569 34.2044 59.2445 35.6737 58.6681 37.2069C58.0917 38.7401 57.7074 40.1455 57.3871 41.4871C56.6826 41.3593 55.9781 41.2954 55.2095 41.2954C54.5049 41.2954 53.8004 41.3593 53.0959 41.4871V41.2316H52.9678Z" fill="#003594"/>
<path d="M13.1945 41.0398H5.76483C1.85786 41.0398 -1.08838 38.9955 1.21738 35.0348C1.47357 34.5876 1.79381 34.1404 2.05001 33.6932C3.90742 31.074 6.53341 28.902 9.09536 26.7299C15.1159 21.6193 20.432 17.914 25.8121 14.0172C25.9402 13.9533 26.0683 13.8255 26.1964 13.7616C28.6302 12.1007 33.9462 10.0564 36.4441 12.7395C37.0206 13.3783 36.8925 14.5282 36.3801 15.2948C35.9958 15.8698 35.2913 16.3808 34.7148 16.7641C29.9752 20.2138 20.3039 27.3688 16.2688 31.3295C13.835 33.6932 12.4259 36.568 12.618 38.4206C12.618 39.5705 12.9383 40.5926 13.1945 41.0398Z" fill="#E01F26"/>
<path d="M50.8546 20.7891C50.2141 25.772 49.7657 30.6271 45.7307 34.7156C43.1047 37.4626 39.1977 39.0597 34.9064 40.0179C31.4478 40.7845 28.0532 41.104 24.3384 41.104C21.8405 41.104 22.5451 41.104 19.9191 41.104C18.8943 41.104 18.1257 41.104 17.229 40.9762C15.3716 40.7207 14.6671 40.0818 14.539 38.4847C14.4109 36.6321 15.884 33.8851 18.4459 31.4576C18.8943 31.0104 19.3426 30.6271 19.855 30.1799C20.7517 29.4133 21.0079 29.1578 22.2889 29.1578C24.0182 29.2217 25.8115 29.3494 27.5409 29.3494L33.1131 29.4133C40.3506 29.2855 47.7162 26.2191 50.8546 20.7891Z" fill="#E01F26"/>
<path d="M30.0391 10.8871C35.3551 7.05415 40.6071 2.96561 46.8198 0.601926C48.1008 0.154743 49.702 -0.164673 51.047 0.09086C52.328 0.410277 52.9685 1.36853 53.1606 2.39066C53.2887 3.98774 53.2247 5.20153 52.9685 6.79861C52.5842 9.67336 52.264 11.7815 51.8156 14.6563C51.3673 17.531 50.0222 20.1502 48.1648 22.0028C45.731 24.3665 41.4397 26.3469 37.9811 27.1135C36.1877 27.4968 36.6361 25.8997 37.0204 24.9415C37.2766 24.111 37.5328 23.4083 37.789 22.45C38.3013 20.6613 39.3902 16.5089 38.7497 13.6341C38.1732 11.0788 36.6361 10.3761 34.3303 10.2483C32.601 10.1205 31.1279 10.5677 30.0391 10.8871Z" fill="#E01F26"/>
</svg>
