<svg width="99" height="79" viewBox="0 0 99 79" fill="none" xmlns="http://www.w3.org/2000/svg">
<path d="M0 37.0533C1.0399 31.3228 5.45947 28.7614 10.074 26.5039C12.2621 25.4403 14.6019 24.6806 16.8984 23.8557C18.6965 23.2262 19.8664 24.0945 19.8664 26.0264C19.8664 32.7988 19.8664 39.593 19.8664 46.3655C19.8664 46.7996 19.8664 47.2337 19.8664 47.7547C27.6223 49.7951 35.4432 50.9456 43.5891 51.1843C43.5891 49.8168 43.5891 48.5361 43.5891 47.2337C43.5891 46.7345 43.6108 46.2135 43.5891 45.7143C43.5674 44.8243 43.8057 44.0429 44.6507 43.6304C45.5172 43.1963 46.3188 43.4568 47.0554 44.0429C49.6552 46.1484 52.2766 48.2322 54.898 50.3378C58.6026 53.3116 62.3289 56.2854 66.0336 59.2592C67.7017 60.605 67.7451 61.8206 66.0986 63.123C59.8375 68.1372 53.5548 73.1731 47.2937 78.1873C46.5355 78.7951 45.7772 79.2944 44.7373 78.8168C43.6541 78.3176 43.5674 77.3625 43.5891 76.364C43.6108 74.6058 43.5891 72.8475 43.5891 71.0459C40.7077 70.8071 37.9563 70.6552 35.2049 70.3513C26.4308 69.4179 17.8083 67.8984 9.74905 64.1215C8.29753 63.4486 6.86767 62.6237 5.54613 61.712C2.59975 59.7584 0.411627 57.2188 0 53.5069C0 48.0369 0 42.5451 0 37.0533ZM47.532 49.3827C47.532 50.6417 47.532 51.6185 47.532 52.617C47.532 54.7225 46.9254 55.3086 44.824 55.2652C35.0316 55.0264 25.4125 53.5938 16.0101 50.7502C12.4571 49.6866 9.14244 48.2105 6.04441 46.1701C5.4378 45.7577 4.80953 45.3453 4.05127 44.846C4.05127 47.4725 4.13793 49.9254 4.02961 52.3782C3.94295 54.3535 4.67955 55.8947 6.10941 57.1319C6.95432 57.87 7.84257 58.5429 8.77415 59.1289C11.7855 61.0174 15.1002 62.233 18.4799 63.2315C26.929 65.7278 35.5949 66.7697 44.369 67.0953C47.0771 67.2038 47.532 67.6162 47.532 70.3947C47.532 71.1978 47.532 72.0227 47.532 73.0863C52.5149 69.0489 57.3028 65.1634 62.134 61.2128C57.2811 57.2839 52.5149 53.4201 47.532 49.3827ZM15.8585 28.4141C12.1105 29.8033 8.51417 31.2577 5.71944 34.0795C3.46633 36.3804 3.50966 38.6596 5.78444 40.9822C6.32605 41.5466 6.91099 42.1327 7.60426 42.5017C10.0307 43.7824 12.5221 44.998 14.9919 46.2135C15.2302 46.3221 15.5118 46.3655 15.8585 46.4523C15.8585 40.4179 15.8585 34.492 15.8585 28.4141Z" fill="white"/>
<path d="M94.9342 44.7592C91.4029 47.4508 87.7849 49.513 83.777 50.5983C79.1624 51.8356 74.4829 52.8124 69.8033 53.8326C68.5468 54.1148 67.5285 53.355 67.3335 52.1829C67.1602 51.1192 67.8102 50.2293 69.0451 49.9688C72.0348 49.3393 75.0245 48.7315 78.0358 48.1237C78.3825 48.0586 78.7291 47.9284 79.1407 47.8198C79.1407 47.4074 79.1407 47.0167 79.1407 46.626C79.1407 39.8752 79.1841 33.1462 79.0974 26.3954C79.0757 24.5938 80.224 23.2697 82.3904 24.0077C86.485 25.4186 90.5363 26.8947 94.046 29.4995C97.339 31.9306 99.1371 34.9912 98.9421 39.2457C98.7472 43.7173 98.8555 48.1889 98.9205 52.6604C98.9638 55.3954 97.9889 57.6529 96.1041 59.5631C93.2444 62.4935 89.648 64.23 85.9001 65.6627C80.6573 67.6597 75.2195 68.8101 69.695 69.7001C68.3951 69.9172 67.3552 69.2226 67.1602 68.0938C66.9653 66.8565 67.6585 66.0534 69.0884 65.7278C73.5296 64.7076 78.0142 63.7959 82.4121 62.5803C85.9434 61.6035 89.2797 60.0189 92.2045 57.6963C94.046 56.2203 95.1508 54.4621 94.9775 51.9441C94.8259 49.6215 94.9342 47.3206 94.9342 44.7592ZM83.192 28.4141C83.192 34.5354 83.192 40.5047 83.192 46.6694C85.1851 45.7577 87.0483 44.998 88.8248 44.0863C89.9947 43.4785 91.1212 42.7405 92.1611 41.9157C95.8441 38.9853 95.8441 36.0115 92.1611 33.0594C89.5397 30.9321 86.4634 29.6297 83.192 28.4141Z" fill="white"/>
<path d="M46.2326 18.3857C48.1608 18.3857 49.9156 18.3857 51.6704 18.3857C54.9851 18.4074 56.6966 20.1439 56.7183 23.465C56.7183 25.0062 56.7399 26.5691 56.7183 28.1102C56.6533 30.9972 54.8551 32.7988 51.9521 32.8423C50.3056 32.864 48.6374 32.8857 46.9909 32.8423C44.1095 32.7771 42.2897 30.9538 42.2897 28.0451C42.268 22.9223 42.268 17.7996 42.2897 12.6985C42.3114 9.6162 44.1312 7.81455 47.2075 7.79285C49.5906 7.79285 51.9521 7.79285 54.3352 7.79285C55.7867 7.79285 56.6533 8.55258 56.6533 9.76815C56.6533 10.9837 55.765 11.7 54.3135 11.7217C52.0387 11.7217 49.7856 11.7652 47.5108 11.7C46.6009 11.6783 46.211 11.9388 46.2326 12.9156C46.276 14.7173 46.2326 16.4755 46.2326 18.3857ZM46.2326 22.3363C46.2326 24.3333 46.2326 26.1783 46.2326 28.0017C46.2326 28.5878 46.4276 28.8917 47.0342 28.87C48.6807 28.87 50.3489 28.8917 51.9954 28.8265C52.2554 28.8048 52.7103 28.3273 52.7103 28.0451C52.7753 26.3954 52.7753 24.724 52.7103 23.0743C52.7103 22.8138 52.277 22.358 52.0387 22.3363C50.1756 22.3146 48.2691 22.3363 46.2326 22.3363Z" fill="white"/>
<path d="M60.704 20.2524C60.704 18.06 60.6823 15.8459 60.704 13.6536C60.7473 10.3108 63.1954 7.85791 66.5101 7.8145C67.485 7.79279 68.4599 7.79279 69.4348 7.8145C72.4678 7.90132 74.9809 10.289 75.0242 13.3063C75.0892 17.9515 75.0892 22.6184 75.0242 27.2636C74.9809 30.1289 72.8794 32.4298 70.0414 32.7337C68.6115 32.8856 67.16 32.8856 65.7301 32.7337C62.8488 32.4298 60.7906 30.0638 60.704 27.1551C60.704 27.09 60.704 27.0031 60.704 26.938C60.704 24.7239 60.704 22.4882 60.704 20.2524ZM71.2546 20.4477C71.2546 18.5376 71.2546 16.6274 71.2546 14.7172C71.2546 12.3512 70.7996 11.8953 68.3949 11.8953C67.8099 11.8953 67.2467 11.8736 66.6617 11.8953C65.3402 11.9388 64.6469 12.6117 64.6469 13.9141C64.6252 18.2771 64.6252 22.6401 64.6469 27.0031C64.6469 28.2838 65.3835 28.9784 66.6834 29.0218C67.4416 29.0435 68.1999 29.0435 68.9582 29.0218C70.5613 29.0001 71.2329 28.3489 71.2546 26.6992C71.2763 24.6371 71.2546 22.5316 71.2546 20.4477Z" fill="white"/>
<path d="M34.3603 22.3362C31.4572 22.3362 28.7058 22.3579 25.9328 22.3362C24.7846 22.3362 24.0046 21.7067 23.8313 20.6865C23.6797 19.7097 24.0913 18.9717 24.9795 18.581C25.3478 18.4073 25.8245 18.4073 26.2361 18.4073C28.4675 18.3856 30.699 18.4073 32.9304 18.4073C33.3204 18.4073 33.7104 18.4073 34.252 18.4073C34.252 16.3452 34.2953 14.3699 34.2086 12.4163C34.2086 12.1775 33.472 11.8085 33.0821 11.7868C30.6773 11.7217 28.2509 11.7868 25.8461 11.7434C24.2646 11.7217 23.2464 10.1588 24.0696 8.92154C24.3946 8.40059 25.1962 7.90133 25.7811 7.87963C28.5109 7.77109 31.2623 7.77109 33.992 7.85792C36.2884 7.92304 38.1949 9.87663 38.2166 12.2427C38.2816 17.6476 38.2816 23.0525 38.2166 28.4575C38.1949 30.8886 36.3534 32.7337 33.862 32.8205C31.1973 32.929 28.5325 32.8856 25.8678 32.8422C24.6112 32.8205 23.7663 31.9305 23.8097 30.8018C23.853 29.6948 24.7196 28.8916 25.9978 28.8699C28.3809 28.8482 30.7423 28.8265 33.1254 28.8699C34.057 28.8916 34.4253 28.6094 34.382 27.6326C34.317 25.9395 34.3603 24.2247 34.3603 22.3362Z" fill="white"/>
<path d="M81.198 0.000149523C84.1227 0.0218561 86.4625 2.36617 86.4625 5.29656C86.4625 8.27036 84.0794 10.6364 81.0897 10.6364C78.165 10.6364 75.8252 8.24866 75.8252 5.31827C75.8685 2.32276 78.2083 -0.0215571 81.198 0.000149523ZM79.7898 5.31827C79.7898 6.03458 80.4397 6.72919 81.1547 6.68578C81.9346 6.62066 82.4112 6.16482 82.4979 5.38339C82.5629 4.68877 81.8913 3.97246 81.1763 3.95075C80.4614 3.95075 79.7898 4.60195 79.7898 5.31827Z" fill="white"/>
</svg>
