<svg width="32" height="33" viewBox="0 0 32 33" fill="none" xmlns="http://www.w3.org/2000/svg">
<path d="M22.7406 16.4195C24.8099 18.4751 27.7282 21.7736 29.8498 23.5086C30.1856 23.9592 30.3286 24.4899 30.2801 25.0002C30.2306 25.5257 29.983 26.026 29.5398 26.3969L29.3874 26.5116L21.3902 31.5829L20.5153 30.2076C21.252 29.7404 26.0587 26.7717 27.8359 25.6059C20.7185 25.778 14.8932 23.6813 10.5446 19.8283C5.74269 15.5739 2.76761 9.19226 1.86628 1.37661L3.48777 1.19114C4.34243 8.6013 7.13489 14.6271 11.6336 18.6127C15.7217 22.2348 21.2447 24.1859 28.0294 23.973L21.5871 17.5715L22.7406 16.4195Z" fill="#1A1A1A" stroke="#1A1A1A" stroke-width="2"/>
</svg>
