<svg width="34" height="32" viewBox="0 0 34 32" fill="none" xmlns="http://www.w3.org/2000/svg">
<path d="M17.4328 8.85966C15.4626 6.73805 12.2848 3.72828 10.6369 1.5696C10.2002 1.22019 9.67594 1.0563 9.16425 1.08125C8.63733 1.10647 8.12778 1.32718 7.73952 1.74563L7.61886 1.89006L2.23292 9.51181L3.57152 10.4313C4.06777 9.72911 7.22563 5.14463 8.46132 3.45254C8.00419 10.4285 9.86496 16.2372 13.5393 20.6749C17.5963 25.5753 23.8513 28.7776 31.6218 30.0088L31.872 28.4261C24.5047 27.2587 18.5978 24.2513 14.7971 19.6604C11.343 15.4885 9.61547 9.98276 10.1001 3.33515L16.2359 9.94033L17.4328 8.85966Z" fill="#1A1A1A" stroke="#1A1A1A" stroke-width="2"/>
</svg>
