<svg width="25" height="25" viewBox="0 0 25 25" fill="none" xmlns="http://www.w3.org/2000/svg">
<path d="M13.3904 11.4668L1.9525 0.326305C1.50589 -0.108781 0.78164 -0.108781 0.33495 0.326379C-0.111663 0.761465 -0.111663 1.46683 0.335027 1.90191L10.9641 12.2547L0.33495 22.608C-0.111663 23.0431 -0.111663 23.7484 0.335027 24.1835C0.558295 24.4011 0.85103 24.5098 1.14376 24.5098C1.4365 24.5098 1.72923 24.4011 1.95258 24.1835L13.3904 13.0423C13.605 12.8334 13.7255 12.5501 13.7255 12.2546C13.7255 11.9592 13.605 11.6757 13.3904 11.4668Z" fill="#2a2a2a"/>
<path d="M11.6096 11.4668L23.0475 0.326305C23.4941 -0.108781 24.2184 -0.108781 24.665 0.326379C25.1117 0.761465 25.1117 1.46683 24.665 1.90191L14.0359 12.2547L24.665 22.608C25.1117 23.0431 25.1117 23.7484 24.665 24.1835C24.4417 24.4011 24.149 24.5098 23.8562 24.5098C23.5635 24.5098 23.2708 24.4011 23.0474 24.1835L11.6096 13.0423C11.395 12.8334 11.2745 12.5501 11.2745 12.2546C11.2745 11.9592 11.395 11.6757 11.6096 11.4668Z" fill="#2a2a2a"/>
</svg>
