<svg width="30" height="30" viewBox="0 0 30 30" fill="none" xmlns="http://www.w3.org/2000/svg">
<path d="M17.0776 29C15.4317 29 13.7857 29 12.1398 29C12.1398 28.8835 12.1232 28.767 12.1232 28.6505C12.1232 24.7733 12.1232 20.896 12.1232 17.0188C12.1232 16.9023 12.1232 16.8025 12.1232 16.6693C10.7266 16.6693 9.3633 16.6693 8 16.6693C8 15.0552 8 13.4744 8 11.8602C9.37993 11.8602 10.7432 11.8602 12.1232 11.8602C12.1232 11.7271 12.1232 11.6273 12.1232 11.544C12.1232 10.529 12.1065 9.5139 12.1232 8.51547C12.1398 7.86648 12.173 7.2175 12.306 6.58516C12.7882 4.10572 14.5837 2.44166 17.0776 2.09221C18.2913 1.9258 19.4883 2.02565 20.702 2.07557C21.1176 2.09221 21.5499 2.15877 21.9655 2.20869C21.9655 3.63978 21.9655 5.05423 21.9655 6.48532C20.9015 6.50196 19.8374 6.48532 18.79 6.53524C17.9255 6.56852 17.3935 7.03446 17.1773 7.8332C17.1275 8.03289 17.0942 8.24922 17.0942 8.4489C17.0776 9.53054 17.0776 10.6122 17.0776 11.6938C17.0776 11.7437 17.0942 11.8103 17.1108 11.8935C18.6736 11.8935 20.2365 11.8935 21.8159 11.8935C21.6164 13.5076 21.4002 15.0885 21.2007 16.686C19.8208 16.686 18.4575 16.686 17.0942 16.686C17.0942 16.8191 17.0942 16.9023 17.0942 17.0022C17.0942 20.896 17.0942 24.8066 17.0942 28.7005C17.061 28.8003 17.0776 28.9002 17.0776 29Z" fill="#2A2A2A"/>
</svg>
