<svg width="30" height="30" viewBox="0 0 30 30" fill="none" xmlns="http://www.w3.org/2000/svg">
<path d="M21.9224 27.9776C17.637 27.9776 13.3369 27.9776 9.05152 27.9776C8.99301 27.963 8.93451 27.9483 8.86138 27.9337C5.59978 27.5827 3.0256 24.7891 3.01097 21.5129C2.99634 17.5054 2.99634 13.5125 3.01097 9.50492C3.0256 5.9508 5.9508 3.0256 9.50492 3.01097C13.4978 2.99634 17.4761 2.99634 21.4544 3.01097C24.2626 3.0256 26.749 4.83922 27.6266 7.51579C27.7875 8.01307 27.8606 8.53961 27.9776 9.05152C27.9776 13.3369 27.9776 17.637 27.9776 21.9224C27.963 21.9809 27.9483 22.0394 27.9337 22.1126C27.5388 24.8623 26.0323 26.7051 23.4289 27.6412C22.9316 27.8021 22.4197 27.8606 21.9224 27.9776ZM23.5752 15.5016C23.5752 14.2876 23.5752 13.059 23.5752 11.8451C23.5752 9.32941 21.6445 7.39878 19.1288 7.39878C16.7009 7.39878 14.273 7.39878 11.8451 7.39878C9.32941 7.39878 7.39878 9.34404 7.39878 11.8451C7.39878 14.273 7.39878 16.7009 7.39878 19.1289C7.39878 21.6445 9.32941 23.5752 11.8451 23.5752C14.273 23.5752 16.7009 23.5752 19.1288 23.5752C21.6445 23.5752 23.5752 21.6299 23.5752 19.1289C23.5752 17.9149 23.5752 16.7009 23.5752 15.5016Z" fill="#2A2A2A"/>
<path d="M22.1125 15.4888C22.1125 16.7028 22.1125 17.9168 22.1125 19.1161C22.1125 20.842 20.8254 22.1144 19.1142 22.1144C16.7009 22.1144 14.273 22.1144 11.8597 22.1144C10.1338 22.1144 8.86133 20.8273 8.86133 19.1015C8.86133 16.6882 8.86133 14.2749 8.86133 11.8616C8.86133 10.1211 10.1338 8.84863 11.8743 8.84863C14.2876 8.84863 16.7009 8.84863 19.1142 8.84863C20.8547 8.84863 22.1271 10.1211 22.1271 11.8762C22.1125 13.0756 22.1125 14.2895 22.1125 15.4888ZM15.4869 19.1454C17.5053 19.1454 19.1434 17.5072 19.1434 15.4888C19.1434 13.4705 17.5053 11.8323 15.4869 11.8323C13.4685 11.8323 11.8304 13.4705 11.8304 15.4888C11.8304 17.5072 13.4685 19.1454 15.4869 19.1454ZM19.67 12.0225C20.0649 12.0225 20.4013 11.7007 20.4013 11.3058C20.4013 10.9109 20.0795 10.5745 19.6846 10.5599C19.2751 10.5453 18.9387 10.8817 18.9387 11.2912C18.9533 11.7007 19.2751 12.0225 19.67 12.0225Z" fill="#2A2A2A"/>
<path d="M15.4869 13.292C16.7008 13.292 17.6808 14.2866 17.6808 15.5005C17.6808 16.6999 16.6862 17.6798 15.4869 17.6798C14.2729 17.6798 13.293 16.6852 13.293 15.4713C13.293 14.2719 14.2875 13.292 15.4869 13.292Z" fill="#2A2A2A"/>
</svg>
