<svg width="30" height="30" viewBox="0 0 30 30" fill="none" xmlns="http://www.w3.org/2000/svg">
<path d="M11.832 27.9836C11.832 22.5676 11.832 17.1675 11.832 11.7514C11.832 11.6232 11.832 11.495 11.832 11.3348C13.4825 11.3348 15.1169 11.3348 16.7994 11.3348C16.7994 12.0719 16.7994 12.809 16.7994 13.5621C17.152 13.1455 17.4564 12.7289 17.825 12.3764C18.7383 11.5111 19.844 11.0624 21.0778 10.9502C22.1514 10.8541 23.225 10.9342 24.2666 11.2547C25.9651 11.7995 27.0227 12.9853 27.4713 14.6678C27.6957 15.5331 27.7758 16.4464 27.92 17.3277C27.9521 17.504 27.9681 17.6803 27.9841 17.8726C27.9841 21.2215 27.9841 24.5866 27.9841 27.9356C26.2696 27.9356 24.539 27.9356 22.7924 27.9356C22.7924 27.7913 22.7924 27.6632 22.7924 27.551C22.7924 24.7949 22.8084 22.0548 22.7764 19.2987C22.7764 18.6257 22.6802 17.9366 22.536 17.2797C22.3437 16.3823 21.8149 15.7414 20.8695 15.5331C20.4849 15.4529 20.0843 15.4369 19.6837 15.469C18.3858 15.5651 17.5365 16.2541 17.2481 17.52C17.0879 18.2411 17.0077 19.0102 17.0077 19.7473C16.9757 22.5035 16.9917 25.2435 16.9917 27.9997C15.2932 27.9836 13.5626 27.9836 11.832 27.9836Z" fill="#2A2A2A"/>
<path d="M3.41797 27.9828C3.41797 24.4736 3.41797 20.9804 3.41797 17.4711C3.41797 15.5483 3.41797 13.6094 3.41797 11.6865C3.41797 11.5743 3.41797 11.4622 3.41797 11.334C5.14855 11.334 6.84708 11.334 8.59369 11.334C8.59369 11.4622 8.59369 11.5904 8.59369 11.7186C8.59369 17.0866 8.59369 22.4706 8.59369 27.8386C8.59369 27.8867 8.59369 27.9347 8.59369 27.9828C6.87913 27.9828 5.14855 27.9828 3.41797 27.9828Z" fill="#2A2A2A"/>
<path d="M8.9935 6.02908C8.96145 7.72762 7.58339 9.0576 5.91691 9.00953C4.31452 8.97748 2.96851 7.56738 3.00056 5.93294C3.03261 4.2985 4.42669 2.96852 6.06112 3.00057C7.71159 3.04864 9.02554 4.39465 8.9935 6.02908Z" fill="#2A2A2A"/>
</svg>
