<svg width="32" height="39" viewBox="0 0 32 39" fill="none" xmlns="http://www.w3.org/2000/svg">
<path d="M15.6648 1.54607L15.6648 1.54607C15.2658 1.65947 14.9655 1.87874 14.7555 2.18345C15.6296 2.12212 16.5945 2.12148 17.4699 2.18157C17.4172 2.10527 17.3644 2.03666 17.317 1.98112C17.2928 1.9528 17.2721 1.93039 17.2557 1.91365C17.2476 1.90542 17.2412 1.89922 17.2365 1.89485C17.2317 1.89045 17.2295 1.88857 17.2298 1.8888M15.6648 1.54607L16.5461 1.54115C16.7475 1.59182 17.073 1.75784 17.2298 1.8888M15.6648 1.54607C15.6648 1.54607 15.6657 1.54583 15.6675 1.54536M15.6648 1.54607L15.6675 1.54536M17.2298 1.8888C17.2298 1.88883 17.2298 1.88884 17.2299 1.88887L18.0315 0.929805L17.2298 1.8888ZM13.658 3.20546L13.6293 3.03464L13.658 3.20546ZM13.658 3.20546L13.7172 3.55784L13.658 3.20546ZM1.41764 32.4898C1.58925 32.5155 1.8344 32.5358 2.21844 32.5444C2.88563 32.5594 3.88786 32.5383 5.53557 32.4836C9.7297 32.3444 11.6243 32.3136 15.9992 32.3136C20.374 32.3136 22.2686 32.3444 26.4628 32.4836C29.1722 32.5736 30.1001 32.5635 30.5854 32.4912C30.45 32.2697 30.2322 31.951 29.8868 31.477C28.3374 29.3514 27.4157 27.8053 26.5745 25.8872C26.0705 24.738 25.7472 23.9044 25.5357 22.7966C25.3324 21.7322 25.2382 20.4418 25.1216 18.3876C24.9599 15.5376 24.7938 14.0694 24.5036 12.7266C24.0283 10.5272 23.2417 9.00045 22.1752 7.96305C21.1181 6.93475 19.6741 6.27843 17.673 6.02337L17.673 6.02337C17.1592 5.95787 15.626 5.90844 15.1406 5.94042L15.1406 5.94043C13.0307 6.07944 11.4645 6.63855 10.306 7.5519C9.15175 8.46194 8.28732 9.81412 7.74103 11.75C7.2962 13.3264 7.07252 14.9699 6.87536 18.4597C6.72324 21.1531 6.59927 22.4172 6.33422 23.4331L1.41764 32.4898ZM1.41764 32.4898C1.56672 32.251 1.80948 31.9008 2.20311 31.3593L1.19203 30.6243L2.20311 31.3593C3.39731 29.7165 3.99512 28.77 4.72744 27.3435C5.40292 26.0278 6.08065 24.405 6.33422 23.4331L1.41764 32.4898ZM15.6675 1.54536C15.6693 1.54491 15.672 1.54427 15.6755 1.54345M15.6675 1.54536L15.6755 1.54345M15.6755 1.54345C15.6828 1.54182 15.6927 1.53975 15.7055 1.53743M15.6755 1.54345L15.7055 1.53743M15.7055 1.53743C15.7315 1.53272 15.7651 1.52772 15.8061 1.52315M15.7055 1.53743L15.8061 1.52315M15.8061 1.52315C15.8888 1.51391 15.9872 1.508 16.0917 1.50699M15.8061 1.52315L16.0917 1.50699M16.0917 1.50699C16.3205 1.50477 16.488 1.52656 16.546 1.54113L16.0917 1.50699ZM10.7409 35.9553L10.741 35.9553C11.7503 35.9348 13.5392 35.9144 14.711 35.9102L15.2835 35.9081C14.9272 36.5603 14.2874 37.0574 13.482 37.2555L13.482 37.2556C13.3517 37.2876 13.0811 37.3154 12.7483 37.307C12.4128 37.2985 12.1555 37.2568 12.0452 37.2225L12.0452 37.2225C11.3305 37.0002 10.7694 36.5434 10.432 35.962C10.5326 35.9597 10.6358 35.9574 10.7409 35.9553Z" stroke="#2A2A2A" stroke-width="2.5"/>
</svg>
