<svg width="30" height="30" viewBox="0 0 30 30" fill="none" xmlns="http://www.w3.org/2000/svg">
<path d="M3.01636 27.9813C3.58895 27.2941 4.16154 26.6234 4.75049 25.9363C7.28624 22.9915 9.82199 20.0304 12.3577 17.0857C12.4068 17.0203 12.4559 16.9548 12.5213 16.8894C9.34756 12.2759 6.19014 7.66251 3 3.01636C3.09816 3.01636 3.14724 3 3.21268 3C5.48667 3 7.77703 3 10.051 3C10.2146 3 10.2964 3.06544 10.3782 3.17996C12.3905 6.10834 14.3863 9.02037 16.3986 11.9488C16.4477 12.0142 16.4967 12.096 16.5622 12.1778C16.9712 11.7034 17.3802 11.2289 17.7728 10.7709C19.9323 8.26782 22.0918 5.76479 24.2349 3.2454C24.3821 3.06544 24.5457 3 24.7748 3C25.3637 3.01636 25.9526 3 26.607 3C23.5641 6.55005 20.5376 10.051 17.5274 13.5684C17.5765 13.6502 17.6256 13.7156 17.6746 13.781C20.8648 18.4272 24.0549 23.0897 27.2614 27.7359C27.3105 27.8013 27.3432 27.8831 27.3923 27.9649C24.9711 27.9649 22.5498 27.9649 20.1286 27.9649C20.0959 27.9158 20.0795 27.8667 20.0468 27.8177C17.8873 24.7093 15.7442 21.5846 13.6011 18.4599C13.5684 18.4108 13.5193 18.3618 13.4702 18.2963C13.3884 18.3781 13.323 18.4599 13.2739 18.5254C11.5398 20.5376 9.80563 22.5498 8.08786 24.5621C7.12264 25.6909 6.14106 26.8361 5.17584 27.9649C4.43965 27.9813 3.71983 27.9813 3.01636 27.9813ZM5.92838 4.61961C5.99382 4.71777 6.02654 4.78321 6.05926 4.83229C11.049 11.9651 16.0223 19.0979 21.012 26.2471C21.0938 26.378 21.192 26.4271 21.3556 26.4271C22.3044 26.4271 23.2533 26.4271 24.2022 26.4271C24.2676 26.4271 24.333 26.4107 24.4312 26.4107C24.3494 26.2962 24.3003 26.2144 24.2512 26.149C20.603 20.9139 16.9385 15.6788 13.2902 10.46C11.9815 8.59502 10.6727 6.71365 9.36392 4.84865C9.29848 4.76685 9.18396 4.65233 9.10216 4.65233C8.05514 4.61961 7.02448 4.61961 5.92838 4.61961Z" fill="#2A2A2A"/>
</svg>
