<svg width="35" height="30" viewBox="0 0 35 30" fill="none" xmlns="http://www.w3.org/2000/svg">
<path d="M16.4419 3C16.8968 3 17.3518 3 17.8068 3C17.9016 3.01896 17.9964 3.03791 18.0912 3.03791C19.8922 3.07583 21.7121 3.05687 23.5131 3.15165C25.6743 3.26539 27.8354 3.39809 29.9776 3.66349C31.8924 3.89097 33.1815 5.04733 33.5986 6.96196C33.9019 8.32684 33.9967 9.7486 34.1483 11.1514C34.2431 11.9665 34.2431 12.8006 34.3 13.6347C34.3 14.4878 34.3 15.3408 34.3 16.1939C34.281 16.4024 34.2431 16.592 34.2431 16.8005C34.1863 18.753 34.0725 20.6866 33.7313 22.6202C33.3521 24.7623 32.082 26.1083 29.9208 26.4116C28.461 26.639 26.9634 26.7338 25.4847 26.8097C20.84 27.0371 16.1954 27.0561 11.5318 26.9044C9.12419 26.8286 6.73552 26.7717 4.34685 26.3926C2.489 26.0893 1.23779 25.0467 0.706978 23.2079C0.536359 22.6392 0.460528 22.0515 0.384697 21.4639C0.0434586 18.772 -0.0513298 16.0801 0.0245009 13.3883C0.100332 11.341 0.19512 9.29364 0.593232 7.28422C0.972385 5.35064 2.29942 3.96679 4.1004 3.64453C4.89663 3.51183 5.69285 3.41705 6.50803 3.37913C9.27585 3.24644 12.0437 3.17061 14.8115 3.05687C15.3423 3.03791 15.8921 3.01896 16.4419 3ZM22.641 15.0186C19.6457 13.2935 16.7073 11.6064 13.7499 9.90025C13.7499 13.3314 13.7499 16.7057 13.7499 20.1369C16.7262 18.4308 19.6457 16.7436 22.641 15.0186Z" fill="#2A2A2A"/>
</svg>
