<svg width="90" height="85" viewBox="0 0 90 85" fill="none" xmlns="http://www.w3.org/2000/svg">
<path d="M57.2 52.1999V51.2999C57.2 50.6999 57.2 50.0999 57.2 49.4999C57.2 48.6999 57.2 47.8999 57.2 47.0999V42.6999C57.2 41.3999 56.8 40.3999 55.9 39.3999C55 38.5999 53.9 38.2999 52.4 38.1999H50.5C50 38.1999 49.5 38.1999 49 38.1999H46.3C45.1 38.1999 44.1 38.8999 43.1 39.7999L41.2 41.4999V39.1999C40.6 38.3999 39.9 37.4999 39.3 36.5999L35.6 31.2999C35.2 30.6999 34.9 30.1999 34.7 29.3999V28.9999L35.3 28.2999C36 27.7999 36.4 27.1999 36.9 26.2999L37.1 25.8999C37.3 25.5999 37.4 25.2999 37.5 24.9999C37.9 22.1999 37.3 20.1999 35.5 17.4999L35 16.7999C34.6 16.1999 34.2 15.6999 33.8 15.0999L33 13.9999C32.5 13.2999 31.9 12.4999 31.4 11.7999L29 8.49989C28.4 7.69989 27.9 6.8999 27.3 6.0999L26.1 4.39989C25.3 3.19989 24.5 2.19989 23.4 1.39989C21.8 0.499888 19.5 0.5999 17.8 1.5999L16.7 2.29988C15.8 2.79988 14.8 3.29989 13.9 3.89989C12.2 4.89989 10.4 5.79988 8.7 6.79988C7.8 7.29988 6.8 7.79989 5.9 8.39989L4.4 9.19991C2.3 10.2999 0.899999 11.2999 0.299998 13.0999C-1.51247e-06 15.5999 -1.43051e-06 15.6999 3.5 20.7999L5.6 23.8999C6.3 24.8999 7 25.8999 7.6 26.8999L8.2 27.7999C8.7 28.5999 9.3 29.3999 9.8 30.1999L10.9 31.8999C11.7 33.0999 12.3 33.9999 13.3 34.7999C15.1 36.1999 17.2 36.5999 20.2 36.3999C20.8 36.2999 21.2 36.1999 21.8 36.1999H22.2L23 36.9999L23.7 37.9999C24 38.3999 24.3 38.8999 24.6 39.2999L25.6 40.7999H23.7C22.8 40.7999 21.8 40.7999 20.9 40.7999H17.5C16.1 40.7999 15.1 41.0999 13.8 41.5999C11.4 42.7999 10.3 44.6999 9.3 47.6999L9 48.3999C8.8 49.0999 8.5 49.6999 8.3 50.3999L7.9 51.5999C7.4 52.9999 6.9 54.4999 6.4 55.9999C5.9 57.3999 5.4 58.6999 5 60.0999C4.6 61.2999 4.2 62.3999 3.8 63.5999C3.5 64.2999 3.3 64.9999 3.1 65.6999C2.9 66.3999 2.6 66.9999 2.4 67.6999L2.1 68.3999C1.4 70.2999 1.2 71.5999 1.3 73.1999C1.6 74.2999 2.4 75.1999 3.9 75.9999L4.9 76.5999L4.6 77.3999C4.4 77.8999 4.2 78.3999 4 78.9999L3.8 79.5999C3.4 80.7999 3 81.8999 3 83.1999C3 83.5999 3 83.5999 3.7 84.1999C4.3 84.3999 5.1 84.4999 5.8 84.2999C6.5 83.7999 6.6 83.6999 7.3 81.5999L7.5 80.8999C8 79.5999 8.4 78.3999 8.7 77.2999L9 76.1999H12.2C12.8 76.1999 13.2 76.1999 13.7 75.9999L14 75.7999C15.1 75.2999 15.8 74.1999 16.3 73.1999L18.6 68.7999C19 68.0999 19.3 67.3999 19.6 66.6999L19.9 65.5999H20.7C21.1 65.5999 21.3 65.5999 21.6 65.5999L22.1 65.3999C23.4 64.7999 24.1 63.7999 24.7 62.6999L25.4 61.2999C25.7 60.7999 25.9 60.2999 26.2 59.7999L27.4 57.3999C27.6 56.9999 27.8 56.5999 27.9 56.1999L28.3 55.0999H29C30.5 55.0999 32.1 55.0999 33.6 55.0999C34.4 55.0999 35.2 55.0999 35.9 55.0999C36.7 55.0999 37.4 55.0999 38.2 55.0999H39.3C39.7 55.0999 40 55.0999 40.4 55.0999H41.5C42.4 55.0999 42.6 55.2999 43.1 55.8999C43.1667 56.1666 43.2667 56.3666 43.4 56.4999L43.7 56.6999C44.5 57.4999 45.5 57.7999 46.8 57.7999H48.6C49.1 57.7999 49.6 57.7999 50.1 57.7999H51.8C53.4 57.7999 54.6 57.5999 55.8 56.5999C56.9 55.3999 57 53.9999 57 52.1999H57.2ZM34.6 36.5999C35.3 37.5999 35.9 38.5999 36.5 39.5999L37.3 41.0999H31.8C31.8 41.0999 31.7 41.0999 31.6 41.0999C31.3 41.0999 31 41.0999 30.7 41.0999H30.3L30 40.6999C29.2 39.7999 29.2 39.6999 28.5 38.6999L26.9 36.4999C26.5 35.8999 26 35.2999 25.9 34.3999V33.6999C25.8 33.6999 28.8 32.0999 28.8 32.0999C29.4 31.7999 29.7 31.5999 30.5 31.5999H30.9L31.7 32.5999L34.5 36.5999H34.6ZM24 30.7999L22.5 31.5999C21.2 32.3999 19.7 33.0999 18 33.0999H17.7C15.9 32.5999 15.1 31.6999 14.2 30.2999C14 29.8999 13.8 29.5999 13.5 29.2999C13 28.4999 12.5 27.7999 12 26.9999L10.1 24.0999C9.5 23.2999 9 22.3999 8.4 21.5999C7.6 20.3999 6.7 19.0999 5.9 17.8999L4.9 16.2999C4.5 15.7999 4.2 15.1999 4.1 14.3999V13.6999C4 13.6999 4.6 13.2999 4.6 13.2999C6.8 11.8999 9.2 10.5999 11.2 9.49989C12 9.09989 12.8 8.59991 13.5 8.19991C14.9 7.39991 16.4 6.59988 17.9 5.79988L19.3 4.99989C19.9 4.69989 20.2 4.49989 21 4.49989H21.4L22 5.19991L22.6 5.99989C22.8 6.29989 23.1 6.69989 23.3 6.99989L23.7 7.49989C24.3 8.39989 24.9 9.2999 25.6 10.0999L28.8 14.5999C29.3 15.3999 29.9 16.0999 30.4 16.8999L31.5 18.3999C31.6 18.5999 31.8 18.7999 32 18.9999C32.8 19.9999 33.6 21.1999 33.9 22.4999C33.9 22.5999 33.9 23.1999 33.9 23.1999C33.9 23.6999 33.9 23.6999 33.9 24.1999V24.3999C33.4 25.4999 32.6 26.1999 31.7 26.6999L31.1 27.0999C29.7 27.8999 28.2 28.6999 26.9 29.3999H26.8C26 29.8999 25.1 30.3999 24.3 30.7999H24ZM42.2 51.7999H28.9C28.1 51.9999 27.5 51.9999 26.9 52.1999L26.6 52.3999C25.5 52.8999 25 53.8999 24.4 54.9999C24.2 55.3999 24 55.6999 23.9 56.0999C23.6 56.6999 23.3 57.2999 23 57.7999C22.7 58.3999 22.4 58.9999 22.1 59.5999L21.8 60.1999C21.5 60.8999 21.1 61.5999 20.5 62.2999L20.3 62.4999H20.1C19.4 62.7999 18.7 62.7999 18.2 62.7999H18C17.6 62.9999 17.3 63.1999 17.1 63.5999L16.1 65.5999C15.8 66.1999 15.5 66.6999 15.2 67.2999C14.8 67.9999 14.5 68.6999 14.1 69.3999L12.1 73.2999H5.1V72.2999C5.1 71.7999 5.1 71.6999 5.2 71.2999L8.5 61.7999C9.2 59.7999 9.9 57.7999 10.6 55.7999C11 54.6999 11.4 53.5999 11.8 52.4999L12.8 49.5999C12.9 49.1999 13.1 48.7999 13.2 48.2999V47.8999C13.6 47.0999 13.9 46.4999 14.3 45.8999L14.5 45.6999C15.9 44.3999 17.5 44.3999 19 44.3999H20C20.6 44.3999 21.3 44.3999 21.9 44.3999H23.9C25.2 44.3999 26.4 44.3999 27.7 44.3999H32C35.1 44.3999 38.2 44.3999 41.3 44.3999H42.3V51.6999L42.2 51.7999ZM53.5 54.4999H45.9V41.7999H53.5V54.4999Z" fill="#E58D72" fill-opacity="0.5"/>
<path d="M87.1993 56.2003C88.0993 56.6003 88.5993 57.1003 88.9993 57.9003C89.0993 58.8003 89.0993 59.6003 88.6993 60.5003C87.8993 61.3003 87.3993 61.6003 86.1993 61.7003C84.9993 61.7003 84.4993 61.3003 83.6993 60.5003C83.2993 59.6003 83.2993 58.8003 83.3993 57.9003C84.1993 56.3003 85.4993 56.0003 87.2993 56.2003H87.1993Z" fill="#E58D72" fill-opacity="0.5"/>
<path d="M75.9024 50.7999C76.8024 51.1999 77.3024 51.6999 77.7024 52.4999C77.8024 53.3999 77.8024 54.1999 77.4024 55.0999C76.6024 55.8999 76.1024 56.1999 74.9024 56.2999C73.7024 56.2999 73.2024 55.8999 72.4024 55.0999C72.0024 54.1999 72.0024 53.3999 72.1024 52.4999C72.9024 50.8999 74.2024 50.5999 76.0024 50.7999H75.9024Z" fill="#E58D72" fill-opacity="0.5"/>
<path d="M87.1993 45.5001C88.0993 45.9001 88.5993 46.4001 88.9993 47.2001C89.0993 48.1001 89.0993 48.9001 88.6993 49.8001C87.8993 50.6001 87.3993 50.9001 86.1993 51.0001C84.9993 51.0001 84.4993 50.6001 83.6993 49.8001C83.2993 48.9001 83.2993 48.1001 83.3993 47.2001C84.1993 45.6001 85.4993 45.3001 87.2993 45.5001H87.1993Z" fill="#E58D72" fill-opacity="0.5"/>
<path d="M64.6993 45.5001C65.5993 45.9001 66.0993 46.4001 66.4993 47.2001C66.5993 48.1001 66.5993 48.9001 66.1993 49.8001C65.3993 50.6001 64.8993 50.9001 63.6993 51.0001C62.4993 51.0001 61.9993 50.6001 61.1993 49.8001C60.7993 48.9001 60.7993 48.1001 60.8993 47.2001C61.6993 45.6001 62.9993 45.3001 64.7993 45.5001H64.6993Z" fill="#E58D72" fill-opacity="0.5"/>
<path d="M75.9024 40.0997C76.8024 40.4997 77.3024 40.9997 77.7024 41.7997C77.8024 42.6997 77.8024 43.4997 77.4024 44.3997C76.6024 45.1997 76.1024 45.4997 74.9024 45.5997C73.7024 45.5997 73.2024 45.1997 72.4024 44.3997C72.0024 43.4997 72.0024 42.6997 72.1024 41.7997C72.9024 40.1997 74.2024 39.8997 76.0024 40.0997H75.9024Z" fill="#E58D72" fill-opacity="0.5"/>
<path d="M87.1993 34.7999C88.0993 35.1999 88.5993 35.6999 88.9993 36.4999C89.0993 37.3999 89.0993 38.1999 88.6993 39.0999C87.8993 39.8999 87.3993 40.1999 86.1993 40.2999C84.9993 40.2999 84.4993 39.8999 83.6993 39.0999C83.2993 38.1999 83.2993 37.3999 83.3993 36.4999C84.1993 34.8999 85.4993 34.5999 87.2993 34.7999H87.1993Z" fill="#E58D72" fill-opacity="0.5"/>
</svg>
