<svg width="85" height="81" viewBox="0 0 85 81" fill="none" xmlns="http://www.w3.org/2000/svg">
<path d="M22.5962 63.9997C23.6962 63.0997 24.8962 62.1997 25.9962 61.2997L26.2962 61.0997L26.6962 61.3997C27.0962 61.6997 27.5962 61.9997 27.9962 62.2997C28.9962 62.9997 30.0962 63.7997 31.3962 64.3997L31.8962 64.5997C35.7962 66.2997 40.2962 66.7997 44.3962 65.7997H44.9962C46.8962 65.0997 48.7962 64.3997 50.5962 63.2997C54.9962 60.4997 57.9962 56.2997 59.0962 51.2997L59.4962 49.5997H65.4962V49.8997C66.2295 51.3664 66.7962 52.3997 67.1962 52.9997C68.7962 54.9997 70.8962 56.1997 73.1962 56.5997C76.5962 56.7997 79.0962 56.1997 81.0962 54.5997C83.2962 52.6997 84.3962 50.5997 84.4962 48.3997C84.4962 45.2997 83.7962 43.1997 82.0962 41.3997C80.0962 39.4997 77.9962 38.4997 75.3962 38.4997C72.3962 38.4997 70.0962 39.2997 68.3962 40.8997L68.0962 41.1997C67.2962 41.9997 66.6962 42.8997 66.1962 43.9997L65.5962 45.4997H59.5962V45.0997C58.4962 39.9997 56.3962 36.2997 52.9962 33.4997L52.5962 33.0997C49.1962 30.2997 45.0962 28.8997 40.3962 28.8997H40.0962C38.9962 28.8997 37.6962 28.8997 36.3962 29.1997H35.9962C35.6962 29.3997 35.2962 29.3997 34.9962 29.4997H34.6962C33.5962 29.8997 32.4962 30.2997 31.0962 30.8997C30.8962 30.8997 30.5962 31.0997 30.2962 30.8997C29.9962 30.6997 29.7962 30.4997 29.6962 30.3997C29.1962 29.7997 28.6962 29.1997 28.2962 28.5997L27.7962 27.8997C26.9962 26.7997 26.1962 25.7997 25.3962 24.6997C24.7962 23.9997 24.2962 23.1997 23.6962 22.4997C22.8962 21.4997 22.2962 20.6997 21.6962 19.7997L21.4962 19.4997L21.7962 19.1997C23.6962 17.0997 24.6962 14.5997 24.6962 11.5997C24.6962 8.49974 23.5962 5.79974 21.7962 3.99974L21.3962 3.69974C20.7962 3.09974 20.2962 2.59974 19.6962 2.19974C15.3962 -0.900259 8.2962 -0.600259 4.6962 2.89974L3.8962 3.69974C1.7962 5.69974 0.5962 8.39974 0.5962 11.6997C0.5962 14.7997 1.6962 17.4997 3.4962 19.2997L3.8962 19.5997C4.7962 20.4997 5.6962 21.2997 7.0962 21.9997C10.1962 23.3997 13.4962 23.5997 16.2962 22.6997L17.9962 22.1997L18.5962 22.9997L19.0962 23.5997C19.2962 23.7997 19.4962 24.0997 19.6962 24.2997L22.8962 28.4997C23.3962 29.1997 23.8962 29.7997 24.3962 30.3997L25.9962 32.3997C26.2962 32.7997 26.4962 33.0997 26.5962 33.4997C26.6962 34.0997 26.5962 34.2997 26.2962 34.6997C23.9962 36.9997 22.2962 39.5997 21.4962 42.3997L21.2962 42.9997C19.9962 47.2997 20.6962 52.1997 23.2962 57.0997L23.7962 57.9997L23.3962 58.2997C22.5962 58.8997 21.7962 59.4997 20.6962 60.2997L20.1962 60.6997C18.9962 61.5997 17.7962 62.5997 16.4962 63.6997L15.7962 64.2997L15.4962 64.0997C13.7962 63.0997 11.8962 62.5997 9.9962 62.5997C8.0962 62.5997 8.6962 62.5997 7.9962 62.7997C5.4962 63.3997 3.3962 64.7997 1.8962 66.8997C0.5962 69.0997 0.1962 71.5997 0.7962 74.0997C1.5962 76.5997 3.1962 78.5997 5.3962 79.7997C7.8962 80.9997 10.5962 81.1997 13.0962 80.4997C15.6962 79.5997 17.5962 77.9997 18.6962 75.7997C19.7962 73.4997 19.9962 70.8997 19.1962 68.9997L18.5962 67.4997L18.7962 67.2997C19.1962 66.8997 19.5962 66.4997 19.9962 66.1997L20.8962 65.4997C21.3962 65.0997 21.9962 64.6997 22.4962 64.1997L22.5962 63.9997ZM70.1962 45.0997L70.3962 44.7997C70.5295 44.5997 70.6629 44.3997 70.7962 44.1997C72.4962 42.3997 75.2962 41.8997 77.3962 42.9997L77.7962 43.1997C78.8962 43.8997 79.6962 44.8997 80.1962 46.2997C80.3962 47.8997 80.1962 48.9997 79.6962 50.0997L79.4962 50.3997C78.7962 51.4997 77.7962 52.1997 76.2962 52.6997C75.7962 52.6997 75.3962 52.7997 74.8962 52.7997C73.8962 52.7997 73.0962 52.5997 72.3962 52.1997L71.9962 51.9997C70.8962 51.2997 70.0962 50.2997 69.5962 48.8997C69.3962 47.2997 69.5962 46.1997 70.0962 45.0997H70.1962ZM18.3962 16.7997L18.0962 17.0997C16.5962 18.4997 14.8962 19.1997 12.8962 19.1997C10.4962 19.1997 8.5962 18.4997 7.1962 17.1997L6.8962 16.8997C5.4962 15.3997 4.6962 13.7997 4.6962 11.8997C4.6962 9.59974 5.3962 7.79974 6.6962 6.39974L6.9962 6.09974C8.4962 4.69974 10.1962 3.99974 12.1962 3.99974C14.5962 3.99974 16.4962 4.69974 17.8962 5.99974L18.1962 6.29974C19.5962 7.79974 20.3962 9.39974 20.3962 11.2997C20.3962 13.5997 19.6962 15.3997 18.3962 16.7997ZM28.7962 37.4997C33.9962 32.2997 42.3962 31.2997 48.5962 35.1997C51.9962 37.4997 54.3962 40.8997 55.1962 44.6997C55.8962 48.6997 54.9962 52.6997 52.6962 55.9997C50.2962 59.1997 46.5962 61.4997 42.5962 62.0997C41.7962 62.0997 41.0962 62.1997 40.2962 62.1997C36.6962 62.1997 33.3962 61.1997 30.6962 59.1997C27.3962 56.6997 25.2962 53.1997 24.8962 49.4997C24.5962 44.5997 25.8962 40.6997 28.7962 37.4997ZM14.8962 74.0997L14.6962 74.3997C13.9962 75.4997 12.9962 76.1997 11.4962 76.6997C10.9962 76.6997 10.5962 76.7997 10.0962 76.7997C9.0962 76.7997 8.2962 76.5997 7.5962 76.1997L7.1962 75.9997C6.0962 75.2997 5.2962 74.2997 4.7962 72.8997C4.5962 71.2997 4.7962 70.1997 5.2962 69.0997L5.4962 68.7997C5.62953 68.5997 5.76287 68.3997 5.8962 68.1997C7.5962 66.3997 10.3962 65.8997 12.4962 66.9997L12.8962 67.1997C13.9962 67.8997 14.7962 68.8997 15.2962 70.2997C15.4962 71.8997 15.2962 72.9997 14.7962 74.0997H14.8962Z" fill="#E58D72" fill-opacity="0.5"/>
</svg>
