<svg width="80" height="77" viewBox="0 0 80 77" fill="none" xmlns="http://www.w3.org/2000/svg">
<path d="M64.5984 37.3002L64.1984 36.9002C63.6984 36.4002 63.1984 35.9002 62.7984 35.4002C62.3984 35.0002 61.8984 34.5002 61.4984 34.1002C60.5984 33.2002 59.7984 32.4002 58.8984 31.5002L55.7984 28.4002C53.8984 26.5002 51.8984 24.5002 49.9984 22.6002C48.2984 20.9002 46.6984 19.3002 44.9984 17.6002C43.0984 15.7002 41.0984 13.7002 39.1984 11.8002L36.0984 8.70017C35.1984 7.80017 34.3984 6.90017 33.4984 6.10017L32.3984 5.00017C31.8984 4.50017 31.3984 4.00017 30.8984 3.50017L30.3984 3.00017C29.6984 2.30017 29.0984 1.70017 28.2984 1.20017C27.5984 0.900172 26.9984 0.900172 26.1984 1.30017C25.5984 1.80017 25.3984 2.30017 25.1984 3.10017C25.2984 4.10017 25.5984 4.50017 26.3984 5.20017C26.7984 5.60017 27.1984 6.00017 27.5984 6.40017L28.9984 8.10017L7.99841 29.2002C6.99841 30.2002 5.8984 31.4002 4.7984 32.5002L4.49841 32.8002C2.19841 35.3002 0.898438 38.7002 0.898438 42.4002C0.998438 47.5002 3.49839 51.1002 7.59839 55.1002C8.09839 55.6002 8.59839 56.1002 9.09839 56.6002C9.99839 57.5002 10.7984 58.3002 11.6984 59.2002C12.6984 60.2002 13.6984 61.2002 14.6984 62.2002L20.8984 68.4002C22.2984 69.8002 23.6984 71.3002 25.4984 72.2002C29.1984 74.0002 33.2984 74.3002 36.9984 73.2002L37.5984 73.0002C39.5984 72.2002 41.3984 70.9002 43.4984 68.8002L44.1984 68.1002C44.7984 67.5002 45.3984 66.9002 46.0984 66.2002C46.7984 65.5002 47.3984 64.9002 48.0984 64.2002C49.1984 63.1002 50.2984 62.0002 51.3984 60.9002C52.6984 59.6002 53.9984 58.3002 55.1984 57.0002C56.5984 55.6002 57.9984 54.2002 59.2984 52.8002L63.2984 48.8002C65.3984 46.7002 66.9984 45.1002 66.9984 42.3002C66.9984 40.4002 66.2984 38.9002 64.5984 37.2002V37.3002ZM59.1984 46.9002L41.9984 64.3002C39.1984 67.1002 36.4984 69.8002 31.9984 69.8002C29.2984 69.6002 26.8984 68.4002 24.5984 66.1002L24.0984 65.6002C23.4984 65.0002 22.9984 64.5002 22.3984 63.9002L20.8984 62.4002C20.0984 61.6002 19.1984 60.7002 18.3984 59.9002C17.3984 58.9002 16.4984 58.0002 15.4984 57.0002C14.5984 56.1002 13.5984 55.1002 12.6984 54.2002L9.59839 51.0002C8.09839 49.5002 6.79839 48.1002 6.09839 45.9002L5.69843 44.6002H59.8984V45.5002C59.9984 46.2002 59.7984 46.5002 59.2984 46.9002H59.1984ZM5.39844 40.3002L5.99841 38.9002C7.29841 36.1002 7.29841 36.0002 9.49841 33.8002L10.1984 33.1002C10.7984 32.5002 11.4984 31.8002 12.0984 31.2002L14.0984 29.2002C15.1984 28.1002 16.2984 27.0002 17.3984 25.8002C18.7984 24.4002 20.2984 22.9002 21.6984 21.5002L30.7984 12.4002C31.1984 12.0002 31.5984 11.6002 32.1984 11.6002C32.7984 11.6002 33.2984 12.0002 33.6984 12.5002L57.1984 36.2002C57.9984 37.0002 58.7984 37.9002 59.4984 38.7002L60.8984 40.3002H5.2984H5.39844Z" fill="#1480B8" fill-opacity="0.5"/>
<path d="M63.8 46.9996C60.3 51.1996 58.1 54.9996 56.9 58.7996V59.1996C56.3 60.7996 56 62.2996 56 63.9996V64.5996C56 65.4996 56 66.3996 56.2 67.2996C57 70.1996 58.8 72.7996 61.2 74.3996C64.1 76.0996 67.3 76.4996 70.7 75.6996C73.5 74.8996 76 72.9996 77.6 70.3996C79.3 67.1996 79.5 63.5996 78.3 59.2996C76.5 53.5996 72.7 46.3996 68.5 44.1996C68.2 44.1996 67.9 44.0996 67.6 44.0996C66.8 44.0996 66 44.4996 65.3 45.2996L65 45.5996C64.7 45.9996 64.4 46.2996 64.1 46.6996L63.8 47.0996V46.9996ZM65.1 52.3996L65.4 51.9996C65.8 51.4996 66.1 50.9996 66.5 50.4996L66.8 50.0996H68.2L68.5 50.4996C68.7 50.7996 68.9 51.0996 69.1 51.3996C72 55.2996 75 60.0996 74.6 65.2996C74.3 67.2996 73.3 68.8996 71.6 70.2996C70.3 71.1996 68.9 71.5996 67.3 71.5996C65.7 71.5996 66.5 71.5996 66 71.5996H65.9C63.8 70.9996 62.2 69.7996 61.1 67.8996C60.1 65.5996 60.3 62.8996 60.8 61.0996L61 60.5996C61.9 57.8996 63.3 55.1996 65.2 52.3996H65.1Z" fill="#1480B8" fill-opacity="0.5"/>
</svg>
