<svg width="78" height="75" viewBox="0 0 78 75" fill="none" xmlns="http://www.w3.org/2000/svg">
<path d="M77.6984 59.8996C77.6984 58.4996 77.6984 57.0996 77.6984 55.6996V52.2996V50.7996C77.6984 47.6996 77.6984 44.5996 77.6984 41.5996C77.6984 38.9996 77.6984 36.2996 77.6984 33.6996C77.6984 30.5996 77.6984 27.4996 77.6984 24.3996V22.8996C77.6984 21.7996 77.6984 20.5996 77.6984 19.4996C77.6984 18.0996 77.6984 16.6996 77.6984 15.2996C77.6984 14.5996 77.6984 13.8996 77.6984 13.1996C77.6984 12.4996 77.6984 11.8996 77.6984 11.1996V10.4996C77.6984 7.39961 76.8984 5.09961 74.9984 3.19961C73.0984 1.49961 70.7984 0.599609 67.9984 0.599609C67.5984 0.599609 67.2984 0.599609 66.8984 0.599609C66.1984 0.599609 65.4984 0.599609 64.8984 0.599609C64.1984 0.599609 63.3984 0.599609 62.6984 0.599609C61.1984 0.599609 59.7985 0.599609 58.2985 0.599609C57.0985 0.599609 55.8984 0.599609 54.6984 0.599609H53.0984C49.8984 0.599609 46.5984 0.599609 43.3984 0.599609C40.5984 0.599609 37.7984 0.599609 35.0984 0.599609C31.8984 0.599609 28.5984 0.599609 25.3984 0.599609H20.2985C18.7985 0.599609 17.3984 0.599609 15.8984 0.599609H15.6984C14.9984 0.599609 14.2984 0.599609 13.6984 0.599609C12.9984 0.599609 12.2984 0.599609 11.5984 0.599609H10.7985C10.7985 0.599609 10.7984 0.599609 10.6984 0.599609C7.49836 0.599609 5.09839 1.39961 3.09839 3.19961C1.29839 4.99961 0.398438 7.19961 0.398438 9.89961C0.398438 10.1996 0.398438 10.5996 0.398438 10.8996C0.398438 11.4996 0.398438 12.1996 0.398438 12.7996C0.398438 13.4996 0.398438 14.1996 0.398438 14.8996C0.398438 16.2996 0.398438 17.6996 0.398438 19.0996V22.4996V23.9996C0.398438 27.0996 0.398438 30.1996 0.398438 33.1996C0.398438 35.7996 0.398438 38.4996 0.398438 41.0996C0.398438 44.1996 0.398438 47.2996 0.398438 50.3996V51.8996C0.398438 52.9996 0.398438 54.1996 0.398438 55.2996C0.398438 56.6996 0.398438 58.0996 0.398438 59.4996C0.398438 60.1996 0.398438 60.8996 0.398438 61.5996C0.398438 62.2996 0.398438 62.8996 0.398438 63.5996V64.2996C0.398438 67.3996 1.19839 69.6996 3.09839 71.5996C5.09839 73.2996 7.39839 74.1996 10.0984 74.1996C10.4984 74.1996 10.7984 74.1996 11.1984 74.1996C11.8984 74.1996 12.5985 74.1996 13.2985 74.1996C13.9985 74.1996 14.7984 74.1996 15.4984 74.1996C16.9984 74.1996 18.3984 74.1996 19.8984 74.1996C24.6984 74.1996 29.4984 74.1996 34.1984 74.1996C37.1984 74.1996 40.1984 74.1996 43.0984 74.1996H68.9984C71.0984 74.1996 73.2984 73.2996 75.0984 71.5996C76.8984 69.7996 77.7985 67.5996 77.7985 64.8996C77.7985 64.5996 77.7985 64.1996 77.7985 63.8996C77.7985 63.2996 77.7985 62.5996 77.7985 61.9996C77.7985 61.2996 77.7985 60.5996 77.7985 59.8996H77.6984ZM74.1984 13.5996C74.1984 14.2996 74.1984 14.9996 74.1984 15.5996C74.1984 16.8996 74.1984 18.2996 74.1984 19.5996C74.1984 21.1996 74.1984 22.6996 74.1984 24.2996C74.1984 27.0996 74.1984 29.8996 74.1984 32.6996C74.1984 35.3996 74.1984 38.1996 74.1984 40.8996V64.5996C74.1984 66.2996 73.6984 67.6996 72.5984 68.8996C71.1984 70.1996 69.4984 70.7996 67.1984 70.7996H66.4984C65.6984 70.7996 64.8984 70.7996 64.1984 70.7996C63.4984 70.7996 62.7984 70.7996 61.9984 70.7996C60.5984 70.7996 59.1985 70.7996 57.7985 70.7996C56.0985 70.7996 54.4985 70.7996 52.7985 70.7996C49.7985 70.7996 46.8984 70.7996 43.8984 70.7996C40.9984 70.7996 38.0985 70.7996 35.2985 70.7996C32.0985 70.7996 28.9985 70.7996 25.7985 70.7996H20.7985C19.3985 70.7996 17.8984 70.7996 16.4984 70.7996H16.1984C15.5984 70.7996 14.8985 70.7996 14.2985 70.7996C13.5985 70.7996 12.8985 70.7996 12.2985 70.7996H11.5984C9.09839 70.7996 7.39836 70.4996 5.69836 68.9996C4.09836 67.3996 3.79846 65.5996 3.79846 63.8996V63.1996C3.79846 62.4996 3.79846 61.6996 3.79846 60.9996C3.79846 60.2996 3.79846 59.5996 3.79846 58.9996C3.79846 57.6996 3.79846 56.2996 3.79846 54.9996C3.79846 53.3996 3.79846 51.8996 3.79846 50.2996C3.79846 47.4996 3.79846 44.6996 3.79846 41.8996C3.79846 39.1996 3.79846 36.3996 3.79846 33.6996V9.99961C3.79846 8.49961 4.19841 7.39961 4.99841 6.09961C6.39841 4.49961 8.19846 3.69961 10.7985 3.69961H11.4984C12.2984 3.69961 13.0985 3.69961 13.7985 3.69961C14.4985 3.69961 15.1984 3.69961 15.9984 3.69961C17.3984 3.69961 18.7984 3.69961 20.1984 3.69961C21.8984 3.69961 23.4984 3.69961 25.1984 3.69961C28.1984 3.69961 31.0984 3.69961 34.0984 3.69961C36.9984 3.69961 39.8984 3.69961 42.6984 3.69961C45.8984 3.69961 48.9984 3.69961 52.1984 3.69961H57.1984C58.5984 3.69961 60.0984 3.69961 61.4984 3.69961H61.7985C62.3985 3.69961 63.0984 3.69961 63.6984 3.69961C64.3984 3.69961 65.0984 3.69961 65.6984 3.69961H66.3984C66.3984 3.69961 66.3984 3.69961 66.4984 3.69961C68.8984 3.69961 70.5984 3.99961 72.1984 5.49961C73.7984 7.09961 74.0984 8.89961 74.0984 10.5996V11.2996C74.0984 11.9996 74.0984 12.7996 74.0984 13.4996L74.1984 13.5996Z" fill="#1480B8" fill-opacity="0.5"/>
<path d="M28.9016 60.7998H29.3016C30.1016 60.7998 30.6016 60.7998 31.3016 60.3998C31.7016 60.0998 31.8016 59.9998 31.9016 59.5998C32.0016 58.9998 31.9016 58.5998 31.5016 57.9998C30.7016 57.5998 29.9016 57.4998 28.8016 57.4998H28.2015C27.5015 57.4998 26.9015 57.4998 26.2015 57.4998H24.8016C23.6016 57.4998 22.4016 57.4998 21.1016 57.4998H20.1016L20.6016 57.0998C21.9016 55.8998 23.1016 54.7998 24.4016 53.5998L26.3016 51.7998C26.9016 51.1998 27.6015 50.5998 28.2015 49.9998L28.9016 49.2998C29.3016 48.9998 29.6016 48.6998 29.9016 48.2998L30.2015 47.9998C30.7015 47.5998 31.1016 47.1998 31.4016 46.6998C31.7016 46.0998 31.8016 45.7998 31.6016 45.0998C31.2016 44.5998 30.8016 44.3998 30.1016 44.2998C29.3016 44.3998 28.8015 44.6998 28.2015 45.1998L27.9016 45.4998C27.6016 45.7998 27.2016 46.0998 26.9016 46.4998C26.7016 46.6998 26.4015 46.9998 26.2015 47.1998C25.6015 47.7998 24.9016 48.3998 24.3016 48.9998C23.6016 49.5998 23.0016 50.1998 22.3016 50.7998C21.0016 51.9998 19.7016 53.1998 18.5016 54.3998L17.7015 55.1998V46.5998C17.5015 46.2998 17.5016 45.9998 17.5016 45.6998C17.4016 45.1998 17.2016 44.9998 16.8016 44.5998C16.0016 44.2998 15.5016 44.1998 14.8016 44.5998C14.3016 45.1998 14.1016 45.5998 14.1016 46.3998V46.7998C14.1016 47.1998 14.1016 47.6998 14.1016 48.0998V48.9998C14.1016 49.6998 14.1016 50.2998 14.1016 50.9998C14.1016 51.7998 14.1016 52.6998 14.1016 53.4998C14.1016 54.1998 14.1016 54.7998 14.1016 55.4998V56.3998C14.1016 56.8998 14.1016 57.2998 14.1016 57.7998V58.1998C14.1016 58.9998 14.1016 59.5998 14.6016 60.1998C15.1016 60.5998 15.6016 60.6998 16.4016 60.6998H16.8016C17.3016 60.6998 17.7015 60.6998 18.2015 60.6998H19.2015C19.9015 60.6998 20.6016 60.6998 21.3016 60.6998C22.2016 60.6998 23.1016 60.6998 24.0016 60.6998C24.7016 60.6998 25.4016 60.6998 26.1016 60.6998H27.1016C27.6016 60.6998 28.1016 60.6998 28.6016 60.6998L28.9016 60.7998Z" fill="#1480B8" fill-opacity="0.5"/>
<path d="M60.2016 27.8998C60.2016 28.3998 60.2017 28.8998 60.4017 29.2998C60.7017 29.5998 60.9017 29.7998 61.4017 30.0998C62.0017 30.1998 62.3017 30.0998 62.9017 29.8998C63.4017 29.2998 63.5016 28.8998 63.6016 28.0998V27.6998C63.6016 27.2998 63.6016 26.7998 63.6016 26.3998V25.4998C63.6016 24.7998 63.6016 24.1998 63.6016 23.4998C63.6016 22.6998 63.6016 21.7998 63.6016 20.9998C63.6016 20.2998 63.6016 19.6998 63.6016 18.9998V18.0998C63.6016 17.5998 63.6016 17.1998 63.6016 16.6998V16.2998C63.6016 15.4998 63.6016 14.8998 63.1016 14.2998C62.6016 13.8998 62.2017 13.7998 61.4017 13.7998H61.0017C60.5017 13.7998 60.1016 13.7998 59.7016 13.7998H58.7016C58.0016 13.7998 57.4016 13.7998 56.7016 13.7998C55.8016 13.7998 55.0016 13.7998 54.1016 13.7998C53.4016 13.7998 52.7016 13.7998 52.1016 13.7998H51.1016C50.6016 13.7998 50.2016 13.7998 49.7016 13.7998H49.3017C48.5017 13.7998 48.1017 13.7998 47.4017 14.1998C47.1017 14.4998 46.9017 14.5998 46.8017 14.9998C46.7017 15.5998 46.8016 15.9998 47.2016 16.5998C48.0016 16.9998 48.7016 17.0998 49.7016 17.0998H50.3017C50.9017 17.0998 51.6016 17.0998 52.2016 17.0998H53.5017C54.7017 17.0998 55.8017 17.0998 57.0017 17.0998H58.0017L57.6016 17.4998C56.4016 18.6998 55.2017 19.7998 54.0017 20.9998L52.1016 22.7998C51.5016 23.3998 50.9017 23.9998 50.3017 24.5998L49.6016 25.2998C49.3016 25.5998 48.9016 25.8998 48.6016 26.2998L48.3017 26.5998C47.8017 26.9998 47.4016 27.3998 47.2016 27.8998C46.9016 28.4998 46.8017 28.7998 47.0017 29.4998C47.4017 29.9998 47.8017 30.1998 48.4017 30.2998C49.2017 30.1998 49.6016 29.8998 50.2016 29.3998L50.5017 29.0998C50.8017 28.7998 51.2017 28.4998 51.5017 28.0998C51.7017 27.8998 52.0016 27.5998 52.2016 27.3998C52.8016 26.7998 53.4017 26.1998 54.0017 25.5998C54.6017 24.9998 55.2017 24.3998 55.9017 23.7998C57.1017 22.5998 58.3017 21.3998 59.5017 20.1998L60.3017 19.3998V27.9998L60.2016 27.8998Z" fill="#1480B8" fill-opacity="0.5"/>
</svg>
