<svg width="90" height="85" viewBox="0 0 90 85" fill="none" xmlns="http://www.w3.org/2000/svg">
<path d="M57.2 52.2V51.3C57.2 50.7 57.2 50.1 57.2 49.5C57.2 48.7 57.2 47.9 57.2 47.1V42.7C57.2 41.4 56.8 40.4 55.9 39.4C55 38.6 53.9 38.3 52.4 38.2H50.5C50 38.2 49.5 38.2 49 38.2H46.3C45.1 38.2 44.1 38.9 43.1 39.8L41.2 41.5V39.2C40.6 38.4 39.9 37.5 39.3 36.6L35.6 31.3C35.2 30.7 34.9 30.2 34.7 29.4V29L35.3 28.3C36 27.8 36.4 27.2 36.9 26.3L37.1 25.9C37.3 25.6 37.4 25.3 37.5 25C37.9 22.2 37.3 20.2 35.5 17.5L35 16.8C34.6 16.2 34.2 15.7 33.8 15.1L33 14C32.5 13.3 31.9 12.5 31.4 11.8L29 8.49999C28.4 7.69999 27.9 6.89999 27.3 6.09999L26.1 4.39998C25.3 3.19998 24.5 2.19998 23.4 1.39998C21.8 0.49998 19.5 0.599992 17.8 1.59999L16.7 2.29997C15.8 2.79997 14.8 3.29998 13.9 3.89998C12.2 4.89998 10.4 5.79997 8.7 6.79997C7.8 7.29997 6.8 7.79998 5.9 8.39998L4.4 9.2C2.3 10.3 0.899999 11.3 0.299998 13.1C-1.51247e-06 15.6 -1.43051e-06 15.7 3.5 20.8L5.6 23.9C6.3 24.9 7 25.9 7.6 26.9L8.2 27.8C8.7 28.6 9.3 29.4 9.8 30.2L10.9 31.9C11.7 33.1 12.3 34 13.3 34.8C15.1 36.2 17.2 36.6 20.2 36.4C20.8 36.3 21.2 36.2 21.8 36.2H22.2L23 37L23.7 38C24 38.4 24.3 38.9 24.6 39.3L25.6 40.8H23.7C22.8 40.8 21.8 40.8 20.9 40.8H17.5C16.1 40.8 15.1 41.1 13.8 41.6C11.4 42.8 10.3 44.7 9.3 47.7L9 48.4C8.8 49.1 8.5 49.7 8.3 50.4L7.9 51.6C7.4 53 6.9 54.5 6.4 56C5.9 57.4 5.4 58.7 5 60.1C4.6 61.3 4.2 62.4 3.8 63.6C3.5 64.3 3.3 65 3.1 65.7C2.9 66.4 2.6 67 2.4 67.7L2.1 68.4C1.4 70.3 1.2 71.6 1.3 73.2C1.6 74.3 2.4 75.2 3.9 76L4.9 76.6L4.6 77.4C4.4 77.9 4.2 78.4 4 79L3.8 79.6C3.4 80.8 3 81.9 3 83.2C3 83.6 3 83.6 3.7 84.2C4.3 84.4 5.1 84.5 5.8 84.3C6.5 83.8 6.6 83.7 7.3 81.6L7.5 80.9C8 79.6 8.4 78.4 8.7 77.3L9 76.2H12.2C12.8 76.2 13.2 76.2 13.7 76L14 75.8C15.1 75.3 15.8 74.2 16.3 73.2L18.6 68.8C19 68.1 19.3 67.4 19.6 66.7L19.9 65.6H20.7C21.1 65.6 21.3 65.6 21.6 65.6L22.1 65.4C23.4 64.8 24.1 63.8 24.7 62.7L25.4 61.3C25.7 60.8 25.9 60.3 26.2 59.8L27.4 57.4C27.6 57 27.8 56.6 27.9 56.2L28.3 55.1H29C30.5 55.1 32.1 55.1 33.6 55.1C34.4 55.1 35.2 55.1 35.9 55.1C36.7 55.1 37.4 55.1 38.2 55.1H39.3C39.7 55.1 40 55.1 40.4 55.1H41.5C42.4 55.1 42.6 55.3 43.1 55.9C43.1667 56.1666 43.2667 56.3667 43.4 56.5L43.7 56.7C44.5 57.5 45.5 57.8 46.8 57.8H48.6C49.1 57.8 49.6 57.8 50.1 57.8H51.8C53.4 57.8 54.6 57.6 55.8 56.6C56.9 55.4 57 54 57 52.2H57.2ZM34.6 36.6C35.3 37.6 35.9 38.6 36.5 39.6L37.3 41.1H31.8C31.8 41.1 31.7 41.1 31.6 41.1C31.3 41.1 31 41.1 30.7 41.1H30.3L30 40.7C29.2 39.8 29.2 39.7 28.5 38.7L26.9 36.5C26.5 35.9 26 35.3 25.9 34.4V33.7C25.8 33.7 28.8 32.1 28.8 32.1C29.4 31.8 29.7 31.6 30.5 31.6H30.9L31.7 32.6L34.5 36.6H34.6ZM24 30.8L22.5 31.6C21.2 32.4 19.7 33.1 18 33.1H17.7C15.9 32.6 15.1 31.7 14.2 30.3C14 29.9 13.8 29.6 13.5 29.3C13 28.5 12.5 27.8 12 27L10.1 24.1C9.5 23.3 9 22.4 8.4 21.6C7.6 20.4 6.7 19.1 5.9 17.9L4.9 16.3C4.5 15.8 4.2 15.2 4.1 14.4V13.7C4 13.7 4.6 13.3 4.6 13.3C6.8 11.9 9.2 10.6 11.2 9.49999C12 9.09999 12.8 8.6 13.5 8.2C14.9 7.4 16.4 6.59997 17.9 5.79997L19.3 4.99999C19.9 4.69999 20.2 4.49999 21 4.49999H21.4L22 5.2L22.6 5.99999C22.8 6.29999 23.1 6.69999 23.3 6.99999L23.7 7.49999C24.3 8.39999 24.9 9.29999 25.6 10.1L28.8 14.6C29.3 15.4 29.9 16.1 30.4 16.9L31.5 18.4C31.6 18.6 31.8 18.8 32 19C32.8 20 33.6 21.2 33.9 22.5C33.9 22.6 33.9 23.2 33.9 23.2C33.9 23.7 33.9 23.7 33.9 24.2V24.4C33.4 25.5 32.6 26.2 31.7 26.7L31.1 27.1C29.7 27.9 28.2 28.7 26.9 29.4H26.8C26 29.9 25.1 30.4 24.3 30.8H24ZM42.2 51.8H28.9C28.1 52 27.5 52 26.9 52.2L26.6 52.4C25.5 52.9 25 53.9 24.4 55C24.2 55.4 24 55.7 23.9 56.1C23.6 56.7 23.3 57.3 23 57.8C22.7 58.4 22.4 59 22.1 59.6L21.8 60.2C21.5 60.9 21.1 61.6 20.5 62.3L20.3 62.5H20.1C19.4 62.8 18.7 62.8 18.2 62.8H18C17.6 63 17.3 63.2 17.1 63.6L16.1 65.6C15.8 66.2 15.5 66.7 15.2 67.3C14.8 68 14.5 68.7 14.1 69.4L12.1 73.3H5.1V72.3C5.1 71.8 5.1 71.7 5.2 71.3L8.5 61.8C9.2 59.8 9.9 57.8 10.6 55.8C11 54.7 11.4 53.6 11.8 52.5L12.8 49.6C12.9 49.2 13.1 48.8 13.2 48.3V47.9C13.6 47.1 13.9 46.5 14.3 45.9L14.5 45.7C15.9 44.4 17.5 44.4 19 44.4H20C20.6 44.4 21.3 44.4 21.9 44.4H23.9C25.2 44.4 26.4 44.4 27.7 44.4H32C35.1 44.4 38.2 44.4 41.3 44.4H42.3V51.7L42.2 51.8ZM53.5 54.5H45.9V41.8H53.5V54.5Z" fill="#E41F30" fill-opacity="0.5"/>
<path d="M87.1993 56.2003C88.0993 56.6003 88.5993 57.1003 88.9993 57.9003C89.0993 58.8003 89.0993 59.6003 88.6993 60.5003C87.8993 61.3003 87.3993 61.6003 86.1993 61.7003C84.9993 61.7003 84.4993 61.3003 83.6993 60.5003C83.2993 59.6003 83.2993 58.8003 83.3993 57.9003C84.1993 56.3003 85.4993 56.0003 87.2993 56.2003H87.1993Z" fill="#E41F30" fill-opacity="0.5"/>
<path d="M75.9024 50.7999C76.8024 51.1999 77.3024 51.6999 77.7024 52.4999C77.8024 53.3999 77.8024 54.1999 77.4024 55.0999C76.6024 55.8999 76.1024 56.1999 74.9024 56.2999C73.7024 56.2999 73.2024 55.8999 72.4024 55.0999C72.0024 54.1999 72.0024 53.3999 72.1024 52.4999C72.9024 50.8999 74.2024 50.5999 76.0024 50.7999H75.9024Z" fill="#E41F30" fill-opacity="0.5"/>
<path d="M87.1993 45.5001C88.0993 45.9001 88.5993 46.4001 88.9993 47.2001C89.0993 48.1001 89.0993 48.9001 88.6993 49.8001C87.8993 50.6001 87.3993 50.9001 86.1993 51.0001C84.9993 51.0001 84.4993 50.6001 83.6993 49.8001C83.2993 48.9001 83.2993 48.1001 83.3993 47.2001C84.1993 45.6001 85.4993 45.3001 87.2993 45.5001H87.1993Z" fill="#E41F30" fill-opacity="0.5"/>
<path d="M64.6993 45.5001C65.5993 45.9001 66.0993 46.4001 66.4993 47.2001C66.5993 48.1001 66.5993 48.9001 66.1993 49.8001C65.3993 50.6001 64.8993 50.9001 63.6993 51.0001C62.4993 51.0001 61.9993 50.6001 61.1993 49.8001C60.7993 48.9001 60.7993 48.1001 60.8993 47.2001C61.6993 45.6001 62.9993 45.3001 64.7993 45.5001H64.6993Z" fill="#E41F30" fill-opacity="0.5"/>
<path d="M75.9024 40.0997C76.8024 40.4997 77.3024 40.9997 77.7024 41.7997C77.8024 42.6997 77.8024 43.4997 77.4024 44.3997C76.6024 45.1997 76.1024 45.4997 74.9024 45.5997C73.7024 45.5997 73.2024 45.1997 72.4024 44.3997C72.0024 43.4997 72.0024 42.6997 72.1024 41.7997C72.9024 40.1997 74.2024 39.8997 76.0024 40.0997H75.9024Z" fill="#E41F30" fill-opacity="0.5"/>
<path d="M87.1993 34.7999C88.0993 35.1999 88.5993 35.6999 88.9993 36.4999C89.0993 37.3999 89.0993 38.1999 88.6993 39.0999C87.8993 39.8999 87.3993 40.1999 86.1993 40.2999C84.9993 40.2999 84.4993 39.8999 83.6993 39.0999C83.2993 38.1999 83.2993 37.3999 83.3993 36.4999C84.1993 34.8999 85.4993 34.5999 87.2993 34.7999H87.1993Z" fill="#E41F30" fill-opacity="0.5"/>
</svg>
